<svg xmlns="http://www.w3.org/2000/svg" id="Layer_3" data-name="Layer 3" viewBox="42.62 168.96 709 517.51">
  <defs>
    <style>
      .cls-1 {
        fill: #f3f6ff;
      }
    </style>
  </defs>
  <polygon class="cls-1" points="751.62 311.26 751.62 321.11 750.64 321.11 750.64 320.12 747.19 319.14 744.73 317.66 735.86 312.73 733.9 311.75 729.46 309.78 723.56 306.83 719.12 305.35 719.12 304.36 716.66 304.36 716.66 303.38 711.74 301.9 707.31 299.93 701.89 297.96 697.46 295.99 692.54 294.52 689.09 293.53 688.6 292.55 686.14 292.55 682.2 291.07 680.23 290.09 679.24 290.58 679.24 289.59 676.78 289.59 673.33 288.12 672.35 288.61 672.35 287.62 669.89 287.62 666.93 286.64 665.46 286.64 665.46 285.66 663.98 286.15 662.01 285.16 661.03 285.66 661.03 284.67 659.55 285.16 656.59 284.18 650.69 283.19 647.24 282.21 645.27 282.21 637.88 280.73 634.44 280.24 631.98 279.75 630.01 279.75 629.51 278.76 628.04 279.25 623.61 278.76 622.13 278.76 621.64 277.78 618.19 278.27 614.25 277.78 611.79 277.78 611.79 276.79 608.34 277.28 604.9 277.28 602.43 276.79 601.45 277.28 601.45 276.3 598 276.79 594.56 276.79 592.1 276.3 589.63 276.79 575.35 276.79 572.89 277.28 569.45 277.28 568.46 277.78 568.46 276.79 566.49 277.78 561.57 277.78 559.11 278.27 555.66 278.27 552.21 279.25 550.24 279.25 546.8 279.75 544.34 280.24 540.4 280.73 538.92 280.73 534 281.72 531.04 282.7 527.1 283.19 523.16 284.18 519.72 284.67 516.76 285.66 510.86 287.13 508.39 288.12 506.92 288.12 502.98 289.59 501.99 289.59 493.13 292.55 489.19 294.03 478.85 297.47 477.37 298.46 475.41 298.95 472.45 299.93 470.48 300.92 468.02 302.4 466.05 302.89 464.08 303.87 459.16 305.84 456.7 307.32 454.73 308.3 451.28 309.78 447.34 311.75 444.88 313.23 442.91 314.21 440.45 315.2 437 317.66 435.03 318.15 431.59 320.61 429.12 321.6 427.65 323.07 424.2 324.55 422.23 326.52 418.78 328 415.83 330.46 413.37 331.44 408.44 335.38 405.98 336.37 401.55 340.31 398.6 341.78 393.18 346.71 389.73 349.17 387.27 350.65 382.35 355.08 375.95 360.99 372.99 363.45 370.53 364.93 354.78 380.68 350.84 384.13 348.87 387.08 340.99 394.96 340.01 396.93 339.02 396.93 338.04 399.39 337.05 399.39 336.07 401.36 334.1 403.33 331.14 407.27 328.68 410.22 325.73 414.16 323.76 416.62 322.77 418.59 320.31 421.05 318.83 423.52 314.9 428.93 308.99 437.79 305.05 444.2 302.09 449.12 296.19 459.46 290.28 470.78 287.32 476.69 283.88 484.57 280.92 490.97 274.52 507.22 269.6 522.48 265.66 536.76 262.71 549.56 259.26 571.22 258.77 578.61 258.27 582.06 257.29 596.33 256.8 599.29 256.3 612.09 256.3 640.65 257.29 660.34 258.27 672.65 259.26 680.53 259.88 686.47 42.62 686.47 42.62 396.93 46.07 392.5 50.5 387.08 52.47 384.13 56.9 379.2 60.34 375.26 66.25 368.37 70.68 363.94 71.67 361.97 82.5 351.14 84.96 349.17 86.44 346.71 90.38 343.26 94.81 339.32 98.26 335.38 100.23 333.41 102.69 331.94 106.13 328.49 110.07 325.04 113.03 323.07 120.91 315.69 125.83 311.75 130.26 308.8 136.17 303.38 140.6 300.92 145.52 296.49 149.46 294.52 153.89 290.58 156.36 289.59 161.28 285.66 163.74 284.67 167.19 281.72 169.65 280.73 172.6 278.27 175.07 277.28 179 274.33 181.47 273.35 183.93 271.38 186.39 270.39 188.85 268.42 190.82 267.93 193.28 265.96 195.74 264.98 197.71 263.5 200.18 262.51 202.14 261.04 204.61 260.05 206.58 258.58 209.04 257.59 211.5 256.11 213.47 255.13 215.93 254.14 219.38 252.17 221.35 251.19 224.79 249.71 232.67 245.77 235.63 244.79 236.61 243.8 239.56 242.82 256.8 235.43 261.23 233.96 262.71 232.97 265.17 232.48 267.14 231.5 281.91 226.57 283.38 225.59 285.85 225.09 294.71 222.14 296.68 221.65 305.54 218.69 308 218.2 309.97 217.71 312.93 216.72 315.39 216.23 318.83 215.25 322.28 214.76 328.19 212.79 332.13 212.29 335.08 211.31 339.02 210.82 343.45 209.83 349.36 208.35 353.3 207.86 356.75 206.88 362.16 206.38 365.61 205.4 368.56 205.4 372.01 204.42 374.47 203.92 376.44 203.92 380.87 203.43 384.81 202.94 389.24 202.45 395.15 201.46 397.12 201.46 399.09 200.97 404.01 200.97 406.47 200.48 411.89 200.48 414.35 199.98 419.28 199.98 422.72 199.49 429.12 199.49 431.59 199 442.42 199 442.91 198.51 443.4 199.49 446.85 199 448.82 198.51 448.82 199.49 452.26 199 466.54 199 469 199.49 478.36 199.49 482.3 200.48 483.78 200.48 485.25 199.98 487.71 200.48 493.62 200.48 493.62 201.46 497.07 200.97 499.53 201.46 504.95 201.95 507.41 202.45 508.39 201.95 508.39 202.94 511.35 202.45 514.79 203.43 516.76 203.92 517.75 203.43 524.15 204.42 529.07 204.91 531.53 205.4 534 206.38 537.94 206.38 539.9 207.37 541.38 207.37 545.32 207.86 547.78 208.35 553.2 209.34 556.64 210.32 560.09 210.82 563.54 211.8 567.97 212.79 573.88 214.26 578.8 215.25 581.76 216.23 583.23 216.23 583.23 217.22 584.71 216.72 586.68 217.71 590.13 218.2 590.13 219.19 591.6 218.69 596.03 220.17 599.48 221.16 604.4 223.13 607.85 223.62 615.73 226.57 617.21 226.57 617.21 227.56 621.14 228.05 623.61 229.03 623.61 230.02 625.08 229.53 628.53 231 635.42 233.46 638.38 234.94 641.82 235.93 644.78 237.4 648.22 238.39 649.21 238.88 649.21 239.87 650.69 239.37 651.67 239.87 651.67 240.85 653.15 240.36 653.15 241.34 658.07 242.82 661.03 244.3 663.98 245.28 663.98 246.27 666.44 246.76 669.4 248.24 673.83 249.71 673.83 250.7 677.27 251.68 680.72 253.16 681.7 254.14 684.66 255.62 686.63 256.11 686.63 257.1 690.07 258.08 691.06 258.58 691.06 259.56 693.52 260.05 695.98 261.04 695.98 262.02 699.43 263.01 699.43 263.99 702.38 264.98 707.8 267.93 708.29 268.91 710.26 269.41 710.26 270.39 712.72 270.88 714.69 271.87 714.69 272.85 715.68 272.85 715.68 273.84 717.15 274.33 717.15 275.32 719.12 276.3 722.57 280.24 724.05 281.72 724.05 282.7 725.03 282.7 725.03 283.69 726.51 284.18 726.51 285.16 727.99 285.66 727.99 287.13 728.97 287.13 728.97 288.12 729.96 288.12 732.42 290.58 732.42 291.56 733.4 291.56 733.9 293.53 734.88 293.53 734.88 294.52 736.85 295.5 737.34 296.98 738.33 296.98 739.8 298.46 739.8 299.44 740.79 299.44 742.27 301.41 742.27 302.4 744.23 303.38 745.71 304.86 745.71 305.84 746.7 305.84 748.17 307.81 748.17 308.8 750.14 309.78 750.64 311.26 751.62 311.26"/>
  <path class="cls-1" d="M424.2,168.96l.49,.98,2.46-.49,2.95-.49v.98l2.46-.49h17.23l2.46,.49h7.88l2.46,.49h5.91l2.46,.49h3.94v.98l3.45-.49,2.46,.49h5.91l6.4,.98,2.46,.49h1.48l5.42,.49,2.46,.49h2.46v.98l2.95-.49,1.97,.49,7.39,.98,2.46,.49,5.42,.98h1.48v.98l1.48-.49,4.43,.98,2.95,.49h1.48v.98l1.48-.49,2.95,.49v.98l1.48-.49,4.43,.98,2.95,.49,1.97,.98,.98-.49v.98l1.48-.49,1.97,.98,.98-.49v.98l1.48-.49,1.97,.98,3.45,.49v.98l1.48-.49,5.91,1.48,5.42,1.48,10.34,2.95,8.86,2.95,2.46,.49,4.92,1.97,4.43,1.48h1.48v.98h2.46l3.94,1.48,4.43,1.97,4.92,1.48,2.95,1.48,4.43,1.48,4.92,1.97,4.43,1.97,1.97,.49v.98l1.48-.49,.98,.49v.98l1.48-.49,.98,.49v.98l2.46,.49,8.86,3.94,3.94,1.97,4.43,1.48v.98l3.45,.98,3.45,1.48v.98l2.46,.49,3.45,1.48v.98l3.45,.98,2.46,.98v.98l3.45,.98,.98,.49v.98l2.46,.49,5.91,3.45,2.46,1.48,1.48,.49v.98l3.45,.98v.98l3.45,.98,1.97,1.48,1.48,.49v.98l2.95,.98,2.95,1.97,.49,.98,2.95,.98v.98l2.46,.49,2.46,1.97,5.91,3.45v.98l2.95,.98,3.94,3.45,.98,2.46-.49,.98-3.45-.49-2.46-2.46-3.45-1.48v-.98l-1.97-.49v-.98l-2.46-.49v-.98l-2.95-.98-2.46-1.48-.98-.49v-.98l-1.97-.49v-.98l-2.46-.49-5.42-2.95v-.98l-2.46-.98-1.97-.49v-.98l-1.97-.49v-.98l-2.46-.49-.98-.49v-.98l-1.48,.49-.98-.49v-.98l-3.45-.98v-.98l-3.45-.98-.98-.49v-.98l-2.46-.49-3.45-1.48v-.98l-3.45-.98-2.46-.98v-.98l-3.45-.98-3.45-1.48v-.98l-1.48,.49v-.98l-3.45-.98-3.45-1.48v-.98l-1.48,.49v-.98l-4.92-1.48-2.95-1.48-4.43-1.97-2.46-.49v-.98h-2.46v-.98l-4.92-1.48-4.43-1.97-4.43-1.48-4.92-1.97-5.42-1.97h-1.48v-.98h-2.46v-.98h-2.46l-4.43-1.48-3.45-1.48-4.43-.98-2.95-1.48-4.92-.98v-.98l-1.48,.49-3.45-1.48-3.45-.49-4.43-1.48-5.42-1.48-2.95-.49-6.89-1.97h-1.48v-.98l-1.48,.49-4.43-1.48-1.97-.49h-1.48l-7.39-1.48-4.43-.98-3.45-.49-7.39-1.48-3.45-.49-2.46-.49-2.46-.98h-1.48l-1.97-.49h-3.94l-1.97-.98h-5.91v-.98l-1.48,.49-2.46-.49h-2.46l-2.46-.49h-2.46l-2.46-.49-2.95-.49-.98,.49v-.98l-3.45,.49-2.46-.49-7.39-.49-1.97-.49h-4.43l-2.46-.49h-1.48l-1.48,.49-2.46-.49h-4.43l-2.46-.49h-1.48l-2.95,.49v-.98l-3.45,.49-2.46-.49-1.97,.49h-1.97l-1.48-.49-2.46,.49h-5.91l-2.46-.49-1.97,.49h-9.35l-2.46,.49h-10.34l-3.45,.49h-2.95l-2.46,.49h-3.45l-2.46,.49h-1.48l-2.95,.49v-.98l-1.97,.98h-2.95l-2.46,.49-2.95,.49h-1.97l-3.94,.49-2.46,.49h-1.97l-4.43,.49-3.94,.98h-2.95l-2.95,.98-2.95,.49h-1.48l-2.95,.49h-2.46l-1.97,.98h-.98l-4.43,.49-2.95,.98-3.94,.49-2.95,.98-3.94,.49-3.94,.98-3.45,.49-3.94,1.48h-.98l-2.95,.98-3.94,.49-1.97,.98-3.45,.49-5.91,1.97-1.97,.49-4.43,.98-4.92,1.97-3.94,.98-2.95,.98-5.42,1.48-2.95,.98-1.48,.98-1.97,.49-3.94,1.48-8.86,2.95-1.97,.98-7.39,2.46-2.46,1.48-1.97,.49-1.97,.98-2.95,.98-1.97,.98-2.95,.98-.98,.98-5.91,1.97-1.97,.98-2.46,1.48-2.95,.98-1.97,.98-2.46,1.48-3.45,1.48-3.94,1.97-3.45,1.48-1.97,.98-2.95,1.97-3.45,1.48-1.97,.98-2.46,1.48-3.94,1.97-.98,.98-2.95,.98-1.48,1.48-2.95,.98-2.46,1.97-2.46,.98-1.48,1.48-3.45,1.48-2.95,1.97-2.46,1.48-2.46,1.97-3.45,1.48-1.97,1.97-2.95,.98-3.45,2.95-2.46,.98-3.94,3.45-2.46,.98-3.94,3.45-3.94,1.97-4.43,3.94-4.43,2.46-5.42,4.92-4.43,2.46-3.94,3.94-4.43,3.45-2.46,1.97-2.46,1.48-7.88,7.39-9.85,8.86-7.39,6.89-6.4,5.91-8.37,7.88-6.4,7.39-4.92,4.92h-.98v-24.62l5.91-5.42,8.37-7.88,5.91-5.42,6.4-5.91,5.91-5.42,3.94-2.95,4.92-3.45,3.45-3.45,4.43-3.45,3.94-2.46,5.42-4.92,3.94-1.97,4.43-3.94h1.48l.49-.98,3.94-2.95,2.95-1.97,2.46-1.48,2.95-2.46,2.46-.98,3.45-2.95,3.45-1.48,3.45-2.95,1.97-.49,2.95-2.46,2.46-.98,2.95-2.46,1.97-.49,3.45-2.46,2.46-.98,1.48-1.48,3.45-1.48,.98-.98,2.95-.98,1.48-1.48,2.95-.98,1.48-1.48,2.46-.49,1.48-1.48,2.95-.98,1.48-1.48,2.46-.49,1.48-1.48,2.46-.49,1.48-1.48,2.46-.49,.98-.98,2.95-.98,.98-.98,2.95-.98,3.94-1.97,3.45-1.48,1.48-.98,2.46-.98,4.43-1.48,2.46-1.48,1.97-.49,3.94-1.97,5.91-1.97,1.97-.98,4.43-1.48,1.48-.98,3.45-.98,2.95-.98,1.48-.98,11.82-3.94,3.94-1.48h.98l11.82-3.94,1.97-.49,4.43-.98,2.46-.98,3.45-.98,4.43-.98,1.97-.98h1.48l2.95-.98,3.94-.49,1.97-.98,3.45-.49,3.45-.98,3.45-.49,2.95-.98,2.46-.49,3.94-.49,1.48-.98v.98l2.46-.98,4.43-.98,2.46-.49h.98l3.45-.98h.98l4.43-.49,1.97-.49,4.43-.49,3.45-.98h1.97l4.43-.49,3.94-.98h4.92l3.45-.98v.98l1.97-.98h2.95l2.46-.49,2.95-.49h4.92l1.97-.49h3.94l1.97-.49h5.42l1.48-.49,2.46,.49,2.46-.49h4.92l1.48-.49,2.46,.49,2.46-.49h8.86l.49-.49Z"/>
</svg>