<?xml version="1.0" encoding="UTF-8"?>
<svg id="Layer_3" data-name="Layer 3" xmlns="http://www.w3.org/2000/svg" viewBox="0 0 709 517.51">
  <defs>
    <style>
      .cls-1 {
        fill: #f3f6ff;
      }
    </style>
  </defs>
  <polygon class="cls-1" points="709 142.3 709 152.15 708.02 152.15 708.02 151.16 704.57 150.18 702.11 148.7 693.24 143.77 691.28 142.79 686.84 140.82 680.94 137.87 676.5 136.39 676.5 135.4 674.04 135.4 674.04 134.42 669.12 132.94 664.69 130.97 659.27 129 654.84 127.03 649.92 125.56 646.47 124.57 645.98 123.59 643.52 123.59 639.58 122.11 637.61 121.13 636.62 121.62 636.62 120.63 634.16 120.63 630.71 119.16 629.73 119.65 629.73 118.66 627.27 118.66 624.31 117.68 622.84 117.68 622.84 116.7 621.36 117.19 619.39 116.2 618.41 116.7 618.41 115.71 616.93 116.2 613.97 115.22 608.07 114.23 604.62 113.25 602.65 113.25 595.26 111.77 591.82 111.28 589.36 110.79 587.39 110.79 586.89 109.8 585.42 110.29 580.99 109.8 579.51 109.8 579.02 108.82 575.57 109.31 571.63 108.82 569.17 108.82 569.17 107.83 565.72 108.32 562.28 108.32 559.81 107.83 558.83 108.32 558.83 107.34 555.38 107.83 551.94 107.83 549.48 107.34 547.01 107.83 532.73 107.83 530.27 108.32 526.83 108.32 525.84 108.82 525.84 107.83 523.87 108.82 518.95 108.82 516.49 109.31 513.04 109.31 509.59 110.29 507.62 110.29 504.18 110.79 501.72 111.28 497.78 111.77 496.3 111.77 491.38 112.76 488.42 113.74 484.48 114.23 480.54 115.22 477.1 115.71 474.14 116.7 468.24 118.17 465.77 119.16 464.3 119.16 460.36 120.63 459.37 120.63 450.51 123.59 446.57 125.07 436.23 128.51 434.75 129.5 432.79 129.99 429.83 130.97 427.86 131.96 425.4 133.44 423.43 133.93 421.46 134.91 416.54 136.88 414.08 138.36 412.11 139.34 408.66 140.82 404.72 142.79 402.26 144.27 400.29 145.25 397.83 146.24 394.38 148.7 392.41 149.19 388.97 151.65 386.5 152.64 385.03 154.11 381.58 155.59 379.61 157.56 376.16 159.04 373.21 161.5 370.75 162.48 365.82 166.42 363.36 167.41 358.93 171.35 355.98 172.82 350.56 177.75 347.11 180.21 344.65 181.69 339.73 186.12 333.33 192.03 330.37 194.49 327.91 195.97 312.16 211.72 308.22 215.17 306.25 218.12 298.37 226 297.39 227.97 296.4 227.97 295.42 230.43 294.43 230.43 293.45 232.4 291.48 234.37 288.52 238.31 286.06 241.26 283.11 245.2 281.14 247.66 280.15 249.63 277.69 252.09 276.21 254.56 272.28 259.97 266.37 268.83 262.43 275.24 259.47 280.16 253.57 290.5 247.66 301.82 244.7 307.73 241.26 315.61 238.3 322.01 231.9 338.26 226.98 353.52 223.04 367.8 220.09 380.6 216.64 402.26 216.15 409.65 215.65 413.1 214.67 427.37 214.18 430.33 213.68 443.13 213.68 471.69 214.67 491.38 215.65 503.69 216.64 511.57 217.26 517.51 0 517.51 0 227.97 3.45 223.54 7.88 218.12 9.85 215.17 14.28 210.24 17.72 206.3 23.63 199.41 28.06 194.98 29.05 193.01 39.88 182.18 42.34 180.21 43.82 177.75 47.76 174.3 52.19 170.36 55.64 166.42 57.61 164.45 60.07 162.98 63.51 159.53 67.45 156.08 70.41 154.11 78.29 146.73 83.21 142.79 87.64 139.84 93.55 134.42 97.98 131.96 102.9 127.53 106.84 125.56 111.27 121.62 113.74 120.63 118.66 116.7 121.12 115.71 124.57 112.76 127.03 111.77 129.98 109.31 132.45 108.32 136.38 105.37 138.85 104.39 141.31 102.42 143.77 101.43 146.23 99.46 148.2 98.97 150.66 97 153.12 96.02 155.09 94.54 157.56 93.55 159.52 92.08 161.99 91.09 163.96 89.62 166.42 88.63 168.88 87.15 170.85 86.17 173.31 85.18 176.76 83.21 178.73 82.23 182.17 80.75 190.05 76.81 193.01 75.83 193.99 74.84 196.94 73.86 214.18 66.47 218.61 65 220.09 64.01 222.55 63.52 224.52 62.54 239.29 57.61 240.76 56.63 243.23 56.13 252.09 53.18 254.06 52.69 262.92 49.73 265.38 49.24 267.35 48.75 270.31 47.76 272.77 47.27 276.21 46.29 279.66 45.8 285.57 43.83 289.51 43.33 292.46 42.35 296.4 41.86 300.83 40.87 306.74 39.39 310.68 38.9 314.13 37.92 319.54 37.42 322.99 36.44 325.94 36.44 329.39 35.46 331.85 34.96 333.82 34.96 338.25 34.47 342.19 33.98 346.62 33.49 352.53 32.5 354.5 32.5 356.47 32.01 361.39 32.01 363.85 31.52 369.27 31.52 371.73 31.02 376.66 31.02 380.1 30.53 386.5 30.53 388.97 30.04 399.8 30.04 400.29 29.55 400.78 30.53 404.23 30.04 406.2 29.55 406.2 30.53 409.64 30.04 423.92 30.04 426.38 30.53 435.74 30.53 439.68 31.52 441.16 31.52 442.63 31.02 445.09 31.52 451 31.52 451 32.5 454.45 32.01 456.91 32.5 462.33 32.99 464.79 33.49 465.77 32.99 465.77 33.98 468.73 33.49 472.17 34.47 474.14 34.96 475.13 34.47 481.53 35.46 486.45 35.95 488.91 36.44 491.38 37.42 495.32 37.42 497.28 38.41 498.76 38.41 502.7 38.9 505.16 39.39 510.58 40.38 514.02 41.36 517.47 41.86 520.92 42.84 525.35 43.83 531.26 45.3 536.18 46.29 539.14 47.27 540.61 47.27 540.61 48.26 542.09 47.76 544.06 48.75 547.51 49.24 547.51 50.23 548.98 49.73 553.41 51.21 556.86 52.2 561.78 54.17 565.23 54.66 573.11 57.61 574.59 57.61 574.59 58.6 578.52 59.09 580.99 60.07 580.99 61.06 582.46 60.57 585.91 62.04 592.8 64.5 595.76 65.98 599.2 66.97 602.16 68.44 605.6 69.43 606.59 69.92 606.59 70.91 608.07 70.41 609.05 70.91 609.05 71.89 610.53 71.4 610.53 72.38 615.45 73.86 618.41 75.34 621.36 76.32 621.36 77.31 623.82 77.8 626.78 79.28 631.21 80.75 631.21 81.74 634.65 82.72 638.1 84.2 639.08 85.18 642.04 86.66 644.01 87.15 644.01 88.14 647.45 89.12 648.44 89.62 648.44 90.6 650.9 91.09 653.36 92.08 653.36 93.06 656.81 94.05 656.81 95.03 659.76 96.02 665.18 98.97 665.67 99.95 667.64 100.45 667.64 101.43 670.1 101.92 672.07 102.91 672.07 103.89 673.06 103.89 673.06 104.88 674.53 105.37 674.53 106.36 676.5 107.34 679.95 111.28 681.43 112.76 681.43 113.74 682.41 113.74 682.41 114.73 683.89 115.22 683.89 116.2 685.37 116.7 685.37 118.17 686.35 118.17 686.35 119.16 687.34 119.16 689.8 121.62 689.8 122.6 690.78 122.6 691.28 124.57 692.26 124.57 692.26 125.56 694.23 126.54 694.72 128.02 695.71 128.02 697.18 129.5 697.18 130.48 698.17 130.48 699.65 132.45 699.65 133.44 701.61 134.42 703.09 135.9 703.09 136.88 704.08 136.88 705.55 138.85 705.55 139.84 707.52 140.82 708.02 142.3 709 142.3"/>
  <path class="cls-1" d="M381.58,0l.49,.98,2.46-.49,2.95-.49V.98l2.46-.49h17.23l2.46,.49h7.88l2.46,.49h5.91l2.46,.49h3.94v.98l3.45-.49,2.46,.49h5.91l6.4,.98,2.46,.49h1.48l5.42,.49,2.46,.49h2.46v.98l2.95-.49,1.97,.49,7.39,.98,2.46,.49,5.42,.98h1.48v.98l1.48-.49,4.43,.98,2.95,.49h1.48v.98l1.48-.49,2.95,.49v.98l1.48-.49,4.43,.98,2.95,.49,1.97,.98,.98-.49v.98l1.48-.49,1.97,.98,.98-.49v.98l1.48-.49,1.97,.98,3.45,.49v.98l1.48-.49,5.91,1.48,5.42,1.48,10.34,2.95,8.86,2.95,2.46,.49,4.92,1.97,4.43,1.48h1.48v.98h2.46l3.94,1.48,4.43,1.97,4.92,1.48,2.95,1.48,4.43,1.48,4.92,1.97,4.43,1.97,1.97,.49v.98l1.48-.49,.98,.49v.98l1.48-.49,.98,.49v.98l2.46,.49,8.86,3.94,3.94,1.97,4.43,1.48v.98l3.45,.98,3.45,1.48v.98l2.46,.49,3.45,1.48v.98l3.45,.98,2.46,.98v.98l3.45,.98,.98,.49v.98l2.46,.49,5.91,3.45,2.46,1.48,1.48,.49v.98l3.45,.98v.98l3.45,.98,1.97,1.48,1.48,.49v.98l2.95,.98,2.95,1.97,.49,.98,2.95,.98v.98l2.46,.49,2.46,1.97,5.91,3.45v.98l2.95,.98,3.94,3.45,.98,2.46-.49,.98-3.45-.49-2.46-2.46-3.45-1.48v-.98l-1.97-.49v-.98l-2.46-.49v-.98l-2.95-.98-2.46-1.48-.98-.49v-.98l-1.97-.49v-.98l-2.46-.49-5.42-2.95v-.98l-2.46-.98-1.97-.49v-.98l-1.97-.49v-.98l-2.46-.49-.98-.49v-.98l-1.48,.49-.98-.49v-.98l-3.45-.98v-.98l-3.45-.98-.98-.49v-.98l-2.46-.49-3.45-1.48v-.98l-3.45-.98-2.46-.98v-.98l-3.45-.98-3.45-1.48v-.98l-1.48,.49v-.98l-3.45-.98-3.45-1.48v-.98l-1.48,.49v-.98l-4.92-1.48-2.95-1.48-4.43-1.97-2.46-.49v-.98h-2.46v-.98l-4.92-1.48-4.43-1.97-4.43-1.48-4.92-1.97-5.42-1.97h-1.48v-.98h-2.46v-.98h-2.46l-4.43-1.48-3.45-1.48-4.43-.98-2.95-1.48-4.92-.98v-.98l-1.48,.49-3.45-1.48-3.45-.49-4.43-1.48-5.42-1.48-2.95-.49-6.89-1.97h-1.48v-.98l-1.48,.49-4.43-1.48-1.97-.49h-1.48l-7.39-1.48-4.43-.98-3.45-.49-7.39-1.48-3.45-.49-2.46-.49-2.46-.98h-1.48l-1.97-.49h-3.94l-1.97-.98h-5.91v-.98l-1.48,.49-2.46-.49h-2.46l-2.46-.49h-2.46l-2.46-.49-2.95-.49-.98,.49v-.98l-3.45,.49-2.46-.49-7.39-.49-1.97-.49h-4.43l-2.46-.49h-1.48l-1.48,.49-2.46-.49h-4.43l-2.46-.49h-1.48l-2.95,.49v-.98l-3.45,.49-2.46-.49-1.97,.49h-1.97l-1.48-.49-2.46,.49h-5.91l-2.46-.49-1.97,.49h-9.35l-2.46,.49h-10.34l-3.45,.49h-2.95l-2.46,.49h-3.45l-2.46,.49h-1.48l-2.95,.49v-.98l-1.97,.98h-2.95l-2.46,.49-2.95,.49h-1.97l-3.94,.49-2.46,.49h-1.97l-4.43,.49-3.94,.98h-2.95l-2.95,.98-2.95,.49h-1.48l-2.95,.49h-2.46l-1.97,.98h-.98l-4.43,.49-2.95,.98-3.94,.49-2.95,.98-3.94,.49-3.94,.98-3.45,.49-3.94,1.48h-.98l-2.95,.98-3.94,.49-1.97,.98-3.45,.49-5.91,1.97-1.97,.49-4.43,.98-4.92,1.97-3.94,.98-2.95,.98-5.42,1.48-2.95,.98-1.48,.98-1.97,.49-3.94,1.48-8.86,2.95-1.97,.98-7.39,2.46-2.46,1.48-1.97,.49-1.97,.98-2.95,.98-1.97,.98-2.95,.98-.98,.98-5.91,1.97-1.97,.98-2.46,1.48-2.95,.98-1.97,.98-2.46,1.48-3.45,1.48-3.94,1.97-3.45,1.48-1.97,.98-2.95,1.97-3.45,1.48-1.97,.98-2.46,1.48-3.94,1.97-.98,.98-2.95,.98-1.48,1.48-2.95,.98-2.46,1.97-2.46,.98-1.48,1.48-3.45,1.48-2.95,1.97-2.46,1.48-2.46,1.97-3.45,1.48-1.97,1.97-2.95,.98-3.45,2.95-2.46,.98-3.94,3.45-2.46,.98-3.94,3.45-3.94,1.97-4.43,3.94-4.43,2.46-5.42,4.92-4.43,2.46-3.94,3.94-4.43,3.45-2.46,1.97-2.46,1.48-7.88,7.39-9.85,8.86-7.39,6.89-6.4,5.91-8.37,7.88-6.4,7.39-4.92,4.92H.03v-24.62l5.91-5.42,8.37-7.88,5.91-5.42,6.4-5.91,5.91-5.42,3.94-2.95,4.92-3.45,3.45-3.45,4.43-3.45,3.94-2.46,5.42-4.92,3.94-1.97,4.43-3.94h1.48l.49-.98,3.94-2.95,2.95-1.97,2.46-1.48,2.95-2.46,2.46-.98,3.45-2.95,3.45-1.48,3.45-2.95,1.97-.49,2.95-2.46,2.46-.98,2.95-2.46,1.97-.49,3.45-2.46,2.46-.98,1.48-1.48,3.45-1.48,.98-.98,2.95-.98,1.48-1.48,2.95-.98,1.48-1.48,2.46-.49,1.48-1.48,2.95-.98,1.48-1.48,2.46-.49,1.48-1.48,2.46-.49,1.48-1.48,2.46-.49,.98-.98,2.95-.98,.98-.98,2.95-.98,3.94-1.97,3.45-1.48,1.48-.98,2.46-.98,4.43-1.48,2.46-1.48,1.97-.49,3.94-1.97,5.91-1.97,1.97-.98,4.43-1.48,1.48-.98,3.45-.98,2.95-.98,1.48-.98,11.82-3.94,3.94-1.48h.98l11.82-3.94,1.97-.49,4.43-.98,2.46-.98,3.45-.98,4.43-.98,1.97-.98h1.48l2.95-.98,3.94-.49,1.97-.98,3.45-.49,3.45-.98,3.45-.49,2.95-.98,2.46-.49,3.94-.49,1.48-.98v.98l2.46-.98,4.43-.98,2.46-.49h.98l3.45-.98h.98l4.43-.49,1.97-.49,4.43-.49,3.45-.98h1.97l4.43-.49,3.94-.98h4.92l3.45-.98v.98l1.97-.98h2.95l2.46-.49,2.95-.49h4.92l1.97-.49h3.94l1.97-.49h5.42l1.48-.49,2.46,.49,2.46-.49h4.92l1.48-.49,2.46,.49,2.46-.49h8.86l.49-.49V0Z"/>
</svg>