<?xml version="1.0" encoding="UTF-8"?>
<svg id="Layer_1" data-name="Layer 1" xmlns="http://www.w3.org/2000/svg" viewBox="0 0 1474 479.53">
  <defs>
    <style>
      .cls-1 {
        fill: none;
        font-family: MyriadPro-Regular, 'Myriad Pro';
        font-size: 28px;
        stroke: #fff;
        stroke-miterlimit: 10;
      }

      .cls-2 {
        fill: #fea918;
      }
    </style>
  </defs>
  <path class="cls-2" d="M14,0l4.92,4.22,9.84,10.55,9.14,9.14,5.62,4.92,9.84,9.14,7.73,6.33,9.14,7.73,9.14,7.03,13.36,9.84,16.17,11.25,14.77,9.14,10.55,6.33,16.17,9.14,20.39,10.55,17.58,8.44,24.61,10.55,26.02,9.84,26.72,9.14,23.91,7.03,26.72,7.03,30.23,7.03,33.75,6.33,36.56,5.62,35.16,4.22,41.48,3.52,39.38,2.11,21.8,.7h68.91l39.38-1.41,47.11-2.81,51.33-4.22,89.3-9.14,8.44-.7h10.55l21.09,2.81,21.8,4.22,23.91,6.33,25.31,8.44,20.39,7.73,19.69,8.44,18.28,8.44,17.58,8.44,32.34,16.17,13.36,7.03,23.2,11.95,18.98,9.84,28.12,14.06,19.69,9.14,20.39,9.14,30.94,12.66,31.64,11.25,25.31,7.73,26.72,7.03,29.53,6.33,30.94,4.92,32.34,3.52,21.8,1.41,30.94,1.41v112.5l-20.39-3.52-25.31-4.92-22.5-5.62-20.39-6.33-17.58-6.33-20.39-8.44-19.69-9.14-29.53-14.77-16.17-9.14-16.88-9.14-16.88-9.84-34.45-19.69-30.23-16.88-16.17-8.44-13.36-7.03-26.02-11.95-19.69-7.73-25.31-8.44-18.28-4.92-22.5-4.22-18.28-2.11-12.66-.7h-17.58l-18.28,1.41-23.2,3.52-26.72,6.33-30.23,9.14-31.64,10.55-28.12,8.44-19.69,4.92-18.98,3.52-16.88,2.11-9.14,.7h-28.83l-20.39-2.11-19.69-3.52-21.8-5.62-26.02-8.44-23.2-9.14-24.61-10.55-50.62-23.2-20.39-9.14-25.31-10.55-18.98-7.03-21.09-7.03-23.91-6.33-21.8-4.22-21.09-2.81-16.88-1.41-16.17-.7h-26.72l-26.72,1.41-37.27,3.52-71.72,8.44-32.34,2.81-12.66,.7h-49.22l-24.61-2.11-19.69-2.81-20.39-4.22-14.77-4.22V0Z"/>
  <text class="cls-1" transform="translate(2.51 51.64) rotate(27.13)"><tspan x="0" y="0">F</tspan></text>
  <text class="cls-1" transform="translate(13.91 57.89) rotate(34.81)"><tspan x="0" y="0">I</tspan></text>
  <text class="cls-1" transform="translate(19.29 61.61) rotate(36.72)"><tspan x="0" y="0">T</tspan></text>
  <text class="cls-1" transform="translate(30.41 69.93) rotate(37.13)"><tspan x="0" y="0"> </tspan></text>
  <text class="cls-1" transform="translate(35.12 73.5) rotate(36.99)"><tspan x="0" y="0">S</tspan></text>
  <text class="cls-1" transform="translate(46.13 81.79) rotate(36.57)"><tspan x="0" y="0">I</tspan></text>
  <text class="cls-1" transform="translate(51.45 85.77) rotate(35.92)"><tspan x="0" y="0">X</tspan></text>
  <text class="cls-1" transform="translate(64.34 95.1) rotate(34.9)"><tspan x="0" y="0">E</tspan></text>
  <text class="cls-1" transform="translate(75.58 102.94) rotate(33.87)"><tspan x="0" y="0">S</tspan></text>
  <text class="cls-1" transform="translate(86.99 110.57) rotate(33.1)"><tspan x="0" y="0"> </tspan></text>
  <text class="cls-1" transform="translate(91.9 113.81) rotate(32.29)"><tspan x="0" y="0">2</tspan></text>
  <text class="cls-1" transform="translate(103.95 121.43) rotate(31.09)"><tspan x="0" y="0">K</tspan></text>
  <text class="cls-1" transform="translate(116.88 129.22) rotate(29.88)"><tspan x="0" y="0">2</tspan></text>
  <text class="cls-1" transform="translate(129.24 136.33) rotate(28.69)"><tspan x="0" y="0">4</tspan></text>
  <text class="cls-1" transform="translate(141.8 143.17) rotate(27.85)"><tspan x="0" y="0">	</tspan></text>
  <text class="cls-1" transform="translate(151.95 148.5) rotate(26.57)"><tspan x="0" y="0">F</tspan></text>
  <text class="cls-1" transform="translate(164.1 154.55) rotate(25.73)"><tspan x="0" y="0">I</tspan></text>
  <text class="cls-1" transform="translate(170.05 157.45) rotate(24.88)"><tspan x="0" y="0">T</tspan></text>
  <text class="cls-1" transform="translate(182.62 163.25) rotate(24.07)"><tspan x="0" y="0"> </tspan></text>
  <text class="cls-1" transform="translate(187.98 165.68) rotate(23.26)"><tspan x="0" y="0">S</tspan></text>
  <text class="cls-1" transform="translate(200.62 171.08) rotate(22.43)"><tspan x="0" y="0">I</tspan></text>
  <text class="cls-1" transform="translate(206.72 173.64) rotate(21.51)"><tspan x="0" y="0">X</tspan></text>
  <text class="cls-1" transform="translate(221.51 179.46) rotate(20.32)"><tspan x="0" y="0">E</tspan></text>
  <text class="cls-1" transform="translate(234.36 184.22) rotate(19.23)"><tspan x="0" y="0">S</tspan></text>
  <text class="cls-1" transform="translate(247.34 188.72) rotate(18.46)"><tspan x="0" y="0"> </tspan></text>
  <text class="cls-1" transform="translate(252.9 190.6) rotate(17.67)"><tspan x="0" y="0">2</tspan></text>
  <text class="cls-1" transform="translate(266.49 194.94) rotate(16.53)"><tspan x="0" y="0">K</tspan></text>
  <text class="cls-1" transform="translate(280.97 199.23) rotate(15.41)"><tspan x="0" y="0">2</tspan></text>
  <text class="cls-1" transform="translate(294.75 203.03) rotate(14.33)"><tspan x="0" y="0">4</tspan></text>
  <text class="cls-1" transform="translate(308.6 206.54) rotate(13.58)"><tspan x="0" y="0">	</tspan></text>
  <text class="cls-1" transform="translate(319.75 209.22) rotate(12.46)"><tspan x="0" y="0">F</tspan></text>
  <text class="cls-1" transform="translate(333.02 212.13) rotate(11.73)"><tspan x="0" y="0">I</tspan></text>
  <text class="cls-1" transform="translate(339.74 213.58) rotate(10.7)"><tspan x="0" y="0">T</tspan></text>
  <text class="cls-1" transform="translate(353.39 216.18) rotate(10.51)"><tspan x="0" y="0"> </tspan></text>
  <text class="cls-1" transform="translate(359.19 217.27) rotate(10.01)"><tspan x="0" y="0">S</tspan></text>
  <text class="cls-1" transform="translate(372.76 219.65) rotate(9.51)"><tspan x="0" y="0">I</tspan></text>
  <text class="cls-1" transform="translate(379.3 220.77) rotate(8.96)"><tspan x="0" y="0">X</tspan></text>
  <text class="cls-1" transform="translate(395.03 223.24) rotate(8.24)"><tspan x="0" y="0">E</tspan></text>
  <text class="cls-1" transform="translate(408.61 225.21) rotate(7.59)"><tspan x="0" y="0">S</tspan></text>
  <text class="cls-1" transform="translate(422.28 227.01) rotate(7.13)"><tspan x="0" y="0"> </tspan></text>
  <text class="cls-1" transform="translate(428.12 227.76) rotate(6.66)"><tspan x="0" y="0">2</tspan></text>
  <text class="cls-1" transform="translate(442.35 229.42) rotate(5.99)"><tspan x="0" y="0">K</tspan></text>
  <text class="cls-1" transform="translate(457.39 231) rotate(5.33)"><tspan x="0" y="0">2</tspan></text>
  <text class="cls-1" transform="translate(471.64 232.33) rotate(4.7)"><tspan x="0" y="0">4</tspan></text>
  <text class="cls-1" transform="translate(485.91 233.49) rotate(4.26)"><tspan x="0" y="0">	</tspan></text>
  <text class="cls-1" transform="translate(497.39 234.33) rotate(3.61)"><tspan x="0" y="0">F</tspan></text>
  <text class="cls-1" transform="translate(510.98 235.18) rotate(3.18)"><tspan x="0" y="0">I</tspan></text>
  <text class="cls-1" transform="translate(517.63 235.56) rotate(2.76)"><tspan x="0" y="0">T</tspan></text>
  <text class="cls-1" transform="translate(531.49 236.22) rotate(2.35)"><tspan x="0" y="0"> </tspan></text>
  <text class="cls-1" transform="translate(537.38 236.47) rotate(1.96)"><tspan x="0" y="0">S</tspan></text>
  <text class="cls-1" transform="translate(551.15 236.93) rotate(1.55)"><tspan x="0" y="0">I</tspan></text>
  <text class="cls-1" transform="translate(557.82 237.13) rotate(1.11)"><tspan x="0" y="0">X</tspan></text>
  <text class="cls-1" transform="translate(573.77 237.43) rotate(.54)"><tspan x="0" y="0">E</tspan></text>
  <text class="cls-1" transform="translate(587.49 237.56) rotate(.02)"><tspan x="0" y="0">S</tspan></text>
  <text class="cls-1" transform="translate(601.27 237.55) rotate(-.34)"><tspan x="0" y="0"> </tspan></text>
  <text class="cls-1" transform="translate(607.17 237.53) rotate(-.71)"><tspan x="0" y="0">2</tspan></text>
  <text class="cls-1" transform="translate(621.5 237.36) rotate(-1.24)"><tspan x="0" y="0">K</tspan></text>
  <text class="cls-1" transform="translate(636.64 237.03) rotate(-1.75)"><tspan x="0" y="0">2</tspan></text>
  <text class="cls-1" transform="translate(650.95 236.59) rotate(-2.23)"><tspan x="0" y="0">4</tspan></text>
  <text class="cls-1" transform="translate(665.28 236.02) rotate(-2.56)"><tspan x="0" y="0">	</tspan></text>
  <text class="cls-1" transform="translate(676.79 235.5) rotate(-3.05)"><tspan x="0" y="0">F</tspan></text>
  <text class="cls-1" transform="translate(690.38 234.77) rotate(-3.36)"><tspan x="0" y="0">I</tspan></text>
  <text class="cls-1" transform="translate(697.03 234.39) rotate(-3.66)"><tspan x="0" y="0">T</tspan></text>
  <text class="cls-1" transform="translate(710.91 233.49) rotate(-3.94)"><tspan x="0" y="0"> </tspan></text>
  <text class="cls-1" transform="translate(716.83 233.09) rotate(-4.21)"><tspan x="0" y="0">S</tspan></text>
  <text class="cls-1" transform="translate(730.56 232.07) rotate(-4.47)"><tspan x="0" y="0">I</tspan></text>
  <text class="cls-1" transform="translate(737.2 231.56) rotate(-4.74)"><tspan x="0" y="0">X</tspan></text>
  <text class="cls-1" transform="translate(753.13 230.23) rotate(-5.06)"><tspan x="0" y="0">E</tspan></text>
  <text class="cls-1" transform="translate(766.83 229.02) rotate(-5.3)"><tspan x="0" y="0">S</tspan></text>
  <text class="cls-1" transform="translate(780.55 227.74) rotate(-5.42)"><tspan x="0" y="0"> </tspan></text>
  <text class="cls-1" transform="translate(786.48 227.18) rotate(-5.5)"><tspan x="0" y="0">2</tspan></text>
  <text class="cls-1" transform="translate(800.78 225.8) rotate(-5.49)"><tspan x="0" y="0">K</tspan></text>
  <text class="cls-1" transform="translate(815.84 224.35) rotate(-5.2)"><tspan x="0" y="0">2</tspan></text>
  <text class="cls-1" transform="translate(830.08 223.04) rotate(-4.43)"><tspan x="0" y="0">4</tspan></text>
  <text class="cls-1" transform="translate(844.32 221.96) rotate(-3.23)"><tspan x="0" y="0">	</tspan></text>
  <text class="cls-1" transform="translate(855.46 221.23) rotate(2.1)"><tspan x="0" y="0">F</tspan></text>
  <text class="cls-1" transform="translate(868.92 221.86) rotate(3.04)"><tspan x="0" y="0">I</tspan></text>
  <text class="cls-1" transform="translate(875.59 222.21) rotate(2.83)"><tspan x="0" y="0">T</tspan></text>
  <text class="cls-1" transform="translate(889.44 222.9) rotate(3.23)"><tspan x="0" y="0"> </tspan></text>
  <text class="cls-1" transform="translate(895.31 223.18) rotate(4.31)"><tspan x="0" y="0">S</tspan></text>
  <text class="cls-1" transform="translate(908.92 224.25) rotate(6.13)"><tspan x="0" y="0">I</tspan></text>
  <text class="cls-1" transform="translate(915.38 224.82) rotate(8.8)"><tspan x="0" y="0">X</tspan></text>
  <text class="cls-1" transform="translate(930.85 227.24) rotate(12.78)"><tspan x="0" y="0">E</tspan></text>
  <text class="cls-1" transform="translate(944.01 230.22) rotate(16.39)"><tspan x="0" y="0">S</tspan></text>
  <text class="cls-1" transform="translate(957.07 234.14) rotate(18.73)"><tspan x="0" y="0"> </tspan></text>
  <text class="cls-1" transform="translate(962.54 235.92) rotate(20.85)"><tspan x="0" y="0">2</tspan></text>
  <text class="cls-1" transform="translate(975.77 240.95) rotate(23.46)"><tspan x="0" y="0">K</tspan></text>
  <text class="cls-1" transform="translate(989.54 246.94) rotate(25.55)"><tspan x="0" y="0">2</tspan></text>
  <text class="cls-1" transform="translate(1002.38 253.09) rotate(27.18)"><tspan x="0" y="0">4</tspan></text>
  <text class="cls-1" transform="translate(1015.11 259.67) rotate(27.53)"><tspan x="0" y="0">	</tspan></text>
  <text class="cls-1" transform="translate(1025.31 264.98) rotate(27.19)"><tspan x="0" y="0">F</tspan></text>
  <text class="cls-1" transform="translate(1037.45 271.21) rotate(26.97)"><tspan x="0" y="0">I</tspan></text>
  <text class="cls-1" transform="translate(1043.39 274.24) rotate(26.75)"><tspan x="0" y="0">T</tspan></text>
  <text class="cls-1" transform="translate(1055.8 280.49) rotate(26.53)"><tspan x="0" y="0"> </tspan></text>
  <text class="cls-1" transform="translate(1061.1 283.14) rotate(26.32)"><tspan x="0" y="0">S</tspan></text>
  <text class="cls-1" transform="translate(1073.47 289.26) rotate(26.1)"><tspan x="0" y="0">I</tspan></text>
  <text class="cls-1" transform="translate(1079.46 292.2) rotate(25.84)"><tspan x="0" y="0">X</tspan></text>
  <text class="cls-1" transform="translate(1093.81 299.14) rotate(25.51)"><tspan x="0" y="0">E</tspan></text>
  <text class="cls-1" transform="translate(1106.22 305.07) rotate(25.18)"><tspan x="0" y="0">S</tspan></text>
  <text class="cls-1" transform="translate(1118.7 310.93) rotate(24.95)"><tspan x="0" y="0"> </tspan></text>
  <text class="cls-1" transform="translate(1124.07 313.44) rotate(24.7)"><tspan x="0" y="0">2</tspan></text>
  <text class="cls-1" transform="translate(1137.09 319.43) rotate(24.32)"><tspan x="0" y="0">K</tspan></text>
  <text class="cls-1" transform="translate(1150.9 325.67) rotate(23.93)"><tspan x="0" y="0">2</tspan></text>
  <text class="cls-1" transform="translate(1163.99 331.48) rotate(23.52)"><tspan x="0" y="0">4</tspan></text>
  <text class="cls-1" transform="translate(1177.16 337.19) rotate(23.22)"><tspan x="0" y="0">	</tspan></text>
  <text class="cls-1" transform="translate(1187.75 341.73) rotate(22.75)"><tspan x="0" y="0">F</tspan></text>
  <text class="cls-1" transform="translate(1200.29 346.98) rotate(22.42)"><tspan x="0" y="0">I</tspan></text>
  <text class="cls-1" transform="translate(1206.45 349.53) rotate(22.07)"><tspan x="0" y="0">T</tspan></text>
  <text class="cls-1" transform="translate(1219.34 354.75) rotate(21.71)"><tspan x="0" y="0"> </tspan></text>
  <text class="cls-1" transform="translate(1224.82 356.94) rotate(21.34)"><tspan x="0" y="0">S</tspan></text>
  <text class="cls-1" transform="translate(1237.66 361.95) rotate(20.94)"><tspan x="0" y="0">I</tspan></text>
  <text class="cls-1" transform="translate(1243.85 364.34) rotate(20.47)"><tspan x="0" y="0">X</tspan></text>
  <text class="cls-1" transform="translate(1258.79 369.91) rotate(19.8)"><tspan x="0" y="0">E</tspan></text>
  <text class="cls-1" transform="translate(1271.69 374.55) rotate(19.12)"><tspan x="0" y="0">S</tspan></text>
  <text class="cls-1" transform="translate(1284.71 379.05) rotate(18.6)"><tspan x="0" y="0"> </tspan></text>
  <text class="cls-1" transform="translate(1290.29 380.95) rotate(18.02)"><tspan x="0" y="0">2</tspan></text>
  <text class="cls-1" transform="translate(1303.89 385.38) rotate(17.1)"><tspan x="0" y="0">K</tspan></text>
  <text class="cls-1" transform="translate(1318.32 389.82) rotate(16.08)"><tspan x="0" y="0">2</tspan></text>
  <text class="cls-1" transform="translate(1332.03 393.77) rotate(14.95)"><tspan x="0" y="0">4</tspan></text>
  <text class="cls-1" transform="translate(1345.86 397.43) rotate(14.06)"><tspan x="0" y="0">	</tspan></text>
  <text class="cls-1" transform="translate(1356.96 400.19) rotate(12.53)"><tspan x="0" y="0">F</tspan></text>
  <text class="cls-1" transform="translate(1370.18 403.1) rotate(11.37)"><tspan x="0" y="0">I</tspan></text>
  <text class="cls-1" transform="translate(1376.92 404.5) rotate(10.01)"><tspan x="0" y="0">T</tspan></text>
  <text class="cls-1" transform="translate(1390.93 406.92) rotate(8.51)"><tspan x="0" y="0"> </tspan></text>
  <text class="cls-1" transform="translate(1397.12 407.9) rotate(6.78)"><tspan x="0" y="0">S</tspan></text>
  <text class="cls-1" transform="translate(1411.27 409.52) rotate(4.67)"><tspan x="0" y="0">I</tspan></text>
  <text class="cls-1" transform="translate(1418.5 410.22) rotate(1.84)"><tspan x="0" y="0">X</tspan></text>
  <text class="cls-1" transform="translate(1435.48 410.71) rotate(-3.01)"><tspan x="0" y="0">E</tspan></text>
  <text class="cls-1" transform="translate(1450.55 409.89) rotate(-9.33)"><tspan x="0" y="0">S</tspan></text>
  <text class="cls-1" transform="translate(1465.38 407.19) rotate(-15.6)"><tspan x="0" y="0"> </tspan></text>
</svg>