<?xml version="1.0" encoding="UTF-8"?>
<svg id="Layer_2" data-name="Layer 2" xmlns="http://www.w3.org/2000/svg" viewBox="0 0 95.73 40.46">
  <defs>
    <style>
      .dot-path-cls-1 {
        letter-spacing: .02em;
      }

      .dot-path-cls-2 {
        fill: #ff7474;
      }

      .dot-path-cls-3 {
        letter-spacing: 0em;
      }

      .dot-path-cls-4 {
        fill: #fff;
        font-family: MyriadPro-Regular, 'Myriad Pro';
        font-size: 3.64px;
      }

      .dot-path-cls-5, .dot-path-cls-6 {
        fill: none;
        stroke: #000;
        stroke-linecap: round;
        stroke-miterlimit: 10;
      }

      .dot-path-cls-7 {
        letter-spacing: 0em;
      }

      .dot-path-cls-6 {
        stroke-dasharray: 0 0 .98 2.95;
      }

      .dot-path-cls-8 {
        letter-spacing: 0em;
      }

      .dot-path-cls-9 {
        letter-spacing: 0em;
      }
    </style>
  </defs>
  <g id="Layer_2-2" data-name="Layer 2">
    <g>
      <path class="cls-5" d="m95.23,3.39s-.1.15-.33.37"/>
      <path class="cls-6" d="m92.37,5.23c-3.03,1.08-8.89,1.48-19.48-2.91-18.01-7.47-23.29,10.47-23.29,10.47,0,0-1.86,9.99-8.62,12.87"/>
      <path class="cls-5" d="m39.58,26.13c-.16.04-.32.08-.49.11"/>
    </g>
    <path class="cls-2" d="m5.49,23.36s20.08-7.4,30.56,1.1,7.28,12.11-10.77,15.51S-8.77,28.06,5.49,23.36Z"/>
    <text class="cls-4" transform="translate(9.04 29.43)"><tspan class="cls-7" x="0" y="0">M</tspan><tspan class="cls-3" x="2.95" y="0">o</tspan><tspan class="cls-9" x="4.95" y="0">r</tspan><tspan x="6.1" y="0">e than 1000</tspan><tspan x="2.91" y="4.37">pa</tspan><tspan class="cls-1" x="6.73" y="4.37">r</tspan><tspan x="8.01" y="4.37">ticipa</tspan><tspan class="cls-8" x="16.37" y="4.37">n</tspan><tspan x="18.38" y="4.37">ts</tspan></text>
  </g>
</svg>