<?xml version="1.0" encoding="UTF-8"?>
<svg id="Layer_2" data-name="Layer 2" xmlns="http://www.w3.org/2000/svg" viewBox="0 0 122.88 122.88">
  <defs>
    <style>
      .cls-1 {
        fill: #fff;
      }

      .cls-2 {
        fill: #ff7474;
      }
    </style>
  </defs>
  <g id="Layer_2-2" data-name="Layer 2">
    <path class="cls-1" d="m23.61,70.43c-.14-1.06-.29-2.63-.38-4.06-.07-1.22-.11-2.27-.07-2.7.17-1.89-1.22-3.56-3.11-3.73s-3.56,1.22-3.73,3.11c-.08.84-.05,2.25.04,3.73.1,1.59.27,3.36.44,4.6.26,1.88,2,3.19,3.88,2.93s3.19-2,2.93-3.88Z"/>
    <path class="cls-1" d="m25.19,89.58c-.22-.86-.42-1.9-.55-2.93-.13-1.01-.21-2.08-.21-2.98,0-1.91-1.54-3.45-3.45-3.45s-3.45,1.55-3.45,3.45c0,1.07.11,2.45.29,3.87.18,1.35.43,2.69.72,3.79.48,1.84,2.36,2.93,4.2,2.45s2.93-2.36,2.45-4.2Z"/>
    <path class="cls-1" d="m24.08,38.96c-1.82-.52-3.73.54-4.25,2.37-.19.66-.44,1.86-.69,3.18l-.02.12c-.29,1.54-.57,3.16-.72,4.18-.27,1.88,1.03,3.63,2.91,3.9s3.63-1.03,3.9-2.91c.15-1.05.41-2.57.66-3.89l.02-.11c.21-1.09.42-2.08.56-2.58.52-1.83-.54-3.74-2.37-4.26Z"/>
    <path class="cls-1" d="m32.13,20.31c-1.73-.78-3.77-.01-4.55,1.72l-2.62,5.77c-.78,1.73,0,3.77,1.72,4.55,1.73.78,3.77,0,4.55-1.72l2.62-5.77c.78-1.73,0-3.77-1.72-4.55Z"/>
    <path class="cls-1" d="m25.19,89.58c-.22-.86-.42-1.9-.55-2.93-.13-1.01-.21-2.08-.21-2.98,0-1.91-1.54-3.45-3.45-3.45s-3.45,1.55-3.45,3.45c0,1.07.11,2.45.29,3.87.18,1.35.43,2.69.72,3.79.48,1.84,2.36,2.93,4.2,2.45s2.93-2.36,2.45-4.2Z"/>
    <path class="cls-1" d="m23.61,70.43c-.14-1.06-.29-2.63-.38-4.06-.07-1.22-.11-2.27-.07-2.7.17-1.89-1.22-3.56-3.11-3.73s-3.56,1.22-3.73,3.11c-.08.84-.05,2.25.04,3.73.1,1.59.27,3.36.44,4.6.26,1.88,2,3.19,3.88,2.93s3.19-2,2.93-3.88Z"/>
    <path class="cls-1" d="m24.08,38.96c-1.82-.52-3.73.54-4.25,2.37-.19.66-.44,1.86-.69,3.18l-.02.12c-.29,1.54-.57,3.16-.72,4.18-.27,1.88,1.03,3.63,2.91,3.9s3.63-1.03,3.9-2.91c.15-1.05.41-2.57.66-3.89l.02-.11c.21-1.09.42-2.08.56-2.58.52-1.83-.54-3.74-2.37-4.26Z"/>
    <path class="cls-1" d="m32.13,20.31c-1.73-.78-3.77-.01-4.55,1.72l-2.62,5.77c-.78,1.73,0,3.77,1.72,4.55,1.73.78,3.77,0,4.55-1.72l2.62-5.77c.78-1.73,0-3.77-1.72-4.55Z"/>
    <path class="cls-1" d="m48.91,83.26c-.14-.86-.24-1.91-.27-2.96-.03-1.09,0-2.17.07-3.01.17-1.88-1.21-3.56-3.1-3.74-1.88-.17-3.56,1.21-3.74,3.1-.11,1.13-.14,2.51-.09,3.87.04,1.35.16,2.71.35,3.84.3,1.87,2.07,3.14,3.94,2.84s3.14-2.07,2.84-3.94Z"/>
    <path class="cls-1" d="m46.65,53.26c-1.86-.36-3.66.86-4.02,2.73-.15.79-.25,2.21-.32,3.74-.05,1.59-.06,3.37,0,4.6.08,1.9,1.67,3.38,3.57,3.3,1.9-.08,3.37-1.67,3.3-3.57-.04-1.09-.04-2.68,0-4.12.04-1.17.11-2.19.2-2.66.36-1.86-.86-3.66-2.73-4.02Z"/>
    <path class="cls-1" d="m53.15,102.64c-.41-.91-.8-1.88-1.09-2.8-.25-.8-.46-1.61-.57-2.38-.27-1.88-2.02-3.18-3.9-2.91s-3.18,2.02-2.91,3.9c.15,1.07.45,2.26.84,3.46.41,1.29.89,2.53,1.39,3.61.79,1.72,2.84,2.47,4.56,1.68s2.47-2.84,1.68-4.56Z"/>
    <path class="cls-1" d="m52.7,32.78c-1.77-.69-3.77.18-4.46,1.95-.25.64-.62,1.81-1,3.09-.43,1.49-.88,3.14-1.15,4.21-.45,1.84.68,3.71,2.52,4.16s3.71-.68,4.16-2.52c.25-1.01.67-2.54,1.07-3.91.31-1.07.62-2.03.81-2.52.69-1.77-.18-3.77-1.95-4.46Z"/>
    <path class="cls-1" d="m62.51,15c-1.65-.94-3.75-.37-4.69,1.27l-3.17,5.49c-.94,1.65-.38,3.75,1.27,4.69s3.75.37,4.69-1.27l3.17-5.49c.94-1.65.38-3.75-1.27-4.69Z"/>
    <path class="cls-1" d="m53.15,102.64c-.41-.91-.8-1.88-1.09-2.8-.25-.8-.46-1.61-.57-2.38-.27-1.88-2.02-3.18-3.9-2.91s-3.18,2.02-2.91,3.9c.15,1.07.45,2.26.84,3.46.41,1.29.89,2.53,1.39,3.61.79,1.72,2.84,2.47,4.56,1.68s2.47-2.84,1.68-4.56Z"/>
    <path class="cls-1" d="m48.91,83.26c-.14-.86-.24-1.91-.27-2.96-.03-1.09,0-2.17.07-3.01.17-1.88-1.21-3.56-3.1-3.74-1.88-.17-3.56,1.21-3.74,3.1-.11,1.13-.14,2.51-.09,3.87.04,1.35.16,2.71.35,3.84.3,1.87,2.07,3.14,3.94,2.84s3.14-2.07,2.84-3.94Z"/>
    <path class="cls-1" d="m46.65,53.26c-1.86-.36-3.66.86-4.02,2.73-.15.79-.25,2.21-.32,3.74-.05,1.59-.06,3.37,0,4.6.08,1.9,1.67,3.38,3.57,3.3,1.9-.08,3.37-1.67,3.3-3.57-.04-1.09-.04-2.68,0-4.12.04-1.17.11-2.19.2-2.66.36-1.86-.86-3.66-2.73-4.02Z"/>
    <path class="cls-1" d="m52.7,32.78c-1.77-.69-3.77.18-4.46,1.95-.25.64-.62,1.81-1,3.09-.43,1.49-.88,3.14-1.15,4.21-.45,1.84.68,3.71,2.52,4.16s3.71-.68,4.16-2.52c.25-1.01.67-2.54,1.07-3.91.31-1.07.62-2.03.81-2.52.69-1.77-.18-3.77-1.95-4.46Z"/>
    <path class="cls-1" d="m62.51,15c-1.65-.94-3.75-.37-4.69,1.27l-3.17,5.49c-.94,1.65-.38,3.75,1.27,4.69s3.75.37,4.69-1.27l3.17-5.49c.94-1.65.38-3.75-1.27-4.69Z"/>
    <path class="cls-1" d="m23.61,70.43c-.14-1.06-.29-2.63-.38-4.06-.07-1.22-.11-2.27-.07-2.7.17-1.89-1.22-3.56-3.11-3.73s-3.56,1.22-3.73,3.11c-.08.84-.05,2.25.04,3.73.1,1.59.27,3.36.44,4.6.26,1.88,2,3.19,3.88,2.93s3.19-2,2.93-3.88Z"/>
    <path class="cls-1" d="m25.19,89.58c-.22-.86-.42-1.9-.55-2.93-.13-1.01-.21-2.08-.21-2.98,0-1.91-1.54-3.45-3.45-3.45s-3.45,1.55-3.45,3.45c0,1.07.11,2.45.29,3.87.18,1.35.43,2.69.72,3.79.48,1.84,2.36,2.93,4.2,2.45s2.93-2.36,2.45-4.2Z"/>
    <path class="cls-1" d="m24.08,38.96c-1.82-.52-3.73.54-4.25,2.37-.19.66-.44,1.86-.69,3.18l-.02.12c-.29,1.54-.57,3.16-.72,4.18-.27,1.88,1.03,3.63,2.91,3.9s3.63-1.03,3.9-2.91c.15-1.05.41-2.57.66-3.89l.02-.11c.21-1.09.42-2.08.56-2.58.52-1.83-.54-3.74-2.37-4.26Z"/>
    <path class="cls-1" d="m32.13,20.31c-1.73-.78-3.77-.01-4.55,1.72l-2.62,5.77c-.78,1.73,0,3.77,1.72,4.55,1.73.78,3.77,0,4.55-1.72l2.62-5.77c.78-1.73,0-3.77-1.72-4.55Z"/>
    <path class="cls-1" d="m48.91,83.26c-.14-.86-.24-1.91-.27-2.96-.03-1.09,0-2.17.07-3.01.17-1.88-1.21-3.56-3.1-3.74-1.88-.17-3.56,1.21-3.74,3.1-.11,1.13-.14,2.51-.09,3.87.04,1.35.16,2.71.35,3.84.3,1.87,2.07,3.14,3.94,2.84s3.14-2.07,2.84-3.94Z"/>
    <path class="cls-1" d="m46.65,53.26c-1.86-.36-3.66.86-4.02,2.73-.15.79-.25,2.21-.32,3.74-.05,1.59-.06,3.37,0,4.6.08,1.9,1.67,3.38,3.57,3.3,1.9-.08,3.37-1.67,3.3-3.57-.04-1.09-.04-2.68,0-4.12.04-1.17.11-2.19.2-2.66.36-1.86-.86-3.66-2.73-4.02Z"/>
    <path class="cls-1" d="m53.15,102.64c-.41-.91-.8-1.88-1.09-2.8-.25-.8-.46-1.61-.57-2.38-.27-1.88-2.02-3.18-3.9-2.91s-3.18,2.02-2.91,3.9c.15,1.07.45,2.26.84,3.46.41,1.29.89,2.53,1.39,3.61.79,1.72,2.84,2.47,4.56,1.68s2.47-2.84,1.68-4.56Z"/>
    <path class="cls-1" d="m52.7,32.78c-1.77-.69-3.77.18-4.46,1.95-.25.64-.62,1.81-1,3.09-.43,1.49-.88,3.14-1.15,4.21-.45,1.84.68,3.71,2.52,4.16s3.71-.68,4.16-2.52c.25-1.01.67-2.54,1.07-3.91.31-1.07.62-2.03.81-2.52.69-1.77-.18-3.77-1.95-4.46Z"/>
    <path class="cls-1" d="m62.51,15c-1.65-.94-3.75-.37-4.69,1.27l-3.17,5.49c-.94,1.65-.38,3.75,1.27,4.69s3.75.37,4.69-1.27l3.17-5.49c.94-1.65.38-3.75-1.27-4.69Z"/>
    <path class="cls-1" d="m62.51,15c-1.65-.94-3.75-.37-4.69,1.27l-3.17,5.49c-.94,1.65-.38,3.75,1.27,4.69s3.75.37,4.69-1.27l3.17-5.49c.94-1.65.38-3.75-1.27-4.69Z"/>
    <path class="cls-1" d="m52.7,32.78c-1.77-.69-3.77.18-4.46,1.95-.25.64-.62,1.81-1,3.09-.43,1.49-.88,3.14-1.15,4.21-.45,1.84.68,3.71,2.52,4.16s3.71-.68,4.16-2.52c.25-1.01.67-2.54,1.07-3.91.31-1.07.62-2.03.81-2.52.69-1.77-.18-3.77-1.95-4.46Z"/>
    <path class="cls-1" d="m52.06,99.84c-.25-.8-.46-1.61-.57-2.38-.27-1.88-2.02-3.18-3.9-2.91s-3.18,2.02-2.91,3.9c.15,1.07.45,2.26.84,3.46.41,1.29.89,2.53,1.39,3.61.79,1.72,2.84,2.47,4.56,1.68s2.47-2.84,1.68-4.56c-.41-.91-.8-1.88-1.09-2.8Z"/>
    <path class="cls-1" d="m45.87,67.63c1.9-.08,3.37-1.67,3.3-3.57-.04-1.09-.04-2.68,0-4.12.04-1.17.11-2.19.2-2.66.36-1.86-.86-3.66-2.73-4.02-1.86-.36-3.66.86-4.02,2.73-.15.79-.25,2.21-.32,3.74-.05,1.59-.06,3.37,0,4.6.08,1.9,1.67,3.38,3.57,3.3Z"/>
    <path class="cls-1" d="m46.07,87.2c1.87-.3,3.14-2.07,2.84-3.94-.14-.86-.24-1.91-.27-2.96-.03-1.09,0-2.17.07-3.01.17-1.88-1.21-3.56-3.1-3.74-1.88-.17-3.56,1.21-3.74,3.1-.11,1.13-.14,2.51-.09,3.87.04,1.35.16,2.71.35,3.84.3,1.87,2.07,3.14,3.94,2.84Z"/>
    <path class="cls-1" d="m32.13,20.31c-1.73-.78-3.77-.01-4.55,1.72l-2.62,5.77c-.78,1.73,0,3.77,1.72,4.55,1.73.78,3.77,0,4.55-1.72l2.62-5.77c.78-1.73,0-3.77-1.72-4.55Z"/>
    <path class="cls-1" d="m24.08,38.96c-1.82-.52-3.73.54-4.25,2.37-.19.66-.44,1.86-.69,3.18l-.02.12c-.29,1.54-.57,3.16-.72,4.18-.27,1.88,1.03,3.63,2.91,3.9s3.63-1.03,3.9-2.91c.15-1.05.41-2.57.66-3.89l.02-.11c.21-1.09.42-2.08.56-2.58.52-1.83-.54-3.74-2.37-4.26Z"/>
    <path class="cls-1" d="m24.64,86.65c-.13-1.01-.21-2.08-.21-2.98,0-1.91-1.54-3.45-3.45-3.45s-3.45,1.55-3.45,3.45c0,1.07.11,2.45.29,3.87.18,1.35.43,2.69.72,3.79.48,1.84,2.36,2.93,4.2,2.45s2.93-2.36,2.45-4.2c-.22-.86-.42-1.9-.55-2.93Z"/>
    <path class="cls-1" d="m20.68,74.31c1.88-.26,3.19-2,2.93-3.88-.14-1.06-.29-2.63-.38-4.06-.07-1.22-.11-2.27-.07-2.7.17-1.89-1.22-3.56-3.11-3.73s-3.56,1.22-3.73,3.11c-.08.84-.05,2.25.04,3.73.1,1.59.27,3.36.44,4.6.26,1.88,2,3.19,3.88,2.93Z"/>
    <path class="cls-1" d="m104.88,18C93.77,6.88,78.4,0,61.44,0S29.11,6.88,18,18C6.88,29.11,0,44.48,0,61.44s6.88,32.33,18,43.45c6.57,6.57,14.62,11.66,23.61,14.72.2.09.4.15.6.2,6.05,1.99,12.51,3.07,19.23,3.07,16.96,0,32.32-6.88,43.44-18,11.12-11.11,18-26.48,18-43.44s-6.88-32.32-18-43.44Z"/>
    <path class="cls-1" d="m30.06,106.07c-.17-.38-.33-.76-.47-1.14-.18-.5-.34-.99-.46-1.47-.45-1.85-2.32-2.97-4.16-2.52-.29.07-.57.17-.82.31-.43-.4-.86-.82-1.28-1.24-9.88-9.87-15.98-23.51-15.98-38.57s6.11-28.7,15.98-38.57c3.91-3.91,8.42-7.24,13.37-9.82.27.94.93,1.75,1.89,2.18,1.73.78,3.77.01,4.55-1.72l1.43-3.15c.11-.24.19-.48.24-.73,2-.66,4.04-1.21,6.13-1.63-10.42,11.86-16.78,28.63-19.44,46-3.03,19.76-1.26,40.45,4.73,55.59-1.98-1.06-3.88-2.23-5.71-3.52Z"/>
    <path class="cls-1" d="m100.01,100c-9.87,9.88-23.51,15.98-38.57,15.98-.41,0-.83,0-1.24-.01-.03-.15-.06-.3-.08-.45-.27-1.88-2.02-3.18-3.9-2.91-1.5.22-2.63,1.37-2.89,2.78-2.77-.42-5.47-1.04-8.08-1.84-8-13.94-10.73-36.72-7.39-58.53,2.95-19.29,10.65-37.64,23.64-48.13,1.95.01,3.87.11,5.76.3-.12,1.3.51,2.61,1.71,3.3,1.65.94,3.75.37,4.69-1.27l.49-.85c9.96,2.38,18.86,7.49,25.86,14.49,9.87,9.87,15.98,23.51,15.98,38.57s-6.11,28.7-15.98,38.57Z"/>
    <path class="cls-1" d="m62.51,15c-1.65-.94-3.75-.37-4.69,1.27l-3.17,5.49c-.94,1.65-.38,3.75,1.27,4.69s3.75.37,4.69-1.27l3.17-5.49c.94-1.65.38-3.75-1.27-4.69Z"/>
    <path class="cls-1" d="m52.7,32.78c-1.77-.69-3.77.18-4.46,1.95-.25.64-.62,1.81-1,3.09-.43,1.49-.88,3.14-1.15,4.21-.45,1.84.68,3.71,2.52,4.16s3.71-.68,4.16-2.52c.25-1.01.67-2.54,1.07-3.91.31-1.07.62-2.03.81-2.52.69-1.77-.18-3.77-1.95-4.46Z"/>
    <path class="cls-1" d="m52.06,99.84c-.25-.8-.46-1.61-.57-2.38-.27-1.88-2.02-3.18-3.9-2.91s-3.18,2.02-2.91,3.9c.15,1.07.45,2.26.84,3.46.41,1.29.89,2.53,1.39,3.61.79,1.72,2.84,2.47,4.56,1.68s2.47-2.84,1.68-4.56c-.41-.91-.8-1.88-1.09-2.8Z"/>
    <path class="cls-1" d="m45.87,67.63c1.9-.08,3.37-1.67,3.3-3.57-.04-1.09-.04-2.68,0-4.12.04-1.17.11-2.19.2-2.66.36-1.86-.86-3.66-2.73-4.02-1.86-.36-3.66.86-4.02,2.73-.15.79-.25,2.21-.32,3.74-.05,1.59-.06,3.37,0,4.6.08,1.9,1.67,3.38,3.57,3.3Z"/>
    <path class="cls-1" d="m46.07,87.2c1.87-.3,3.14-2.07,2.84-3.94-.14-.86-.24-1.91-.27-2.96-.03-1.09,0-2.17.07-3.01.17-1.88-1.21-3.56-3.1-3.74-1.88-.17-3.56,1.21-3.74,3.1-.11,1.13-.14,2.51-.09,3.87.04,1.35.16,2.71.35,3.84.3,1.87,2.07,3.14,3.94,2.84Z"/>
    <path class="cls-1" d="m31.23,30.63l2.62-5.77c.78-1.73,0-3.77-1.72-4.55-1.73-.78-3.77-.01-4.55,1.72l-2.62,5.77c-.78,1.73,0,3.77,1.72,4.55,1.73.78,3.77,0,4.55-1.72Z"/>
    <path class="cls-1" d="m24.08,38.96c-1.82-.52-3.73.54-4.25,2.37-.19.66-.44,1.86-.69,3.18l-.02.12c-.29,1.54-.57,3.16-.72,4.18-.27,1.88,1.03,3.63,2.91,3.9s3.63-1.03,3.9-2.91c.15-1.05.41-2.57.66-3.89l.02-.11c.21-1.09.42-2.08.56-2.58.52-1.83-.54-3.74-2.37-4.26Z"/>
    <path class="cls-1" d="m24.64,86.65c-.13-1.01-.21-2.08-.21-2.98,0-1.91-1.54-3.45-3.45-3.45s-3.45,1.55-3.45,3.45c0,1.07.11,2.45.29,3.87.18,1.35.43,2.69.72,3.79.48,1.84,2.36,2.93,4.2,2.45,1.84-.48,2.93-2.36,2.45-4.2-.22-.86-.42-1.9-.55-2.93Z"/>
    <path class="cls-1" d="m20.68,74.31c1.88-.26,3.19-2,2.93-3.88-.14-1.06-.29-2.63-.38-4.06-.07-1.22-.11-2.27-.07-2.7.17-1.89-1.22-3.56-3.11-3.73s-3.56,1.22-3.73,3.11c-.08.84-.05,2.25.04,3.73.1,1.59.27,3.36.44,4.6.26,1.88,2,3.19,3.88,2.93Z"/>
    <path class="cls-2" d="m31.04,54c2.66-17.37,9.02-34.14,19.44-46-2.09.42-4.13.97-6.13,1.63-.05.25-.13.49-.24.73l-1.43,3.15c-.78,1.73-2.82,2.5-4.55,1.72-.96-.43-1.62-1.24-1.89-2.18-4.95,2.58-9.46,5.91-13.37,9.82-9.87,9.87-15.98,23.51-15.98,38.57s6.1,28.7,15.98,38.57c.42.42.85.84,1.28,1.24.25-.14.53-.24.82-.31,1.84-.45,3.71.67,4.16,2.52.12.48.28.97.46,1.47.14.38.3.76.47,1.14,1.83,1.29,3.73,2.46,5.71,3.52-5.99-15.14-7.76-35.83-4.73-55.59h0Z"/>
    <path class="cls-1" d="m16.36,66.78c-.09-1.48-.12-2.89-.04-3.73.17-1.89,1.84-3.28,3.73-3.11s3.28,1.84,3.11,3.73c-.04.43,0,1.48.07,2.7.09,1.43.24,3,.38,4.06.26,1.88-1.05,3.62-2.93,3.88s-3.62-1.05-3.88-2.93c-.17-1.24-.34-3.01-.44-4.6Z"/>
    <path class="cls-1" d="m22.74,93.78c-1.84.48-3.72-.61-4.2-2.45-.29-1.1-.54-2.44-.72-3.79-.18-1.42-.29-2.8-.29-3.87,0-1.9,1.54-3.45,3.45-3.45s3.45,1.54,3.45,3.45c0,.9.08,1.97.21,2.98.13,1.03.33,2.07.55,2.93.48,1.84-.61,3.72-2.45,4.2Z"/>
    <path class="cls-1" d="m26.45,43.22c-.14.5-.35,1.49-.56,2.58l-.02.11c-.25,1.32-.51,2.84-.66,3.89-.27,1.88-2.02,3.18-3.9,2.91s-3.18-2.02-2.91-3.9c.15-1.02.43-2.64.72-4.18l.02-.12c.25-1.32.5-2.52.69-3.18.52-1.83,2.43-2.89,4.25-2.37,1.83.52,2.89,2.43,2.37,4.26Z"/>
    <path class="cls-1" d="m26.68,32.35c-1.73-.78-2.5-2.82-1.72-4.55l2.62-5.77c.78-1.73,2.82-2.5,4.55-1.72s2.5,2.82,1.72,4.55l-2.62,5.77c-.78,1.73-2.82,2.5-4.55,1.72Z"/>
    <path class="cls-2" d="m100.01,22.86c-7-7-15.9-12.11-25.86-14.49l-.49.85c-.94,1.64-3.04,2.21-4.69,1.27-1.2-.69-1.83-2-1.71-3.3-1.89-.19-3.81-.29-5.76-.3-12.99,10.49-20.69,28.84-23.64,48.13-3.34,21.81-.61,44.59,7.39,58.53,2.61.8,5.31,1.42,8.08,1.84.26-1.41,1.39-2.56,2.89-2.78,1.88-.27,3.63,1.03,3.9,2.91.02.15.05.3.08.45.41.01.83.01,1.24.01,15.06,0,28.7-6.1,38.57-15.98,9.87-9.87,15.98-23.51,15.98-38.57s-6.11-28.7-15.98-38.57Z"/>
    <path class="cls-1" d="m42.31,59.73c.07-1.53.17-2.95.32-3.74.36-1.87,2.16-3.09,4.02-2.73,1.87.36,3.09,2.16,2.73,4.02-.09.47-.16,1.49-.2,2.66-.05,1.44-.05,3.03,0,4.12.07,1.9-1.4,3.49-3.3,3.57-1.9.08-3.49-1.4-3.57-3.3-.05-1.23-.04-3.01,0-4.6Z"/>
    <path class="cls-1" d="m42.13,84.36c-.19-1.13-.31-2.49-.35-3.84-.05-1.36-.02-2.74.09-3.87.18-1.89,1.86-3.27,3.74-3.1,1.89.18,3.27,1.86,3.1,3.74-.08.84-.1,1.92-.07,3.01.03,1.05.13,2.1.27,2.96.3,1.87-.97,3.64-2.84,3.94s-3.64-.97-3.94-2.84Z"/>
    <path class="cls-1" d="m51.47,107.2c-1.72.79-3.77.04-4.56-1.68-.5-1.08-.98-2.32-1.39-3.61-.39-1.2-.69-2.39-.84-3.46-.27-1.88,1.03-3.63,2.91-3.9,1.88-.27,3.63,1.03,3.9,2.91.11.77.32,1.58.57,2.38.29.92.68,1.89,1.09,2.8.79,1.72.04,3.77-1.68,4.56Z"/>
    <path class="cls-1" d="m54.65,37.24c-.19.49-.5,1.45-.81,2.52-.4,1.37-.82,2.9-1.07,3.91-.45,1.84-2.32,2.97-4.16,2.52s-2.97-2.32-2.52-4.16c.27-1.07.72-2.72,1.15-4.21.38-1.28.75-2.45,1-3.09.69-1.77,2.69-2.64,4.46-1.95s2.64,2.69,1.95,4.46Z"/>
    <path class="cls-1" d="m63.78,19.69l-3.17,5.49c-.94,1.64-3.04,2.21-4.69,1.27s-2.21-3.04-1.27-4.69l3.17-5.49c.94-1.64,3.04-2.21,4.69-1.27s2.21,3.04,1.27,4.69Z"/>
  </g>
</svg>