<?xml version="1.0" encoding="UTF-8"?>
<svg id="Layer_2" data-name="Layer 2" xmlns="http://www.w3.org/2000/svg" viewBox="0 0 20 20">
  <defs>
    <style>
      .cls-1 {
        fill: #fff;
      }

      .cls-2 {
        fill: #ff7474;
      }
    </style>
  </defs>
  <g id="Layer_2-2" data-name="Layer 2">
    <g>
      <circle className="ball-cls-1" cx="10" cy="10" r="10"/>
      <g>
        <path className="ball-cls-2" d="m16.33,3.67c-1.15-1.15-2.61-1.99-4.24-2.38l-.08.14c-.15.27-.5.36-.77.21-.2-.11-.3-.33-.28-.54-.31-.03-.63-.05-.95-.05-2.13,1.72-3.4,4.73-3.88,7.9-.55,3.58-.1,7.32,1.21,9.6.43.13.87.23,1.33.3.04-.23.23-.42.47-.46.31-.04.6.17.64.48,0,.02,0,.05.01.07.07,0,.14,0,.2,0,2.47,0,4.71-1,6.33-2.62,1.62-1.62,2.62-3.86,2.62-6.33s-1-4.71-2.62-6.33Zm-9.47,6.05c.01-.25.03-.48.05-.61.06-.31.35-.51.66-.45.31.06.51.35.45.66-.01.08-.03.24-.03.44,0,.24,0,.5,0,.68.01.31-.23.57-.54.59-.31.01-.57-.23-.59-.54,0-.2,0-.49,0-.75Zm-.03,4.04c-.03-.19-.05-.41-.06-.63,0-.22,0-.45.01-.64.03-.31.31-.54.61-.51.31.03.54.31.51.61-.01.14-.02.32-.01.49,0,.17.02.34.04.49.05.31-.16.6-.47.65-.31.05-.6-.16-.65-.47Zm1.53,3.75c-.28.13-.62,0-.75-.28-.08-.18-.16-.38-.23-.59-.06-.2-.11-.39-.14-.57-.04-.31.17-.6.48-.64s.6.17.64.48c.02.13.05.26.09.39.05.15.11.31.18.46.13.28,0,.62-.28.75Zm.52-11.48c-.03.08-.08.24-.13.41-.07.22-.13.48-.18.64-.07.3-.38.49-.68.41-.3-.07-.49-.38-.41-.68.04-.18.12-.45.19-.69.06-.21.12-.4.16-.51.11-.29.44-.43.73-.32.29.11.43.44.32.73Zm1.5-2.88l-.52.9c-.15.27-.5.36-.77.21-.27-.15-.36-.5-.21-.77l.52-.9c.15-.27.5-.36.77-.21.27.15.36.5.21.77Z"/>
        <path className="ball-cls-2" d="m5.01,8.77c.44-2.85,1.48-5.6,3.19-7.55-.34.07-.68.16-1.01.27,0,.04-.02.08-.04.12l-.23.52c-.13.28-.46.41-.75.28-.16-.07-.27-.2-.31-.36-.81.42-1.55.97-2.19,1.61-1.62,1.62-2.62,3.86-2.62,6.33s1,4.71,2.62,6.33c.07.07.14.14.21.2.04-.02.09-.04.13-.05.3-.07.61.11.68.41.02.08.05.16.08.24.02.06.05.12.08.19.3.21.61.4.94.58-.98-2.48-1.27-5.88-.78-9.12Zm-2.41,2.1c-.01-.24-.02-.47,0-.61.03-.31.3-.54.61-.51.31.03.54.3.51.61,0,.07,0,.24.01.44.01.23.04.49.06.67.04.31-.17.59-.48.64s-.59-.17-.64-.48c-.03-.2-.06-.49-.07-.75Zm1.05,4.43c-.3.08-.61-.1-.69-.4-.05-.18-.09-.4-.12-.62-.03-.23-.05-.46-.05-.64,0-.31.25-.57.57-.57s.57.25.57.57c0,.15.01.32.03.49.02.17.05.34.09.48.08.3-.1.61-.4.69Zm.61-8.3c-.02.08-.06.24-.09.42v.02c-.04.22-.09.47-.11.64-.04.31-.33.52-.64.48-.31-.04-.52-.33-.48-.64.02-.17.07-.43.12-.69v-.02c.04-.22.09-.41.12-.52.09-.3.4-.47.7-.39.3.09.47.4.39.7Zm.04-1.78c-.28-.13-.41-.46-.28-.75l.43-.95c.13-.28.46-.41.75-.28.28.13.41.46.28.75l-.43.95c-.13.28-.46.41-.75.28Z"/>
      </g>
    </g>
  </g>
</svg>