<?xml version="1.0" encoding="UTF-8"?>
<svg id="Layer_2" data-name="Layer 2" xmlns="http://www.w3.org/2000/svg" viewBox="0 0 121.87 121.87">
  <defs>
    <style>
      .cls-1 {
        fill: #fff;
      }

      .cls-2 {
        fill: #ff7474;
      }
    </style>
  </defs>
  <g id="Layer_2-2" data-name="Layer 2">
    <g>
      <circle class="ball-cls-1" cx="60.94" cy="60.94" r="60.94"/>
      <g>
        <path class="ball-cls-2" d="m99.5,22.36c-7-7-15.9-12.11-25.86-14.49l-.49.85c-.94,1.64-3.04,2.21-4.69,1.27-1.2-.69-1.83-2-1.71-3.3-1.89-.19-3.81-.29-5.76-.3-12.99,10.49-20.69,28.84-23.64,48.13-3.34,21.81-.61,44.59,7.39,58.53,2.61.8,5.31,1.42,8.08,1.84.26-1.41,1.39-2.56,2.89-2.78,1.88-.27,3.63,1.03,3.9,2.91.02.15.05.3.08.45.41.01.83.01,1.24.01,15.06,0,28.7-6.1,38.57-15.98,9.87-9.87,15.98-23.51,15.98-38.57s-6.11-28.7-15.98-38.57Zm-57.7,36.87c.07-1.53.17-2.95.32-3.74.36-1.87,2.16-3.09,4.02-2.73,1.87.36,3.09,2.16,2.73,4.02-.09.47-.16,1.49-.2,2.66-.05,1.44-.05,3.03-.01,4.12.07,1.9-1.4,3.49-3.3,3.57-1.9.08-3.49-1.4-3.57-3.3-.05-1.23-.04-3.01,0-4.6Zm-.18,24.63c-.19-1.13-.31-2.49-.35-3.84-.05-1.36-.02-2.74.09-3.87.18-1.89,1.86-3.27,3.74-3.1,1.89.18,3.27,1.86,3.1,3.74-.08.84-.1,1.92-.07,3.01.03,1.05.13,2.1.27,2.96.3,1.87-.97,3.64-2.84,3.94-1.87.3-3.64-.97-3.94-2.84Zm9.34,22.84c-1.72.79-3.77.04-4.56-1.68-.5-1.08-.98-2.32-1.39-3.61-.39-1.2-.69-2.39-.84-3.46-.27-1.88,1.03-3.63,2.91-3.9s3.63,1.03,3.9,2.91c.11.77.32,1.58.57,2.38.29.92.68,1.89,1.09,2.8.79,1.72.04,3.77-1.68,4.56Zm3.18-69.96c-.19.49-.5,1.45-.81,2.52-.4,1.37-.82,2.9-1.07,3.91-.45,1.84-2.32,2.97-4.16,2.52-1.84-.45-2.97-2.32-2.52-4.16.27-1.07.72-2.72,1.15-4.21.38-1.28.75-2.45,1-3.09.69-1.77,2.69-2.64,4.46-1.95,1.77.69,2.64,2.69,1.95,4.46Zm9.13-17.55l-3.17,5.49c-.94,1.64-3.04,2.21-4.69,1.27-1.65-.94-2.21-3.04-1.27-4.69l3.17-5.49c.94-1.64,3.04-2.21,4.69-1.27,1.65.94,2.21,3.04,1.27,4.69Z"/>
        <path class="ball-cls-2" d="m30.54,53.42c2.66-17.37,9.02-34.14,19.44-46-2.09.42-4.13.97-6.13,1.63-.05.25-.13.49-.24.73l-1.43,3.15c-.78,1.73-2.82,2.5-4.55,1.72-.96-.43-1.62-1.24-1.89-2.18-4.95,2.58-9.46,5.91-13.37,9.82-9.87,9.87-15.98,23.51-15.98,38.57s6.1,28.7,15.98,38.57c.42.42.85.84,1.28,1.24.25-.14.53-.24.82-.31,1.84-.45,3.71.67,4.16,2.52.12.48.28.97.46,1.47.14.38.3.76.47,1.14,1.83,1.29,3.73,2.46,5.71,3.52-5.99-15.14-7.76-35.83-4.73-55.59Zm-14.68,12.78c-.09-1.48-.12-2.89-.04-3.73.17-1.89,1.84-3.28,3.73-3.11,1.89.17,3.28,1.84,3.11,3.73-.04.43,0,1.48.07,2.7.09,1.43.24,3,.38,4.06.26,1.88-1.05,3.62-2.93,3.88s-3.62-1.05-3.88-2.93c-.17-1.24-.34-3.01-.44-4.6Zm6.38,27c-1.84.48-3.72-.61-4.2-2.45-.29-1.1-.54-2.44-.72-3.79-.18-1.42-.29-2.8-.29-3.87,0-1.9,1.54-3.45,3.45-3.45s3.45,1.54,3.45,3.45c0,.9.08,1.97.21,2.98.13,1.03.33,2.07.55,2.93.48,1.84-.61,3.72-2.45,4.2Zm3.71-50.56c-.14.5-.35,1.49-.56,2.58l-.02.11c-.25,1.32-.51,2.84-.66,3.89-.27,1.88-2.02,3.18-3.9,2.91-1.88-.27-3.18-2.02-2.91-3.9.15-1.02.43-2.64.72-4.18l.02-.12c.25-1.32.5-2.52.69-3.18.52-1.83,2.43-2.89,4.25-2.37,1.83.52,2.89,2.43,2.37,4.26Zm.23-10.87c-1.73-.78-2.5-2.82-1.72-4.55l2.62-5.77c.78-1.73,2.82-2.5,4.55-1.72,1.73.78,2.5,2.82,1.72,4.55l-2.62,5.77c-.78,1.73-2.82,2.5-4.55,1.72Z"/>
      </g>
    </g>
  </g>
</svg>