<?xml version="1.0" encoding="UTF-8"?>
<svg id="Layer_2" data-name="Layer 2" xmlns="http://www.w3.org/2000/svg" viewBox="0 0 40 40">
  <defs>
    <style>
      .cls-1 {
        fill: #fff;
      }

      .cls-2 {
        fill: #ff7474;
      }
    </style>
  </defs>
  <g id="Layer_2-2" data-name="Layer 2">
    <g>
      <circle class="ball-cls-1" cx="20" cy="20" r="20"/>
      <g>
        <path class="cls-2" d="m32.66,7.34c-2.3-2.3-5.22-3.97-8.49-4.76l-.16.28c-.31.54-1,.73-1.54.42-.39-.23-.6-.66-.56-1.08-.62-.06-1.25-.1-1.89-.1-4.26,3.44-6.79,9.47-7.76,15.8-1.1,7.16-.2,14.63,2.43,19.21.86.26,1.74.47,2.65.6.09-.46.46-.84.95-.91.62-.09,1.19.34,1.28.96,0,.05.02.1.03.15.13,0,.27,0,.41,0,4.94,0,9.42-2,12.66-5.24,3.24-3.24,5.24-7.72,5.24-12.66s-2.01-9.42-5.24-12.66Zm-18.94,12.1c.02-.5.06-.97.11-1.23.12-.61.71-1.01,1.32-.9.61.12,1.01.71.9,1.32-.03.15-.05.49-.07.87-.02.47-.02.99,0,1.35.02.62-.46,1.15-1.08,1.17-.62.03-1.15-.46-1.17-1.08-.02-.4-.01-.99,0-1.51Zm-.06,8.08c-.06-.37-.1-.82-.11-1.26-.02-.45,0-.9.03-1.27.06-.62.61-1.07,1.23-1.02.62.06,1.07.61,1.02,1.23-.03.28-.03.63-.02.99,0,.34.04.69.09.97.1.61-.32,1.19-.93,1.29-.61.1-1.19-.32-1.29-.93Zm3.07,7.5c-.56.26-1.24.01-1.5-.55-.16-.35-.32-.76-.46-1.18-.13-.39-.23-.78-.28-1.14-.09-.62.34-1.19.96-1.28s1.19.34,1.28.96c.04.25.11.52.19.78.1.3.22.62.36.92.26.56.01,1.24-.55,1.5Zm1.04-22.96c-.06.16-.16.48-.27.83-.13.45-.27.95-.35,1.28-.15.6-.76.97-1.37.83-.6-.15-.97-.76-.83-1.37.09-.35.24-.89.38-1.38.12-.42.25-.8.33-1.01.23-.58.88-.87,1.46-.64.58.23.87.88.64,1.46Zm3-5.76l-1.04,1.8c-.31.54-1,.73-1.54.42-.54-.31-.73-1-.42-1.54l1.04-1.8c.31-.54,1-.73,1.54-.42.54.31.73,1,.42,1.54Z"/>
        <path class="ball=cls-2" d="m10.02,17.53c.87-5.7,2.96-11.2,6.38-15.1-.69.14-1.36.32-2.01.53-.02.08-.04.16-.08.24l-.47,1.03c-.26.57-.93.82-1.49.56-.32-.14-.53-.41-.62-.72-1.62.85-3.1,1.94-4.39,3.22-3.24,3.24-5.24,7.72-5.24,12.66s2,9.42,5.24,12.66c.14.14.28.28.42.41.08-.05.17-.08.27-.1.6-.15,1.22.22,1.37.83.04.16.09.32.15.48.05.12.1.25.15.37.6.42,1.22.81,1.87,1.16-1.97-4.97-2.55-11.76-1.55-18.24Zm-4.82,4.19c-.03-.49-.04-.95-.01-1.22.06-.62.6-1.08,1.22-1.02.62.06,1.08.6,1.02,1.22-.01.14,0,.49.02.89.03.47.08.98.12,1.33.09.62-.34,1.19-.96,1.27s-1.19-.34-1.27-.96c-.06-.41-.11-.99-.14-1.51Zm2.09,8.86c-.6.16-1.22-.2-1.38-.8-.1-.36-.18-.8-.24-1.24-.06-.47-.1-.92-.1-1.27,0-.62.51-1.13,1.13-1.13s1.13.51,1.13,1.13c0,.3.03.65.07.98.04.34.11.68.18.96.16.6-.2,1.22-.8,1.38Zm1.22-16.59c-.05.16-.11.49-.18.85v.04c-.09.43-.17.93-.22,1.28-.09.62-.66,1.04-1.28.96-.62-.09-1.04-.66-.96-1.28.05-.33.14-.87.24-1.37v-.04c.09-.43.17-.83.23-1.04.17-.6.8-.95,1.39-.78.6.17.95.8.78,1.4Zm.08-3.57c-.57-.26-.82-.93-.56-1.49l.86-1.89c.26-.57.93-.82,1.49-.56.57.26.82.93.56,1.49l-.86,1.89c-.26.57-.93.82-1.49.56Z"/>
      </g>
    </g>
  </g>
</svg>