<?xml version="1.0" encoding="UTF-8"?>
<svg id="Layer_2" data-name="Layer 2" xmlns="http://www.w3.org/2000/svg" viewBox="0 0 423.01 161.89">
  <defs>
    <style>
      .cls-1 {
        fill: #fdd082;
      }

      .cls-2 {
        fill: #fee1ae;
      }

      .cls-3 {
        fill: #fee7be;
      }

      .cls-4 {
        fill: #fee4b7;
      }

      .cls-5 {
        fill: #fff;
      }

      .cls-6 {
        fill: #fcbd4d;
      }

      .cls-7 {
        fill: #feeccd;
      }

      .cls-8 {
        fill: #feeed1;
      }

      .cls-9 {
        fill: #fcc460;
      }

      .cls-10 {
        fill: #fcc461;
      }

      .cls-11 {
        fill: #fcc056;
      }

      .cls-12 {
        fill: #fcc667;
      }

      .cls-13 {
        fill: #fcb63b;
      }

      .cls-14 {
        fill: #fdd288;
      }

      .cls-15 {
        fill: #fdd389;
      }

      .cls-16 {
        fill: #fdd388;
      }

      .cls-17 {
        fill: #fdd38a;
      }

      .cls-18 {
        fill: #fdc96f;
      }

      .cls-19 {
        fill: #fddfaa;
      }

      .cls-20 {
        fill: #fdda9d;
      }

      .cls-21 {
        fill: #fdda9c;
      }
    </style>
  </defs>
  <g id="Layer_2-2" data-name="Layer 2">
    <path class="cls-13" d="m293.67,96.78c1.41.61,2.82,1.23,4.24,1.84.49,1.04,1.23,1.27,2.21.66.92.02,1.7.38,2.4.95.89,1.74.93,1.76,2.46.88,1,.01,1.93.23,2.66.98,1.02,2.01,3.15,2.76,5.38,1.89.1-.02.2-.04.3-.06.78-.15,1.42.19,2.07.54.39,1.05,1.22,1.39,2.48,1.03.1,0,.19,0,.28-.04.44-.31.89-.17,1.34,0,.73.37,1.59.43,2.29.9.3.13.6.26.9.39,1.02-.1,1.99,0,2.73.83,1.61.4,3.22.8,4.83,1.21.78-.42,1.46-.11,2.11.3.2.1.4.2.6.3.78-.42,1.46-.11,2.11.3.6.58,1.47.18,2.11.6.33-.25.7-.29,1.08-.17.14.06.27.13.37.24.87,1.07,1.85,1.22,2.96.44,1.19.02,2.37.12,3.44.7l3.63.7c.6.66,1.15,1.45,2.2.67.27-.2.57-.17.8.07.87.94,1.66.52,2.44-.14,1.19-.3,2.3.45,3.47.25.46-.08.99.22,1.37-.26,1.01-.34,1.9.14,2.83.41.59.01,1.18,0,1.77,0h10.28c.59.1,1.1-.16,1.62-.38.54-.15,1.08-.19,1.62-.04.56.34,1.18.28,1.8.25.79.63,1.5.6,2.12-.24.2-.03.4-.07.6-.1.14-.06.27-.05.4.03.44.55.89.78,1.67.5,1.12-.4,2.35-.07,3.52-.3,1.21-.24,2.5-.34,3.17-1.63,1.24-.08,2.44-.33,3.63-.7.83-.55,1.69-.93,2.71-.6.38.14.62-.16.91-.3.9-.71,1.98-.75,3.05-.85.4-.07.88.18,1.19-.28.77-.7,1.69-.95,2.71-.92,1.28-.2,2.51-.59,3.65-1.21.26-.8,1.08-.23,1.51-.6.81.13,1.35-.57,2.08-.68,1.71-1.35,3.71-2.04,5.76-2.64,1.3-.41,2.48-1.05,3.62-1.78.48-.54.92-1.21,1.8-.64v10.86c-.61.93-1.05,2.18-2.59,1.1-.36-.25-.94.01-1.24.35-.38.41.06.75.32,1.02,1.22,1.25,1.77,2.64,1.06,4.37-.15.35-.31.86.19,1.06.56.21,1.09-.02,1.46-.49.27-.35.02-1.08.79-1.07v44.33c-1.54.32-3.1.07-4.64.15h-1.57c-.66.06-1.33-.13-1.98.12-1.49-.2-2.99-.39-4.48-.59-.43.07-.85.05-1.21-.23-1.82-.4-3.63-.8-5.45-1.21-.45.11-.83-.06-1.2-.3l-.61-.31c-.94.35-1.67-.14-2.41-.6-.27-.16-.51-.41-.87-.36-.65-.2-1.46-.04-1.84-.83-.41-.1-.81-.21-1.22-.31-.36.09-.63-.11-.89-.3-.21-.1-.41-.2-.62-.3-.36.09-.63-.11-.89-.3-.41-.2-.81-.4-1.22-.6-.36.09-.63-.11-.89-.31-1.01-.5-2.02-1.01-3.03-1.51-1.54-.14-2.77-.91-3.91-1.88-.9-.5-1.8-.99-2.7-1.49-.44-.14-.96-.14-1.22-.62-.5-.29-1-.59-1.5-.88-.44-.14-.96-.14-1.22-.62-.3-.19-.6-.39-.89-.58-.44-.14-.96-.14-1.22-.62-.81-.5-1.61-1-2.42-1.5-.69.05-1.08-.44-1.52-.83l-2.08-1.26c-.48-.17-.98-.32-1.24-.82-.09-.05-.18-.08-.28-.08-.44-.14-.96-.14-1.22-.63-1.51-.9-3.01-1.79-4.52-2.69-.44-.14-.96-.14-1.22-.63-.5-.29-1-.59-1.5-.88-.71-.11-1.38-.29-1.83-.93-2.54-1.44-5.14-2.77-7.84-3.9-.6-.12-1.2-.24-1.54-.84-.31-.1-.61-.2-.92-.3-.36.09-.63-.11-.89-.3-1.52-.84-3.15-1.38-4.8-1.87-.6-.22-1.32-.07-1.84-.54-1.25-.62-2.57-.97-3.94-1.2-.44.06-.81-.14-1.19-.3-2.09-.55-4.17-1.19-6.36-1.21-.45.11-.83-.06-1.2-.3-2.3-.48-4.68-.12-6.96-.7-1.1-.17-2.2-.17-3.3,0-3.61.52-7.29.37-10.89,1.01-.47.37-.99.34-1.52.22l-5.12.69c-.27.23-.59.26-.92.22-1.54,0-3.02.4-4.52.69-.45.34-.95.44-1.5.3-1.46-.11-2.83.39-4.24.6-.45.34-.95.44-1.5.3-1.97.19-3.94.29-5.89.59-2.06.32-4.12.56-6.2.61-.46.37-.99.34-1.52.23-.29,0-.58,0-.86,0-2.04-.19-4.07-.19-6.11,0-3.54-.29-7.07-.64-10.54-1.48-.33.02-.65,0-.91-.24-.44.04-.74-.5-1.22-.3-.45.11-.84-.06-1.2-.3-1.01-.4-2.02-.8-3.03-1.2-.36.09-.63-.11-.89-.3-2.01-1.03-4.02-2.06-6.03-3.09-.9-.19-1.56-.74-2.13-1.42-.49-.32-.99-.65-1.48-.97-.77-.17-1.4-.56-1.83-1.23-.5-.39-.99-.79-1.49-1.18-2.52-1.32-4.51-3.26-6.38-5.36-.29-.22-.58-.45-.87-.67-.96-.43-1.62-1.17-2.15-2.06-.59-.52-1.19-1.04-1.78-1.56-1.08-.51-1.84-1.37-2.45-2.36-.49-.42-.98-.84-1.47-1.26-1.08-.51-1.83-1.37-2.45-2.35l-.37-.35c-2.14-1.27-3.88-3.05-5.82-4.57-.76-.59-1.61-1.08-2.34-1.71-.23-.16-.34-.42-.53-.61-4.01-2.91-8.32-5.28-13-6.93-.36.09-.63-.11-.89-.3-.2-.1-.41-.21-.61-.31-.58.3-1.05.03-1.5-.3-3.01-1.17-6.16-1.64-9.36-1.88-.44.11-.86.06-1.21-.24-.3-.02-.59-.04-.89-.06-.57-.26-1.17-.07-1.75-.13-1.75.08-3.51-.16-5.25.14-4.27.16-8.49.63-12.66,1.58-.37.29-.78.33-1.22.22-1.03.14-2.07.2-3.02.69-.38.21-.79.28-1.21.22-2.46.4-4.88,1.02-7.25,1.8-.34.35-.78.33-1.21.31-.72.13-1.46.21-2.11.6-.37.36-.77.39-1.2.11-2.12.67-4.24,1.34-6.36,2-.33.41-.76.4-1.22.27-.31.08-.71-.06-.9.33-.37.36-.77.39-1.2.11-1.82.57-3.63,1.13-5.45,1.7-.32.41-.75.4-1.21.3-1.23.25-2.47.45-3.62.99-.37.29-.78.33-1.22.22-1.44.2-2.85.49-4.22.99-.87.39-1.77.6-2.73.52-1.41.23-2.81.46-4.22.69-.4.27-.8.3-1.21.01-1.97.56-4.02.47-6.02.79-.5-.21-1.02-.06-1.53-.11-.51.05-1.03-.11-1.52.11h-4.84c-.7-.18-1.4-.15-2.11-.02-1.53.3-3-.45-4.53-.26-.44.11-.85.06-1.21-.23-1.03.08-1.98-.55-3.02-.3-.48.19-.85-.05-1.21-.31-.2,0-.4,0-.61.01-.48.19-.85-.05-1.21-.31-.72.04-1.36-.56-2.12-.29-.47.19-.84-.04-1.21-.3-3.98-.82-7.97-1.64-11.95-2.45-.14-.03-.3.02-.45.04-.58.29-1.05.03-1.5-.31-3.89-.77-7.82-1.23-11.77-1.58-.56-.25-1.15-.07-1.72-.12h-3.83c-.55.07-1.15-.19-1.65.23-.48.45-1.1-.13-1.58.22-2.81.19-5.51.92-8.14,1.88-.51.47-1.05.83-1.8.61-.41.27-.83.53-1.24.8-.38.48-.82.82-1.49.7-.35,0-.49.25-.63.51-.29.48-.76.69-1.23.92-.39.31-.97.34-1.18.88-.35.6-.81,1.05-1.51,1.21-.58.43-1.14.88-1.51,1.51-.41.52-.81,1.05-1.51,1.2-1.99,1.84-3.95,3.7-5.74,5.73-.54.58-.97,1.29-1.82,1.51-.4.39-.81.79-1.21,1.18-.46.69-1.08,1.19-1.82,1.55-.48.42-1.15.59-1.5,1.17-.27.49-.76.7-1.23.94-.79.53-1.59,1.06-2.38,1.59-.3.4-.65.68-1.2.58-.71.4-1.42.81-2.13,1.21-1.08.8-2.24,1.42-3.64,1.4-1.4.3-2.1-.28-2.1-1.75C0,80.09,0,40.1,0,.1c.26-.22.47-.03.68.09.29.24.59.45.9.65.28.19.39.48.49.78.71.7,1.42,1.4,2.13,2.1.37.03.61.28.87.5.9.83,1.67,1.79,2.67,2.5.97.79,1.95,1.56,2.5,2.74l2.11,2.11c.38.01.63.26.89.49,1.46,1.54,2.72,3.28,4.44,4.58.5.3.81.76,1.02,1.29,1.41,1.4,2.83,2.79,4.24,4.19.36.02.58.26.83.47.36.36.72.72,1.14,1.02.21.17.32.41.44.64.51.5,1.01.99,1.52,1.49.35.02.57.26.82.47.27.26.55.52.86.74.21.16.31.4.43.62l.61.59c.35.02.58.26.82.47.27.27.56.52.88.73.36.21.52.57.71.91.2.2.4.4.61.59.58.08,1.01.35,1.2.92.2.2.41.39.61.59,1.05.33,1.77,1.11,2.53,1.84.26.28.57.49.89.69.36.26.66.59.99.89.28.27.62.47.94.68,1.19.95,2.42,1.84,3.55,2.86.29.29.64.51.98.75,2.77,2.27,5.7,4.33,8.6,6.43.93.67,1.94,1.23,2.67,2.15,1.58,1.38,3.39,2.42,5.16,3.53,1.07.06,1.8.79,2.65,1.29,2.15,1.27,4.21,2.67,6.43,3.82.58.3,1.12.66,1.48,1.23.2.1.41.2.61.3,1.19,0,2,.67,2.71,1.51,1.62.8,3.23,1.59,4.85,2.39.69-.15,1.28.16,1.86.44,3.5,1.74,7.12,3.17,10.8,4.5.48.17.94.35,1.22.81,1.47.61,2.97,1.16,4.53,1.49,1.76-.11,3.33.46,4.81,1.33,1.02.27,1.94.88,3.05.79,1.1-.29,2.06.12,3.01.61.51.52,1.19.29,1.79.41.99-.23,1.89-.02,2.74.5.6.15,1.16.52,1.81.3.5-.3.86,0,1.21.3,2.91.3,5.82.61,8.73.91.7-.22,1.42-.05,2.13-.11h7.46c.64.04,1.29-.09,1.92.09,1.11-.04,2.25.35,3.33-.21.38-.36.78-.37,1.2-.08h2.11c.61-.77,1.33-.77,2.12-.3,1.21-.1,2.42-.2,3.63-.3.32-.45.7-.63,1.21-.3h.3c1.02-.93,2.38-.63,3.57-.93,1.59-.4,3.21-.73,4.88-.57.34.03.7.17.93-.22,1.22-.72,2.54-.86,3.91-.68.66.22,1.22-.16,1.81-.32,1.07-.91,2.43-.54,3.64-.84.2-.02.39-.04.59-.06,2.02-1.2,4.39-1.15,6.57-1.78,1.6-.46,3.25-.85,4.94-.87.49-.02.99-.04,1.48-.06.32-.45.7-.63,1.21-.3.81-.21,1.61-.41,2.42-.62,1.31-.77,2.73-1,4.22-.89.76.23,1.4-.28,2.12-.3,1.08-.86,2.43-.82,3.68-1.07,1.86-.36,3.76-.42,5.62-.75.45-.08.9,0,1.27.31.93.22,1.77-.44,2.7-.28.62-.2,1.24-.17,1.86-.02.87-.35,1.79-.2,2.68-.3,2.02-.16,4.04-.18,6.05,0,.5.04,1.02,0,1.47.29.63-.15,1.25-.18,1.88.02,2.12.26,4.25.39,6.32.98.65.84,1.37.9,2.14.16.14-.01.27.02.39.11.41.78,1,1.07,1.91,1.36,1.23.39,2.63.67,3.64,1.64.3.29.63.53,1.05.49.77-.07,1.29.13,1.68.89.52,1.04,1.38.38,2.12.25.14,0,.28.04.41.11.65,2,4.72,4.36,6.57,3.81.14,0,.28.05.4.13.55,1.82,2.42,2.98,4.49,2.77.6,1.23,1.46,1.68,2.59,1.34.14-.03.28-.04.42-.01.28.08.53.22.71.45.37,1.81.39,1.83,2.24,1.35.14-.02.28,0,.42.02.53.22,1.08.4,1.34.98,0,1.75,1.26,1.3,2.27,1.28.1.01.19,0,.28-.04.31-.12.56.04.81.18.7.49,1.62.64,2.11,1.44.17,1.24.94,1.92,2.08,2.26,1.67.5,3.26,1.15,4.62,2.3,1.15.96,2.48,1.16,3.9.55.97.23,1.86.58,2.49,1.41.1.04.2.07.3.11.57,1.11,1.57,1.51,3.01,1.22.3.05.53.2.72.43.29,1.16.98,1.44,2.03.89.31,0,.54.14.72.37.3,1.15,1,1.34,1.99.83.14,0,.27.04.39.13.47,1.24,1.42,1.64,2.84,1.21.22,0,.43.03.62.15.2.09.37.22.47.41.43,1.54.61,1.62,2.05.83.46-.06.85.08,1.16.43l.03-.11Z"/>
    <path class="cls-15" d="m423,117.26c-.5.63-.13,1.78-1.44,1.97-1.29.19-1.86-.12-1.41-1.32.65-1.71.34-3.06-.94-4.3-.37-.36-1.04-.76-.58-1.35.47-.6,1.45-1.05,1.98-.61,1.1.92,1.43.34,1.84-.55.06-.12.36-.12.55-.18v.6c-.48.76.14,2.01-.74,2.44-1.01.5-1.24-1.16-2.49-1.21,1.53,1.52,2.54,3.07,1.48,5.16.66-.42.57-1.12.82-1.65.22-.47.45-.86.93-.22v1.21h0Z"/>
    <path class="cls-13" d="m423,116.06c-1.18-.18-.76.97-.8,1.29-.13.95-.54,1.29-1.69,1.29,1.38-2.41.67-4.35-1.36-5.91.91-.64,1.55-.63,2.04.3.2.39.44.92.96.77.47-.13.13-.73.31-1.06.21-.39.14-.91.55-1.19v4.52h-.01Z"/>
    <path class="cls-12" d="m418.15,161.61c1.61,0,3.23,0,4.84-.02v.3c-1.61,0-3.22-.03-4.82-.04-.1-.05-.14-.1-.11-.15.03-.06.06-.09.09-.09h0Z"/>
    <path class="cls-13" d="m274.96,88.61c-1.56,1.11-3,.47-4.21-.51-1.42-1.16-3.06-1.72-4.73-2.31-1.17-.41-2.26-.97-1.95-2.55.06-.1.14-.15.26-.14.15.07.2.25.34.34,3.03,1.5,6.05,3,9.08,4.5.53,0,1.12-.11,1.21.67h0Z"/>
    <path class="cls-13" d="m239.32,69.61c-1.56.97-1.89.91-2.74-.62-.14-.25-.2-.4-.52-.34-1.01.18-1.85.09-2.32-1.07-.09-.22-1.16.08-1.47-.2-.76-.69-1.48-.99-2.54-.95-.75.03-1.03-.82-1.02-1.59.4-.29.8-.08,1.19.02.12.07.22.16.31.27,2.14.6,4.05,1.74,6.06,2.63.28-.13.54,0,.79.09.5.22.95.52,1.4.81.23.14.45.27.67.43.15.14.27.29.19.51h0Z"/>
    <path class="cls-13" d="m390.36,111.28c-.12,1.16-1.54,1.96-3.1,2.09-1.32.11-2.68-.25-4,.43-.69.36-1.36-.06-1.36-1.01.09-.39.38-.63.73-.64,1.27-.06,2.51-.55,3.8-.36.71.39,1.41-.1,2.12,0,.34-.37.6-1.03,1.21-.3.2-.07.4-.13.6-.2h0Z"/>
    <path class="cls-13" d="m246.27,73.53c-1.01.78-1.71.59-2.85-.16-.92-.6-1.76-1.58-3.04-1.77-1.02-.15-.98-1.08-.78-1.92.43-.33.68.11,1.01.24.22.14.32.38.51.55.1.03.19.06.29.09.66-.11.9.41,1.22.81l.6.3c.28-.13.54,0,.79.09.5.22.95.52,1.4.81.23.14.45.27.67.43.15.14.27.29.19.51v.02Z"/>
    <path class="cls-5" d="m208.48,96.2c.2.11.4.21.6.32.56.91,1.35,1.52,2.41,1.75,1.95,1.55,3.9,3.09,5.68,4.82-1.09-.04-2.45.4-2.45-1.48,0-.1-.28-.27-.45-.3-2.38-.45-3.56-2.69-5.57-3.7-.44-.22-.18-.93-.22-1.42h0Z"/>
    <path class="cls-13" d="m313.02,103.98c-.47.93-1.21,1.1-2.14.76-.66-.24-1.31-.51-1.99-.67-1.01-.24-1.42-.84-1.32-1.84.07-.13.17-.16.3-.1,1.71.61,3.43,1.23,5.14,1.84h.01Z"/>
    <path class="cls-5" d="m228.72,113.7c2.13,1.79,4.25,3.57,6.38,5.36-1.03-.05-1.8-.17-2.78-.99-.88-.73-1.2-2.36-2.9-2.36-1.01,0-.6-1.27-.69-2.01h-.01Z"/>
    <path class="cls-13" d="m354.11,112.79c-.71,1.38-1.38,1.55-2.48.61-.23-.2-.22-.51-.73-.15-1.15.83-1.87.42-2.23-1.07.3-.03.6-.07.91-.1.61-.73.87-.07,1.21.3h.91c.79-.47,1.51-.47,2.11.3.1.03.2.07.3.1h0Z"/>
    <path class="cls-13" d="m251.06,76.27c-1,.71-1.96,1.05-2.66-.36-.12-.25-.2-.35-.52-.34-1.45.05-1.55-.85-1.33-1.96.51-.31.8.16,1.17.34.14.13.19.32.34.45.1.03.19.06.29.09.55-.08.92.18,1.2.63.21.35.5.56.92.57.19-.03.35.03.51.13.09.08.15.18.18.3-.03.05-.06.1-.09.15h0Z"/>
    <path class="cls-5" d="m384.03,151.91c1.39.44,2.62,1.23,3.91,1.88-.13.14-.23.37-.39.42-1.05.32-3.31-1.18-3.52-2.3Z"/>
    <path class="cls-13" d="m338.41,110.38c.6.04,1.18.36,1.8.19h.3c.3.13.6.26.91.39-.15.82-.65,1.18-1.46,1.16-1.14-.03-1.16-1.05-1.55-1.75h0Z"/>
    <path class="cls-13" d="m278.88,90.36c.61.32,1.22.64,1.83.96-.14.03-.3.03-.43.09-1.87.96-2.56.56-2.61-1.54.4.16.81.32,1.21.48h0Z"/>
    <path class="cls-13" d="m253.83,77.75c-1.83,1.15-2.67.7-2.77-1.48l.04-.04c.53-.37.87.08,1.27.29.23.15.34.4.53.59l.6.3c.26-.04.37.08.33.34Z"/>
    <path class="cls-5" d="m2.1,121.73c1.2-.51,2.34-1.16,3.64-1.4-.13,1.71-1.91,1.18-2.74,1.98-.31.3-.86.02-.91-.58h0Z"/>
    <path class="cls-5" d="m217.54,103.45c1.01.58,1.7,1.5,2.45,2.35-1.63.02-2.44-.76-2.45-2.35Z"/>
    <path class="cls-5" d="m221.47,107.05c.98.62,1.71,1.5,2.45,2.36-1.63.02-2.44-.77-2.45-2.36Z"/>
    <path class="cls-13" d="m304.56,100.93c.1.11.21.22.31.32-.13.74-.67.99-1.29.85-.83-.19-1.15-.85-1.13-1.67.45-.2.81.12,1.21.2.29.14.52.45.91.3h0Z"/>
    <path class="cls-13" d="m257.15,79.56c-.67.25-1.27.93-2.07.33-.62-.47-.54-1.11-.38-1.75.43-.33.68.1,1,.23.22.14.32.38.51.55.2.1.4.2.6.3.26-.04.37.08.33.34h.01Z"/>
    <path class="cls-13" d="m315.42,104.65c.21.07.41.13.62.2l1.83.64c-.55.46-.99,1.21-1.89.72-.64-.35-1.01-.82-.56-1.56h0Z"/>
    <path class="cls-13" d="m261.08,81.67c-.66.25-1.26.93-2.05.34-.54-.41-.64-.95-.39-1.57.15-.15.32-.16.52-.11.18.08.23.28.38.4.51.31,1.02.63,1.54.94Z"/>
    <path class="cls-5" d="m225.7,110.97c.88.52,1.5,1.3,2.15,2.06-1.43.01-2.14-.67-2.15-2.06Z"/>
    <path class="cls-5" d="m239.9,122.44c.8.34,1.56.75,2.13,1.42-1.67.69-2.07.42-2.13-1.42Z"/>
    <path class="cls-13" d="m381,112.79c.02.61-.14,1.09-.87,1.15-.67.05-1.2-.11-1.25-.91.66-.52,1.41-.22,2.12-.24Z"/>
    <path class="cls-13" d="m298.82,98.81c.41.21.81.43,1.22.64-.32.71-.93.73-1.53.56-.7-.2-.57-.85-.59-1.39.3.06.6.13.91.19h-.01Z"/>
    <path class="cls-13" d="m228.42,64.84c-.08.8-.63.9-1.28.85-.71-.06-.86-.54-.84-1.14.4-.03.81-.06,1.21-.09.25-.14.47-.02.69.1.1.07.18.17.22.28h0Z"/>
    <path class="cls-5" d="m116.01,99.13c.86-.44,1.75-.69,2.73-.52-.6,1-2.09,1.28-2.73.52Z"/>
    <path class="cls-5" d="m17.21,112.11c.53-.59.92-1.35,1.82-1.51-.09,1.7-.48,2.02-1.82,1.51Z"/>
    <path class="cls-5" d="m399.43,158.62c.9-.17,1.58.48,2.41.6-1.09.85-1.67.71-2.41-.6Z"/>
    <path class="cls-2" d="m265.85,130.79c2.04-.42,4.07-.44,6.11,0h-6.11Z"/>
    <path class="cls-5" d="m24.77,104.87c.42-.51.75-1.12,1.51-1.2.31.49.31.93-.21,1.28-.45.31-.9.43-1.31-.07h0Z"/>
    <path class="cls-5" d="m14.18,114.84c.53-.61.94-1.36,1.82-1.55.24,1.51-.67,1.67-1.82,1.55Z"/>
    <path class="cls-8" d="m174.01,86.19c1.8-.58,3.63-.19,5.45-.23.11.04.15.09.12.14-.03.06-.06.09-.09.09-1.83,0-3.65,0-5.48,0Z"/>
    <path class="cls-5" d="m236.59,120.25c.82.1,1.18.88,1.83,1.23-1.12.35-1.99.32-1.83-1.23Z"/>
    <path class="cls-5" d="m27.79,102.15c.32-.64.94-.89,1.51-1.21-.01,1.02.01,2.08-1.51,1.21Z"/>
    <path class="cls-5" d="m35.07,97.13c.65-.05,1.08-.76,1.8-.61-.13,1.57-.91,1.24-1.8.61Z"/>
    <path class="cls-5" d="m371.33,144.75c.71-.09,1,.58,1.52.83-1.05.71-1.45.24-1.52-.83Z"/>
    <path class="cls-4" d="m48.07,94.08h4.19c.1.04.14.09.11.14-.03.06-.06.09-.09.09h-4.26c-.08-.07-.11-.13-.06-.17.04-.04.07-.06.11-.06Z"/>
    <path class="cls-5" d="m357.44,136.83c.71.11,1.28.49,1.83.93-1.06.57-1.63.19-1.83-.93Z"/>
    <path class="cls-5" d="m32.35,98.63c.46-.31.91-.65,1.49-.7-.06,1.15-.35,1.82-1.49.7Z"/>
    <path class="cls-5" d="m396.71,157.43c.61.28,1.23.56,1.84.83-.81.16-1.84.79-1.84-.83Z"/>
    <path class="cls-5" d="m304.24,126.58c.45-.48,1.01-.21,1.52-.22-.36,1.13-.87,1.15-1.52.22Z"/>
    <path class="cls-5" d="m272.82,130.81c.45-.48,1-.23,1.52-.23-.34,1.15-.86,1.14-1.52.23Z"/>
    <path class="cls-5" d="m286.44,129.38c.44-.39.96-.41,1.5-.3-.31,1.05-.81,1.16-1.5.3Z"/>
    <path class="cls-5" d="m292.18,128.47c.44-.39.96-.41,1.5-.3-.31,1.05-.81,1.16-1.5.3Z"/>
    <path class="cls-5" d="m348.07,132.09c.54.24,1.14.36,1.54.84-.94.51-1.53.36-1.54-.84Z"/>
    <path class="cls-5" d="m192.47,88.36c.57-.23.99.27,1.5.3-.69.87-1.19.76-1.5-.3Z"/>
    <path class="cls-5" d="m136.55,93.98c.33-.43.82-.14,1.22-.27,0,.42-.14.78-.6.88-.47.1-.57-.24-.62-.61Z"/>
    <path class="cls-5" d="m339.61,129.07c.7-.1,1.29.15,1.84.54-.7.12-1.51.6-1.84-.54Z"/>
    <path class="cls-5" d="m181.89,86.24c.42-.01.88-.2,1.21.24-.04.31-.12.61-.52.58-.48-.04-.65-.39-.69-.82Z"/>
    <path class="cls-5" d="m88.83,100.13c.42-.01.88-.23,1.21.23-.04.31-.12.61-.51.58-.48-.04-.66-.38-.7-.81Z"/>
    <path class="cls-5" d="m110.59,99.84c.4,0,.81,0,1.21-.01-.06.48-.26.85-.8.8-.46-.04-.38-.46-.41-.78h0Z"/>
    <path class="cls-5" d="m122.96,97.63c.34-.46.8-.22,1.22-.22-.05.43-.22.78-.71.81-.4.03-.47-.28-.51-.59Z"/>
    <path class="cls-5" d="m127.8,96.42c.31-.48.81-.16,1.21-.3,0,.42-.14.77-.58.87-.46.11-.58-.2-.62-.57h-.01Z"/>
    <path class="cls-5" d="m65.57,95.89c.58-.27.98.3,1.5.31-.7.87-1.2.74-1.5-.31Z"/>
    <path class="cls-5" d="m160.13,87.98c.34-.46.8-.22,1.22-.22-.05.43-.22.78-.71.81-.4.03-.47-.28-.51-.59Z"/>
    <path class="cls-5" d="m134.45,94.42c.4-.04.8-.07,1.2-.11,0,.5-.19.9-.75.89-.49-.01-.42-.44-.45-.78Z"/>
    <path class="cls-6" d="m316.65,125.35c1.1-.4,2.2-.4,3.3,0h-3.3Z"/>
    <path class="cls-5" d="m144.12,91.71c.4-.04.8-.07,1.2-.11,0,.5-.19.9-.75.89-.49-.01-.42-.44-.45-.78Z"/>
    <path class="cls-5" d="m84.6,99.51c.48-.18.85.05,1.21.31-.58.76-.76.72-1.21-.31Z"/>
    <path class="cls-5" d="m82.79,99.21c.48-.19.84.05,1.21.31-.58.76-.76.72-1.21-.31Z"/>
    <path class="cls-5" d="m30.48,100.06c.32-.43.61-.9,1.23-.92.13,1.02-.38,1.2-1.23.92Z"/>
    <path class="cls-5" d="m11.45,116.95c.32-.42.61-.9,1.23-.94.13,1.02-.36,1.22-1.23.94Z"/>
    <path class="cls-5" d="m79.47,98.62c.46-.15.85.02,1.21.3-.58.76-.75.72-1.21-.3Z"/>
    <path class="cls-5" d="m45.01,94.64c.42-.49,1.02-.19,1.52-.34.16-.12.26-.09.31.1-.5.92-1.2.28-1.83.23h0Z"/>
    <path class="cls-5" d="m7.87,119.12c.4-.19.8-.39,1.2-.58-.01.99-.35,1.31-1.2.58Z"/>
    <path class="cls-5" d="m409.1,161.04c.42,0,.88-.23,1.21.23-.58.85-.94.5-1.21-.23Z"/>
    <path class="cls-5" d="m377.38,148.29c.49.06.89.27,1.22.62-.72.4-1.17.27-1.22-.62Z"/>
    <path class="cls-5" d="m380.1,149.8c.48.06.89.26,1.22.62-.72.4-1.17.27-1.22-.62Z"/>
    <path class="cls-5" d="m375.27,147.08c.49.06.89.27,1.22.62-.72.4-1.17.27-1.22-.62Z"/>
    <path class="cls-5" d="m366.51,141.96c.49.05.89.27,1.22.63-.72.4-1.17.27-1.22-.63Z"/>
    <path class="cls-5" d="m360.77,138.64c.49.05.89.27,1.22.63-.72.4-1.17.27-1.22-.63Z"/>
    <path class="cls-5" d="m402.45,159.53c.46-.14.85,0,1.2.3-.62.79-.94.36-1.2-.3Z"/>
    <path class="cls-5" d="m251.99,128.47c.46-.14.85.02,1.2.3-.63.79-.94.36-1.2-.3Z"/>
    <path class="cls-5" d="m326.92,126.06c.46-.14.85.02,1.2.3-.62.79-.94.36-1.2-.3Z"/>
    <path class="cls-5" d="m155.89,88.89c.33-.47.8-.22,1.21-.22-.33.46-.68.85-1.21.22Z"/>
    <path class="cls-9" d="m94.58,100.61c.7-.37,1.41-.36,2.11.02-.7,0-1.4-.01-2.11-.02Z"/>
    <path class="cls-5" d="m147.43,91c.31-.49.82-.16,1.21-.31-.29.55-.63.92-1.21.31Z"/>
    <path class="cls-5" d="m368.01,142.67c.41.27.83.55,1.24.82-.6,0-1.3.16-1.24-.82Z"/>
    <path class="cls-5" d="m298.2,127.48c.23-.4.59-.25.92-.22-.17.66-.48.72-.92.22Z"/>
    <path class="cls-5" d="m254.4,129.07c.34-.05.69-.15.91.24-.45.48-.75.41-.91-.24Z"/>
    <path class="cls-3" d="m414.8,161.86c.55-.54,1.22-.16,1.83-.23.11.03.15.08.13.14s-.05.1-.08.1h-1.88Z"/>
    <path class="cls-5" d="m334.48,127.57c.46-.14.84,0,1.19.3-.55.49-.88.15-1.19-.3Z"/>
    <path class="cls-21" d="m52.29,94.31c0-.08-.02-.15-.02-.23.53,0,1.08-.21,1.54.23h-1.52Z"/>
    <path class="cls-1" d="m46.84,94.41c-.1-.03-.21-.07-.31-.1.47-.4,1.02-.24,1.54-.22,0,.08-.03.15-.04.23-.4.03-.79.06-1.19.1h0Z"/>
    <path class="cls-19" d="m179.49,86.18c0-.08-.02-.16-.03-.23.53-.02,1.08-.21,1.55.23h-1.52Z"/>
    <path class="cls-5" d="m248.06,126.96c.39-.16.61.15.89.3-.47.4-.77.31-.89-.3Z"/>
    <path class="cls-5" d="m390.97,155.31c.39-.16.61.15.89.31-.47.4-.77.3-.89-.31Z"/>
    <path class="cls-5" d="m393.08,156.21c.39-.16.61.15.89.3-.47.4-.77.31-.89-.3Z"/>
    <path class="cls-5" d="m394.59,156.82c.39-.16.61.15.89.3-.47.4-.77.31-.89-.3Z"/>
    <path class="cls-18" d="m101.52,100.63c.46-.41,1.01-.22,1.54-.23.08.07.11.12.07.17-.04.04-.07.06-.11.06-.5,0-1,0-1.5,0Z"/>
    <path class="cls-20" d="m103.02,100.64c.01-.08.03-.16.04-.23.51.05,1.07-.24,1.52.22-.52,0-1.04,0-1.55.01h0Z"/>
    <path class="cls-5" d="m346.25,131.48c.39-.16.61.15.89.3-.47.4-.77.31-.89-.3Z"/>
    <path class="cls-5" d="m194.58,88.97c.39-.16.61.15.89.3-.47.4-.77.31-.89-.3Z"/>
    <path class="cls-1" d="m416.67,161.87c-.01-.08-.03-.16-.05-.24.51,0,1.02,0,1.53-.02,0,.08.01.16.02.24-.5,0-1,0-1.5.02Z"/>
    <path class="cls-5" d="m2.37,78.67c.29-4.95,1.95-9.57,3.57-14.18,1.3-3.69,2.76-7.33,4.63-10.79,1.25-2.31,2.78-4.33,5.23-5.53,3.73-1.83,6.91-.52,9.15,2.22,2.17,2.65,3.03,5.85,3.18,9.25.2,1.12.2,2.25,0,3.37-.14,4.1-1.6,7.8-3.49,11.36-1.33,2.5-3.13,4.7-5,6.82-.68.77-1.57,1.36-2.37,2.03-.59,0-1.02.25-1.25.81-.77.42-1.46,1.02-2.41.99-.92.16-1.94-.03-2.72.68-.26.08-.53.06-.8.04-.42-.18-.79-.76-1.31-.18-.69.1-1.27-.17-1.83-.51-.6-1.05-1.62-1.35-2.72-1.52-.2-.2-.4-.4-.6-.6-.21-.48-.44-.95-.91-1.24-.51-.3-.16-.83-.32-1.22-.17-.6-.15-1.2,0-1.8h-.02Z"/>
    <path class="cls-15" d="m338.83,123.9c-1.22-.01-1.82-.85-1.15-1.7,1.11-1.41,1.53-2.71.5-4.34-.23-.36-.3-1.13.2-1.37.78-.37,1.68-.18,2.2.5.46.61.62.82,1.27.16.44-.45,1.26-.24,1.89-.14.6.1.84.53.52,1.12-.17.31-.33.64-.58.88-1.08,1.03-1.03,2.11-.35,3.36.29.54.83,1.27-.01,1.86-.74.52-1.52.38-2.02-.28-.64-.84-1.15-1-1.89-.17-.13.14-.48.1-.58.11h0Z"/>
    <path class="cls-15" d="m210.9,73.39v-2.71c0-.78.51-1.31,1.11-1.01,1.2.59,2.26.05,3.38-.04.46-.04.94,0,1.16.5.2.46.07.9-.31,1.23-1.34,1.16-1.26,2.35-.11,3.59.52.56.84,1.3.27,1.88-.61.62-1.57.58-2.19.03-.47-.41-.61-.31-1.06-.04-1.36.85-2.21.38-2.24-1.17,0-.75,0-1.5,0-2.26h-.01Z"/>
    <path class="cls-15" d="m270.75,97.11c.2.88.82.92,1.15,1.28.5.55.24,1.02-.04,1.5-.3.52-.78.61-1.3.37-.32-.14-.59-.37-.89-.56-2.67-1.75-2.67-1.77-.91-4.43.55-.83,1.05-1.68,1.55-2.54.24-.4.46-.76,1-.79.56-.03,3.57,1.69,3.8,2.21.33.77-.29,1.15-.75,1.44-.52.33-.83.64-1.06,1.26-.48,1.25-1.5.8-2.55.26h0Z"/>
    <path class="cls-15" d="m43.16,59.62c-.79,1.06-1.55.6-2.23,0-.75-.67-.41-1.27.15-1.93.97-1.13,1.85-2.34,2.77-3.53.34-.44.64-.97,1.31-.73.57.2,1.34.5,1.27,1.12-.11,1,.44.83,1.03.92.7.1,1.46.28,1.45,1.21,0,.84-.72,1.06-1.36,1.15-1.34.18-2.27.59-1.96,2.23.14.75.08,1.54-.78,1.93-.45.2-.84.03-1.24-.27-.75-.56-.74-1.23-.43-2.1h.02Z"/>
    <path class="cls-15" d="m270.1,91.36c-.11.78-.63,1.14-1.2,1.3-1.64.46-2.04,1.69-2.11,3.16-.03.62.17,1.49-.8,1.45-.75-.03-1.59-.47-1.56-1.34.05-1.26-.54-1.19-1.43-1.01-.71.14-1.32-.14-1.57-.85-.29-.82.28-1.26.94-1.43,1.6-.43,2.13-1.56,2.28-3.06.05-.47-.2-1.18.68-1.27.85-.08,1.44.44,1.63,1.07.24.81.5.89,1.29.79.81-.1,1.42.54,1.86,1.17v.02Z"/>
    <path class="cls-15" d="m184.79,74.02c.2-.37.33-.7.54-.97.49-.63,1.19-.53,1.79-.3.66.26.6.88.33,1.41-.68,1.36-.77,2.62.47,3.73.63.56.98,1.35.33,1.96-.69.64-1.58.46-2.26-.27-.2-.22-.39-.45-.63-.72-.1.24-.19.45-.28.65-.4.93-1.06,1.64-2.08,1.11-.9-.46-.65-1.43-.24-2.12.69-1.17.52-2.11-.37-3.07-.52-.56-1.34-1.2-.46-2.02.87-.81,1.74-.57,2.45.34.06.07.16.11.4.26h.01Z"/>
    <path class="cls-15" d="m329.64,119.69c-.97-.88-1.28-2.83-.59-3.76.65-.89,2.62-1.1,3.72-.4,1.03.65,1.2,1.92.19,2.55-.71.44-.19.57-.01.84.93,1.43.69,2.81-.62,3.62-1.15.71-3.58.3-4.27-.7-.29-.42-.31-.88-.13-1.29.34-.8,1.1-.49,1.72-.54.09.08.18.07.19-.02,0-.12-.13-.18-.18-.28l-.02-.02Z"/>
    <path class="cls-15" d="m412.3,118.87c-1.63-.21-2.68-.78-2.62-2.53.06-1.88,1.45-3.08,3.27-2.64.63.15,1.25.39,1.29,1.24.04.88-.49,1.11-1.22,1.19.1.35.39.21.58.27,1.4.46,2.05,1.47,1.82,2.88-.22,1.33-1.2,2.06-2.5,2.19-.72.07-1.56.3-2.18-.21-.49-.4-.55-1.09-.37-1.68.28-.9,1.16-.25,1.94-.69v-.02Z"/>
    <path class="cls-15" d="m354.21,120.51c1.38.79,1.76,1.97,1.21,3.33-.46,1.13-2.49,1.77-3.8,1.4-.92-.26-1.5-.68-1.46-1.76.05-1.18,1.05-.57,1.62-.94-1-.71-1.46-1.64-1.3-2.84.14-1.05.73-1.8,1.73-2.04,1.1-.27,2.31-.2,3.06.72.92,1.13-.16,1.61-1.07,2.12h0Z"/>
    <path class="cls-15" d="m258.92,90.12c-2.04,1.02-3.04.83-4.53-.75-.64-.68-.88-1.37-.24-2.12.79-.92,1.29-.1,1.84.38.1.09.24.13.6.32-.48-1-.76-1.82-.69-2.74.1-1.41.83-2.06,2.4-2.02,1.35.04,2.77,1.23,2.76,2.29,0,.37-.08.82-.4.91-1.65.46-.99,1.78-1.12,2.8-.12.36-.17.76-.61.92h-.01Z"/>
    <path class="cls-15" d="m347.38,122.19c.33.43.72.5,1.13.5.65,0,1.09.26,1.05.97-.03.63-.44,1.03-1.03,1.11-1.15.15-2.29.03-3.41-.3-.81-.24-.7-.9-.64-1.48.17-1.63.42-3.25.56-4.88.08-.92.5-1.33,1.36-1.03.65.22,1.28.17,1.93.19.7.02,1.46-.09,1.55.95.09.94-.19,1.57-1.47,1.51.81.55,1.05,1.14.79,1.82-.31.82-1.13.42-1.82.65h0Z"/>
    <path class="cls-15" d="m175.05,79.43c-.26-.63-.82-.39-1.21-.56-.96-.42-1.49-1.1-1.63-2.15-.16-1.19.48-1.94,1.38-2.44.89-.49,1.89-.69,2.83.03.65.5.96,1.28.45,1.82-.59.62-.33.78.14,1.17.84.7,1.31,1.7.82,2.67-.51,1-1.32,1.95-2.72,1.72-.85-.14-2.01.51-2.34-.95-.09-.38-.37-.75-.05-1.13.34-.41.79-.38,1.24-.21.33.13.65.26,1.09.04h0Z"/>
    <path class="cls-15" d="m27.96,44.21c.29.33.61.64.86,1,.33.48.24.95-.16,1.36-.44.46-.98.62-1.47.2-.76-.65-1.46-1.38-2.14-2.11-.39-.42-.39-.95,0-1.36,1.26-1.3,2.55-2.56,3.82-3.84.23-.23.51-.3.82-.29.74.03,3.09,2.03,3.19,2.77.11.85-.34,1.29-1.17,1.44-.29.05-.58-.34-.9.16-1.04,1.66-1.07,1.64-2.87.67h.02Z"/>
    <path class="cls-15" d="m130.65,79.2c.44-.47.65-.91.98-1.02.65-.21,1.45-.39,1.98.19.57.63.04,1.15-.38,1.69-1.21,1.54-1.15,1.54-.11,3.22.34.55,1.24,1.15.34,1.92-.8.69-1.61.56-2.19-.29-.43-.63-.66-.17-.89.09-.49.55-1.1.76-1.76.5-.73-.29-.5-1.01-.51-1.58-.02-1.4-.02-2.8,0-4.2,0-.62-.22-1.41.69-1.6.83-.18,1.65-.15,1.85,1.09h0Z"/>
    <path class="cls-15" d="m219.94,72.44c-1.04-.23-2.33.3-2.11-1.37.08-.62.28-.96.9-1.19,1.87-.68,3.73.03,4.14,1.67.24.97-.25,1.71-.73,2.48-.27.42-.91.94.21,1.24.45.12.78.63.49,1.23-.24.52-.51.92-1.19.97-1.22.1-2.39-.19-3.56-.37-.72-.11-.81-1.77-.16-2.57.28-.35.63-.64.95-.96.31-.32.6-.64,1.05-1.13h0Z"/>
    <path class="cls-15" d="m274.89,100.07c-.22-.37-.47-.73-.64-1.13-.53-1.21.11-2.9,1.24-3.32,1.03-.38,3.23.41,3.58,1.34.19.52.33,1.33-.12,1.55-1.19.59-1.03,1.62-1.21,2.61-.28,1.51-1.4,1.77-2.74,1.68-1.36-.09-2.25-.8-2.73-2-.22-.55.05-1.09.56-1.44.56-.39.93-.01,1.3.35.18.17.36.34.54.51l.21-.15h.01Z"/>
    <path class="cls-15" d="m294.97,107.81c-.93-.34-2.03.13-1.92-1.25.07-.93.33-1.43,1.33-1.36.4.03.81-.04,1.2.03,1.06.19,1.88.86,2.25,1.8.35.89-.06,1.74-.73,2.46-.48.52-1.09.85-1.74,1.3,1.05.3,1.29,1,.9,1.83-.43.92-1.14.73-1.9.33-.66-.35-1.39-.56-2.06-.9-1.36-.69-1.47-1.73-.22-2.63.8-.58,1.73-.97,2.88-1.61h.01Z"/>
    <path class="cls-15" d="m198.33,73.32c1.82,1.02,2.39,2.26,1.79,3.62-.56,1.26-2.41,1.91-3.86,1.54-1.08-.28-1.21-.97-1.02-1.82.22-1.02.94-.6,1.56-.44.17.04.37-.02.74-.05-.81-.45-1.5-.75-2.09-1.17-.76-.55-.95-1.41-.81-2.28.16-.97.82-1.66,1.78-1.83.78-.13,1.61-.07,2.4,0,.45.05.57.49.6.93.05.72-.06,1.32-1.09,1.49h0Z"/>
    <path class="cls-15" d="m191.56,73.96c.76.4,1.9-.29,2.1,1.07.2,1.34-.97,1.11-1.76,1.41.4.61.95.37,1.39.41.59.05.94.29.98.91s-.12,1.09-.83,1.2c-.44.07-.87.24-1.32.29-2.35.27-2.78-.12-2.99-2.48-.09-.99-.29-1.97-.45-2.95-.02-.15-.09-.29-.12-.43-.18-.96.41-1.59,1.19-1.56,1.28.04,2.79-1.32,3.83.44.28.47.04.96-.48,1.26-.48.28-1.02.33-1.54.43h0Z"/>
    <path class="cls-15" d="m34.24,47.11c.36,1.85-.29,3.28-1.57,3.75-1.22.44-2.91-.36-3.65-1.75-.45-.83-.57-1.69.37-2.23s1.34.19,1.68.92c.11.23.19.46.62.54-.16-.51-.32-.97-.45-1.43-.41-1.55.42-2.95,1.88-3.19,1.28-.21,3.28,1.19,3.39,2.41.05.54-.2,1-.61,1.31-.53.41-1.04.07-1.66-.31v-.02Z"/>
    <path class="cls-15" d="m19.7,30.95c-.12,2.66-.77,3.46-2.66,3.39-1.29-.04-2.73-1.51-2.84-2.83-.07-.84.26-1.37,1.05-1.58,1.01-.27,1,.5,1.14,1.14.03.12.17.22.54.66,0-.89.04-1.45,0-2-.08-1,.43-1.59,1.27-2,.91-.44,1.78-.3,2.51.32.78.66,1.39,1.52,1.3,2.58-.08.91-1.27,1.09-2.3.32h-.01Z"/>
    <path class="cls-15" d="m289.39,101.89c1.24-.03,1.82.72,1.35,1.86-.31.75-.47,1.2.63,1.19.54,0,.92.4,1.04.93.1.47-.25.83-.59.96-1.14.41-1.26,1.25-1.18,2.27.05.58.16,1.27-.65,1.48-.72.19-1.39-.03-1.63-.72-.22-.66-.59-.45-1.02-.45-1.25-.01-1.79-.75-1.32-1.84.72-1.65,1.52-3.27,2.28-4.9.23-.48.51-.88,1.08-.77h0Z"/>
    <path class="cls-15" d="m284.53,105.64c.41.48,1.21.72.88,1.58-.29.74-.75,1.27-1.6.86-.99-.48-1.98-1-2.87-1.64-1.01-.73-.71-1.93.52-2.45.9-.39,2-.36,2.62-1.32-.12-.32-.44-.41-.7-.44-.61-.06-.96-.28-.86-.94.09-.62.26-1.13,1.06-1.22,1.71-.2,3.21.57,3.66,1.97.36,1.11-.43,2.46-1.9,3.24-.26.14-.53.24-.82.36h.01Z"/>
    <path class="cls-15" d="m374.5,120.61c-.86,0-1.6.71-2.14-.04-.3-.42-.22-1.09,0-1.6.33-.79,1.05-.84,1.78-.8.25.01.5.02.75,0,.97-.1,1.93.04,2.3,1,.36.91.44,1.95-.2,2.86-.4.58-1,1.13.26,1.51.41.13.53.83.36,1.35-.17.51-.47.85-1.09.82-.8-.04-1.61-.03-2.41,0-.68.02-1.35,0-1.7-.68-.39-.77-.11-1.49.4-2.08.6-.72,1.37-1.31,1.71-2.34h-.02Z"/>
    <path class="cls-15" d="m361.89,120.47c-.77-.25-1.89.85-2.04-.75-.13-1.32.59-1.76,1.77-1.86,1.33-.12,2.63,0,3.21,1.34.62,1.46-.19,2.69-1.22,3.9.74.3,1.58.55,1.28,1.57-.27.94-1.06.73-1.74.74-.6,0-1.2-.02-1.8,0-.69.03-1.34-.03-1.67-.73-.36-.76.11-1.34.55-1.89.59-.72,1.5-1.2,1.66-2.32h0Z"/>
    <path class="cls-17" d="m22.43,40.92c.33-.65.02-.9-.73-.85-.82.06-1.58-.1-1.71-1.05-.14-1.03.7-1.27,1.45-1.34,1.55-.14,2.44-.92,2.71-2.45.1-.57.45-1.26,1.01-1.06.69.26,1.59.82,1.34,1.74-.28,1.02-.09.99.84.92.75-.06,1.43.7,1.53,1.41.1.67-.64.9-1.29.95-1.52.12-2.41.97-2.78,2.42-.18.71-.63,1.49-1.36,1.31-.79-.19-1.26-.96-1.01-2.01h0Z"/>
    <path class="cls-15" d="m40.04,52.29c-.09-.12-.16-.3-.27-.34-.67-.2-1.3-.47-1.03-1.33.28-.89,1.04-1,1.84-.89,1.02.13,2.45,1.5,2.6,2.46.14.92-.85,2.23-2.04,2.67-.42.16-.82.36-1.27.29-.13.52.3.65.46.93.38.67-.15,1-.52,1.39-.41.43-.83.48-1.31.05-.71-.63-1.43-1.24-2.16-1.85-.59-.5-.89-1.1-.59-1.85.29-.71.92-.8,1.62-.81,1.16,0,1.77-.21,2.66-.73h.01Z"/>
    <path class="cls-17" d="m103.57,77.92c.25-.32.4-.69.68-.85.64-.37,1.35-.4,1.96.1.65.54.15,1.03-.21,1.39-1.22,1.25-1.29,2.55-.41,4.02.35.6.62,1.41-.37,1.71-.77.24-1.68.3-1.98-.75-.39-1.33-.91-.78-1.44-.16-.49.57-1,.83-1.66.29-.66-.55-.51-1.13-.01-1.69,1.03-1.16,1.57-2.33.61-3.86-.3-.47-.38-1.36.33-1.75.62-.34,1.14.17,1.59.54.3.25.55.58.92.99v.02Z"/>
    <path class="cls-15" d="m49.67,63.12c.82.5,1.05,1.19.62,1.85-.48.74-1.26.5-1.88.14-.73-.43-1.4-.95-2.08-1.47-1.12-.85-.95-1.92.36-2.47.99-.41,2.17-.33,3.15-1.21-.62-.4-1.7-.32-1.47-1.38.14-.63.61-1.23,1.17-1.23,1.32,0,2.46.64,3.12,1.77.54.91.14,1.81-.51,2.62-.61.75-1.56.84-2.5,1.38h.02Z"/>
    <path class="cls-15" d="m92.55,80.28c-.16-.53-.67-.79-1.02-1.19-.93-1.05-.83-2.29.3-3.26.86-.74,3.17-.67,3.74.13.35.49.42,1.3.09,1.54-.89.64-.52,1.1-.26,1.9.38,1.16.14,2.33-1.16,3.06-1.21.67-2.33.5-3.39-.17-.6-.38-1.11-.99-.61-1.77.5-.77,1.17-.88,1.91-.25.11.09.25.19.42.01h-.02Z"/>
    <path class="cls-17" d="m109.4,82.52c.47.54.96.28,1.37.39.52.14.96.45.97,1,0,.63-.46,1-1.06,1.06-1.15.12-2.3.01-3.41-.33-.53-.16-.7-.61-.56-1.07.49-1.65.14-3.37.54-5.04.22-.94.46-1.5,1.58-1.14.46.15,1,.07,1.5.05.81-.03,1.59.08,1.74,1.02.16,1.05-.62,1.35-1.49,1.47,1.41,1.49,1.22,1.96-1.15,2.58h-.03Z"/>
    <path class="cls-15" d="m116.19,80.63c1.31.89,2.19,1.91,1.43,3.44-.68,1.38-2.28,1.8-3.92,1.3-.98-.3-1.56-.87-1.22-1.85.34-1,1.18-.65,1.91-.42.13.04.29.02.66.05-.59-.42-1.04-.68-1.42-1.01-1.12-1-1.26-2.63-.33-3.61.84-.89,2.78-.99,3.74-.18.86.72.6,1.52-.85,2.29h0Z"/>
    <path class="cls-17" d="m370.12,125.7c-.83-1.17-1.9-.31-3.02-.03-.88.22-1.23-.36-1.22-1.24.03-1.65-.01-3.3.02-4.96.02-1.22.67-1.71,1.73-1.14.85.45,1.41.53,2.2-.09.39-.31,1.05-.11,1.49.35.5.53.16,1.08-.16,1.32-1.82,1.32-1.02,2.58-.02,3.86.35.45.64.87.26,1.48-.27.43-.62.44-1.28.44h0Z"/>
    <path class="cls-15" d="m206.36,72.23c-.81.02-1.67.98-2.04-.23-.31-1.02.03-1.83,1.24-2.16,1.14-.31,2.28-.46,3.08.48.86,1,.55,2.27.17,3.42-.13.4-.48.74-.72,1.11.27.38.66.15.97.25.53.18.63.59.62,1.07,0,.51-.2.9-.74.97-1.04.13-2.08.23-3.13.33-.6.06-1.12-.14-1.4-.68-.29-.58-.18-1.11.22-1.68.62-.88,1.57-1.56,1.73-2.87h0Z"/>
    <path class="cls-15" d="m241.11,76.58c.88.59,1.08,1.18.82,1.86-.26.66-.9.53-1.44.52-.62-.01-1.02.16-1.23.83-.29.94-1.04,1.18-1.92.88-1.01-.34-.83-1.08-.55-1.84.53-1.45,1.09-2.89,1.54-4.37.22-.73.63-.92,1.31-.93.78-.02,1.49.22,2.16.54.64.31,1.58.44,1.37,1.49-.18.92-.97,1.03-2.07,1.03h.01Z"/>
    <path class="cls-15" d="m136.66,80.62c-.29-.21-.59-.17-.87-.05-.45.2-.92.31-1.19-.19s-.24-1.05.13-1.55c.67-.92,2.44-1.26,3.53-.66,1.28.71,1.65,1.81,1.04,3.17-.16.37-.37.71-.54,1.07-.19.39-.35.75.34.8.64.05.78.51.79,1.07,0,.6-.31.94-.83,1.11-1.22.41-2.5.31-3.71.11-1.06-.18-1.19-1.38-.29-2.42.65-.75,1.45-1.39,1.61-2.46h0Z"/>
    <path class="cls-15" d="m125.55,83.39c.85.08,1.49.36,1.34,1.36-.16,1.04-.96.83-1.63.85-.85.02-1.71.07-2.56-.02-1.11-.11-1.45-.93-.95-1.93.57-1.12,1.79-1.74,2.27-2.88-.28-.42-.61-.31-.86-.21-.51.2-1.02.37-1.28-.25-.28-.65-.15-1.26.45-1.74.86-.68,2.54-.71,3.36-.07,1.11.88,1.65,1.86.76,3.21-.33.49-.56,1.05-.9,1.68Z"/>
    <path class="cls-16" d="m11.44,15.05c.02.54-.28.95-.62,1-.98.15-1.78.33-2.36,1.33-.35.61-1.22.45-1.61-.26-.37-.67-.66-.87-1.35-.34-.73.56-1.57.56-2.03-.38-.42-.85-.04-1.51.78-1.99,1.25-.73,2.48-1.5,3.7-2.28.83-.54,1.49-.5,1.99.42.48.87,1.22,1.59,1.51,2.5h-.01Z"/>
    <path class="cls-15" d="m313.23,114.08c.34.16.63.32.93.45.64.26.73.78.64,1.37-.11.74-.69.86-1.25.75-.93-.19-1.37.07-1.48,1.06-.07.64-.51,1.15-1.24.99-.66-.15-1.18-.52-1.14-1.36.08-1.97.87-3.78,1.28-5.68.1-.46.52-.37.86-.42,1.2-.17,2.24.47,3.36.7.68.14.65.86.49,1.39-.17.54-.55.99-1.23.84-.38-.09-.73-.34-1.21-.09h0Z"/>
    <path class="cls-15" d="m75.77,73.26c.64.39,1.01.56,1.3.82.38.34.33.83.21,1.27-.17.62-.73.68-1.23.59-.81-.15-1.25.02-1.5.9-.23.84-.9,1.11-1.79.75-.86-.35-.9-.87-.6-1.67.55-1.44,1.04-2.91,1.48-4.4.32-1.08.86-1.52,1.98-1.02.55.24,1.13.4,1.7.58.71.23,1.38.52,1.1,1.44-.29.95-.92,1.26-1.86.79-.12-.06-.28-.02-.81-.06h.02Z"/>
    <path class="cls-14" d="m246.55,83.85c-.11-1.2.88-1.89,1.26-2.85.25-.63.78-1.13-.11-1.77-.49-.35-.39-1.16-.06-1.67.39-.6,1.08-.51,1.63-.21,1.14.62,2.24,1.31,3.37,1.96.45.26.64.64.51,1.13-.13.47-.47.92-.92.88-1.57-.12-2.2.89-2.77,2.07-.21.44-.53.85-.86,1.22-.32.34-.59.83-1.25.51-.57-.28-.87-.65-.79-1.26h0Z"/>
    <path class="cls-15" d="m404.09,115.11c.92.1,1.7-.18,1.94.71.22.82-.13,1.3-.97,1.55-.54.16-.45.64-.34,1.14.21.92.35,1.86.45,2.8.1.92-.25,1.54-1.27,1.68-1.09.15-1.24-.62-1.39-1.36-.16-.78-.27-1.57-.34-2.37-.07-.84-.29-1.48-1.32-1.42-.58.04-.83-.28-.79-.83.03-.51-.19-1.14.66-1.28,1.23-.2,2.45-.46,3.39-.64l-.02.02Z"/>
    <path class="cls-15" d="m393.99,119.21c.96.31,1.95-.15,2.1,1,.03.2.05.54-.03.58-1.44.65-1.53,2.27-2.43,3.27-.83.92-1.6.51-1.75-.75-.2-1.68-.38-3.37-.61-5.04-.15-1.07.45-1.46,1.34-1.56.75-.08,1.51-.03,2.26-.05.68-.02,1.2.15,1.24.96.04.74-.29,1.11-1.04,1.17-.27.02-.54.2-1.07.41h-.01Z"/>
    <path class="cls-15" d="m319.97,119.45c.15-.58.43-1.38.54-2.21.09-.61.55-1.38-.69-1.66-.74-.17-.48-1.11-.41-1.73.07-.64.68-.56,1.08-.48,1.36.25,2.72.58,4.07.87.5.11.82.37.82.91,0,.58-.35,1.1-.82,1.11-1.42.05-1.49.99-1.6,2.02-.07.64-.22,1.27-.4,1.89-.2.69-.62,1.14-1.43,1.01-.84-.13-1.18-.66-1.17-1.73h.01Z"/>
    <path class="cls-15" d="m156.17,79.19c.71.06,1.12.03,1.5.13.52.13.87.5.93,1.05.06.6-.27.93-.84,1.03-.91.16-1.28.63-1.31,1.62-.03.76-.66,1.38-1.53,1.33-.96-.05-.76-.85-.82-1.48-.16-1.48-.32-2.95-.54-4.42-.14-.94.02-1.49,1.11-1.68.8-.14,1.58-.21,2.37-.22.65-.01,1.21.08,1.28.9.06.72-.22,1.14-.95,1.27-.28.05-.55.21-1.19.47h0Z"/>
    <path class="cls-15" d="m83.45,80.77c-1.03.09-1.39-.45-1.23-1.38.1-.59.32-1.15.45-1.73.23-1.02.83-2.07-.52-2.87-.45-.26-.37-.92-.15-1.39.27-.57.83-.52,1.32-.42,1.22.27,2.43.57,3.63.9.51.14.94.49.91,1.05-.03.49-.26,1.19-.75,1.19-1.9,0-1.61,1.49-1.98,2.59-.29.88-.2,2.14-1.69,2.05h.01Z"/>
    <path class="cls-15" d="m12.76,21.33c-.11-.16-.23-.28-.27-.41-.15-.6-.29-1.26.43-1.56.59-.25,1.21-.14,1.62.43.7.97,1.37,1.97,2.07,2.94.42.58.41,1.11-.11,1.6-.53.5-1.12.53-1.59-.01-.56-.64-.99-.4-1.52.01-.67.52-1.36,1.02-2.07,1.48-.68.44-1.43.67-1.99-.14-.55-.8-.34-1.53.45-2.06.78-.54,1.61-1.02,2.37-1.58.23-.17.71-.24.6-.69h.01Z"/>
    <path class="cls-15" d="m229.34,72.47c-.09,1.06-.24,2.05.21,3.15.45,1.11-1.85,3.09-2.5,2.34-.97-1.1-2.28-1.35-3.26-2.17-.66-.56-.05-1.62.39-2.33.46-.76,1.07-1.44,1.59-2.16.61-.85,1.27-1.24,2.43-.92,1.26.35,1.15,1.18,1.14,2.1h0Z"/>
    <path class="cls-15" d="m167.04,75.35c.87-.01,1.39.32,1.52,1.07.13.72-.05,1.35-.96,1.33-.76-.02-.59.42-.53.88.12.98.23,1.97.31,2.96.07.85-.25,1.47-1.18,1.6-.94.13-1.17-.42-1.31-1.22-.1-.54-.12-1.09-.25-1.61-.21-.86.43-2.37-1.51-2.09-.5.07-.57-.59-.58-1.05,0-.59.09-1.03.78-1.26,1.25-.4,2.6-.12,3.71-.6h0Z"/>
    <path class="cls-15" d="m300.35,115.15c-.46,0-1.09,0-1.12-.52-.06-1.04-.6-1.43-1.5-1.74-.7-.24-.82-.84-.48-1.61.74-1.66,2.23-2.56,3.59-3.54.77-.55,1.63.17,2.36.58.77.44.27,1.07.12,1.6-.31,1.09-.82,2.11-.62,3.33.12.76-1.41,1.88-2.35,1.89h0Z"/>
    <path class="cls-15" d="m378.25,122.66c.14-1.71,1.1-3.1,1.95-4.48.43-.71,1.5-.79,2.35-.52.8.25.89.97.87,1.73-.02.98,0,1.88.68,2.81.82,1.11-.36,2.05-1.07,2.68-.56.5-1.64.61-2.06-.56-.19-.53-.64-.46-1-.32-1.36.53-1.76-.08-1.72-1.33h0Z"/>
    <path class="cls-15" d="m56.13,61.44c.79-.09,1.25.38,1.66.91.46.59.17,1.17-.16,1.67-.62.91-1.08,1.79-1.21,2.97-.12,1.08-1.45,1.51-2.37,1.62-.82.11-1.53-.6-1.35-1.71.1-.63-.54-.75-.92-1.04-.64-.47-1.04-1.1-.4-1.77,1.31-1.37,2.99-2.13,4.77-2.66h-.02Z"/>
    <path class="cls-15" d="m140.47,82.29c.51-1.44,1.16-3.04,2.22-4.36.79-.97,2.19-.55,2.65.61.51,1.3.15,2.77,1.11,4.05.46.62-.36,1.83-1.04,2.23-.66.39-1.78.59-2.24-.67-.21-.57-.64-.24-1.02-.16-1.23.26-1.62-.44-1.68-1.71h0Z"/>
    <path class="cls-15" d="m243.33,82.88c-1.07-.03-1.56-.83-1.09-1.89.69-1.56,1.49-3.07,2.11-4.65.29-.72.73-.79,1.28-.63.63.18,1.38.47,1.19,1.29-.46,2.01-1.4,3.84-2.54,5.55-.21.32-.6.34-.96.33h0Z"/>
    <path class="cls-14" d="m259.83,89.52c.56-.89,1.1-1.79,1.69-2.65s1.46-.88,2.26-.41c.94.54.5,1.26.06,1.92-.67.99-1.37,1.97-2.01,2.98-.59.92-1.19,1.95-2.47,1.33-1.42-.69-.36-1.68-.11-2.55.11-.28.32-.46.58-.61h0Z"/>
    <path class="cls-15" d="m417.61,119.98c-.69.11-1.05-.29-1.22-.96-.4-1.6-.8-3.19-1.2-4.79-.26-1.04.31-1.45,1.21-1.67.94-.22,1.26.31,1.46,1.07.38,1.5.8,2.99,1.14,4.49.31,1.37-.09,1.89-1.39,1.85h0Z"/>
    <path class="cls-15" d="m400.06,121.9c.04.79,0,1.52-.93,1.84-.81.27-1.37.19-1.52-.81-.27-1.87-.6-3.74-.88-5.6-.13-.86.42-1.18,1.14-1.24.65-.06,1.39-.15,1.53.78.24,1.68.44,3.36.66,5.03h0Z"/>
    <path class="cls-15" d="m80.3,72.04c1.03-.11,1.48.46,1.26,1.35-.46,1.84-1,3.66-1.63,5.45-.3.85-1.03.72-1.77.46-.77-.27-.83-.67-.6-1.38.5-1.57.9-3.17,1.39-4.74.2-.64.51-1.24,1.36-1.13h-.01Z"/>
    <path class="cls-15" d="m337.19,117.86c-.2,1.6-.4,3.28-.64,4.95-.13.93-.9.83-1.53.76-.74-.08-1.21-.55-1.12-1.33.18-1.58.38-3.16.64-4.72.14-.83.29-1.65,1.56-1.49,1.24.15,1.05.97,1.08,1.83h.01Z"/>
    <path class="cls-15" d="m316.21,119.95c-.54-.07-1.23-.34-.9-1.56.4-1.49.76-2.99,1.03-4.5.21-1.18.99-1.28,1.88-1.12,1.1.2.88,1,.7,1.76-.36,1.5-.75,2.99-1.04,4.5-.15.77-.56.99-1.67.93h0Z"/>
    <path class="cls-14" d="m24.49,33.05c-.17,1.12-1.31,1.41-1.96,2.11-.74.79-1.75,1.31-2.56,2.04-.65.59-1.11.46-1.65-.1-.59-.61-.72-1.23-.06-1.82,1.35-1.18,2.72-2.33,4.12-3.46.42-.34.97-.29,1.42-.04.46.26.73.68.69,1.27Z"/>
    <path class="cls-14" d="m7.57,21.97c-.61-.04-.99-.37-1.15-.87-.17-.54-.15-1.14.37-1.5,1.53-1.02,3.07-2.04,4.66-2.97.53-.31,1.18-.11,1.6.45.38.53.35,1.06-.13,1.47-1.52,1.29-3.22,2.33-4.95,3.33-.12.07-.29.06-.4.08h0Z"/>
    <path class="cls-15" d="m181.3,79.39c.14.98-.15,1.78-1.19,1.91-1.11.14-1.2-.83-1.34-1.61-.28-1.56-.57-3.12-.79-4.69-.11-.81.34-1.34,1.17-1.44.75-.09,1.34.24,1.47.97.28,1.61.46,3.24.67,4.86h0Z"/>
    <path class="cls-15" d="m96.21,82.12c.26-1.71.58-3.42.77-5.14.14-1.25,1.01-1.03,1.78-1.01.9.03,1.01.59.87,1.36-.3,1.66-.55,3.32-.82,4.98-.15.92-.74,1.28-1.6,1.16-.74-.11-1.15-.55-.98-1.35h-.02Z"/>
    <path class="cls-15" d="m162.29,81.03c-.04.76.04,1.2-.11,1.55-.27.66-.72,1.24-1.55,1.18-.86-.06-.74-.75-.81-1.34-.16-1.38-.37-2.74-.55-4.12-.04-.3-.02-.6-.05-.9-.08-.83.46-1.2,1.12-1.37.73-.19,1.16.33,1.28.95.29,1.45.49,2.92.66,4.04h.01Z"/>
    <path class="cls-13" d="m286.43,93.81c.99.53,2.13.75,3.05,1.43-.14.03-.3.03-.43.09-1.89.96-2.57.57-2.62-1.52Z"/>
    <path class="cls-13" d="m290.35,95.6c.1-.03.21-.07.31-.1.61.31,1.21.62,1.82.94-.19.8-.75,1.04-1.45.77-.71-.27-1.17-.77-.68-1.61Z"/>
    <path class="cls-5" d="m4.22,83.52c1.39-.44,2.48.16,2.72,1.51-.99-.35-2-.68-2.72-1.51Z"/>
    <path class="cls-13" d="m284.01,92.89c.78.09,1.46.44,2.12.84-.33.7-.94.72-1.54.54-.69-.2-.57-.85-.58-1.38Z"/>
    <path class="cls-13" d="m281.29,91.68c.82.02,1.43.55,2.11.9-.36.65-.97.66-1.55.47-.67-.21-.54-.85-.56-1.38h0Z"/>
    <path class="cls-5" d="m10.88,85.55c.68-1.32,1.77-.59,2.72-.54-.62.49-1.36.6-2.12.64-.22.11-.43.14-.6-.09h0Z"/>
    <path class="cls-5" d="m211.5,98.27c-1.13.21-2.09-.49-2.41-1.75.8.58,1.61,1.17,2.41,1.75Z"/>
    <path class="cls-7" d="m28.12,63.01v-3.37c.47,1.12.45,2.25,0,3.37Z"/>
    <path class="cls-5" d="m8.77,85.55c.03-.3.09-.64.43-.66.42-.03.74.2.78.67-.17.23-.38.2-.6.09-.2-.03-.4-.06-.61-.09h0Z"/>
    <path class="cls-5" d="m16.02,84.02c0-.91.32-1.33,1.25-.81-.42.27-.84.54-1.25.81Z"/>
    <path class="cls-5" d="m2.7,81.69c1.01-.1.95.57.91,1.24-.46-.3-.86-.64-.91-1.24Z"/>
    <path class="cls-10" d="m9.37,85.64c.2-.03.4-.06.6-.09h.91c.2.03.4.06.6.09-.7.39-1.41.4-2.11,0Z"/>
    <path class="cls-13" d="m329.64,119.69c.37.21.85.25,1.04.74-.55.3-.81-.04-1.04-.44v-.3Z"/>
    <path class="cls-11" d="m2.37,78.67c0,.6,0,1.2,0,1.8-.4-.6-.39-1.2,0-1.8Z"/>
    <path class="cls-13" d="m259.83,89.52c-.09.3-.3.49-.58.61h-.33c.2-.31.4-.61.61-.92.1.11.2.21.3.32h0Z"/>
    <path class="cls-13" d="m343.74,117.66c-.2.31-.29.49-.41.63-1.27,1.42-1.74,2.9-.48,4.6.15.2.42.71.05.93-.44.25-.92.01-1.16-.4-.37-.64-.64-1.34-1.01-2.12-.47.63-.85,1.19-1.29,1.7-.28.34-.74.45-1.08.18-.43-.34.05-.65.25-.85,1.39-1.42,1.36-2.93.38-4.54-.12-.2-.33-.45-.07-.67.28-.24.56-.06.83.08.84.43.81,1.42,1.32,2.08,1.09-1.09,1.98-1.62,2.69-1.61h-.02Z"/>
    <path class="cls-13" d="m212.77,73.41c0,1.07-.06,1.73.02,2.36.06.46-.07.68-.48.74-.46.07-.8-.07-.8-.61v-4.95c0-.39.12-.69.59-.69s.6.28.6.67v1.79c1.39-.5,1.18-2.89,3.24-2.4-.05.22-.03.4-.11.5-1.13,1.47-1.22,2.96-.27,4.47.22.36.78.75.24,1.13-.55.38-.99.03-1.32-.53-.45-.75-.99-1.45-1.7-2.47h-.01Z"/>
    <path class="cls-13" d="m271.67,92.61c.89.55,1.82,1.11,2.73,1.71.21.14.03.36-.1.51-.17.19-.37.37-.64.21-.34-.2-.68-.42-1.01-.64-.47-.3-.84-.2-1.14.25-.28.43-.18.74.26.98.17.09.32.24.47.37.25.2.73.3.36.78-.3.38-.61.08-.94.02-.42-.08-.66-.97-1.24-.31-.53.61-.98,1.23.11,1.76.22.11.42.27.63.4.32.19.35.44.18.75-.2.36-.43.37-.72.12-.08-.07-.15-.14-.23-.19-1.68-1.01-1.99-2.3-.92-3.89.5-.74,1.02-1.48,1.51-2.23.16-.25.28-.54.68-.6h.01Z"/>
    <path class="cls-13" d="m44.18,56.94c1.15-.34,2.04-.64,2.95-.86.41-.1.93.13,1.03.47.15.51-.45.54-.79.68-.28.11-.58.18-.87.19-1.25.05-1.54.75-1.51,1.89.02.7.51,1.99-.59,2-1.22,0-.42-1.25-.57-1.94-.11-.51.14-1.07-.2-1.66-.45.54-.89.99-1.24,1.51-.32.48-.61.19-.88.03-.35-.2-.45-.5-.16-.87,1.06-1.32,2.12-2.64,3.14-3.99.31-.41.59-.26.91-.1.41.2.46.45.15.82-.44.53-.83,1.11-1.37,1.84h0Z"/>
    <path class="cls-13" d="m266.3,91.7c1.02.13,1.93-1.64,3.14,0-2.52.61-3.54,2.31-3.22,4.83-1.38-.44-1.48-.72-1.05-2.96-.71-.05-1.18.45-1.76.65-.51.18-1.08.27-1.3-.31-.21-.53.42-.66.73-.74,1.7-.45,2.31-1.65,2.43-3.26.03-.33-.18-.94.47-.83.44.08.71.51.73,1.03.02.54-.52,1.01-.18,1.58h0Z"/>
    <path class="cls-13" d="m185.08,75.47c.23-.6.45-1.19.69-1.77.16-.39.47-.52.85-.41.59.17.19.54.14.84-.02.1-.02.21-.07.29-.86,1.41-.46,2.61.59,3.74.33.35,1.07.78.35,1.3-.51.37-1.06-.08-1.37-.58-.29-.47-.59-.92-1.2-1.29-.2.55-.35,1.1-.58,1.61-.2.43-.37,1.11-1.01.88-.68-.24-.38-.85-.12-1.25.96-1.51.59-2.79-.59-3.98-.24-.24-.79-.5-.29-.95.45-.41.85-.28,1.3.13.47.44.56,1.2,1.31,1.45h0Z"/>
    <path class="cls-13" d="m332.87,117.36c-.73-.15-1.58-1.24-2.16-.17-.53.97.78,1.08,1.23,1.57,1.1,1.21,1.28,1.94.44,2.85-.78.85-2.66.88-3.57.05-.24-.22-.42-.45-.17-.77.17-.21.39-.31.66-.14.17.11.32.28.5.33.54.15,1.14.29,1.5-.28.4-.65-.17-.99-.59-1.34-.35-.28-.76-.51-1.04-.85-.5-.6-.48-1.32-.1-1.96.49-.85,1.32-1.09,2.22-.83.67.19,1.39.48,1.09,1.54h0Z"/>
    <path class="cls-13" d="m411.01,119.73c.43.1.71.23,1,.23.63,0,1.37-.18,1.47-.78.12-.7-.55-.92-1.2-1.03-1.13-.18-2.04-.66-1.96-2,.07-1.26,1.1-1.57,2.07-1.82.49-.13,1.09.06,1.15.66.06.62-.53.44-.89.47-.45.04-1.01,0-1.02.61-.02.55.57.64.96.81.41.18.88.2,1.28.39.84.4,1.14,1.2.92,2.01-.28,1-1.12,1.51-2.14,1.6-.73.07-1.56.17-1.63-1.14h0Z"/>
    <path class="cls-13" d="m352.67,124.84c-.43-.13-.87-.23-1.29-.38-.36-.12-.64-.38-.53-.79.14-.5.52-.34.85-.22.05.02.09.05.14.05.63.08,1.48.39,1.76-.32.32-.79-.57-1.02-1.12-1.3-.78-.39-1.37-.98-1.33-1.83.04-.84.65-1.42,1.46-1.75.45-.19.87-.15,1.3.06.41.2,1.16.12.95.86-.19.65-.73.22-1.14.18-.37-.04-.85-.19-1.05.3-.22.54.13.83.57,1.04.22.11.43.25.65.37.86.51,1.36,1.23,1.04,2.24-.34,1.06-1.3,1.27-2.26,1.46v.03Z"/>
    <path class="cls-13" d="m256.71,90.12c-.89-.07-1.56-.82-2.18-1.61-.2-.25-.16-.59.1-.81.34-.3.53.05.73.23.23.2.43.42.64.63.31.31.66.48,1.07.19.39-.28.38-.66.18-1.06-.24-.49-.54-.97-.69-1.49-.31-1.09.26-2.01,1.33-2.32.8-.23,2.22.52,2.48,1.31.08.25.08.49-.12.7-.33.35-.52.02-.74-.16-.19-.16-.36-.35-.55-.51-.31-.25-.64-.27-.95,0-.28.24-.25.51-.08.8.25.43.49.86.73,1.3.72,1.34-.21,2.83-1.96,2.8h0Z"/>
    <path class="cls-13" d="m347.08,117.87h1.14c.49.01,1.13-.07,1.01.71-.12.75-.63.35-1.05.28-.46-.08-1.05-.34-1.27.35-.24.78.2,1.05.92,1.15.34.05.88.21.76.75-.12.55-.64.33-1.01.35-.37.01-.91-.54-1.01.31-.07.63,0,1.08.77,1.38.5.2,1.68-.29,1.46.7-.17.74-1.24.34-1.88.31-1.1-.06-2.19-.18-1.62-1.89.3-.91.11-1.96.26-2.96.18-1.19.27-2.04,1.53-1.45h-.01Z"/>
    <path class="cls-13" d="m173.37,80.02c.5.05.98.12,1.46.15.5.03.88-.15.99-.7.11-.57-.24-.83-.69-.99-.33-.11-.69-.13-1.01-.24-.86-.3-1.26-.95-1.27-1.83,0-.88.59-1.31,1.3-1.65.8-.38,1.55-.36,2.15.36.11.13.1.36.14.54-.15.04-.25.09-.33.09-.68-.06-1.66-.43-1.87.36-.27,1.02.85.94,1.51,1.17.87.3,1.44.93,1.58,1.83.15.91-.6,1.37-1.2,1.75-.74.47-1.65.31-2.47.09-.29-.08-.33-.55-.29-.92h0Z"/>
    <path class="cls-13" d="m29.64,44.21c-.41-.04-.62-.35-.84-.6-.46-.52-.82-.54-1.36-.04-.66.61-.16.89.19,1.31.3.36,1.16.67.47,1.29-.56.5-.83-.27-1.19-.54-.32-.24-.55-.58-.86-.84-.63-.51-.74-.96-.06-1.57,1-.91,1.96-1.87,2.88-2.87.68-.74,1.25-.71,1.85.04.09.12.24.2.31.32.36.59,1.64,1.02,1.06,1.68-.76.89-1.12-.48-1.67-.82-.44-.27-.69-.26-1.04.08-.36.35-.38.66-.02,1.02.25.24.53.48.7.78.23.42-.05.63-.42.75h0Z"/>
    <path class="cls-13" d="m130.2,81.2c.48-.67.99-1.33,1.42-2.03.38-.61.96-.7,1.39-.35.45.37-.15.71-.4.92-1.61,1.37-.92,2.62.1,3.91.27.35.9.81.25,1.23-.54.35-.99-.06-1.31-.62-.42-.73-.94-1.39-1.56-2.28-.26.89-.21,1.6-.08,2.29.09.48-.15.64-.55.69-.39.04-.72-.06-.73-.53,0-1.7,0-3.4,0-5.1,0-.42.19-.65.64-.63.48.02.54.36.55.73v1.65c.09.04.19.08.28.12h0Z"/>
    <path class="cls-13" d="m219.48,75.66c.99,0,1.53-.01,2.08,0,.32,0,.63.12.62.49,0,.29-.16.6-.51.66-1.11.21-2.19-.16-3.23-.41-.56-.13-.32-.85.05-1.24.55-.58,1.12-1.15,1.69-1.71.46-.45.49-1,.28-1.52-.23-.58-.76-.57-1.28-.41-.29.09-.59.26-.69-.21-.06-.28.09-.51.31-.63,1-.55,2.02-.62,2.92.16.78.67.57,1.51.21,2.3-.44.97-1.32,1.56-2.46,2.52h0Z"/>
    <path class="cls-13" d="m278.27,98.51c-.3-.34-.49-.57-.69-.78-.35-.36-.81-.55-1.2-.22-.41.35-.22.82.08,1.2.06.08.13.15.18.24.72,1.27.68,2.4-.1,2.98-.81.6-2.44.26-3.27-.67-.32-.36-.65-.74-.22-1.16.48-.47.65.19.94.38.25.16.43.42.66.61.32.25.65.24.95-.04.3-.28.3-.62.11-.96-.29-.52-.65-1.01-.9-1.55-.37-.8-.02-1.47.6-1.98.86-.71,1.68-.27,2.5.17.75.4.8.92.37,1.79h0Z"/>
    <path class="cls-13" d="m293.53,110.7c.77.37,1.24.64,1.75.81.42.15.59.36.41.77-.16.36-.45.33-.75.17-1.02-.55-2.75-.52-2.92-1.71-.15-1.06,1.53-1.15,2.4-1.66.62-.37,1.36-.74,1.24-1.5-.11-.69-.85-.9-1.56-.79-.23.03-.39.01-.39-.27s.15-.52.39-.59c1.06-.34,1.94-.02,2.73.75.77.75.45,1.46-.03,2.14-.71,1.02-1.93,1.31-3.27,1.88Z"/>
    <path class="cls-13" d="m196.71,76.86c.62-.02,1.3.12,1.46-.72.17-.85-.59-.84-1.04-.99-1.21-.41-2.1-1.04-1.79-2.45.22-1.01,1.66-1.56,2.9-1.26.35.08.54.23.55.58,0,.47-.28.35-.6.37-.52.03-1.32-.44-1.45.52-.13.95.77.92,1.32,1.14,1.32.53,1.91,1.43,1.53,2.47-.36.98-1.95,1.7-2.99,1.35-.36-.12-.85-.15-.78-.72.09-.76.64-.13.9-.28h-.01Z"/>
    <path class="cls-13" d="m192.31,77.43c.48.16,1.22-.26,1.27.5.04.64-.69.44-1.07.55-2.03.58-2.59.16-2.77-1.89-.09-.99-.15-2-.44-2.94-.27-.87.17-1.11.79-1.26.62-.16,1.27-.24,1.91-.32.42-.05.88,0,.93.51.05.44-.43.5-.74.6-.28.09-.59.07-.89.08-.55.01-.64.36-.63.81,0,.42.18.66.62.67.35,0,.7,0,1.05.02.31.01.65.03.66.43.02.41-.33.42-.63.47-.62.1-1.44.03-1.33,1,.08.73.51,1.16,1.27.78h0Z"/>
    <path class="cls-13" d="m33.24,46.5c.11.36.16.78.35,1.12.52.96.08,1.58-.61,2.22-.61.56-1.22.6-1.93.28-.87-.4-1.46-1.05-1.7-1.98-.09-.33.11-.61.42-.71.3-.1.41.18.54.39.38.6.65,1.62,1.6,1.12.93-.49.21-1.36.04-2.02-.33-1.29.02-2.18,1.1-2.53.89-.28,2.29.55,2.65,1.52.15.4.07.72-.23.92-.34.24-.52-.12-.69-.35-.12-.16-.2-.35-.33-.5-.23-.26-.49-.55-.89-.41-.46.16-.28.58-.33.93h.01Z"/>
    <path class="cls-13" d="m17.28,33.73c-.98.02-2.39-1.3-2.45-2.27-.02-.4.08-.72.5-.8.51-.1.35.35.41.59.1.43.44.66.72.94.26.27.58.42.95.22.37-.21.36-.49.26-.89-.13-.47-.08-.99-.13-1.49-.11-1.31.63-1.83,1.8-1.83.88,0,2.08,1.34,2.04,2.13-.01.26-.17.33-.35.43-.2.11-.37.11-.49-.13-.09-.18-.18-.36-.29-.53-.27-.39-.5-1.02-1.11-.71-.55.27-.36.83-.24,1.34.44,1.91-.15,2.97-1.6,3h-.02Z"/>
    <path class="cls-13" d="m288.77,106.28c1.01-.19,1.53-.8,2.28-.77.26.01.53.07.62.34.1.31-.16.47-.39.53-1.33.36-1.67,1.16-1.25,2.44.11.34.25,1.03-.39,1.11-.67.09-.77-.48-.79-1.02-.01-.3-.03-.6-.11-.89-.07-.27-.23-.51-.35-.76-.11.22-.21.44-.32.66-.25.5-.49,1.11-1.21.76-.71-.35-.23-.86-.03-1.27.68-1.4,1.37-2.79,2.08-4.17.19-.37.34-.95.96-.66.72.33.3.83.1,1.26-.35.76-.74,1.5-1.21,2.43h.01Z"/>
    <path class="cls-13" d="m283.2,101.44c.66-1.18,1.55-.86,2.32-.43.81.45,1.47,1.11.99,2.2-.39.88-1.1,1.4-2,1.69-.51.16-1.01.36-1.6.57.4.58.96.68,1.41.93.35.2.56.39.33.82-.25.49-.56.28-.87.11-.79-.44-1.63-.81-2.34-1.34-.77-.58-.52-1.09.33-1.39.8-.28,1.61-.54,2.37-.9.49-.23,1.05-.59.98-1.21-.07-.65-.75-.72-1.26-.89-.18-.06-.37-.09-.66-.15h0Z"/>
    <path class="cls-13" d="m374.8,123.78c.22.06.31.08.4.12.6.25,1.83-.53,1.76.66-.06,1.03-1.23.47-1.88.51-.7.04-1.71.42-2.06-.4-.32-.77.56-1.28,1.04-1.84.32-.38.59-.8.9-1.19.38-.49.47-1.05.11-1.52-.34-.44-.85-.43-1.35-.13-.23.14-.55.42-.77.04-.21-.37.04-.71.34-.89.97-.57,2.08-.63,2.97-.03.87.59.71,1.63.25,2.44-.43.77-1.07,1.42-1.7,2.24h0Z"/>
    <path class="cls-13" d="m361.99,123.91h1.69c.31,0,.64.06.63.46-.02.39-.36.42-.67.43h-2.25c-.4,0-.9.07-1.03-.39-.11-.38.19-.75.48-1.04.62-.64,1.32-1.22,1.69-2.07.55-1.24.27-1.69-1.05-1.61-.32.02-.79.58-.96-.13-.11-.48.31-.7.69-.84.92-.33,1.82-.5,2.64.28.85.8.49,1.59.11,2.45-.4.9-1.27,1.4-1.97,2.46h0Z"/>
    <path class="cls-13" d="m23.69,39.3c-.7-.36-1.21.24-1.82.17-.44-.05-1.04.08-1.16-.45-.13-.6.52-.6.91-.75.05-.02.1-.02.15-.02,1.81,0,2.64-1.06,2.98-2.69.07-.32.08-.83.55-.72.45.1.74.51.64,1.04-.03.14-.12.27-.16.42-.46,1.61-.44,1.68,1.15,1.27.68-.17,1.18-.09,1.32.5.17.73-.64.52-.95.55-1.76.15-2.61,1.2-3.03,2.77-.1.37-.03,1.07-.72.8-.49-.2-.67-.69-.41-1.27.24-.53.38-1.1.57-1.64l-.02.02Z"/>
    <path class="cls-13" d="m42.53,52.48c-.24.75-.69,1.39-1.48,1.73-.7.3-1.44.39-2.2.34-.23,0-.54-.06-.63.25-.09.29.16.44.35.59.31.24.63.48.94.74.29.24.27.48,0,.75s-.49.24-.76,0c-.67-.6-1.37-1.16-2.04-1.75-.31-.28-.55-.61-.32-1.05.18-.35.53-.46.9-.42.81.07,1.58-.14,2.36-.31.6-.13,1.01-.44,1.12-1.05.12-.67-.4-.84-.87-1.03-.23-.09-.55-.11-.49-.44.06-.33.35-.45.67-.49.87-.1,2.45,1.25,2.45,2.15h0Z"/>
    <path class="cls-13" d="m103.21,79.24c.99-.58,1.12-2.1,2.57-1.71.19.65-.31,1.06-.65,1.39-1.1,1.08-.88,2.17-.31,3.38.2.43.94,1.09.06,1.44-.81.32-1.1-.41-1.27-1.09-.06-.24-.17-.47-.29-.69-.36-.63-.72-.6-1.03.04-.08.17-.14.37-.26.51-.37.43-.87.95-1.4.58-.67-.47.15-.97.37-1.19,1.12-1.12,1.31-2.27.5-3.63-.25-.41-.58-1.05.03-1.26.47-.17,1.03.24,1.2.87.12.43.3.84.48,1.35h0Z"/>
    <path class="cls-13" d="m48.09,62.65c.37.33.67.52.84.79.25.4,1.32.47.72,1.16-.42.49-1.01-.1-1.43-.41-.7-.52-1.92-.87-1.87-1.72.06-1.08,1.4-.79,2.19-1.11.37-.15.75-.26,1.12-.42.46-.2,1.01-.44.98-1-.02-.54-.5-.82-1.05-.89-.29-.04-.68-.06-.49-.5.13-.3.35-.61.8-.51,1.01.24,2.05.61,2.29,1.68.24,1.12-.55,1.87-1.57,2.24-.77.28-1.59.43-2.53.68h0Z"/>
    <path class="cls-13" d="m92.75,82.28c-.25-.07-.69-.17-1.1-.32-.48-.17-1.07-.45-.85-1.02.3-.79.77-.15,1.2.02.52.2,1.14.31,1.5-.25.34-.54-.29-.76-.54-1.09-.18-.24-.41-.44-.64-.64-.71-.63-1.1-1.33-.47-2.22.7-1,1.69-.94,2.7-.64.5.15.81.55.55,1.04-.27.52-.57.01-.85-.12-.5-.24-1.03-.31-1.32.23s.28.81.59,1.07c.65.53,1.46.85,1.38,1.95-.08,1.2-.75,1.98-2.15,2.01v-.02Z"/>
    <path class="cls-13" d="m107.59,80.47c.02-.15.02-.3.05-.44.57-2.16.64-2.19,2.97-1.97.49.05.94.1.83.74-.11.61-.52.41-.92.31-.51-.13-1.14-.41-1.39.31-.27.75.18,1.04.91,1.14.34.05.89.21.76.73-.15.62-.72.37-1.13.34-.32-.02-.63-.37-.93.04-1.08.26-.65-.92-1.15-1.21h0Z"/>
    <path class="cls-13" d="m107.59,80.47c.32-.1,1.01-.76.49.37-.19.42.35.62.66.84-.12,1.22.32,1.9,1.65,1.83.34-.02.77-.02.71.51-.04.39-.4.37-.7.38-.3.01-.6.01-.9,0-1.81-.05-1.99-.25-1.95-1.99.02-.65.02-1.29.03-1.94h0Z"/>
    <path class="cls-13" d="m115.92,79.6c-.33.03-.87-.24-1.05.38-.2.67.37.83.8,1.07,1.42.79,1.91,1.74,1.41,2.68-.59,1.1-2.17,1.52-3.42.94-.4-.19-.75-.42-.56-.89.18-.46.56-.21.9-.12.28.08.59.09.88.12.44.04.79-.08.94-.55.14-.45-.22-.64-.48-.83-.37-.26-.82-.39-1.17-.67-.91-.71-1.09-1.84-.46-2.64.54-.69,2.15-.89,2.89-.4.31.21.37.47.27.77-.18.57-.56.16-.95.13h0Z"/>
    <path class="cls-13" d="m368.23,121.08c.46-.66.85-1.27,1.29-1.84.33-.43.85-.71,1.29-.31.36.32-.04.84-.29,1.02-1.71,1.25-1.09,2.46-.07,3.74.27.34.93.8.34,1.24-.62.46-1.06-.06-1.4-.64-.34-.59-.78-1.11-1.4-1.97v2.07c0,.52-.28.7-.76.69-.49,0-.74-.22-.74-.72v-4.8c0-.46.12-.8.67-.78.46.02.73.26.82.72.1.47-.13.98.24,1.56v.02Z"/>
    <path class="cls-13" d="m204.91,71.82c-.2-1.5,1.01-1.44,1.83-1.55.8-.11,1.64.15,1.73,1.21.09,1.02,0,2-.83,2.76-.37.33-.76.66-.73,1.24.08.05.15.12.23.15.61.22,1.77-.41,1.79.45.02.89-1.14.28-1.74.49-.28.1-.57.2-.86.24-.5.07-1.04.16-1.34-.39-.28-.51.12-.82.41-1.17.35-.42.67-.87,1-1.3.47-.63.84-1.34.45-2.08-.51-.95-1.23,0-1.92-.05h-.02Z"/>
    <path class="cls-13" d="m240.46,78.32c-1.2-.64-1.48.24-1.76,1.08-.16.47-.31.85-.95.6-.59-.23-.35-.65-.23-.99.48-1.42,1.01-2.82,1.5-4.23.21-.61.67-.7,1.21-.59.34.07.7.15.99.33.45.29,1.43.27,1.2,1.01-.24.78-.98.14-1.42,0-.65-.2-.92-.04-1.11.56-.18.58-.15.94.55,1.09.4.08.98.19.89.8-.07.49-.53.33-.87.32v.02Z"/>
    <path class="cls-13" d="m136.94,83.79c.62,0,1.05-.01,1.49,0,.34.01.77-.06.8.44.02.44-.4.62-.71.65-.89.08-1.82.19-2.69.06-1.14-.17-.66-.95-.27-1.43.63-.77,1.4-1.43,1.76-2.4.14-.4.3-.8-.02-1.12s-.73-.47-1.23-.18c-.25.14-.66.55-.9.09-.26-.51.18-.92.57-1.07.99-.39,2.06-.66,2.9.28.71.8.41,1.71-.09,2.5-.44.7-.98,1.34-1.61,2.19h0Z"/>
    <path class="cls-13" d="m124.02,83.98c.23.06.32.08.42.11.59.19,1.7-.43,1.7.51,0,.73-1.09.37-1.67.36-.76-.01-1.89.45-2.19-.4-.27-.75.63-1.46,1.22-2.05.21-.21.45-.41.63-.64.35-.47.86-.95.51-1.59-.33-.59-.95-.44-1.49-.32-.28.06-.59.3-.71-.17-.09-.34.14-.55.39-.74.77-.58,2.25-.53,2.92.12.79.76.76,1.61-.07,2.65-.53.67-1.05,1.37-1.65,2.16h0Z"/>
    <path class="cls-13" d="m8.8,12.48c.41.03,2.04,2.45,1.9,2.77-.18.38-.53.51-.86.23-.26-.21-.46-.53-.64-.83-.28-.47-.59-.68-1.08-.3-.38.3-.56.59-.35,1.15.15.41,1.14.78.32,1.32-.81.54-.89-.44-1.12-.79-.52-.78-.92-.42-1.45-.06-.41.28-.95.88-1.41.19-.5-.76.25-1,.76-1.31,1.07-.65,2.12-1.32,3.19-1.97.25-.16.52-.29.74-.41h0Z"/>
    <path class="cls-13" d="m310.31,116.89c.41-1.54.82-3.08,1.23-4.61.15-.55.62-.48.99-.4.73.15,1.44.4,2.16.59.29.08.44.25.39.53-.06.33-.23.54-.62.45-.34-.08-.71-.07-1.02-.21-.68-.3-.8.22-.94.61-.16.45-.17.91.5,1,.24.04.48.12.71.22.29.12.56.3.43.67-.13.37-.51.39-.75.27-1.29-.62-1.7.07-1.88,1.18-.06.38-.03.88-.64.76-.58-.12-.6-.59-.56-1.06Z"/>
    <path class="cls-13" d="m74.83,70.96c.99.32,1.85.58,2.69.88.25.09.34.33.2.62-.12.24-.25.45-.55.37-.29-.07-.59-.14-.85-.28-.76-.39-.98.16-1.2.67-.27.61.15.76.62.93.43.16,1.17.22.9.9-.2.52-.78.3-1.17.07-.77-.44-1.07-.12-1.2.65-.06.34-.2.67-.36.98-.15.29-.42.43-.76.24-.26-.14-.52-.24-.38-.67.56-1.65,1.08-3.31,1.64-4.96.06-.19.31-.31.43-.41h-.01Z"/>
    <path class="cls-13" d="m247.83,84.52c-.73-.21-.76-.62-.45-1.16.58-1.04,1.12-2.11,1.72-3.14.34-.59.35-.98-.36-1.24-.38-.14-.8-.37-.5-.87.29-.5.7-.23,1.04-.03.9.52,1.8,1.06,2.68,1.61.26.16.74.28.43.76-.19.3-.5.33-.78.12-.86-.62-1.16-.06-1.52.63-.51.96-1.13,1.87-1.69,2.81-.15.25-.23.57-.57.52h0Z"/>
    <path class="cls-13" d="m404.56,121.19c0,.57-.05,1.03-.63,1.13-.61.11-.61-.45-.68-.79-.21-.92-.39-1.85-.48-2.78-.09-.9-.28-1.59-1.4-1.5-.3.02-.65-.02-.67-.42-.02-.4.32-.43.63-.48,1.08-.19,2.15-.41,3.23-.58.32-.05.77-.1.85.39.07.4-.28.46-.58.54-1,.27-.95,1.03-.81,1.8.17.93.37,1.85.54,2.68h0Z"/>
    <path class="cls-13" d="m394.07,117.29c.3,0,.6-.01.9,0,.28.02.47.15.46.47-.01.25-.18.34-.39.38-.15.03-.32.01-.44.08-.48.25-1.27.14-1.21,1.05.07,1,.83.63,1.35.71.3.04.65.01.69.41.05.4-.29.49-.59.54-1.1.18-1.27.92-1.17,1.86.05.47-.04.98-.62,1.04-.74.08-.53-.55-.58-.96-.12-1.14-.18-2.29-.35-3.42-.3-1.97-.14-2.18,1.94-2.16h.01Z"/>
    <path class="cls-13" d="m320.62,113.97c1.16.28,2.33.54,3.49.83.26.07.68.05.55.51-.1.32-.43.51-.72.41-1.11-.36-1.25.31-1.36,1.14-.13.93-.31,1.86-.54,2.78-.1.4-.21.99-.83.87-.65-.13-.65-.6-.48-1.17.22-.76.29-1.57.5-2.33.25-.9.67-1.78-.8-1.98-.3-.04-.46-.37-.39-.72.07-.32.33-.33.59-.34h0Z"/>
    <path class="cls-13" d="m156.45,77.16c.37.1,1-.24,1.15.33.2.77-.65.7-1.01.78-.73.15-1.05.4-.99,1.17.08.99.74.34,1.11.42.43.09,1.05-.07,1.15.47.12.65-.65.62-.97.65-1.03.1-1.01.74-.99,1.48,0,.55.07,1.26-.7,1.25-.79-.01-.46-.75-.48-1.19-.08-1.09-.35-2.16-.35-3.27,0-1.8.19-2.07,2.09-2.09h0Z"/>
    <path class="cls-13" d="m86.21,75.54c-.99-.57-1.04.35-1.21.89-.29.95-.5,1.93-.7,2.9-.12.61-.46.92-1.04.79-.73-.17-.34-.66-.23-1.07.2-.77.42-1.54.56-2.32.15-.84.97-1.96-.76-2.19-.22-.03-.35-.36-.27-.63.11-.4.41-.36.72-.28,1.06.27,2.12.55,3.18.8.35.08.75.11.66.6-.08.45-.37.7-.91.51Z"/>
    <path class="cls-13" d="m13.57,21.38c-.08-.13-.2-.34-.34-.54-.21-.31-.38-.65.05-.89.3-.16.59.01.78.28.66.93,1.31,1.88,1.97,2.81.19.26.33.51.04.79-.36.36-.7.15-.88-.15-.62-1.05-1.22-.61-1.9-.08-.75.58-1.52,1.12-2.32,1.63-.36.23-.82.55-1.16-.04-.29-.51,0-.82.43-1.1.92-.59,1.82-1.22,2.75-1.81.31-.2.58-.39.58-.91h0Z"/>
    <path class="cls-13" d="m228.74,72.42c-.02,1.07-.68,2.16.15,3.3.13.18-.74,1.15-1.23,1.67-.17.17-.71.03-.67-.33.11-1.23-.9-1.25-1.58-1.33-1.52-.2-1.1-.96-.6-1.72.55-.83,1.16-1.62,1.79-2.39.37-.46.73-.86,1.51-.56.78.29.55.83.63,1.36h0Z"/>
    <path class="cls-13" d="m167.09,76c.45-.03.79.14.84.63.05.52-.36.54-.72.52-1.07-.05-1.08.45-.87,1.33.26,1.05.32,2.16.43,3.25.04.41,0,.83-.59.83-.47,0-.56-.3-.62-.68-.18-1.18-.45-2.34-.56-3.53-.07-.75-.38-.94-1.05-.89-.28.02-.74.37-.77-.29-.02-.46.31-.5.66-.64,1.05-.44,2.21-.06,3.25-.53Z"/>
    <path class="cls-13" d="m300.58,114.53c-.55,0-.86-.12-.75-.41.53-1.36-.68-1.4-1.34-1.62-.93-.31-.81-.73-.38-1.29.85-1.12,2.06-1.86,3.11-2.78.49-.43.9.15,1.34.31.53.2.19.57.17.88-.09,1.21-1.3,2.17-.73,3.61.09.23-1.02.95-1.42,1.3h0Z"/>
    <path class="cls-13" d="m383.94,122.76c-.83.45-.88,1.34-1.39,1.67-.59.37-.81-.29-1.07-.83-.28-.57-.99-.35-1.5-.22-1.18.3-1.25-.43-.97-1.15.45-1.16,1.06-2.27,1.67-3.36.32-.57.98-.72,1.56-.62.63.11.52.74.57,1.23.13,1.13-.56,2.48,1.12,3.26v.02Z"/>
    <path class="cls-13" d="m57.33,63.11c-.1.2-.23.47-.37.74-.48.92-1.51,1.57-1.2,2.92.06.28-1.1,1.16-1.73,1.19-.78.04-.57-.65-.37-1.31.19-.62-.7-.74-1.1-1.06-1.02-.81-1.08-.98,0-1.66.97-.61,1.99-1.16,3.03-1.65.82-.39,1.74.07,1.75.84h-.01Z"/>
    <path class="cls-13" d="m146.06,82.76c-1.22.01-.79,2.04-1.56,1.52-1.02-.7-1.84-1.16-3.09-1.05-.36.03-.38-.75-.17-1.18.52-1.09,1.07-2.16,1.62-3.23.28-.55.79-.77,1.38-.72.62.05.56.66.69,1.04.38,1.17-.42,2.66,1.14,3.62h-.01Z"/>
    <path class="cls-13" d="m243.53,82.25c-.53-.02-.93-.14-.63-.79.71-1.58,1.44-3.15,2.14-4.74.16-.36.31-.44.67-.28.52.23.62.56.37,1.07-.67,1.38-1.31,2.77-1.97,4.16-.27.11-.37.4-.58.58h0Z"/>
    <path class="cls-13" d="m243.53,82.25c-.03-.42-.38-1.14.58-.58.03.42-.15.62-.58.58Z"/>
    <path class="cls-13" d="m260.03,92.23c-.59-.15-.96-.38-.5-1.03.92-1.3,1.81-2.62,2.74-3.91.27-.38.69-.67,1.15-.29.45.37.04.74-.15,1.04-.75,1.17-1.54,2.33-2.32,3.48-.23.34-.5.62-.92.71h0Z"/>
    <path class="cls-13" d="m417.95,119.35c-.68.02-.83-.45-.94-.87-.37-1.44-.66-2.9-1.05-4.33-.13-.48-.14-.69.41-.85.63-.19.77.08.9.61.35,1.49.76,2.97,1.13,4.47.11.45.18.93-.44.98h-.01Z"/>
    <path class="cls-13" d="m399.42,121.9c0,.45.11,1.08-.57,1.16-.81.1-.55-.62-.65-1.05-.33-1.46-.48-2.94-.65-4.42-.06-.56.18-.72.58-.84.45-.13.63.1.68.54.19,1.53.4,3.06.6,4.63v-.02Z"/>
    <path class="cls-13" d="m79.02,78.83c-.55-.18-1.01-.13-.8-.79.51-1.61.96-3.24,1.45-4.86.14-.44.49-.63.95-.48.37.12.4.46.31.74-.49,1.67-1.01,3.34-1.54,5-.08.25-.27.41-.37.39h0Z"/>
    <path class="cls-13" d="m334.67,121.58c.23-1.36.46-2.72.68-4.08.06-.4.08-.82.66-.8.58.02.62.45.57.85-.19,1.67-.41,3.33-.63,4.99-.05.38-.35.46-.66.43-.38-.03-.69-.15-.61-.64.04-.24.08-.49.12-.73-.04,0-.08-.01-.13-.02Z"/>
    <path class="cls-13" d="m315.92,118.67c.41-1.69.75-3.15,1.14-4.59.12-.45.41-.85.99-.68.6.19.3.6.21.98-.35,1.45-.7,2.91-1,4.37-.11.53-.38.67-.84.59-.56-.1-.58-.46-.49-.67h-.01Z"/>
    <path class="cls-13" d="m23.8,32.72c.07.46-.12.59-.33.76-1.28,1.02-2.55,2.06-3.81,3.11-.3.25-.52.44-.87.07-.35-.36-.39-.69,0-1.01,1.29-1.09,2.57-2.19,3.9-3.23.52-.41.91-.07,1.1.31h.01Z"/>
    <path class="cls-13" d="m12.65,17.82c-.18.21-.34.48-.57.64-1.28.87-2.56,1.73-3.87,2.57-.37.24-.83.51-1.15-.09-.24-.44-.02-.77.35-1.01,1.34-.86,2.69-1.72,4.03-2.58.54-.34.93-.2,1.19.47h.02Z"/>
    <path class="cls-13" d="m180.68,79.53c.02.37.05.96-.62,1.03s-.55-.55-.62-.96c-.28-1.5-.55-3.01-.81-4.51-.08-.47.11-.8.57-.89.48-.09.78.19.84.64.22,1.52.42,3.04.64,4.69h0Z"/>
    <path class="cls-13" d="m97.01,81.05c.16-1.06.4-2.47.59-3.89.09-.67.55-.62,1-.57.57.06.34.43.29.78-.25,1.56-.48,3.13-.67,4.7-.06.52-.16.88-.78.8-.69-.09-.57-.54-.46-1,.03-.14.02-.3.04-.81h-.01Z"/>
    <path class="cls-13" d="m161.32,80.17c.23.72.43,1.44.32,2.21-.06.45-.27.79-.76.76-.51-.04-.49-.5-.41-.81.26-1.06-.65-1.99-.3-3.04.75-.18.85.48,1.15.89h0Z"/>
    <path class="cls-13" d="m161.32,80.17c-.38-.3-.77-.59-1.15-.89-.11-.48-.24-.96-.31-1.45-.07-.47-.03-.93.55-1.06.61-.13.54.41.69.74.4.86.21,1.76.22,2.65h0Z"/>
    <path class="cls-13" d="m102.53,79.2c.64.48,1.62.8,1.21,1.74-.25.57-.98.29-1.18-.27-.15-.42-.03-.94-.03-1.47Z"/>
    <path class="cls-17" d="m227.41,72.31c-.17,1.8-.79,2.55-1.88,2.26.6-.72,1.17-1.41,1.88-2.26Z"/>
    <path class="cls-17" d="m301.18,109.8c.03.8-.25,1.37-.52,1.94-.17.36-.43.36-.73.19-.24-.13-.66-.02-.68-.44-.01-.27.24-.4.44-.54.47-.34.93-.71,1.49-1.15Z"/>
    <path class="cls-17" d="m381.6,119.68v1.89c0,.35,0,.75-.49.77-.28.01-.67.02-.84-.15-.24-.24.05-.56.17-.81.27-.59.59-1.15.89-1.73.09,0,.18.01.27.02h0Z"/>
    <path class="cls-17" d="m55.52,63.34c-.73,2.2-.9,2.27-2.5,1.24.82-.41,1.6-.79,2.5-1.24Z"/>
    <path class="cls-17" d="m142.6,81.67c.15-.72.5-1.33,1.17-2.2-.04,1.18.36,2.01-.27,2.79-.2-.35-1.01.22-.91-.59h.01Z"/>
    <path class="cls-17" d="m142.6,81.67c.3.2.6.39.91.59-.35-.13-1.16.46-.91-.59Z"/>
  </g>
</svg>