<?xml version="1.0" encoding="UTF-8"?>
<svg id="Layer_2" data-name="Layer 2" xmlns="http://www.w3.org/2000/svg" viewBox="0 0 1440.39 586.06">
  <defs>
    <style>
      .cls-1, .cls-2 {
        fill: none;
      }

      .cls-3 {
        fill: #fff;
      }

      .cls-4 {
        fill: #feb53b;
      }

      .cls-2 {
        stroke: #fff;
        stroke-miterlimit: 10;
      }

      .cls-5 {
        opacity: .75;
      }
    </style>
  </defs>
  <g id="Layer_2-2" data-name="Layer 2">
    <g class="cls-5">
      <path class="cls-3" d="m1419.34,285.76c-1.89,1.17-3.77,2.35-5.66,3.53-3.94,2.47-7.66,4.8-11.35,6.98-1.3.77-2.63,1.57-3.96,2.36-5.75,3.43-11.18,6.66-16.39,9.33-5.53,2.82-11.51,5.5-17.85,8.34-2.05.91-4.1,1.83-6.15,2.76-8.36,3.79-17.92,7.23-30.11,10.84-10.59,3.12-21.39,5.79-32.09,7.91-6.2,1.23-12.85,2.16-19.89,3.14-1.73.25-3.46.49-5.18.74-1.61.22-3.76.39-6.05.57-1.08.08-2.17.17-3.25.26h-.06c-1.3.12-2.59.24-3.88.36-5.29.48-10.29.94-14.56.94h-.3c-1.24-.01-2.48-.01-3.72-.01-3.07,0-6.14.01-9.21.02-3,.01-6,.01-9,.01-5.01,0-9.08-.02-12.8-.07-4.84-.06-9.98-.38-15.42-.71-1.17-.07-2.34-.15-3.51-.21h-.07s-.07-.01-.07-.01c-2.44-.14-5.19-.38-8.4-.75h-.05s-.05-.01-.05-.01c-4.71-.53-9.72-1.16-16.25-2.02-1.58-.21-3.18-.41-4.79-.62-4.44-.56-8.63-1.1-12.42-1.78-9.62-1.7-18.91-3.51-27.64-5.38-13.79-2.94-28.63-6.69-45.37-11.47-18.05-5.16-36.15-11.13-53.79-17.75-18.62-7.01-33.53-13.01-46.89-18.87l-4.62-2.02c-14.06-6.15-27.33-11.97-40.11-18.48-2.25-1.15-4.52-2.3-6.79-3.45-3.16-1.6-6.33-3.2-9.48-4.82-3.55-1.84-7.16-3.67-10.76-5.51-8.79-4.47-17.09-8.7-25.25-13.15-19.44-10.61-39.69-22.07-55.96-31.29-9.62-5.44-18.53-10.03-27.23-14.02-2.26-1.12-5.37-2.51-9.47-3.53l-.07-.02-.07-.02c-1.23-.3-2.45-.61-3.68-.93-4.14-1.06-8.83-2.27-14.07-3.2h-.05c-8.21-1.44-16.05-2.39-22.63-3.12-7.11-.8-14.74-1.58-23.05-1.58-.82,0-1.64.01-2.46.02-.44.01-.85.01-1.26.01-.73,0-1.47,0-2.2-.01-.98-.01-1.96-.02-2.94-.02-1.75,0-3.25.03-4.72.08l-2.99.11c-6.51.24-13.25.49-20.29,1.06-5.81.46-11.24,1.17-16.48,1.86-1.56.2-3.12.41-4.69.61-12.89,1.6-25.2,3.99-36.07,6.1-8.75,1.7-17.35,3.58-25.67,5.41-4.37.96-8.89,1.95-13.26,2.87l-5.5,1.17c-14.88,3.15-30.28,6.41-45.36,9.48-4.65.94-9.51,1.76-14.66,2.62-2.34.39-4.68.78-7.01,1.19-.95.16-1.85.32-2.76.49-1.82.33-3.54.64-4.81.8-2.83.35-5.71.67-8.76,1.01-4.61.5-9.38,1.03-14.31,1.71-7.12.98-14.56,1.53-22.78,1.68l-2.09.04c-5.75.1-11.19.2-16.62.2-7.36,0-13.35-.19-18.82-.58-9.45-.68-17.17-1.4-24.29-2.26-7.96-.97-16.26-2.58-25.04-4.29h-.08c-11.99-2.33-24.21-5.87-34.58-9.04-3.64-1.11-7.59-2.53-11.76-4.03-2.18-.79-4.43-1.6-6.75-2.41-7.33-2.56-15.37-5.88-25.23-10.42-6.71-3.09-13.44-6.5-20.56-10.12-1.9-.97-3.8-1.93-5.7-2.89-12.01-6.07-24.83-13.53-39.16-22.78-19.2-12.4-34.37-23.02-47.74-33.44l-.02-.02-.02-.02c-1.66-1.29-3.34-2.57-5.02-3.86-3.25-2.48-6.32-4.83-9.08-7.11-1.65-1.37-3.2-2.57-4.57-3.64-1.07-.83-2.08-1.61-2.71-2.15l-.05-.04-.04-.04c-1.25-1.07-2.51-2.13-3.76-3.19-5.65-4.8-10.99-9.34-16.09-13.97-3.56-3.22-7.14-6.44-10.62-9.56-5.86-5.26-11.4-10.23-16.91-15.33-6.93-6.4-13.73-13.07-20.11-19.35-6.12-6.04-12.36-12.31-18.39-18.37-2.27-2.28-4.54-4.56-6.81-6.84L56.56.06h-16.58C26.69.04,13.41.02.12,0H0v40c13.32.02,26.63.04,39.95.05,8.47,8.49,16.9,17.02,25.44,25.44,6.92,6.82,13.87,13.62,21.01,20.22,9.18,8.5,18.57,16.76,27.83,25.16,6.79,6.16,13.81,12.04,20.78,17.98,2.52,2.16,5.23,4.09,7.78,6.21,4.92,4.08,10.06,7.86,15.09,11.77,16.28,12.69,33.3,24.31,50.63,35.5,13.88,8.96,28.07,17.42,42.83,24.88,9.15,4.62,18.25,9.36,27.56,13.64,9.43,4.34,18.99,8.43,28.8,11.86,6.66,2.32,13.25,4.87,20,6.93,12.73,3.88,25.54,7.5,38.62,10.03,9.27,1.8,18.53,3.6,27.93,4.74,8.73,1.06,17.46,1.82,26.23,2.45,7.24.52,14.47.68,21.7.68,6.49,0,12.97-.13,19.45-.24,9.17-.17,18.35-.79,27.47-2.05,7.51-1.03,15.07-1.72,22.6-2.65,3.17-.4,6.3-1.03,9.45-1.58,7.6-1.32,15.23-2.48,22.79-4.02,17.08-3.47,34.13-7.1,51.18-10.71,12.75-2.7,25.46-5.66,38.26-8.15,11.09-2.15,22.2-4.28,33.43-5.68,6.47-.81,12.94-1.77,19.43-2.29,7.16-.58,14.36-.79,21.54-1.06,1.08-.05,2.15-.06,3.23-.06,1.71,0,3.43.03,5.14.03.68,0,1.36,0,2.03-.01.56-.02,1.13-.02,1.69-.02,6.24,0,12.44.64,18.62,1.34,6.74.75,13.48,1.59,20.16,2.76,5.1.9,10.1,2.34,15.14,3.58.76.19,1.47.62,2.2.95,8.36,3.82,16.49,8.08,24.49,12.61,18.78,10.63,37.57,21.25,56.51,31.59,12.15,6.63,24.58,12.78,36.89,19.12,5.45,2.8,10.93,5.55,16.38,8.33,15.32,7.81,31.1,14.6,46.83,21.5,16.1,7.06,32.45,13.49,48.9,19.68,18.7,7.02,37.66,13.28,56.87,18.77,15.87,4.53,31.84,8.68,47.98,12.12,9.63,2.06,19.3,3.93,28.99,5.65,6.29,1.12,12.65,1.83,18.98,2.67,5.67.75,11.34,1.47,17.03,2.11,3.57.41,7.15.75,10.74.95,6.91.41,13.83.9,20.75.99,4.45.06,8.9.07,13.35.07,6.07,0,12.14-.03,18.21-.03,1.21,0,2.42,0,3.62.01h.4c7.35,0,14.63-.81,21.92-1.44,3.84-.33,7.7-.55,11.52-1.09,9.08-1.3,18.21-2.46,27.21-4.24,12-2.38,23.9-5.32,35.65-8.79,12-3.55,23.85-7.58,35.27-12.76,8.61-3.9,17.31-7.63,25.72-11.93,7.7-3.94,15.09-8.48,22.54-12.89,5.95-3.53,11.77-7.26,17.65-10.9v-47.05l-21.05,13.03Z"/>
    </g>
    <path class="cls-4" d="m1422.74,330.68c-7.45,4.41-14.84,8.95-22.54,12.89-8.41,4.3-17.11,8.03-25.72,11.93-11.42,5.18-23.27,9.21-35.27,12.76-11.75,3.47-23.65,6.41-35.65,8.79-9,1.78-18.13,2.94-27.21,4.24-3.82.54-7.68.76-11.52,1.09-7.43.65-14.84,1.47-22.32,1.44-11.73-.03-23.46.11-35.18-.05-6.92-.09-13.84-.58-20.75-.99-3.59-.2-7.17-.54-10.74-.95-5.69-.64-11.36-1.36-17.03-2.11-6.33-.84-12.69-1.55-18.98-2.67-9.69-1.72-19.36-3.59-28.99-5.65-16.14-3.44-32.11-7.59-47.98-12.12-19.21-5.49-38.17-11.75-56.87-18.77-16.45-6.19-32.8-12.62-48.9-19.68-15.73-6.9-31.51-13.69-46.83-21.5-5.45-2.78-10.93-5.53-16.38-8.33-12.31-6.34-24.74-12.49-36.89-19.12-18.94-10.34-37.73-20.96-56.51-31.59-8-4.53-16.13-8.79-24.49-12.61-.73-.33-1.44-.76-2.2-.95-5.04-1.24-10.04-2.68-15.14-3.58-6.68-1.17-13.42-2.01-20.16-2.76-6.74-.76-13.5-1.45-20.31-1.32-3.47.07-6.94-.09-10.4.04-7.18.27-14.38.48-21.54,1.06-6.49.52-12.96,1.48-19.43,2.29-11.23,1.4-22.34,3.53-33.43,5.68-12.8,2.49-25.51,5.45-38.26,8.15-17.05,3.61-34.1,7.24-51.18,10.71-7.56,1.54-15.19,2.7-22.79,4.02-3.15.55-6.28,1.18-9.45,1.58-7.53.93-15.09,1.62-22.6,2.65-9.12,1.26-18.3,1.88-27.47,2.05-13.71.24-27.43.55-41.15-.44-8.77-.63-17.5-1.39-26.23-2.45-9.4-1.14-18.66-2.94-27.93-4.74-13.08-2.53-25.89-6.15-38.62-10.03-6.75-2.06-13.34-4.61-20-6.93-9.81-3.43-19.37-7.52-28.8-11.86-9.31-4.28-18.41-9.02-27.56-13.64-14.76-7.46-28.95-15.92-42.83-24.88-17.33-11.19-34.35-22.81-50.63-35.5-5.03-3.91-10.17-7.69-15.09-11.77-2.55-2.12-5.26-4.05-7.78-6.21-6.97-5.94-13.99-11.82-20.78-17.98-9.26-8.4-18.65-16.66-27.83-25.16-7.14-6.6-14.09-13.4-21.01-20.22-8.54-8.42-16.97-16.95-25.44-25.44-13.32-.01-26.63-.03-39.95-.05v376.51c5.78-.9,11.51-2.01,17.07-3.93,10.27-3.57,19.63-8.84,28.52-15.03,8.22-5.72,15.88-12.16,23.04-19.12,8.4-8.17,16.78-16.36,25.35-24.36,4.78-4.46,9.76-8.64,14.95-12.62,8.39-6.44,17.9-10.49,27.89-13.46,7.28-2.15,14.79-3.31,22.35-4.09,2.52-.26,5.03-.71,7.55-.69,6.92.04,13.84-.39,20.76.45,5.81.69,11.65,1.13,17.47,1.73,1.72.17,3.42.51,5.13.77,6.05.92,12.14,1.66,18.15,2.78,18.18,3.39,36.22,7.47,54.5,10.36,6.56,1.04,13.13,2.07,19.72,3.01,3.16.45,6.35.68,9.53.99,3.84.37,7.68,1.02,11.53,1.01,8.91-.01,17.83.37,26.75-.38,8.1-.68,16.19-1.22,24.21-2.53,4.6-.75,9.26-1.14,13.82-2.06,18.39-3.71,36.68-7.87,54.75-12.96,20.24-5.69,40.51-11.29,60.85-16.62,11.31-2.97,22.75-5.53,34.22-7.86,8.33-1.69,16.74-3.02,25.22-3.98,8.5-.97,16.97-1.43,25.5-1.33,4.8.06,9.6.01,14.4.02,3.46,0,6.89.19,10.35.57,10.49,1.13,20.79,3.12,30.91,6.03,7.81,2.24,15.47,4.99,22.8,8.49,7.44,3.57,14.8,7.36,21.68,11.95,6.09,4.07,12.19,8.15,17.97,12.63,12.02,9.3,23.28,19.5,34.31,29.94,2.03,1.93,4.11,3.8,6.19,5.67,2.16,1.94,4.09,4.1,6.28,6.01,9.25,8.03,18.23,16.37,27.83,24.01,6.89,5.48,13.98,10.66,21.43,15.34,8.36,5.26,17.09,9.84,26.26,13.49,5.92,2.36,11.95,4.61,18.11,6.19,7.72,1.97,15.46,3.93,23.47,4.65,5.96.54,11.88,1.38,17.9,1.28,7.59-.12,15.19.08,22.79-.07,4.65-.09,9.3-.51,13.94-.93,3.84-.35,7.66-.93,11.49-1.38,5.16-.61,10.34-1.05,15.47-1.82,11.97-1.77,23.95-3.54,35.88-5.6,12.73-2.2,25.55-3.73,38.36-5.22,7.66-.89,15.4-1.29,23.11-1.6,12.25-.49,24.48-.18,36.7,1.27,9.27,1.1,18.43,2.74,27.47,4.96,14.89,3.65,29.39,8.53,43.46,14.64,5.38,2.34,10.78,4.63,16,7.28,20.89,10.66,41.2,22.36,61.38,34.29,17.55,10.37,35.18,20.59,53.6,29.36,3.13,1.49,6.15,3.21,9.33,4.57,14.33,6.12,28.83,11.78,43.88,15.93,7.97,2.2,16.02,3.94,24.16,5.29,3.28.54,6.58.96,9.87,1.43,1.9,0,3.84-.29,5.6.74h30.39c1.76-1.24,3.74-.76,5.66-.71,7.75-1.17,15.56-1.97,23.13-4.08v-221.43c-5.88,3.64-11.7,7.37-17.65,10.9ZM97.16,235.92c-2.13,7.78-5.69,14.86-9.48,21.9-3.3,6.14-7.75,11.43-11.94,16.94-4.85,6.38-10.96,11.25-18.01,14.86-4.24,2.16-8.81,3.74-13.74,3.64-.93-.02-1.87-.07-2.8,0-4.36.36-8.36-.8-12.4-2.36-3.99-1.55-7.25-4.01-9.97-7.1-2.19-2.48-3.55-5.45-3.6-9.03-.09-6.85,1.17-13.48,2.65-20.11,3.27-14.71,8.47-28.8,13.79-42.86,2.79-7.35,5.96-14.52,9.52-21.52,1.93-3.78,3.96-7.62,6.59-10.91,4.03-5.03,9.11-8.83,15.33-11.07,4.73-1.71,9.41-1.96,14.03-.25,2.7.99,5.43,2.42,7.6,4.28,3.3,2.85,6.17,6.13,8.4,10.04,3.57,6.25,5.24,13.03,6.62,19.95.21,1.03.2,2.11.21,3.17.03,2.67,0,5.33,0,9.12.75,6.56-.8,13.93-2.81,21.3Z"/>
    <path class="cls-1" d="m1440.39,319.27c-5.88,3.64-11.7,7.37-17.65,10.9-7.45,4.41-14.84,8.95-22.54,12.89-8.41,4.3-17.11,8.03-25.72,11.93-11.42,5.18-23.27,9.21-35.27,12.76-11.75,3.47-23.65,6.41-35.65,8.79-9,1.78-18.13,2.94-27.21,4.24-3.82.54-7.68.76-11.52,1.09-7.43.65-14.84,1.47-22.32,1.44-11.73-.03-23.46.11-35.18-.05-6.92-.09-13.84-.58-20.75-.99-3.59-.2-7.17-.54-10.74-.95-5.69-.64-11.36-1.36-17.03-2.11-6.33-.84-12.69-1.55-18.98-2.67-9.69-1.72-19.36-3.59-28.99-5.65-16.14-3.44-32.11-7.59-47.98-12.12-19.21-5.49-38.17-11.75-56.87-18.77-16.45-6.19-32.8-12.62-48.9-19.68-15.73-6.9-31.51-13.69-46.83-21.5-5.45-2.78-10.93-5.53-16.38-8.33-12.31-6.34-24.74-12.49-36.89-19.12-18.94-10.34-37.73-20.96-56.51-31.59-8-4.53-16.13-8.79-24.49-12.61-.73-.33-1.44-.76-2.2-.95-5.04-1.24-10.04-2.68-15.14-3.58-6.68-1.17-13.42-2.01-20.16-2.76-6.74-.76-13.5-1.45-20.31-1.32-3.47.07-6.94-.09-10.4.04-7.18.27-14.38.48-21.54,1.06-6.49.52-12.96,1.48-19.43,2.29-11.23,1.4-22.34,3.53-33.43,5.68-12.8,2.49-25.51,5.45-38.26,8.15-17.05,3.61-34.1,7.24-51.18,10.71-7.56,1.54-15.19,2.7-22.79,4.02-3.15.55-6.28,1.18-9.45,1.58-7.53.93-15.09,1.62-22.6,2.65-9.12,1.26-18.3,1.88-27.47,2.05-13.71.24-27.43.55-41.15-.44-8.77-.63-17.5-1.39-26.23-2.45-9.4-1.14-18.66-2.94-27.93-4.74-13.08-2.53-25.89-6.15-38.62-10.03-6.75-2.06-13.34-4.61-20-6.93-9.81-3.43-19.37-7.52-28.8-11.86-9.31-4.28-18.41-9.02-27.56-13.64-14.76-7.46-28.95-15.92-42.83-24.88-17.33-11.19-34.35-22.81-50.63-35.5-5.03-3.91-10.17-7.69-15.09-11.77-2.55-2.12-5.26-4.05-7.78-6.21-6.97-5.94-13.99-11.82-20.78-17.98-9.26-8.4-18.65-16.66-27.83-25.16-7.14-6.6-14.09-13.4-21.01-20.22-8.54-8.42-16.97-16.95-25.44-25.44-13.32-.01-26.63-.03-39.95-.05"/>
    <g>
      <path class="cls-2" d="m31.92,61.8c-.09.3-.18.55-.26.75s-.17.35-.26.45-.18.17-.27.21c-.09.04-.18.05-.27.02l-6.33-1.88-1.55,5.21,5.95,1.77c.09.03.16.08.22.15s.09.17.11.31c.02.14.01.31-.02.51-.03.21-.1.46-.19.76-.09.3-.18.55-.26.74-.08.19-.17.35-.27.46-.09.11-.18.19-.27.22-.09.03-.17.04-.26.01l-5.95-1.77-2.15,7.22c-.03.11-.09.2-.17.26-.08.06-.21.1-.38.11s-.39,0-.64-.05c-.26-.04-.58-.12-.97-.24-.38-.11-.69-.22-.94-.33s-.44-.21-.57-.31c-.13-.1-.22-.2-.26-.3s-.05-.2-.01-.31l5.23-17.57c.13-.44.34-.72.62-.85s.59-.14.92-.04l9.12,2.71c.09.03.16.08.21.15.05.08.09.18.11.33.02.14,0,.32-.03.54-.04.22-.1.48-.19.77Z"/>
      <path class="cls-2" d="m32.41,82.46c-.05.09-.12.16-.22.2-.1.04-.23.05-.39.02-.16-.03-.37-.09-.61-.19-.24-.1-.54-.24-.9-.44-.35-.19-.63-.36-.85-.51-.22-.15-.38-.29-.5-.41-.11-.12-.18-.23-.2-.34-.02-.11,0-.2.04-.29l9.09-16.79c.05-.09.12-.16.22-.2.1-.04.23-.05.4-.02.17.03.37.09.62.19.24.1.54.24.89.43.36.19.64.37.86.52.21.15.38.29.49.41.11.12.18.23.2.34.02.11,0,.2-.04.3l-9.09,16.79Z"/>
      <path class="cls-2" d="m57.12,77.45c-.17.25-.33.45-.48.61-.14.16-.28.28-.39.35-.12.08-.23.12-.33.12-.1,0-.19-.02-.26-.07l-4.14-2.92-9.39,13.32c-.06.09-.14.14-.24.17-.1.03-.23.02-.39-.03-.16-.05-.35-.13-.59-.26-.24-.13-.51-.31-.84-.53-.32-.23-.58-.43-.78-.61s-.35-.33-.45-.47c-.1-.13-.15-.25-.16-.36s.02-.2.08-.29l9.39-13.32-4.14-2.92c-.08-.06-.14-.14-.16-.23-.02-.09-.02-.21.01-.34.03-.14.1-.3.2-.49.1-.19.24-.41.41-.65.18-.25.34-.46.49-.63.15-.16.28-.28.4-.36.12-.08.22-.12.32-.12.09,0,.18.02.27.08l11.64,8.21c.08.05.13.13.16.22s.03.21,0,.34c-.03.14-.1.3-.21.5-.1.19-.25.42-.43.67Z"/>
      <path class="cls-2" d="m65.98,102.32c-.73.77-1.52,1.31-2.36,1.61-.84.31-1.69.42-2.55.34s-1.71-.33-2.55-.76c-.84-.43-1.64-1-2.38-1.71-.5-.48-.93-.97-1.29-1.47-.35-.5-.64-.96-.86-1.39-.22-.43-.38-.82-.48-1.16-.1-.34-.15-.61-.16-.8s.06-.4.2-.62c.13-.22.37-.51.7-.86.22-.23.42-.42.58-.57.17-.14.31-.25.44-.31s.24-.09.33-.08.18.05.26.13c.11.1.2.3.27.61.07.31.19.68.35,1.12s.39.92.69,1.44.72,1.05,1.28,1.57c.36.34.73.61,1.1.8s.73.3,1.08.33c.35.03.69-.02,1.02-.15.33-.13.63-.34.9-.63.32-.33.5-.7.54-1.11.05-.41.01-.85-.1-1.31-.11-.46-.28-.95-.49-1.46-.21-.51-.43-1.05-.65-1.6-.22-.55-.4-1.12-.55-1.71-.15-.58-.22-1.17-.2-1.77.02-.6.14-1.2.38-1.81.24-.61.65-1.22,1.23-1.83.67-.7,1.39-1.19,2.15-1.48.77-.28,1.54-.39,2.31-.32.78.07,1.55.3,2.31.7.76.4,1.48.92,2.15,1.56.35.33.67.69.96,1.07.3.38.55.76.77,1.14.21.38.39.74.51,1.07.13.34.19.58.19.72,0,.15,0,.26-.03.34-.02.08-.07.17-.13.27-.06.11-.15.23-.27.37-.12.14-.27.31-.46.5-.21.22-.39.4-.55.54-.16.14-.29.25-.41.32-.12.07-.23.11-.32.11-.09,0-.18-.04-.26-.12-.08-.08-.16-.26-.25-.54-.08-.28-.19-.6-.34-.98-.15-.38-.34-.78-.59-1.21-.25-.43-.58-.85-1-1.24-.32-.31-.64-.54-.96-.69-.32-.15-.62-.23-.92-.25-.3-.02-.58.04-.84.16-.27.12-.5.29-.71.51-.31.32-.49.69-.54,1.1s-.01.84.11,1.31c.12.47.29.96.52,1.48.22.52.44,1.06.66,1.62.22.55.41,1.13.57,1.72s.23,1.18.22,1.79c-.01.6-.13,1.2-.37,1.81-.23.61-.63,1.2-1.19,1.79Z"/>
      <path class="cls-2" d="m67.28,111.41c-.07.08-.16.12-.27.13-.11.01-.23-.02-.38-.09s-.33-.19-.54-.35-.46-.38-.75-.66c-.28-.28-.51-.52-.68-.72-.17-.21-.29-.38-.37-.53s-.11-.27-.1-.38c0-.11.05-.2.12-.27l13.3-13.7c.07-.07.16-.12.27-.13.11-.01.24.02.39.09s.33.19.54.35c.21.16.45.38.74.65.29.28.52.53.69.73.17.2.29.38.36.52.08.15.11.27.1.38,0,.11-.05.2-.12.27l-13.3,13.7Z"/>
      <path class="cls-2" d="m81.53,123.56c-.11.39-.22.69-.33.89-.11.2-.25.3-.42.29s-.38-.1-.65-.31c-.26-.2-.6-.5-1.03-.9-.36-.33-.63-.61-.82-.81-.19-.21-.33-.38-.41-.53-.09-.15-.13-.27-.12-.38,0-.11.03-.23.08-.36l2.23-7.92-7.75,2.73c-.13.05-.25.08-.36.09-.11.01-.24-.02-.39-.1-.15-.08-.34-.21-.56-.39-.22-.18-.51-.43-.85-.75-.4-.37-.69-.67-.88-.9-.19-.23-.29-.42-.29-.57,0-.16.1-.29.3-.41.2-.12.49-.24.88-.37l9.57-3.12,2.4-9.13c.12-.4.23-.71.34-.92.1-.21.24-.31.4-.31.16,0,.37.1.62.31.25.2.6.51,1.03.91.36.33.63.61.83.82.19.21.34.39.43.54.09.15.13.28.12.38,0,.11-.03.23-.07.36l-1.99,7.3,7.1-2.51c.13-.05.25-.08.36-.09.11-.01.23.01.37.08s.32.19.53.35c.21.17.48.41.82.73.38.36.67.65.87.87.2.23.31.42.31.58,0,.16-.09.3-.28.42s-.48.26-.87.41l-8.93,2.93-2.58,9.75Z"/>
      <path class="cls-2" d="m92.77,133.62c-.2.22-.38.4-.54.54-.16.13-.29.23-.42.29-.12.06-.23.08-.33.07s-.18-.05-.25-.11l-7.53-6.81c-.25-.23-.4-.5-.44-.81-.04-.31.1-.63.4-.97l11.82-13.07c.31-.34.62-.51.93-.5.31,0,.59.13.85.36l7.49,6.77c.07.06.11.14.13.23.02.09,0,.2-.04.33-.05.13-.13.28-.25.45-.12.17-.28.37-.49.6-.2.22-.37.39-.53.52-.16.13-.29.23-.42.29s-.23.08-.32.08c-.09,0-.17-.04-.24-.1l-5.35-4.84-3.31,3.66,4.53,4.1c.07.06.11.14.13.24.02.09,0,.2-.03.33-.04.12-.12.27-.24.44-.12.17-.27.36-.47.58-.2.22-.38.4-.53.53-.15.13-.29.22-.41.27-.12.05-.22.07-.32.06-.09-.01-.17-.05-.24-.12l-4.53-4.1-3.83,4.23,5.4,4.88c.07.06.11.14.13.24s0,.21-.04.33c-.05.13-.13.28-.24.44-.12.17-.28.36-.48.59Z"/>
      <path class="cls-2" d="m107.11,140.49c-.71.79-1.48,1.35-2.31,1.68s-1.68.47-2.54.42-1.72-.28-2.58-.69-1.67-.95-2.43-1.64c-.52-.47-.96-.94-1.33-1.43-.37-.49-.67-.94-.9-1.37-.23-.43-.4-.81-.51-1.15-.11-.34-.17-.6-.18-.79-.01-.19.05-.4.18-.63.13-.23.35-.52.67-.88.22-.24.4-.43.57-.58.16-.15.31-.26.43-.33.12-.07.24-.1.33-.09.1,0,.18.05.26.12.11.1.2.3.29.6.08.3.21.67.38,1.11.17.43.41.91.73,1.42.32.51.76,1.03,1.32,1.53.37.33.74.59,1.12.76s.74.27,1.09.3c.35.02.69-.04,1.01-.18.32-.14.62-.36.88-.66.31-.34.48-.72.51-1.13s-.01-.85-.14-1.3-.31-.94-.54-1.45c-.23-.51-.46-1.04-.7-1.58-.24-.55-.44-1.11-.6-1.69-.17-.58-.25-1.16-.25-1.76,0-.6.11-1.2.32-1.82.22-.62.61-1.24,1.17-1.87.65-.72,1.35-1.23,2.11-1.54s1.53-.44,2.3-.39c.78.05,1.55.26,2.33.63.78.38,1.51.87,2.2,1.49.36.32.69.67,1,1.04.31.38.57.75.8,1.12.23.37.41.72.54,1.06.14.33.21.57.22.72,0,.15,0,.26-.02.34-.02.08-.06.17-.12.28s-.15.23-.26.37c-.11.14-.26.31-.44.52-.2.22-.38.41-.53.55-.15.14-.29.25-.4.33-.12.08-.22.12-.31.12s-.18-.04-.27-.11c-.08-.08-.17-.25-.26-.53-.09-.28-.21-.6-.37-.97-.16-.37-.37-.77-.63-1.2s-.61-.83-1.03-1.21c-.33-.3-.66-.52-.98-.66-.32-.14-.63-.21-.92-.22s-.57.05-.84.18c-.26.13-.49.3-.7.53-.3.33-.47.7-.5,1.11-.04.41.01.84.15,1.31.14.46.32.95.56,1.47s.47,1.05.71,1.59c.24.55.44,1.11.62,1.7.17.58.27,1.18.27,1.78,0,.6-.1,1.21-.31,1.82-.21.61-.59,1.22-1.14,1.83Z"/>
      <path class="cls-2" d="m121.43,158.96c-.2.23-.38.41-.54.56-.16.14-.3.25-.43.32-.13.07-.24.1-.34.08-.1-.01-.19-.05-.27-.12l-8.78-7.62c-.17-.15-.31-.3-.41-.44s-.15-.29-.15-.45c0-.16.06-.34.17-.54.11-.2.29-.44.53-.72.23-.26.43-.47.61-.64.18-.16.37-.29.56-.38s.39-.16.61-.21c.22-.05.48-.09.78-.12l5.1-.54c1-.09,1.86-.23,2.58-.4.72-.17,1.33-.37,1.83-.58.5-.22.93-.45,1.27-.71s.63-.53.88-.81c.23-.26.4-.54.52-.85.12-.3.17-.61.16-.92-.01-.31-.1-.62-.25-.93-.16-.31-.4-.61-.73-.9-.46-.4-.93-.7-1.39-.89-.46-.19-.89-.33-1.29-.42-.4-.09-.74-.15-1.03-.19-.29-.04-.48-.1-.58-.19-.07-.06-.11-.14-.12-.23-.01-.09.02-.21.08-.34.06-.14.17-.31.31-.51.14-.2.33-.44.56-.7.16-.18.29-.33.41-.44.12-.11.23-.2.33-.27.1-.07.2-.12.3-.15.1-.03.24-.05.42-.06.18,0,.47.03.85.11.39.08.84.22,1.34.42.5.2,1.03.45,1.58.76.55.31,1.07.68,1.57,1.12.79.69,1.4,1.39,1.82,2.11.42.72.67,1.42.75,2.12.08.7,0,1.38-.23,2.04s-.6,1.27-1.09,1.84c-.43.5-.9.94-1.41,1.34-.51.4-1.16.74-1.94,1.04-.78.29-1.73.54-2.86.75-1.13.2-2.52.36-4.19.47l-3.37.28,6.02,5.22c.08.07.13.16.16.26.03.11.02.23-.02.37s-.12.3-.23.48-.27.38-.46.6Z"/>
      <path class="cls-2" d="m134.75,171.4c-.07.09-.16.15-.26.18-.1.03-.23.02-.39-.04-.16-.06-.36-.17-.6-.32s-.52-.37-.85-.64c-.52-.43-.88-.76-1.08-.99-.2-.23-.31-.42-.35-.59s-.03-.32,0-.48l1.36-11.29-6.09,7.42c-.07.09-.16.15-.26.17-.1.03-.23,0-.39-.04-.16-.05-.35-.15-.57-.29-.22-.14-.49-.34-.8-.6-.31-.25-.55-.47-.74-.67s-.32-.36-.4-.5-.13-.27-.13-.38.04-.21.11-.29l12.08-14.72c.07-.09.16-.14.27-.17.1-.02.23,0,.39.06.15.06.34.16.57.31s.49.34.8.59c.31.26.56.48.74.67.18.19.32.35.4.49.09.14.13.26.12.37s-.04.2-.12.29l-5.46,6.65,10.03-2.88c.14-.06.28-.09.42-.09.14,0,.29.03.45.09.16.07.35.17.56.32.21.15.48.35.79.61.32.26.58.49.77.69s.33.37.42.51c.09.15.13.27.13.38,0,.1-.04.2-.11.28-.11.14-.26.25-.46.33-.19.08-.52.2-.98.35l-8.9,2.1-1.13,10.9c-.09.48-.17.78-.22.92-.05.14-.11.24-.16.3Z"/>
      <path class="cls-2" d="m147.53,179.94c-.19.24-.35.43-.51.58s-.29.27-.41.34c-.12.07-.24.11-.34.1-.1,0-.19-.04-.27-.11l-9.16-7.15c-.18-.14-.32-.28-.43-.42-.11-.13-.16-.28-.17-.44,0-.16.04-.34.14-.55.1-.21.27-.46.49-.75.21-.27.4-.49.58-.67s.35-.31.54-.41c.18-.1.38-.18.6-.25.21-.06.47-.12.77-.16l5.07-.8c1-.15,1.85-.32,2.56-.53.71-.21,1.3-.43,1.8-.68.49-.24.9-.5,1.23-.77.33-.27.6-.56.84-.85.21-.27.37-.56.47-.87s.14-.62.11-.93c-.03-.31-.13-.62-.3-.92-.17-.3-.43-.59-.78-.86-.48-.38-.96-.65-1.43-.82-.47-.17-.91-.29-1.31-.36-.4-.07-.75-.11-1.04-.13s-.49-.07-.59-.16c-.07-.06-.12-.13-.13-.22-.02-.09,0-.21.06-.35s.15-.32.28-.52c.13-.21.3-.45.52-.73.15-.19.28-.34.39-.46.11-.12.22-.21.31-.29.1-.07.2-.13.29-.17.1-.04.23-.07.41-.08.18-.02.47,0,.86.07.39.06.85.18,1.36.35.51.17,1.05.4,1.61.68.56.28,1.1.62,1.63,1.03.83.65,1.47,1.32,1.93,2.01s.74,1.39.86,2.08c.12.69.08,1.38-.12,2.05-.2.67-.53,1.3-.99,1.89-.4.52-.85.99-1.34,1.41-.49.42-1.12.8-1.88,1.14-.76.33-1.7.63-2.82.89s-2.5.49-4.16.68l-3.35.46,6.28,4.9c.08.06.14.15.17.25.03.1.03.23,0,.37-.03.14-.1.31-.21.49-.11.19-.25.4-.43.63Z"/>
      <path class="cls-2" d="m163.37,186.78c-.32.42-.61.71-.86.87-.25.15-.46.17-.6.06l-1.43-1.09-2.21,2.91c-.06.08-.14.14-.24.16s-.22,0-.38-.04c-.16-.05-.34-.14-.56-.28s-.48-.32-.79-.55c-.3-.23-.54-.43-.73-.6s-.33-.33-.41-.46c-.09-.13-.13-.25-.13-.34,0-.1.03-.19.1-.27l2.21-2.91-6.16-4.68c-.12-.09-.21-.18-.28-.28-.07-.1-.1-.22-.08-.37.02-.15.08-.33.2-.55.12-.22.3-.49.55-.81.2-.26.38-.49.54-.68.16-.19.31-.35.46-.48.15-.14.3-.25.46-.35.16-.1.34-.2.55-.29l11.7-5.02c.1-.04.22-.05.36-.03s.31.08.52.18c.21.1.45.24.74.43.29.19.62.44,1.01.73.42.32.78.61,1.06.85.28.25.5.46.64.64.14.18.23.34.26.47.03.13.01.24-.06.33l-7.36,9.69,1.43,1.09c.13.1.17.29.11.57s-.27.65-.63,1.12Zm1.56-12.57l-.02-.02-9.87,4.18,4.27,3.24,5.63-7.4Z"/>
      <path class="cls-2" d="m187.82,188.58c-.18.26-.34.46-.49.62-.14.16-.28.27-.39.34-.12.07-.23.11-.32.12-.1,0-.18-.01-.26-.07l-5.41-3.8-3.13,4.45,5.08,3.57c.08.05.13.12.16.21.03.08.03.19,0,.33-.03.14-.09.3-.19.48-.1.19-.24.41-.42.66s-.34.46-.48.62c-.14.16-.27.27-.4.35-.12.08-.23.12-.33.12-.09,0-.18-.02-.25-.07l-5.07-3.57-4.33,6.16c-.07.09-.15.16-.25.19s-.23.03-.4-.02-.36-.13-.59-.25c-.23-.12-.51-.3-.85-.54-.32-.23-.59-.43-.78-.61-.2-.18-.35-.34-.44-.47-.1-.14-.15-.26-.15-.37,0-.11.02-.21.09-.3l10.54-15c.26-.38.55-.58.86-.61s.6.05.88.25l7.79,5.47c.08.05.13.13.16.21.03.09.03.2,0,.34-.03.14-.09.31-.2.5-.1.19-.25.42-.43.67Z"/>
      <path class="cls-2" d="m183.6,207.42c-.06.09-.14.14-.24.18-.1.03-.23.02-.39-.02-.16-.04-.35-.13-.59-.25-.23-.12-.52-.29-.85-.52-.33-.22-.59-.42-.79-.6-.2-.17-.35-.33-.45-.46s-.15-.25-.16-.36c0-.11.02-.2.07-.29l10.73-15.79c.06-.09.14-.14.24-.18.1-.03.24-.02.4.03.16.05.36.13.59.25.23.12.51.29.84.51.34.23.6.43.8.6.2.17.35.32.45.46s.15.25.16.36c0,.11-.02.2-.07.29l-10.73,15.79Z"/>
      <path class="cls-2" d="m208.3,202.25c-.17.25-.32.46-.46.62s-.27.29-.38.37c-.12.08-.22.12-.32.13s-.19-.01-.27-.06l-4.23-2.79-8.97,13.61c-.06.09-.14.15-.24.18s-.23.03-.39-.02-.36-.12-.6-.24c-.24-.12-.52-.29-.85-.51-.33-.22-.6-.41-.8-.58-.2-.17-.36-.32-.46-.45-.1-.13-.16-.25-.17-.35-.01-.11.01-.2.07-.29l8.97-13.61-4.23-2.79c-.09-.06-.14-.13-.17-.22-.03-.09-.03-.21,0-.34.03-.14.09-.3.19-.5s.23-.42.39-.67c.17-.26.33-.48.47-.64.14-.17.27-.29.39-.37.11-.08.22-.12.31-.13s.18.02.27.07l11.9,7.84c.08.05.13.12.17.21.03.09.04.21,0,.34-.03.14-.09.3-.19.5-.1.2-.23.43-.41.69Z"/>
      <path class="cls-2" d="m219.45,223.96c-.56.9-1.22,1.59-1.98,2.07-.76.47-1.57.76-2.42.86-.86.1-1.74.03-2.66-.22-.91-.25-1.81-.64-2.69-1.18-.59-.37-1.12-.76-1.56-1.17-.45-.41-.83-.81-1.13-1.19-.31-.38-.54-.72-.71-1.04-.17-.31-.27-.56-.32-.75-.04-.19-.02-.4.06-.65.09-.25.25-.57.51-.98.17-.27.32-.5.45-.67.13-.17.25-.31.37-.4.11-.09.21-.14.31-.15.1,0,.19.02.28.07.12.08.25.26.39.54.14.29.33.63.57,1.02.24.4.57.82.97,1.27s.93.88,1.57,1.27c.43.26.84.45,1.24.55.4.11.77.14,1.12.1s.67-.16.97-.36c.29-.2.54-.46.75-.8.24-.39.34-.79.3-1.2-.04-.41-.16-.83-.37-1.26-.21-.43-.47-.87-.79-1.33-.32-.46-.64-.94-.97-1.43-.33-.5-.63-1.02-.9-1.55-.27-.54-.46-1.1-.56-1.69-.11-.59-.11-1.2,0-1.85.1-.65.38-1.33.82-2.04.51-.82,1.11-1.45,1.8-1.89.69-.44,1.42-.7,2.2-.79s1.57-.02,2.41.21,1.64.59,2.43,1.08c.41.25.8.53,1.17.85.37.31.7.63.99.96.29.33.53.64.72.94.19.3.31.53.34.67.03.14.05.26.04.34s-.03.18-.07.29c-.04.12-.1.25-.19.42-.09.16-.2.36-.34.59-.16.26-.3.47-.42.64-.12.17-.24.3-.34.4-.1.1-.2.15-.29.17-.09.02-.18,0-.28-.06-.1-.06-.21-.22-.35-.47s-.31-.55-.53-.89c-.22-.34-.5-.69-.83-1.06-.33-.37-.74-.71-1.23-1.01-.38-.24-.74-.39-1.08-.48-.34-.08-.66-.1-.95-.05-.29.05-.56.16-.79.33s-.43.39-.59.64c-.24.38-.33.78-.3,1.18.04.41.16.83.38,1.26.22.43.49.88.81,1.35.33.46.65.94.98,1.44.33.5.63,1.02.91,1.56.28.54.47,1.11.58,1.7.11.59.12,1.21.02,1.85-.1.64-.37,1.31-.79,2Z"/>
      <path class="cls-2" d="m222.97,232.38c-.05.09-.13.15-.23.19-.1.04-.23.04-.39,0-.16-.03-.36-.1-.6-.21-.24-.1-.54-.26-.89-.46-.34-.2-.62-.38-.83-.54s-.37-.3-.48-.43-.17-.24-.19-.34c-.02-.11,0-.2.05-.29l9.65-16.47c.05-.09.13-.15.23-.19.1-.04.23-.04.4,0,.17.04.37.11.61.21.24.11.53.26.87.46.35.21.63.39.84.55.21.16.37.3.48.42s.17.24.19.34c.02.11,0,.2-.05.29l-9.65,16.47Z"/>
      <path class="cls-2" d="m240.24,240.84c0,.41-.04.72-.1.94-.05.22-.16.35-.33.39-.16.04-.4,0-.7-.13-.3-.13-.71-.33-1.22-.61-.43-.23-.76-.43-1-.58-.24-.15-.42-.29-.53-.41-.12-.12-.19-.23-.22-.34-.02-.11-.03-.23-.02-.36l.16-8.22-6.81,4.6c-.11.08-.22.14-.33.18-.1.04-.24.04-.4,0-.16-.04-.38-.11-.64-.23-.26-.12-.6-.29-1.01-.51-.48-.26-.84-.47-1.08-.64-.25-.17-.39-.33-.42-.48-.04-.15.02-.31.18-.47s.41-.36.76-.58l8.48-5.44.02-9.44c.01-.42.05-.74.09-.97.05-.23.15-.36.31-.4.16-.04.38,0,.68.14.3.13.71.34,1.23.62.43.23.77.43,1.01.58.24.16.42.29.55.42.12.12.2.23.22.34.02.11.03.23.02.37l-.08,7.57,6.23-4.22c.11-.08.22-.14.32-.18.1-.04.23-.05.38-.01.15.03.35.1.6.21.24.11.57.28.98.5.46.25.81.46,1.07.62.25.17.4.33.45.48.05.16,0,.32-.16.48-.16.17-.4.37-.73.61l-7.9,5.09-.03,10.09Z"/>
      <path class="cls-2" d="m253.97,247.67c-.14.27-.26.49-.38.66-.12.17-.22.3-.33.39s-.2.14-.3.16-.19,0-.27-.04l-9.06-4.6c-.31-.16-.52-.38-.64-.66s-.07-.64.14-1.04l7.98-15.72c.21-.41.46-.65.76-.73.3-.08.6-.03.91.12l9,4.57c.08.04.15.1.19.18.04.08.06.19.04.33-.01.14-.05.31-.12.5-.07.19-.17.43-.32.71-.13.26-.26.47-.37.64-.12.17-.22.3-.33.39s-.2.14-.29.16c-.09.02-.18,0-.26-.04l-6.44-3.27-2.23,4.4,5.45,2.76c.08.04.15.11.19.19.04.09.06.2.05.33,0,.13-.05.29-.11.49-.07.19-.17.42-.3.68-.14.27-.26.49-.37.65-.11.17-.22.29-.32.37s-.2.13-.29.14c-.09.01-.18,0-.27-.05l-5.45-2.76-2.58,5.09,6.49,3.29c.08.04.15.11.19.19.04.09.06.2.05.33s-.05.3-.12.49c-.07.19-.17.42-.31.69Z"/>
      <path class="cls-2" d="m269.56,250.43c-.47.95-1.06,1.7-1.76,2.25-.71.55-1.48.91-2.33,1.09s-1.73.2-2.67.04c-.93-.16-1.86-.46-2.79-.92-.63-.31-1.18-.64-1.67-1.01-.49-.37-.9-.72-1.24-1.07-.34-.35-.61-.67-.81-.96-.2-.29-.33-.53-.39-.71-.06-.18-.06-.4,0-.65.06-.25.2-.6.41-1.03.14-.29.27-.53.39-.72.11-.19.22-.33.32-.43.1-.1.2-.16.3-.18.1-.02.19,0,.28.04.13.06.28.23.44.5.16.27.39.59.67.96.28.37.65.76,1.09,1.17.44.41,1.01.78,1.69,1.12.45.22.88.36,1.29.43.41.07.78.06,1.13-.01s.65-.22.93-.45c.27-.23.5-.52.67-.87.2-.41.26-.82.18-1.22s-.24-.81-.49-1.22c-.25-.41-.55-.82-.91-1.25-.36-.43-.73-.87-1.1-1.33-.38-.46-.72-.95-1.04-1.46-.32-.51-.56-1.05-.73-1.63-.17-.57-.23-1.19-.19-1.84.04-.65.25-1.36.62-2.12.43-.87.96-1.55,1.61-2.06s1.35-.83,2.11-1c.76-.17,1.57-.17,2.41-.03.85.15,1.69.43,2.52.84.43.21.84.46,1.24.73s.76.56,1.08.86c.32.29.59.58.81.87s.36.49.4.63c.05.14.07.25.07.33,0,.08-.01.18-.04.3s-.08.26-.15.43c-.07.17-.17.37-.29.62-.13.27-.25.5-.36.68-.11.18-.2.32-.3.43-.09.11-.18.17-.27.2s-.18.01-.29-.04c-.1-.05-.23-.2-.4-.44-.16-.24-.37-.52-.62-.83-.25-.32-.56-.64-.93-.98s-.81-.63-1.32-.88c-.4-.2-.78-.32-1.12-.37-.35-.05-.66-.04-.95.04-.29.07-.54.21-.75.4-.22.19-.39.43-.53.7-.2.4-.26.8-.18,1.21.08.4.24.81.5,1.22.26.41.57.83.94,1.26s.74.88,1.12,1.34c.38.46.73.95,1.06,1.47s.58,1.06.75,1.64c.17.58.24,1.19.2,1.84-.04.65-.24,1.34-.6,2.07Z"/>
      <path class="cls-2" d="m289.31,263.92c-.12.28-.23.51-.34.7-.11.19-.21.33-.31.44-.1.1-.2.17-.3.19-.1.02-.2,0-.29-.03l-10.7-4.54c-.21-.09-.39-.19-.52-.29-.14-.1-.23-.23-.28-.38-.05-.15-.05-.34,0-.57.05-.23.14-.51.28-.85.13-.32.26-.58.39-.79.12-.21.26-.39.41-.54s.32-.28.51-.39c.19-.12.43-.24.7-.36l4.69-2.09c.93-.4,1.7-.79,2.33-1.18s1.15-.76,1.56-1.12c.41-.36.74-.72.99-1.07.24-.35.44-.7.59-1.04.13-.32.21-.64.23-.96.02-.33-.02-.64-.13-.93-.11-.29-.28-.56-.53-.81-.25-.25-.57-.45-.97-.62-.57-.24-1.1-.38-1.59-.42-.5-.04-.95-.04-1.36,0-.41.04-.75.08-1.03.14-.28.05-.49.06-.61,0-.09-.04-.15-.1-.19-.18-.04-.08-.05-.2-.03-.35.02-.15.06-.34.13-.58.07-.24.18-.52.31-.84.09-.22.18-.4.26-.54.08-.14.15-.26.23-.36.08-.1.15-.18.24-.24s.21-.12.38-.19c.17-.06.45-.12.85-.16.4-.04.87-.05,1.41-.02s1.12.11,1.73.23c.61.12,1.23.32,1.84.58.97.41,1.76.89,2.38,1.44s1.08,1.15,1.37,1.79.43,1.31.41,2.01c-.02.7-.17,1.39-.47,2.08-.26.6-.57,1.17-.93,1.71s-.87,1.07-1.52,1.59-1.48,1.05-2.49,1.59c-1.01.54-2.29,1.12-3.84,1.74l-3.12,1.31,7.34,3.11c.1.04.17.11.23.2.06.09.09.21.1.35s-.02.32-.07.53-.14.45-.25.72Z"/>
      <path class="cls-2" d="m306.56,271.43c-.04.11-.1.19-.19.26-.08.06-.21.09-.38.09s-.39-.04-.67-.1c-.27-.07-.61-.18-1.01-.32-.64-.23-1.08-.43-1.34-.58-.26-.15-.43-.3-.52-.44s-.14-.29-.16-.46l-2.42-11.11-3.31,9c-.04.11-.1.19-.19.25s-.21.08-.38.08-.38-.03-.63-.09c-.26-.06-.57-.16-.95-.3-.37-.14-.68-.27-.92-.39-.24-.12-.42-.24-.55-.34s-.21-.21-.24-.31c-.04-.1-.03-.21,0-.31l6.58-17.88c.04-.11.11-.19.2-.24s.22-.08.39-.08c.16,0,.38.04.64.1s.58.16.95.3c.38.14.69.27.92.39s.42.23.54.33c.13.1.21.2.24.3.03.1.02.2-.01.31l-2.97,8.08,8.52-6.02c.11-.1.24-.18.37-.22.13-.05.28-.07.45-.06.17,0,.39.05.64.12.25.07.57.18.95.32.39.14.71.28.95.4.24.12.43.24.56.35s.21.21.24.31c.03.1.03.2,0,.3-.06.17-.17.32-.32.46-.15.14-.42.36-.81.65l-7.71,4.9,2.52,10.67c.07.48.1.79.09.94,0,.15-.02.26-.05.34Z"/>
      <path class="cls-2" d="m321.67,275.4c-.1.29-.19.53-.28.72-.09.19-.18.35-.28.46-.09.11-.19.18-.28.21-.1.03-.2.03-.29,0l-11.03-3.66c-.22-.07-.4-.15-.54-.25-.15-.09-.25-.21-.31-.36s-.08-.34-.05-.57c.03-.23.1-.52.21-.87.11-.33.22-.6.32-.82.11-.22.23-.41.37-.57.14-.16.3-.3.48-.43s.4-.27.67-.41l4.5-2.46c.89-.47,1.63-.92,2.23-1.36.59-.43,1.08-.85,1.47-1.24.38-.39.68-.77.9-1.14.21-.37.38-.73.5-1.08.11-.33.16-.65.15-.98,0-.33-.08-.63-.21-.92-.13-.29-.33-.54-.59-.77-.27-.22-.61-.41-1.02-.54-.58-.19-1.12-.29-1.62-.29s-.95.03-1.35.1c-.4.07-.74.14-1.02.22s-.48.1-.61.05c-.09-.03-.16-.08-.2-.17-.04-.08-.06-.2-.06-.35,0-.15.04-.35.09-.59s.13-.53.25-.87c.08-.23.15-.42.21-.56.07-.15.13-.27.2-.38s.14-.19.22-.26c.08-.07.2-.14.36-.22.16-.08.44-.15.83-.23s.86-.12,1.4-.13c.54-.01,1.12.02,1.75.09s1.25.22,1.88.43c1,.33,1.83.75,2.49,1.25.66.5,1.17,1.06,1.51,1.67.34.61.54,1.27.57,1.97.04.7-.06,1.4-.3,2.12-.21.62-.47,1.22-.79,1.78-.32.56-.78,1.13-1.39,1.7s-1.39,1.17-2.35,1.79c-.96.62-2.19,1.3-3.69,2.04l-3,1.56,7.56,2.51c.1.03.18.09.25.18.06.09.11.2.12.35.02.14,0,.32-.03.53-.04.21-.1.46-.19.73Z"/>
      <path class="cls-2" d="m339.36,276.13c-.15.51-.31.88-.49,1.12-.18.24-.36.33-.54.28l-1.73-.49-1,3.52c-.03.1-.08.18-.17.24-.08.06-.2.09-.37.1s-.37-.01-.62-.05c-.25-.04-.56-.12-.94-.23-.36-.1-.66-.2-.9-.3-.24-.1-.42-.19-.55-.28-.13-.09-.21-.18-.25-.27-.03-.09-.04-.19,0-.29l1-3.52-7.44-2.12c-.14-.04-.26-.09-.36-.16s-.17-.17-.21-.32-.04-.34-.01-.59c.03-.25.1-.56.21-.95.09-.32.18-.6.26-.83.08-.23.17-.44.26-.62.09-.18.19-.35.3-.5.11-.15.25-.31.4-.47l9.07-8.93c.08-.08.18-.13.32-.16.14-.03.32-.04.55-.02.23.02.51.06.85.14.34.07.74.18,1.21.31.51.15.94.28,1.3.41.35.13.63.25.83.37.2.12.34.23.42.34.08.11.1.22.07.33l-3.33,11.71,1.73.49c.16.04.26.21.31.49.04.28-.01.7-.18,1.27Zm-3.12-12.28h-.03s-7.67,7.47-7.67,7.47l5.15,1.47,2.55-8.94Z"/>
      <path class="cls-2" d="m363.33,268.62c-.07.31-.13.56-.2.76-.07.2-.15.36-.23.47-.08.11-.17.19-.25.23s-.17.06-.26.04l-6.46-1.39-1.14,5.32,6.07,1.3c.09.02.17.06.23.13.06.07.11.17.14.3.03.13.04.31.02.52-.02.21-.06.47-.13.77-.07.31-.13.56-.2.76-.07.2-.15.36-.23.48-.08.12-.17.2-.25.24-.08.04-.17.05-.26.03l-6.06-1.3-1.58,7.36c-.02.11-.08.2-.15.27s-.2.11-.37.14c-.17.02-.39.02-.65,0-.26-.02-.59-.08-.99-.16-.39-.08-.71-.17-.96-.25-.25-.09-.45-.17-.59-.26-.14-.09-.24-.18-.28-.28-.05-.1-.06-.2-.04-.31l3.84-17.92c.1-.45.28-.75.55-.9.27-.15.58-.19.91-.12l9.3,2c.09.02.17.07.23.14.06.07.1.18.13.32.03.14.03.32.01.54-.02.22-.06.48-.13.79Z"/>
      <path class="cls-2" d="m367.09,287.55c-.02.1-.07.19-.15.26-.08.07-.2.12-.37.14s-.38.03-.64,0c-.26-.02-.59-.06-.99-.14-.39-.07-.71-.15-.97-.23-.25-.08-.45-.16-.6-.24s-.24-.17-.29-.26-.07-.19-.05-.29l3.52-18.77c.02-.1.07-.19.15-.26s.21-.12.38-.14c.17-.02.38-.02.65,0,.26.02.59.06.98.14.4.07.72.15.97.23.25.08.45.16.59.24.14.08.24.17.29.26.05.09.07.19.05.29l-3.52,18.77Z"/>
      <path class="cls-2" d="m387.75,272.78c-.05.3-.1.55-.16.76-.06.21-.12.37-.2.49-.07.12-.15.21-.24.25s-.18.07-.27.05l-5-.78-2.52,16.1c-.02.1-.06.19-.14.26-.08.07-.2.12-.36.15-.16.03-.38.04-.64.03-.27-.01-.6-.05-.99-.11s-.72-.13-.97-.2c-.26-.07-.46-.15-.61-.22-.15-.08-.25-.16-.3-.25s-.07-.19-.06-.29l2.52-16.1-5-.78c-.1-.02-.19-.06-.25-.13-.06-.07-.11-.18-.14-.31-.03-.14-.04-.31-.04-.53s.03-.47.08-.77c.05-.31.1-.57.16-.78s.12-.38.2-.5c.07-.12.15-.2.23-.25.08-.04.17-.06.28-.04l14.08,2.2c.09.01.17.06.24.12.07.07.12.17.15.31.03.14.04.31.03.54,0,.22-.04.48-.08.79Z"/>
      <path class="cls-2" d="m407.74,287.2c-.09,1.06-.38,1.97-.84,2.73s-1.06,1.38-1.78,1.86c-.72.47-1.55.8-2.47.99-.93.19-1.9.24-2.93.15-.69-.06-1.34-.18-1.92-.34-.59-.17-1.1-.35-1.54-.55-.44-.2-.81-.4-1.1-.61-.29-.2-.5-.38-.62-.53-.12-.15-.2-.35-.24-.61-.03-.26-.03-.63.01-1.1.03-.32.06-.59.1-.81s.09-.39.15-.52c.06-.13.13-.22.21-.27s.18-.07.28-.06c.15.01.34.12.59.31.25.19.57.41.97.66.4.25.87.48,1.44.7s1.22.37,1.98.44c.5.04.95.03,1.35-.06s.75-.22,1.05-.42.53-.44.7-.75.28-.66.31-1.05c.04-.46-.05-.86-.27-1.21-.22-.35-.52-.67-.89-.96-.38-.29-.81-.57-1.3-.84-.49-.27-.99-.55-1.51-.85-.52-.3-1.02-.63-1.5-.99s-.9-.78-1.26-1.26c-.36-.48-.64-1.03-.83-1.65-.2-.62-.25-1.36-.18-2.2.09-.96.34-1.8.77-2.5.42-.7.96-1.26,1.61-1.69s1.4-.72,2.24-.89,1.73-.21,2.65-.12c.48.04.95.12,1.42.24.47.12.91.25,1.31.42s.76.33,1.07.52c.31.18.51.33.6.45.09.11.16.21.19.28.03.08.05.17.07.3.02.12.02.27.01.46,0,.18-.02.41-.05.68-.03.3-.06.55-.09.76s-.08.38-.12.51c-.05.13-.11.23-.18.28-.07.06-.17.08-.28.07-.11-.01-.29-.1-.53-.27-.24-.17-.53-.35-.88-.56-.35-.2-.75-.4-1.22-.58-.46-.18-.98-.3-1.55-.35-.45-.04-.84-.02-1.18.06s-.63.21-.87.38-.43.39-.56.65c-.13.26-.21.54-.24.84-.04.45.05.84.26,1.19.21.35.52.67.9.96.39.29.83.57,1.33.84.5.27,1.01.55,1.52.85.52.3,1.02.63,1.51.99.49.36.92.78,1.28,1.26.36.48.65,1.03.84,1.64.2.62.26,1.33.18,2.14Z"/>
      <path class="cls-2" d="m414.7,293.18c0,.1-.05.2-.12.27-.07.08-.19.14-.35.18-.16.04-.37.07-.63.08-.26.01-.6,0-1-.02-.4-.03-.72-.06-.99-.11-.26-.05-.47-.1-.62-.17-.15-.06-.26-.14-.32-.22-.06-.09-.09-.18-.08-.29l1.22-19.05c0-.1.05-.2.12-.27s.19-.14.36-.18c.16-.04.38-.07.64-.08s.59,0,.99.02c.41.03.74.06,1,.11s.46.1.62.16c.15.06.26.14.32.22.06.09.09.18.08.29l-1.22,19.05Z"/>
      <path class="cls-2" d="m434.08,292.8c.18.37.3.66.35.88.05.22.02.39-.11.5-.13.11-.35.18-.68.21-.33.02-.79.03-1.37.02-.49,0-.87-.03-1.16-.05s-.5-.06-.66-.11c-.16-.05-.28-.12-.35-.2s-.13-.19-.18-.32l-3.65-7.37-3.93,7.22c-.06.12-.13.23-.21.31-.07.08-.19.15-.36.19-.16.04-.39.07-.67.09-.29.01-.66.02-1.13,0-.54-.01-.96-.03-1.26-.07-.3-.04-.5-.11-.6-.23-.1-.12-.12-.28-.05-.5.07-.22.2-.51.41-.87l5.02-8.73-4.33-8.38c-.18-.38-.3-.68-.36-.91-.06-.23-.03-.39.09-.5.12-.11.34-.17.67-.19s.78-.02,1.38-.01c.49,0,.88.03,1.16.05.29.03.51.07.68.12.17.05.28.12.35.2.07.08.13.19.19.32l3.41,6.76,3.59-6.62c.06-.12.13-.23.2-.31s.18-.15.33-.19c.15-.04.36-.07.63-.09s.63-.02,1.1,0c.52,0,.93.03,1.23.06.3.03.51.11.62.22.11.12.14.28.08.5s-.18.51-.37.88l-4.66,8.16,4.62,8.97Z"/>
      <path class="cls-2" d="m449.47,292.49c0,.3,0,.55-.03.76-.02.2-.06.37-.11.49-.05.12-.11.22-.19.28-.08.06-.16.09-.26.09l-10.16.13c-.34,0-.63-.09-.87-.29-.24-.2-.36-.53-.36-.99l-.23-17.62c0-.46.11-.79.34-1,.23-.21.52-.31.86-.32l10.09-.13c.09,0,.18.02.25.08.07.05.14.14.19.27.05.13.1.29.12.5.03.2.04.46.05.77,0,.29,0,.54-.03.74-.02.2-.06.37-.11.49-.05.13-.11.22-.18.28-.07.06-.16.09-.25.09l-7.22.09.06,4.94,6.11-.08c.09,0,.18.03.26.08.08.06.15.14.2.26.05.12.09.28.12.48.03.2.04.45.05.74,0,.3,0,.55-.03.75s-.06.36-.11.48c-.05.12-.11.21-.19.26-.08.05-.16.08-.26.08l-6.11.08.08,5.7,7.28-.1c.09,0,.18.03.26.08.08.06.15.15.2.27.05.12.09.29.12.49.03.2.04.46.05.76Z"/>
      <path class="cls-2" d="m464.72,287.56c.04,1.06-.12,2-.48,2.82-.36.82-.87,1.51-1.53,2.07-.66.56-1.43,1-2.33,1.3-.9.31-1.86.48-2.89.52-.7.03-1.35,0-1.95-.1-.6-.09-1.14-.21-1.6-.35-.46-.14-.85-.3-1.17-.46-.31-.17-.54-.31-.68-.44s-.24-.32-.31-.57c-.07-.25-.11-.62-.13-1.1-.01-.32-.01-.59,0-.81s.04-.4.08-.54c.04-.14.1-.24.18-.3s.17-.09.27-.1c.15,0,.35.07.63.23.27.16.62.34,1.05.53.42.19.93.36,1.51.51s1.26.21,2.02.18c.5-.02.94-.1,1.34-.23.39-.13.72-.32.99-.55.27-.23.47-.51.6-.84s.19-.69.18-1.09c-.02-.46-.16-.85-.42-1.16s-.6-.6-1.01-.84-.88-.46-1.39-.66-1.05-.42-1.6-.65c-.55-.23-1.09-.49-1.61-.79-.52-.3-.99-.66-1.41-1.09-.42-.43-.76-.94-1.04-1.53-.27-.59-.43-1.31-.46-2.16-.04-.97.11-1.83.44-2.57.33-.75.79-1.38,1.38-1.88.59-.51,1.29-.9,2.11-1.17.82-.27,1.69-.43,2.62-.46.48-.02.96,0,1.44.05.48.05.93.14,1.35.24s.8.23,1.13.38c.33.14.55.26.66.37.11.1.18.19.22.26.04.07.07.17.1.29.03.12.05.27.07.45.02.18.03.41.04.68.01.3.01.56,0,.77s-.03.38-.06.52-.08.24-.14.3c-.07.07-.16.1-.27.1-.11,0-.3-.06-.56-.2-.26-.14-.57-.28-.94-.44s-.8-.3-1.28-.42c-.48-.12-1.01-.17-1.58-.15-.45.02-.84.09-1.16.21-.33.12-.6.28-.82.49-.22.2-.37.44-.47.71-.1.27-.14.56-.13.87.02.45.15.83.41,1.15.26.32.6.6,1.02.84.42.24.9.46,1.43.66s1.07.42,1.62.65c.55.23,1.09.49,1.63.79.53.3,1.01.66,1.43,1.09.42.43.77.93,1.04,1.52s.43,1.29.46,2.1Z"/>
      <path class="cls-2" d="m488.6,289.34c.04.3.05.56.05.77,0,.22-.02.39-.06.53s-.09.24-.17.31-.17.11-.27.12l-11.55,1.35c-.23.03-.43.03-.6,0-.17-.02-.31-.09-.43-.19-.12-.11-.21-.27-.29-.49-.07-.22-.13-.51-.17-.88-.04-.34-.06-.63-.06-.88,0-.25.03-.47.09-.67.06-.2.14-.4.25-.6.11-.2.25-.42.43-.66l3.04-4.13c.61-.8,1.09-1.53,1.44-2.17.35-.64.62-1.23.8-1.75.18-.52.29-.99.33-1.42.04-.42.04-.82,0-1.2-.04-.34-.13-.66-.28-.95-.14-.29-.34-.54-.57-.74-.24-.2-.53-.35-.86-.44s-.72-.11-1.16-.06c-.61.07-1.14.21-1.59.42-.45.21-.85.43-1.18.67s-.61.44-.83.63-.4.29-.53.31c-.09.01-.18-.01-.25-.06-.07-.05-.14-.15-.2-.29-.06-.14-.11-.33-.17-.57-.05-.24-.1-.54-.14-.89-.03-.24-.04-.44-.05-.6,0-.16,0-.3.02-.43.02-.12.05-.23.09-.32.04-.09.12-.21.23-.35.11-.14.33-.32.66-.56.32-.23.73-.47,1.21-.71s1.03-.46,1.62-.65c.6-.2,1.23-.33,1.89-.41,1.04-.12,1.97-.1,2.79.08.81.17,1.5.46,2.08.87s1.02.92,1.35,1.54c.33.62.54,1.3.62,2.04.08.65.09,1.3.04,1.95s-.23,1.36-.54,2.13-.77,1.65-1.38,2.62c-.61.97-1.44,2.11-2.48,3.41l-2.06,2.68,7.92-.93c.1-.01.2,0,.3.06s.18.14.26.26.14.29.2.5c.06.21.1.46.13.75Z"/>
      <path class="cls-2" d="m506.75,288.18c.02.11,0,.22-.04.31-.05.1-.14.18-.3.26-.15.08-.37.15-.64.22-.27.07-.62.13-1.05.19-.67.09-1.16.13-1.46.12-.3-.01-.52-.06-.67-.15-.14-.09-.26-.2-.35-.33l-7.32-8.7,1.27,9.51c.02.11,0,.22-.05.31-.05.09-.15.17-.3.25-.15.08-.35.15-.6.21s-.58.12-.98.18c-.39.05-.72.08-.99.08s-.48-.01-.65-.05c-.16-.04-.28-.09-.36-.17-.08-.07-.12-.17-.14-.28l-2.51-18.88c-.02-.11,0-.22.06-.31s.16-.17.31-.25.35-.14.61-.21.58-.12.98-.18c.4-.05.74-.08,1-.08.26,0,.47,0,.64.04.16.03.28.08.35.16.07.07.12.17.13.28l1.14,8.53,4.74-9.3c.05-.14.13-.27.22-.37.09-.1.22-.19.37-.26.16-.07.37-.14.62-.19.26-.05.58-.11.99-.16.41-.05.76-.08,1.03-.09s.49.01.66.05c.17.04.29.09.36.16.07.08.12.16.13.27.02.18,0,.36-.07.56-.07.2-.2.52-.41.95l-4.54,7.93,7.2,8.26c.28.39.46.66.52.79.07.13.1.24.11.32Z"/>
      <path class="cls-2" d="m521.82,284.55c.05.3.08.55.09.77s0,.39-.03.54c-.03.14-.08.25-.15.32-.07.07-.16.11-.26.13l-11.47,1.88c-.23.04-.43.05-.6.03-.17-.01-.32-.07-.44-.17-.12-.1-.23-.26-.31-.48-.08-.22-.15-.51-.21-.87-.06-.34-.09-.63-.1-.88,0-.25.01-.47.06-.67.05-.2.13-.41.23-.61.1-.2.23-.43.4-.68l2.85-4.27c.57-.83,1.02-1.58,1.34-2.24.32-.66.56-1.25.72-1.78.16-.53.24-1,.26-1.43.02-.42,0-.82-.06-1.19-.06-.34-.16-.65-.32-.94s-.36-.52-.61-.72c-.25-.19-.54-.33-.88-.4s-.73-.08-1.16,0c-.61.1-1.13.26-1.57.5-.44.23-.83.47-1.15.72-.32.25-.59.47-.8.67-.21.2-.38.31-.52.33-.09.01-.18,0-.25-.05s-.15-.14-.21-.28c-.06-.14-.13-.32-.2-.56s-.13-.53-.18-.88c-.04-.24-.06-.44-.07-.6s-.01-.3,0-.43c.01-.12.04-.23.07-.33s.11-.22.22-.36c.11-.14.32-.34.63-.59s.71-.5,1.18-.76c.47-.26,1-.51,1.59-.73s1.21-.39,1.87-.5c1.04-.17,1.97-.19,2.79-.05.82.13,1.52.39,2.11.78.59.38,1.06.88,1.42,1.48.36.6.6,1.27.72,2.01.11.65.15,1.29.13,1.94-.02.65-.17,1.37-.44,2.15-.27.79-.69,1.68-1.25,2.68s-1.34,2.17-2.32,3.52l-1.94,2.77,7.86-1.29c.1-.02.2,0,.3.05.1.05.19.13.27.25.08.12.16.28.22.49.07.21.12.45.17.74Z"/>
      <path class="cls-2" d="m537.71,277.44c.1.52.12.93.06,1.22-.06.29-.18.46-.36.49l-1.77.33.67,3.59c.02.1,0,.2-.04.29-.05.09-.14.17-.29.25-.14.08-.34.16-.58.23-.24.07-.56.14-.94.22-.37.07-.68.11-.94.14s-.46.02-.62,0c-.16-.02-.27-.07-.34-.13-.07-.07-.12-.15-.14-.25l-.67-3.59-7.6,1.43c-.14.03-.27.03-.39.02-.12-.01-.23-.08-.33-.19-.1-.11-.19-.29-.27-.52-.08-.23-.16-.55-.23-.95-.06-.33-.11-.61-.14-.86-.03-.24-.04-.46-.05-.67,0-.2.02-.39.05-.58.03-.19.08-.39.15-.6l4.13-12.05c.03-.1.11-.2.22-.29s.27-.18.48-.27c.21-.09.48-.17.82-.26s.74-.17,1.22-.26c.52-.1.97-.17,1.34-.21.37-.04.68-.06.91-.04.23.01.4.05.52.12s.19.15.21.26l2.24,11.96,1.77-.33c.16-.03.33.07.49.3s.3.63.41,1.22Zm-8.27-9.59h-.03s-3.52,10.13-3.52,10.13l5.27-.99-1.71-9.14Z"/>
      <path class="cls-2" d="m555.94,260.59c.06.31.1.57.12.78.02.21.01.39-.02.52-.03.13-.08.24-.13.32-.06.08-.13.12-.23.14l-6.47,1.35,1.11,5.32,6.07-1.27c.09-.02.18,0,.26.03.08.04.16.11.25.22.08.11.16.27.22.46.07.2.13.45.2.76s.1.56.12.77c.02.21.01.39-.02.53-.03.14-.07.25-.13.32s-.14.12-.23.13l-6.07,1.27,1.54,7.37c.02.11.01.22-.03.31-.04.09-.14.19-.29.28s-.34.18-.59.26c-.25.08-.57.17-.97.25-.39.08-.71.13-.98.16-.27.02-.48.02-.65,0-.16-.02-.29-.07-.37-.14-.08-.07-.14-.16-.16-.27l-3.74-17.94c-.09-.45-.05-.8.14-1.04.19-.25.45-.41.79-.48l9.31-1.94c.09-.02.18,0,.26.03s.17.12.25.24c.08.12.16.28.23.49.07.21.14.47.2.77Z"/>
      <path class="cls-2" d="m566.92,276.64c.02.1,0,.2-.04.3-.05.1-.14.19-.29.27s-.34.17-.59.25c-.25.08-.57.17-.97.25-.39.08-.71.13-.98.16-.27.02-.48.03-.65,0s-.29-.06-.37-.13c-.08-.07-.14-.15-.16-.25l-3.94-18.68c-.02-.1,0-.2.04-.3.05-.1.15-.18.29-.27.15-.08.34-.17.59-.25.25-.08.57-.17.95-.25.4-.08.73-.14.99-.16.26-.02.47-.03.64,0,.16.02.29.06.37.13s.14.15.16.25l3.94,18.68Z"/>
      <path class="cls-2" d="m580.64,255.37c.06.3.1.55.12.76.02.21.02.39,0,.53-.02.14-.07.25-.13.32-.06.08-.14.12-.23.14l-4.95,1.05,3.38,15.94c.02.1,0,.2-.04.3-.05.1-.14.19-.29.27-.14.08-.34.17-.59.25-.25.08-.57.17-.96.25-.39.08-.71.14-.98.16-.27.02-.48.03-.65,0s-.29-.06-.37-.13c-.08-.07-.14-.15-.16-.25l-3.38-15.94-4.95,1.05c-.1.02-.2,0-.28-.04-.08-.05-.17-.13-.24-.24-.08-.12-.15-.28-.22-.48-.07-.2-.14-.45-.2-.75-.06-.31-.11-.57-.13-.79-.02-.22-.02-.4,0-.54.02-.14.07-.24.12-.31s.14-.12.24-.14l13.94-2.95c.09-.02.18,0,.27.03.09.04.17.12.25.24.08.12.15.28.22.49s.14.47.2.77Z"/>
      <path class="cls-2" d="m604.3,263c.23,1.04.23,1.99.02,2.86-.22.87-.6,1.64-1.14,2.31-.55.67-1.23,1.23-2.06,1.69-.83.46-1.74.8-2.75,1.02-.68.15-1.33.23-1.94.25-.61.02-1.16,0-1.64-.07s-.89-.14-1.23-.25-.59-.21-.75-.32c-.16-.1-.3-.27-.41-.51-.11-.24-.22-.59-.32-1.06-.07-.32-.12-.58-.14-.8-.03-.22-.03-.4-.01-.54.02-.14.06-.25.12-.32.06-.07.15-.12.25-.14.14-.03.36,0,.66.12s.67.22,1.12.34c.45.12.98.19,1.58.24.6.04,1.27-.01,2.02-.18.49-.11.91-.26,1.27-.46.36-.2.65-.44.88-.71.22-.27.37-.58.44-.93.07-.35.07-.71-.02-1.1-.1-.45-.3-.81-.62-1.07-.31-.27-.69-.48-1.14-.65-.45-.16-.94-.3-1.49-.41-.55-.11-1.11-.23-1.69-.36s-1.16-.29-1.72-.5c-.57-.2-1.09-.48-1.58-.82s-.92-.79-1.29-1.33c-.37-.54-.65-1.22-.83-2.04-.21-.95-.21-1.82-.02-2.61.19-.79.54-1.49,1.03-2.1s1.12-1.11,1.87-1.52,1.59-.71,2.5-.91c.47-.1.94-.17,1.43-.2.48-.03.94-.03,1.38,0,.43.03.82.09,1.17.17.35.08.58.17.71.25.12.08.21.15.26.21.05.06.1.15.15.26.05.11.1.26.15.43.05.18.1.4.16.66.06.3.11.55.14.75s.04.38.03.52c0,.14-.04.25-.09.32-.05.08-.14.13-.25.15s-.31,0-.58-.1c-.28-.09-.61-.18-1-.27-.39-.09-.84-.15-1.34-.19s-1.03,0-1.59.13c-.44.1-.81.23-1.11.41-.3.18-.54.38-.72.62s-.29.5-.34.79c-.05.29-.04.58.02.87.1.44.3.79.61,1.06.31.27.69.48,1.15.64.46.16.96.3,1.52.4s1.13.23,1.71.35c.58.13,1.16.29,1.74.49.58.2,1.11.47,1.6.82s.92.78,1.3,1.32c.37.53.65,1.19.82,1.99Z"/>
      <path class="cls-2" d="m612.56,266.84c.02.1,0,.2-.04.3s-.14.19-.29.27c-.14.08-.34.17-.58.25-.25.08-.57.17-.97.25-.39.08-.71.14-.98.16-.27.03-.48.03-.65.01-.16-.02-.29-.06-.37-.13-.08-.07-.14-.15-.16-.25l-4-18.67c-.02-.1,0-.2.04-.3.05-.1.15-.19.29-.27s.34-.17.59-.25c.25-.08.57-.17.95-.25.4-.08.73-.14.99-.16.26-.02.47-.03.64,0,.16.02.29.06.37.13.08.07.14.15.16.25l4,18.67Z"/>
      <path class="cls-2" d="m630.72,262.15c.25.32.43.58.53.79.1.2.1.37,0,.51-.1.14-.31.25-.62.35-.32.09-.76.2-1.33.31-.48.09-.86.16-1.14.19-.28.03-.5.04-.67.03s-.3-.06-.38-.12c-.09-.07-.17-.16-.24-.27l-5.14-6.42-2.29,7.89c-.04.13-.08.25-.14.35-.06.1-.16.18-.31.26-.15.08-.36.15-.64.23s-.65.16-1.1.25c-.53.11-.95.17-1.24.2s-.51,0-.63-.1c-.12-.09-.18-.25-.16-.48.02-.23.09-.54.21-.93l3.03-9.6-6.03-7.26c-.26-.33-.44-.6-.55-.81-.11-.21-.12-.38-.02-.51.1-.13.3-.24.61-.33.31-.09.76-.19,1.34-.31.48-.09.86-.16,1.15-.2s.51-.05.69-.03c.17.01.3.05.38.12.08.07.17.16.25.27l4.78,5.87,2.09-7.23c.04-.13.08-.25.13-.34.05-.09.14-.18.28-.25.14-.08.34-.15.59-.22s.61-.15,1.07-.25c.51-.1.92-.17,1.22-.2.3-.03.52,0,.65.09s.2.25.18.47-.07.54-.17.94l-2.81,8.97,6.43,7.77Z"/>
      <path class="cls-2" d="m645.61,259.4c.05.3.08.55.09.75,0,.21,0,.37-.03.5-.03.13-.08.23-.14.3s-.15.11-.24.13l-10,1.78c-.34.06-.64.01-.91-.15-.27-.16-.44-.46-.52-.92l-3.09-17.35c-.08-.45-.02-.8.17-1.04.2-.24.46-.39.8-.45l9.94-1.77c.09-.02.18,0,.26.03.08.04.16.12.23.24s.14.28.2.47c.06.2.12.45.17.75.05.29.08.53.09.74,0,.21,0,.37-.03.51-.03.13-.08.23-.14.3-.06.07-.14.11-.23.13l-7.11,1.27.87,4.86,6.02-1.07c.09-.02.18,0,.27.04.09.04.17.12.24.23.07.11.14.26.2.46.06.2.12.44.17.72.05.3.08.55.09.75,0,.2,0,.36-.03.49-.03.13-.08.22-.15.29-.07.07-.15.11-.24.12l-6.02,1.07,1,5.61,7.17-1.28c.09-.02.18,0,.27.04.09.04.17.12.24.24s.14.27.2.46.12.44.17.74Z"/>
      <path class="cls-2" d="m659.98,252.79c.15,1.05.09,2-.19,2.85s-.71,1.59-1.31,2.22-1.32,1.14-2.18,1.54-1.8.67-2.82.82c-.69.1-1.34.13-1.95.11-.61-.03-1.15-.09-1.63-.18-.48-.09-.88-.21-1.21-.34-.33-.13-.57-.25-.72-.37-.15-.11-.28-.29-.37-.54-.09-.24-.17-.6-.24-1.08-.05-.32-.07-.59-.08-.81-.01-.22,0-.4.02-.54.03-.14.08-.25.14-.31.07-.07.16-.11.26-.12.14-.02.36.04.65.17.29.13.65.27,1.09.42.44.15.96.26,1.56.35s1.27.08,2.02-.03c.5-.07.93-.19,1.3-.37.37-.17.68-.39.93-.65.24-.26.41-.55.51-.89.1-.34.12-.71.06-1.1-.07-.45-.25-.83-.54-1.11-.29-.29-.66-.53-1.09-.73-.43-.2-.92-.37-1.46-.52-.54-.15-1.09-.31-1.66-.48-.57-.17-1.13-.38-1.68-.62-.55-.24-1.06-.55-1.52-.93s-.86-.85-1.19-1.42c-.33-.56-.56-1.26-.68-2.1-.14-.96-.08-1.83.17-2.61.25-.78.64-1.45,1.18-2.02.53-.57,1.19-1.03,1.98-1.38s1.64-.6,2.55-.73c.47-.07.95-.1,1.44-.1.48,0,.94.04,1.37.1s.82.15,1.16.26.57.21.69.29c.12.09.2.17.25.23.05.07.09.16.13.27.04.12.08.26.12.44.04.18.07.4.11.67.04.3.07.55.09.76.01.21.01.38,0,.52-.02.14-.05.25-.11.32s-.14.12-.26.13c-.11.02-.3-.03-.57-.14-.27-.11-.6-.22-.98-.34-.39-.12-.83-.21-1.32-.28-.49-.07-1.02-.07-1.59.02-.44.06-.82.17-1.14.33-.31.16-.57.35-.76.57-.19.22-.33.48-.4.76-.07.28-.08.58-.04.87.06.44.24.81.53,1.1.29.29.66.53,1.1.73.44.19.94.36,1.49.51s1.11.31,1.68.48c.57.17,1.14.38,1.7.62.56.24,1.07.55,1.54.93.46.38.86.85,1.2,1.41.33.56.56,1.24.67,2.04Z"/>
      <path class="cls-2" d="m683.4,254.71c.03.3.04.56.03.77,0,.21-.03.39-.07.53-.04.14-.1.24-.18.31-.08.06-.17.1-.27.11l-11.58,1.02c-.23.02-.43.02-.6,0s-.31-.1-.43-.21c-.11-.11-.21-.28-.27-.5-.07-.22-.12-.52-.15-.88-.03-.34-.04-.64-.03-.88,0-.25.05-.47.11-.67.07-.2.16-.4.27-.59.11-.19.26-.41.45-.64l3.16-4.04c.63-.79,1.13-1.5,1.51-2.13.37-.63.66-1.21.85-1.72.19-.51.32-.98.37-1.41s.06-.82.03-1.2c-.03-.34-.11-.66-.25-.96-.14-.3-.32-.55-.55-.76-.23-.21-.52-.36-.85-.47s-.72-.13-1.15-.09c-.61.05-1.15.18-1.61.38s-.86.41-1.2.63c-.34.22-.62.43-.85.61-.22.18-.4.28-.54.29-.09,0-.18-.02-.25-.07-.07-.06-.14-.16-.19-.3-.05-.14-.11-.33-.15-.57-.05-.24-.09-.54-.12-.89-.02-.24-.03-.44-.03-.6,0-.16.01-.3.03-.43.02-.12.05-.23.1-.32.04-.09.13-.21.24-.34.12-.14.34-.32.67-.54.33-.22.74-.45,1.23-.67s1.04-.43,1.64-.61c.6-.18,1.23-.3,1.9-.36,1.05-.09,1.98-.04,2.78.15.81.2,1.49.51,2.05.93.56.43,1,.95,1.31,1.58s.5,1.31.57,2.06c.06.65.05,1.3-.02,1.95-.07.64-.27,1.35-.6,2.12-.33.77-.81,1.62-1.45,2.58-.64.95-1.5,2.06-2.58,3.34l-2.14,2.62,7.94-.7c.1,0,.2.01.3.07.09.05.18.14.25.27s.14.29.19.5c.05.21.09.46.11.75Z"/>
      <path class="cls-2" d="m701.51,255.13c0,.11-.02.22-.07.31s-.16.17-.32.23c-.16.06-.38.12-.66.16s-.63.07-1.06.09c-.68.03-1.16.02-1.46-.02s-.52-.11-.65-.21c-.13-.1-.24-.22-.32-.36l-6.46-9.36.36,9.59c0,.11-.02.21-.08.3-.06.09-.17.16-.32.22s-.36.12-.62.16c-.26.04-.59.07-1,.08-.4.01-.73.01-.99,0s-.48-.06-.64-.11c-.16-.05-.27-.12-.34-.2s-.11-.18-.11-.29l-.71-19.03c0-.12.03-.21.09-.3.06-.09.17-.16.33-.22.15-.06.36-.11.63-.15s.59-.07.99-.08c.41-.02.74-.01,1,0s.47.06.63.1c.16.05.27.11.34.19s.1.18.1.29l.32,8.6,5.6-8.81c.07-.14.15-.25.25-.35.1-.09.23-.17.4-.23s.38-.1.64-.13c.26-.03.59-.05,1-.07.42-.02.76-.01,1.03,0,.27.02.49.06.65.11.16.05.28.12.34.2.07.08.1.17.1.28,0,.18-.03.36-.12.55-.09.19-.25.49-.5.91l-5.27,7.47,6.39,8.91c.25.42.39.7.45.84s.08.25.08.33Z"/>
      <path class="cls-2" d="m716.72,254.25c0,.3-.02.56-.05.77s-.07.39-.13.52c-.05.13-.12.23-.21.29s-.18.08-.28.08l-11.62-.23c-.23,0-.43-.03-.59-.07-.17-.04-.3-.13-.4-.25-.1-.12-.17-.3-.22-.53-.04-.23-.06-.53-.05-.89,0-.34.03-.64.06-.88s.1-.46.19-.65c.09-.19.2-.38.33-.56.13-.18.31-.38.52-.59l3.58-3.68c.71-.71,1.29-1.37,1.73-1.96.44-.59.78-1.13,1.03-1.62.25-.49.42-.94.52-1.36.1-.42.15-.81.16-1.19,0-.34-.04-.67-.14-.98-.1-.31-.26-.58-.47-.81-.21-.23-.47-.42-.79-.55-.32-.14-.7-.21-1.14-.22-.61-.01-1.16.05-1.64.2-.48.15-.9.31-1.26.5-.36.19-.67.36-.91.51-.24.16-.43.23-.57.23-.09,0-.17-.04-.24-.1-.07-.06-.12-.17-.16-.32-.04-.15-.07-.34-.09-.59-.02-.25-.03-.54-.02-.9,0-.24.02-.44.04-.6.02-.16.05-.3.08-.42.03-.12.08-.22.13-.31.05-.09.15-.19.28-.31.13-.12.38-.28.73-.46.35-.19.79-.36,1.3-.54.51-.17,1.08-.31,1.7-.43.62-.11,1.26-.16,1.93-.15,1.05.02,1.97.17,2.75.45s1.43.67,1.94,1.15c.51.49.89,1.05,1.13,1.71.24.66.36,1.36.34,2.11-.01.66-.09,1.3-.23,1.93-.14.63-.41,1.31-.82,2.04-.41.73-.98,1.53-1.72,2.4-.74.88-1.71,1.89-2.92,3.04l-2.41,2.37,7.97.16c.1,0,.2.04.29.1.09.06.16.16.22.29.06.13.1.3.13.52s.04.47.03.76Z"/>
      <path class="cls-2" d="m733.63,251.46c-.04.53-.13.93-.27,1.19-.13.27-.29.39-.48.38l-1.79-.15-.31,3.64c0,.1-.05.19-.12.26-.07.07-.18.13-.34.17-.16.04-.37.06-.62.07-.25,0-.57-.01-.97-.04-.37-.03-.69-.07-.94-.12-.25-.05-.45-.1-.6-.17-.15-.06-.24-.14-.29-.22-.05-.08-.07-.18-.06-.28l.31-3.64-7.71-.66c-.15-.01-.27-.04-.38-.09-.11-.05-.2-.14-.27-.27s-.11-.33-.12-.58c-.02-.25,0-.57.03-.98.03-.33.06-.62.1-.86.04-.24.08-.46.13-.66.05-.19.12-.38.2-.55.08-.17.18-.35.3-.54l7.2-10.5c.06-.09.16-.16.29-.22.13-.06.31-.1.54-.13.23-.03.51-.04.86-.03.34,0,.76.03,1.25.08.53.04.98.1,1.35.16.37.06.67.12.88.2.22.08.38.16.47.25s.14.2.13.31l-1.04,12.13,1.79.15c.17.01.3.15.4.42.1.26.12.69.07,1.28Zm-5.4-11.46h-.03s-6.1,8.8-6.1,8.8l5.34.46.79-9.26Z"/>
      <path class="cls-2" d="m757.19,242.47c-.06.31-.12.56-.18.77-.07.21-.14.36-.22.48-.08.11-.16.19-.24.24s-.17.06-.26.05l-6.49-1.23-1.01,5.34,6.09,1.15c.09.02.17.06.23.12.06.06.11.16.14.3.03.13.04.3.03.51-.01.21-.05.47-.11.77-.06.31-.12.56-.18.76-.06.2-.14.36-.22.48-.08.12-.16.21-.25.25-.08.04-.17.05-.26.04l-6.09-1.15-1.4,7.4c-.02.11-.07.2-.15.27-.08.07-.2.12-.37.14s-.38.03-.65.01-.59-.06-.99-.14c-.39-.07-.71-.15-.97-.23s-.45-.16-.6-.25c-.14-.09-.24-.18-.29-.27-.05-.09-.07-.2-.04-.31l3.41-18.01c.08-.45.26-.75.53-.91.27-.16.57-.2.91-.14l9.35,1.77c.09.02.17.06.23.13.06.07.11.17.14.31.03.14.04.32.03.54-.02.22-.05.48-.11.79Z"/>
      <path class="cls-2" d="m760.64,262.06c-.03.1-.09.18-.17.24-.09.06-.21.1-.38.1-.16,0-.38,0-.64-.05-.26-.04-.58-.12-.97-.23-.38-.11-.7-.21-.94-.32s-.44-.2-.57-.29c-.14-.09-.23-.19-.27-.29-.04-.1-.05-.2-.02-.3l5.19-18.37c.03-.1.09-.18.17-.24s.22-.1.39-.1c.17,0,.38.01.64.05.26.04.58.12.96.22.39.11.71.22.95.32s.43.2.57.29c.14.09.23.19.27.29.04.1.05.2.02.3l-5.19,18.37Z"/>
      <path class="cls-2" d="m783.49,251.34c-.11.28-.22.52-.32.71-.1.19-.2.33-.3.44-.1.1-.19.17-.29.2s-.19.03-.27,0l-4.71-1.86-6,15.15c-.04.1-.1.17-.2.22-.09.05-.22.07-.39.06-.16,0-.38-.05-.63-.12-.26-.07-.57-.18-.94-.32-.37-.15-.67-.28-.91-.41s-.42-.24-.54-.35c-.13-.11-.21-.21-.24-.31-.03-.1-.03-.2,0-.3l6-15.15-4.71-1.86c-.1-.04-.17-.1-.21-.19-.04-.08-.07-.2-.07-.34,0-.14.03-.31.08-.52.05-.21.14-.45.25-.73.12-.29.23-.53.33-.73.1-.19.21-.34.3-.44.1-.1.19-.17.28-.19s.18-.02.28.02l13.25,5.25c.09.03.16.09.21.17s.08.19.08.33c0,.14-.03.32-.08.53s-.14.46-.26.75Z"/>
      <path class="cls-2" d="m797.98,273.27c-.51.93-1.14,1.65-1.88,2.16-.73.51-1.53.84-2.38.98-.85.14-1.74.11-2.66-.09-.92-.2-1.84-.55-2.74-1.05-.61-.34-1.15-.7-1.62-1.09s-.86-.77-1.19-1.13c-.32-.36-.58-.7-.76-1-.18-.3-.3-.55-.35-.73-.05-.18-.04-.4.03-.65s.23-.59.46-1c.16-.28.3-.51.42-.7.12-.18.24-.32.35-.42s.21-.15.3-.16c.1-.01.19,0,.28.06.13.07.27.25.42.53.15.28.36.61.62.99s.61.79,1.03,1.22c.42.43.97.83,1.63,1.2.44.24.86.41,1.26.49s.78.1,1.13.04c.35-.06.66-.19.95-.4s.52-.49.71-.84c.22-.4.3-.81.24-1.21s-.2-.82-.43-1.24c-.23-.42-.51-.85-.85-1.29s-.68-.91-1.04-1.39c-.35-.48-.68-.98-.97-1.51-.29-.53-.51-1.08-.64-1.66-.14-.58-.17-1.2-.09-1.85.07-.65.32-1.34.72-2.08.47-.85,1.04-1.51,1.71-1.97.67-.47,1.39-.77,2.16-.9.77-.13,1.57-.1,2.41.09.84.19,1.67.51,2.48.96.42.23.82.5,1.2.79.38.3.73.6,1.03.91.3.31.56.61.77.91s.33.51.37.65c.04.14.06.25.06.33,0,.08-.02.18-.06.3s-.09.26-.17.42-.18.37-.32.6c-.15.26-.28.48-.39.66-.12.17-.22.31-.32.41-.1.1-.19.16-.28.18-.09.02-.18,0-.29-.05s-.22-.21-.37-.46c-.15-.25-.34-.54-.58-.86-.24-.33-.53-.67-.88-1.02-.35-.36-.78-.67-1.28-.95-.39-.22-.76-.36-1.1-.42-.34-.07-.66-.07-.95,0-.29.06-.55.18-.77.37s-.41.41-.56.67c-.22.39-.3.79-.24,1.2.06.41.2.82.44,1.24.24.42.53.86.88,1.31.35.45.7.91,1.05,1.39.35.48.68.99.98,1.52s.52,1.09.66,1.67c.14.58.18,1.2.1,1.84-.07.65-.3,1.32-.7,2.03Z"/>
      <path class="cls-2" d="m801.58,281.68c-.05.09-.13.16-.23.2-.1.04-.23.04-.39.01-.16-.03-.36-.1-.61-.2s-.54-.25-.89-.45c-.34-.2-.62-.37-.84-.53s-.38-.3-.49-.42c-.11-.12-.17-.24-.19-.34-.02-.11,0-.2.05-.29l9.4-16.62c.05-.09.13-.16.23-.19.1-.04.23-.04.4,0s.37.1.61.2c.24.1.54.25.88.44.35.2.64.38.85.53.21.16.37.29.48.42s.17.24.19.34c.02.11,0,.21-.05.29l-9.4,16.62Z"/>
      <path class="cls-2" d="m818.43,290.06c-.02.41-.05.72-.11.94s-.17.35-.33.39c-.17.04-.4,0-.7-.14s-.71-.34-1.21-.63c-.43-.24-.76-.44-.99-.59s-.41-.29-.53-.41c-.12-.12-.19-.23-.21-.34s-.03-.23,0-.36l.27-8.22-6.88,4.5c-.12.08-.23.14-.33.17s-.24.04-.4,0c-.16-.04-.38-.12-.63-.24-.26-.12-.59-.3-1-.53-.47-.27-.83-.49-1.07-.66s-.38-.33-.42-.49c-.03-.15.03-.31.19-.47.16-.16.42-.35.77-.57l8.55-5.31.15-9.44c.02-.42.06-.74.11-.97s.16-.36.31-.4c.16-.04.38.01.68.15.29.14.7.35,1.22.64.43.24.76.44,1,.6.24.16.42.3.54.42s.19.24.21.34c.02.11.02.23.02.37l-.19,7.57,6.29-4.13c.12-.08.22-.14.32-.18.1-.04.23-.04.38,0,.15.03.35.11.59.22.24.11.57.28.98.51.45.26.81.47,1.06.64.25.17.4.33.44.49.04.16-.01.32-.17.48s-.41.36-.74.6l-7.97,4.98-.18,10.09Z"/>
      <path class="cls-2" d="m831.71,297.41c-.15.26-.28.48-.4.64-.12.17-.24.29-.34.37s-.21.13-.3.14-.19,0-.27-.05l-8.87-4.95c-.3-.17-.5-.4-.61-.69-.11-.29-.05-.64.18-1.04l8.6-15.39c.22-.4.49-.63.79-.7.3-.06.61-.01.91.16l8.81,4.92c.08.04.14.11.18.19s.05.19.03.33c-.02.14-.06.3-.14.49-.08.19-.19.42-.34.69-.14.25-.27.46-.4.63-.12.16-.24.29-.34.37-.11.08-.21.13-.3.15-.09.01-.18,0-.26-.05l-6.3-3.52-2.41,4.31,5.33,2.98c.08.05.14.11.18.2.04.09.05.2.04.33-.01.13-.06.29-.13.48-.08.19-.19.41-.33.67-.15.26-.28.48-.4.64s-.23.28-.33.36c-.1.08-.2.12-.3.13-.09,0-.18-.01-.26-.06l-5.33-2.98-2.78,4.98,6.36,3.55c.08.05.14.11.18.2.04.09.05.2.04.33-.02.13-.06.3-.14.49-.08.19-.19.42-.34.68Z"/>
      <path class="cls-2" d="m847.23,300.9c-.51.93-1.14,1.65-1.87,2.16s-1.53.84-2.38.98c-.85.14-1.74.11-2.67-.09-.92-.2-1.84-.55-2.74-1.05-.61-.34-1.15-.7-1.62-1.09-.47-.39-.87-.77-1.19-1.13-.32-.36-.58-.7-.76-1-.18-.3-.3-.55-.36-.73-.05-.18-.04-.4.03-.65s.23-.59.46-1.01c.16-.28.3-.51.42-.7s.24-.32.35-.42c.11-.1.21-.15.3-.16.1-.01.19,0,.28.06.13.07.27.25.42.52.15.28.36.61.62.99s.61.79,1.03,1.22c.42.43.97.83,1.63,1.2.44.24.86.41,1.26.49.4.09.78.1,1.13.04.35-.06.66-.19.95-.41.28-.21.52-.49.71-.84.22-.4.3-.81.24-1.21s-.2-.82-.43-1.24c-.23-.42-.51-.85-.85-1.29-.34-.44-.68-.9-1.04-1.38-.35-.48-.68-.98-.97-1.51-.29-.52-.51-1.08-.65-1.66s-.17-1.2-.1-1.85.31-1.34.72-2.08c.47-.85,1.04-1.51,1.71-1.98.67-.47,1.39-.77,2.16-.9.77-.13,1.57-.1,2.41.09s1.67.51,2.48.96c.42.23.82.5,1.21.79.38.3.73.6,1.03.91.3.31.56.61.77.91.21.29.33.51.37.65s.06.25.06.33c0,.08-.02.18-.06.3-.04.12-.09.26-.17.42-.08.16-.18.37-.32.6-.15.26-.28.48-.39.66-.11.18-.22.31-.32.41s-.19.16-.28.18c-.09.02-.18,0-.29-.05-.1-.05-.22-.21-.37-.46-.15-.25-.34-.54-.58-.86s-.53-.67-.88-1.02c-.35-.35-.78-.67-1.28-.95-.39-.22-.76-.36-1.1-.42-.34-.07-.66-.07-.95,0-.29.06-.55.18-.77.37-.23.18-.41.41-.56.67-.22.39-.3.79-.24,1.2.06.41.2.82.44,1.24.24.42.53.86.88,1.31.35.45.7.91,1.05,1.39s.68.99.98,1.52c.3.53.52,1.09.67,1.67s.18,1.2.11,1.84c-.07.65-.3,1.32-.7,2.03Z"/>
      <path class="cls-2" d="m865.38,315.55c-.14.27-.27.49-.39.67-.12.18-.24.31-.35.41s-.21.15-.31.16c-.1.01-.2,0-.29-.05l-10.3-5.39c-.2-.11-.37-.22-.5-.33-.13-.11-.21-.25-.25-.4-.04-.15-.02-.34.04-.57.07-.22.18-.5.35-.82.16-.3.31-.56.45-.76.14-.2.29-.37.46-.5s.34-.25.54-.35c.2-.1.44-.2.73-.3l4.84-1.7c.96-.32,1.76-.65,2.42-.98.66-.33,1.21-.66,1.65-.99.44-.33.8-.65,1.07-.98.27-.33.49-.66.67-.99.16-.3.26-.62.31-.94.04-.32.03-.64-.06-.94-.08-.3-.24-.59-.46-.85-.23-.26-.53-.5-.92-.7-.54-.29-1.06-.47-1.56-.55-.49-.08-.94-.12-1.35-.12-.41,0-.76.02-1.04.05-.29.03-.49.02-.61-.05-.08-.04-.14-.11-.17-.2-.03-.09-.03-.21,0-.35.03-.15.09-.34.18-.57.09-.23.22-.5.38-.81.11-.21.21-.39.3-.52s.17-.25.26-.34c.08-.09.17-.17.26-.22.09-.05.22-.11.39-.16.17-.05.46-.08.86-.09s.87.02,1.4.1c.54.08,1.11.2,1.71.37s1.2.42,1.79.73c.93.49,1.68,1.03,2.26,1.63.57.6.98,1.23,1.22,1.89.24.66.32,1.34.25,2.04-.08.69-.29,1.37-.64,2.04-.3.58-.66,1.12-1.07,1.63s-.95.99-1.65,1.46-1.56.93-2.61,1.38c-1.05.46-2.37.93-3.97,1.42l-3.21,1.05,7.06,3.7c.09.05.16.12.21.22.05.1.07.22.07.36s-.04.32-.11.52c-.07.2-.17.44-.31.69Z"/>
      <path class="cls-2" d="m881.09,324.74c-.05.1-.12.18-.21.23-.09.05-.22.07-.39.05-.17-.02-.39-.08-.65-.18-.26-.1-.59-.25-.97-.44-.6-.31-1.03-.55-1.27-.73-.24-.18-.4-.35-.46-.5-.07-.15-.1-.31-.1-.47l-1.08-11.32-4.36,8.55c-.05.1-.12.18-.22.22s-.22.06-.39.04c-.17-.02-.37-.08-.62-.17s-.55-.23-.91-.41c-.35-.18-.64-.34-.86-.49-.22-.15-.39-.28-.5-.41-.11-.12-.18-.24-.2-.34-.02-.11,0-.21.04-.31l8.66-16.97c.05-.1.13-.17.23-.22.1-.04.23-.05.39-.03.16.02.37.08.62.18s.55.23.91.41c.36.18.65.35.87.5.22.15.38.28.5.4.12.12.18.23.2.33s0,.21-.05.31l-3.91,7.67,9.18-4.96c.13-.09.26-.15.39-.18s.29-.03.46,0c.17.03.38.09.62.19s.54.24.91.43c.37.19.67.36.9.51.23.15.4.29.52.41.12.12.19.24.2.34.02.1,0,.2-.04.29-.08.16-.21.3-.37.42-.17.12-.46.31-.88.55l-8.24,3.95,1.23,10.89c0,.49,0,.8-.02.95s-.05.26-.09.33Z"/>
      <path class="cls-2" d="m895.35,330.83c-.14.27-.27.49-.39.67s-.23.32-.34.41c-.11.1-.21.15-.31.17-.1.01-.2,0-.29-.05l-10.36-5.28c-.2-.1-.37-.21-.5-.33-.13-.11-.21-.25-.25-.4-.04-.15-.03-.34.04-.57s.18-.5.34-.83c.16-.31.3-.56.44-.76.14-.2.29-.37.45-.51s.34-.25.54-.36.44-.21.73-.31l4.82-1.75c.95-.33,1.76-.67,2.41-1.01s1.2-.68,1.64-1.01c.44-.33.79-.66,1.06-.99.27-.33.49-.66.66-1,.16-.31.25-.62.3-.94s.02-.64-.07-.94c-.09-.3-.24-.58-.47-.85s-.54-.49-.93-.69c-.55-.28-1.07-.46-1.56-.53-.49-.08-.94-.11-1.35-.1-.41,0-.75.03-1.04.07-.29.03-.49.02-.61-.04-.08-.04-.14-.11-.17-.19-.03-.09-.03-.2,0-.35.03-.15.09-.34.17-.57.09-.23.21-.5.37-.82.11-.21.21-.39.29-.53.09-.14.17-.25.25-.34.08-.09.17-.17.25-.22.09-.06.22-.11.39-.16.17-.05.46-.08.86-.1.4-.01.87.01,1.4.08.54.07,1.11.19,1.71.36.6.17,1.2.4,1.8.71.94.48,1.7,1.01,2.28,1.61s.99,1.22,1.24,1.88c.25.66.34,1.34.27,2.03-.07.7-.27,1.38-.61,2.05-.3.58-.65,1.13-1.05,1.64-.4.51-.94,1-1.63,1.48-.69.47-1.55.95-2.6,1.41-1.04.47-2.36.96-3.96,1.46l-3.2,1.09,7.1,3.62c.09.05.16.12.21.21s.07.22.07.36c0,.14-.04.32-.11.52-.07.21-.17.44-.3.7Z"/>
      <path class="cls-2" d="m912.2,334.68c-.24.48-.47.81-.69,1.01-.22.2-.42.25-.58.17l-1.61-.8-1.64,3.27c-.05.09-.12.16-.21.2s-.22.05-.38.03-.36-.08-.6-.17c-.24-.09-.53-.22-.88-.4-.33-.17-.61-.32-.83-.46s-.38-.26-.49-.38c-.11-.11-.18-.22-.19-.31-.02-.09,0-.19.05-.28l1.64-3.27-6.92-3.46c-.13-.07-.24-.14-.32-.22-.09-.08-.14-.2-.15-.35-.01-.15.02-.34.1-.58s.21-.54.39-.9c.15-.3.29-.55.41-.76.12-.21.25-.4.37-.56.12-.16.25-.3.39-.43.14-.13.3-.26.48-.39l10.58-7.09c.09-.06.2-.09.35-.1.14,0,.32.02.54.08.22.06.49.16.81.29.32.14.69.31,1.13.53.48.24.87.45,1.2.64.32.19.57.36.75.51s.29.29.35.41.06.23,0,.33l-5.45,10.88,1.61.8c.15.08.22.25.21.54,0,.28-.14.69-.41,1.22Zm-.78-12.64h-.03s-8.93,5.91-8.93,5.91l4.79,2.4,4.16-8.31Z"/>
      <path class="cls-2" d="m936.65,331.98c-.13.28-.25.52-.36.7s-.22.32-.32.41-.2.15-.29.17c-.09.03-.18.02-.27-.02l-6.02-2.74-2.25,4.95,5.65,2.57c.09.04.15.1.2.17.04.08.07.19.07.32,0,.14-.03.31-.09.51s-.16.44-.29.73c-.13.28-.25.52-.36.69-.11.18-.22.32-.33.42s-.21.16-.3.18c-.09.02-.18.01-.26-.03l-5.65-2.57-3.12,6.85c-.05.1-.12.18-.21.23-.09.05-.22.07-.39.05-.17-.01-.38-.06-.63-.14-.25-.08-.56-.2-.93-.37-.36-.16-.66-.31-.88-.45s-.4-.27-.52-.38c-.12-.12-.19-.23-.22-.33-.03-.1-.02-.21.03-.31l7.59-16.68c.19-.42.43-.67.73-.76.3-.09.6-.06.92.08l8.66,3.94c.08.04.15.1.19.18s.06.19.06.34c0,.14-.04.32-.1.53-.07.21-.17.46-.29.74Z"/>
      <path class="cls-2" d="m935.98,351.32c-.04.09-.11.17-.21.22-.1.05-.23.07-.39.05s-.37-.06-.62-.14c-.25-.08-.56-.2-.93-.36-.36-.16-.66-.31-.89-.44-.23-.14-.41-.26-.53-.37-.12-.11-.2-.22-.22-.32-.03-.1-.02-.2.02-.3l7.72-17.46c.04-.09.11-.17.21-.22s.23-.06.4-.05.38.07.63.14c.25.08.56.2.92.36.37.16.67.31.9.45s.4.26.52.37c.12.11.2.22.22.32s.02.2-.02.3l-7.72,17.46Z"/>
      <path class="cls-2" d="m959.51,342.01c-.12.28-.24.51-.35.69-.11.19-.21.33-.31.42-.1.1-.2.16-.29.19-.1.03-.19.02-.27-.02l-4.64-2.03-6.54,14.93c-.04.1-.11.17-.21.22s-.22.07-.39.05c-.16-.02-.37-.06-.63-.14s-.57-.2-.93-.36c-.36-.16-.66-.31-.89-.44-.23-.14-.41-.26-.53-.37-.12-.11-.2-.22-.23-.32-.03-.1-.02-.2.02-.3l6.54-14.93-4.64-2.03c-.1-.04-.16-.11-.21-.19-.04-.09-.06-.2-.06-.34,0-.14.04-.31.1-.52.06-.21.15-.45.27-.72.13-.29.24-.52.36-.71.11-.19.22-.33.32-.43s.2-.16.29-.18c.09-.02.18-.01.28.03l13.05,5.72c.09.04.15.1.2.18s.07.2.07.34c0,.14-.04.32-.1.53s-.16.46-.28.75Z"/>
      <path class="cls-2" d="m974.22,361.66c-.4.98-.94,1.77-1.61,2.36s-1.42,1.01-2.25,1.25-1.72.31-2.66.22c-.94-.09-1.89-.34-2.84-.73-.65-.27-1.22-.56-1.73-.9s-.95-.66-1.31-.98-.65-.62-.87-.91c-.22-.28-.36-.51-.44-.69-.07-.18-.09-.39-.04-.65s.16-.61.34-1.05c.12-.3.23-.55.34-.74s.2-.35.29-.45.19-.17.28-.2c.09-.02.19-.02.29.02.13.06.29.21.47.47.18.26.42.57.73.92.31.35.69.72,1.16,1.09s1.06.71,1.76,1c.46.19.9.3,1.31.34.41.04.79,0,1.12-.09.34-.1.64-.27.89-.51.26-.24.46-.55.61-.92.17-.42.21-.83.1-1.23-.11-.4-.3-.79-.57-1.18-.27-.39-.61-.78-.99-1.18-.39-.4-.78-.82-1.19-1.26-.41-.44-.79-.9-1.14-1.39-.35-.49-.63-1.01-.83-1.57s-.31-1.17-.31-1.82c0-.65.16-1.37.48-2.15.37-.9.86-1.62,1.47-2.16s1.29-.92,2.04-1.14c.75-.22,1.55-.28,2.41-.19.86.09,1.71.32,2.57.67.44.18.87.4,1.29.65s.79.51,1.13.78.63.54.87.81c.24.27.39.47.44.6s.09.24.09.33c0,.08,0,.18-.02.3-.02.12-.06.27-.12.44-.06.17-.14.38-.24.63-.11.28-.22.51-.31.7-.09.19-.18.34-.27.45s-.17.18-.26.21c-.09.03-.18.03-.29-.02-.11-.04-.25-.18-.42-.41-.18-.23-.4-.49-.67-.79-.27-.3-.6-.6-.99-.91-.39-.31-.85-.58-1.38-.79-.41-.17-.8-.27-1.15-.29-.35-.03-.67,0-.95.1-.28.09-.52.24-.73.45-.2.21-.36.45-.48.73-.17.41-.2.82-.1,1.22.1.4.29.79.58,1.18.28.39.62.79,1.02,1.2.4.4.8.83,1.21,1.26.41.44.79.9,1.15,1.39.36.49.65,1.02.85,1.58.21.56.31,1.17.32,1.82,0,.65-.15,1.35-.46,2.1Z"/>
      <path class="cls-2" d="m978.83,369.38c-.04.1-.1.17-.2.22-.09.05-.22.07-.39.06-.16,0-.37-.05-.63-.11s-.57-.17-.95-.32c-.37-.15-.67-.28-.91-.41s-.42-.24-.54-.35c-.13-.11-.21-.21-.24-.31s-.03-.2,0-.3l7.03-17.75c.04-.1.1-.17.2-.22.09-.05.22-.07.39-.06.17.01.38.05.63.12.25.07.56.17.93.32.38.15.68.29.91.41.23.12.41.24.54.35.13.11.21.21.24.31s.03.2,0,.3l-7.03,17.75Z"/>
      <path class="cls-2" d="m996.67,375.22c.04.41.05.72.03.95-.03.22-.12.37-.27.43-.16.06-.39.05-.71-.04-.32-.09-.75-.24-1.29-.45-.46-.18-.81-.32-1.07-.44s-.45-.23-.58-.33-.22-.2-.26-.31c-.04-.1-.06-.22-.06-.36l-.93-8.17-6.14,5.46c-.1.09-.2.17-.3.22s-.23.07-.4.06c-.17-.01-.39-.06-.66-.15-.28-.08-.63-.21-1.07-.38-.51-.19-.89-.36-1.16-.49-.27-.13-.43-.27-.48-.42-.06-.14-.02-.31.12-.49s.36-.41.68-.68l7.68-6.51-1.23-9.36c-.04-.42-.05-.74-.04-.98.02-.23.1-.38.25-.44.15-.06.38-.04.69.05.31.09.74.24,1.3.46.46.17.82.32,1.08.45.26.12.46.23.6.34s.23.21.26.31.06.22.07.36l.92,7.51,5.62-5.01c.1-.09.2-.17.29-.22.09-.05.22-.08.38-.06.16,0,.36.05.62.13s.6.2,1.04.37c.49.19.87.35,1.14.48.27.13.44.27.51.42.07.15.03.31-.1.5-.13.18-.35.42-.65.71l-7.15,6.09,1.3,10Z"/>
      <path class="cls-2" d="m1010.86,380.35c-.1.28-.2.52-.3.7-.09.18-.19.32-.28.42s-.18.16-.28.19c-.09.03-.18.02-.27,0l-9.54-3.48c-.32-.12-.56-.31-.71-.58-.15-.27-.15-.62,0-1.05l6.04-16.56c.16-.43.38-.7.67-.81.29-.11.6-.11.92.01l9.48,3.46c.09.03.16.08.21.16.05.07.08.18.08.32,0,.14-.02.31-.06.51-.04.2-.12.45-.23.74-.1.27-.2.5-.29.68-.09.18-.19.32-.28.42s-.18.16-.27.19c-.09.03-.18.03-.26,0l-6.78-2.47-1.69,4.64,5.74,2.09c.09.03.16.09.21.17.05.08.08.19.09.32,0,.13-.01.29-.06.5-.04.2-.12.44-.22.71-.1.28-.2.51-.29.69-.09.18-.18.31-.27.41-.09.09-.18.15-.27.17-.09.02-.18.02-.27-.01l-5.74-2.09-1.95,5.36,6.84,2.49c.09.03.16.09.21.17.05.08.08.19.09.32,0,.13-.01.3-.06.5-.04.2-.12.44-.22.73Z"/>
      <path class="cls-2" d="m1026.66,381.07c-.34,1.01-.83,1.82-1.47,2.46s-1.36,1.09-2.17,1.38c-.81.29-1.69.41-2.64.38s-1.91-.22-2.88-.56c-.66-.23-1.26-.49-1.79-.79-.53-.3-.99-.6-1.37-.91-.38-.3-.69-.58-.92-.85-.23-.27-.39-.49-.48-.66-.08-.17-.11-.39-.08-.65s.12-.62.27-1.07c.1-.3.2-.56.29-.76s.18-.36.27-.47c.09-.11.18-.18.27-.21.09-.03.19-.03.29,0,.14.05.3.19.5.44.2.25.46.54.78.87.33.33.74.67,1.23,1.02.49.35,1.1.65,1.82.89.47.16.92.25,1.33.26.41.01.79-.04,1.12-.15.33-.12.62-.31.86-.56.24-.26.43-.57.56-.95.15-.43.16-.85.03-1.24-.13-.39-.34-.77-.64-1.14s-.65-.75-1.06-1.12c-.41-.38-.83-.77-1.26-1.18s-.84-.85-1.22-1.32-.69-.97-.92-1.52-.38-1.15-.42-1.8.08-1.38.35-2.18c.31-.92.76-1.66,1.34-2.24.58-.58,1.23-1,1.97-1.26.73-.26,1.53-.37,2.39-.33s1.73.21,2.61.51c.45.16.89.34,1.33.57.43.22.82.46,1.17.72s.66.51.91.76c.25.25.42.45.48.58.06.13.1.24.11.32.01.08,0,.18,0,.3-.01.12-.05.27-.09.45s-.12.39-.21.65c-.1.29-.19.53-.27.72-.08.19-.16.35-.24.46s-.16.19-.24.23c-.08.04-.18.04-.29,0s-.26-.16-.45-.38c-.19-.22-.43-.47-.72-.75-.29-.28-.64-.56-1.05-.85-.41-.29-.88-.53-1.43-.71-.42-.14-.81-.22-1.16-.22-.35,0-.66.05-.94.16-.27.11-.51.28-.7.5-.19.22-.34.47-.43.76-.14.42-.15.83-.03,1.22s.34.77.65,1.15.67.75,1.09,1.13c.42.38.85.78,1.28,1.19.43.41.84.85,1.23,1.32.39.47.71.98.95,1.53.24.55.38,1.15.43,1.8s-.07,1.36-.33,2.12Z"/>
      <path class="cls-2" d="m1047.09,392.11c-.09.29-.18.53-.26.73s-.18.35-.27.47c-.09.11-.18.19-.28.22-.1.03-.2.03-.29,0l-11.11-3.42c-.22-.07-.4-.15-.55-.23-.15-.09-.25-.21-.32-.35-.06-.15-.08-.33-.06-.57.02-.23.09-.52.2-.87.1-.33.2-.6.3-.83.1-.22.22-.42.36-.58.14-.16.29-.31.47-.44.18-.14.4-.28.66-.43l4.45-2.55c.88-.49,1.61-.96,2.2-1.41.58-.45,1.06-.87,1.44-1.27s.67-.79.87-1.16c.21-.37.37-.74.48-1.1.1-.33.14-.66.13-.98-.01-.33-.09-.63-.23-.91-.14-.28-.34-.53-.61-.75-.27-.22-.62-.39-1.03-.52-.59-.18-1.13-.27-1.63-.26s-.95.05-1.35.13c-.4.08-.74.16-1.02.24-.28.08-.48.11-.61.07-.09-.03-.16-.08-.2-.16-.05-.08-.07-.2-.06-.35,0-.15.03-.35.08-.59.05-.24.12-.53.23-.87.07-.23.14-.42.2-.57.06-.15.13-.28.19-.38.06-.11.13-.19.21-.26.08-.07.19-.14.36-.23s.44-.16.83-.24c.39-.08.86-.13,1.4-.16.54-.02,1.12,0,1.75.06.62.06,1.25.19,1.89.39,1.01.31,1.84.71,2.52,1.19.67.49,1.19,1.03,1.55,1.64.36.61.56,1.26.62,1.96.05.7-.03,1.4-.25,2.12-.19.63-.44,1.23-.75,1.8-.31.57-.76,1.15-1.35,1.73-.59.58-1.37,1.2-2.31,1.84s-2.16,1.35-3.65,2.12l-2.97,1.62,7.62,2.35c.1.03.18.09.25.17.07.09.11.2.13.34.02.14.02.32-.02.53-.03.21-.09.46-.18.74Z"/>
      <path class="cls-2" d="m1064.2,398.1c-.03.11-.09.2-.17.27-.08.07-.2.11-.38.12-.17.01-.4,0-.67-.05-.28-.05-.62-.13-1.04-.25-.65-.19-1.11-.34-1.38-.47s-.46-.26-.55-.4-.16-.28-.19-.44l-3.26-10.9-2.62,9.23c-.03.11-.09.2-.17.26-.08.06-.21.1-.37.11-.17.01-.38,0-.64-.04s-.58-.12-.97-.23c-.38-.11-.7-.21-.94-.32-.25-.1-.44-.2-.57-.3s-.22-.2-.27-.29c-.04-.1-.05-.2-.02-.31l5.2-18.32c.03-.11.09-.2.18-.26s.21-.1.38-.1c.16,0,.38,0,.64.05.26.04.59.12.97.23.39.11.71.22.95.32.24.1.43.2.57.29.14.09.22.19.26.29.04.1.04.2,0,.31l-2.35,8.28,8.04-6.65c.11-.11.22-.19.35-.25s.27-.09.45-.09.39.02.65.07c.26.05.58.13.97.24.4.11.73.22.98.33.25.1.45.21.59.3.14.1.23.2.27.29.04.1.04.2.01.3-.05.17-.14.33-.29.49-.14.15-.39.39-.75.71l-7.32,5.47,3.32,10.44c.1.47.16.78.17.93,0,.15,0,.26-.02.34Z"/>
      <path class="cls-2" d="m1079.33,401c-.08.29-.16.54-.24.74-.08.2-.16.36-.25.48-.08.12-.17.19-.27.23-.09.03-.19.04-.29.01l-11.24-2.96c-.22-.06-.41-.13-.56-.21s-.26-.2-.33-.34c-.07-.14-.1-.33-.09-.56s.07-.53.16-.88c.09-.33.18-.61.27-.84.09-.23.2-.43.33-.59.13-.17.28-.32.45-.46.17-.14.39-.29.64-.45l4.34-2.74c.86-.53,1.57-1.03,2.14-1.5.56-.47,1.03-.91,1.38-1.33.36-.42.63-.82.82-1.2.19-.38.34-.75.43-1.11.09-.33.12-.66.09-.99s-.12-.63-.26-.9c-.15-.28-.36-.52-.64-.73-.28-.21-.63-.37-1.05-.48-.59-.16-1.14-.22-1.64-.19-.5.03-.95.09-1.34.19s-.73.19-1,.29c-.27.09-.48.12-.61.09-.09-.02-.16-.08-.21-.15-.05-.08-.08-.19-.08-.34,0-.15.01-.35.05-.59s.1-.54.19-.88c.06-.23.12-.42.18-.58s.11-.28.18-.39c.06-.11.13-.2.2-.27.07-.07.19-.15.35-.24.16-.09.43-.18.82-.28s.85-.17,1.39-.22,1.12-.05,1.75-.02c.63.04,1.26.14,1.91.31,1.02.27,1.87.63,2.57,1.09.69.46,1.23.98,1.61,1.57s.62,1.23.7,1.93.03,1.4-.17,2.13c-.17.63-.39,1.24-.67,1.83-.28.58-.71,1.18-1.28,1.79-.57.61-1.32,1.25-2.24,1.93-.92.68-2.11,1.44-3.55,2.27l-2.9,1.74,7.71,2.03c.1.03.19.08.26.16s.12.2.15.34c.03.14.03.32,0,.53s-.07.46-.15.75Z"/>
      <path class="cls-2" d="m1096.51,400.88c-.12.52-.27.9-.44,1.14-.17.24-.35.34-.53.3l-1.75-.42-.85,3.56c-.02.1-.08.18-.16.24-.08.06-.2.1-.36.11-.16.01-.37,0-.62-.03-.25-.03-.57-.1-.95-.19-.36-.09-.67-.17-.91-.26-.24-.08-.43-.17-.57-.26s-.22-.17-.26-.26c-.04-.09-.04-.18-.02-.29l.85-3.56-7.52-1.8c-.14-.03-.26-.08-.37-.14-.1-.06-.18-.17-.22-.31-.05-.14-.06-.34-.04-.59.02-.25.08-.57.17-.96.08-.32.15-.6.22-.84.07-.23.15-.44.23-.63.08-.18.18-.35.28-.51.11-.16.23-.32.38-.49l8.69-9.31c.07-.08.18-.14.31-.17.14-.04.32-.05.55-.05s.51.04.85.1c.34.06.75.15,1.22.26.52.12.95.24,1.31.35.36.11.64.22.84.33.21.11.35.21.43.32s.11.21.08.33l-2.83,11.84,1.75.42c.16.04.27.2.33.47.06.28.02.7-.12,1.28Zm-3.64-12.13h-.03s-7.34,7.8-7.34,7.8l5.21,1.25,2.16-9.04Z"/>
      <path class="cls-2" d="m1119.67,392.73c-.06.31-.13.56-.2.77s-.14.36-.22.47-.16.19-.25.24c-.08.05-.17.06-.26.04l-6.48-1.32-1.09,5.33,6.08,1.24c.09.02.17.06.23.13.06.07.11.17.14.3.03.13.04.31.02.51-.02.21-.06.47-.12.77s-.13.56-.19.76-.14.36-.23.48-.17.2-.25.24c-.08.04-.17.05-.26.03l-6.08-1.24-1.5,7.38c-.02.11-.07.2-.15.27s-.2.12-.37.14-.39.03-.65,0c-.26-.02-.59-.07-.99-.15-.39-.08-.71-.16-.96-.24-.25-.08-.45-.17-.59-.26-.14-.09-.24-.18-.29-.27-.05-.09-.06-.2-.04-.31l3.66-17.96c.09-.45.27-.75.54-.9.27-.15.57-.19.91-.12l9.32,1.9c.09.02.17.06.23.13.06.07.1.18.13.31s.04.32.02.54c-.02.22-.06.48-.12.79Z"/>
      <path class="cls-2" d="m1123.35,411.7c-.02.1-.07.19-.15.26s-.2.12-.37.14c-.16.02-.38.02-.64,0s-.59-.06-.99-.14c-.39-.07-.71-.15-.97-.23-.26-.08-.46-.16-.6-.24-.14-.08-.24-.17-.29-.26-.05-.09-.07-.19-.05-.29l3.55-18.76c.02-.1.07-.19.15-.26.08-.07.21-.11.38-.14.17-.02.38-.02.65,0,.26.02.59.06.98.14.4.08.72.15.97.23s.45.16.59.24c.14.08.24.17.29.26.05.09.07.19.05.29l-3.55,18.76Z"/>
      <path class="cls-2" d="m1144.01,397.02c-.05.3-.1.55-.16.76-.06.21-.13.37-.2.49-.07.12-.15.21-.24.25-.09.05-.18.07-.27.05l-5-.8-2.59,16.09c-.02.1-.07.19-.15.26s-.2.12-.36.15c-.16.03-.38.03-.64.02-.27-.01-.6-.05-.99-.11-.39-.06-.71-.13-.97-.2-.26-.07-.46-.15-.6-.22-.15-.08-.25-.16-.3-.25-.05-.09-.07-.19-.06-.29l2.59-16.09-5-.8c-.1-.02-.19-.06-.25-.13-.06-.07-.11-.18-.14-.31-.03-.14-.04-.31-.03-.53,0-.21.04-.47.08-.77.05-.31.1-.57.17-.78.06-.21.13-.38.2-.5s.15-.2.23-.25c.08-.04.17-.06.28-.04l14.07,2.26c.09.02.17.06.24.13.07.07.12.17.15.31.03.14.04.32.03.54,0,.22-.04.49-.09.79Z"/>
      <path class="cls-2" d="m1163.35,411.94c-.13,1.05-.44,1.96-.93,2.7s-1.1,1.35-1.84,1.8c-.74.45-1.57.76-2.5.91-.93.16-1.91.18-2.93.05-.69-.08-1.33-.22-1.91-.41-.58-.19-1.09-.39-1.52-.6s-.79-.43-1.08-.64c-.28-.21-.48-.39-.6-.55-.12-.15-.19-.36-.22-.62-.03-.26,0-.63.05-1.1.04-.32.08-.59.13-.8.05-.21.1-.39.17-.51.06-.13.14-.22.22-.26.08-.05.18-.06.28-.05.14.02.34.13.58.33.24.2.56.43.95.69.39.26.86.51,1.41.75.55.24,1.21.41,1.96.5.5.06.95.06,1.36-.02.41-.07.76-.2,1.06-.38.3-.18.54-.43.73-.73.18-.3.3-.65.35-1.04.06-.46-.02-.86-.23-1.22-.21-.36-.5-.68-.86-.99-.37-.3-.79-.59-1.27-.88s-.97-.58-1.48-.9c-.51-.31-1-.66-1.46-1.04-.47-.38-.87-.81-1.22-1.3-.34-.49-.6-1.05-.78-1.68s-.21-1.36-.11-2.2c.12-.96.4-1.79.84-2.47.45-.69,1-1.23,1.66-1.64.66-.41,1.42-.68,2.27-.82.85-.14,1.74-.15,2.66-.04.48.06.95.15,1.41.28s.9.28,1.3.46c.4.17.75.36,1.05.55s.5.35.59.47c.09.12.15.21.18.29.03.08.05.18.06.3.01.12.01.27,0,.46-.01.18-.03.41-.07.68-.04.3-.08.55-.12.76s-.09.37-.14.5c-.05.13-.12.22-.19.28s-.17.07-.28.06c-.11-.01-.29-.11-.52-.28s-.52-.37-.86-.58-.74-.42-1.2-.62c-.46-.2-.97-.33-1.54-.4-.44-.05-.84-.05-1.18.02-.34.07-.64.18-.88.35-.25.16-.44.37-.58.63-.14.26-.23.53-.27.83-.05.45.02.84.22,1.2s.49.68.87.99c.38.3.81.6,1.3.88.49.29.99.58,1.5.9.51.31,1,.66,1.48,1.04.48.38.89.81,1.24,1.3.35.49.61,1.05.79,1.67.17.62.21,1.34.12,2.15Z"/>
      <path class="cls-2" d="m1169.92,418.22c-.01.1-.05.19-.13.27-.08.08-.19.13-.35.17-.16.04-.37.06-.63.06-.26,0-.6-.01-1-.05-.39-.04-.72-.09-.98-.15-.26-.06-.47-.12-.62-.19-.15-.07-.25-.15-.31-.24-.06-.09-.08-.19-.07-.29l1.91-19c.01-.1.05-.19.13-.27s.2-.13.36-.17c.17-.04.38-.06.64-.06.26,0,.59.01.98.05.4.04.73.09.99.15.26.06.46.12.61.19.15.07.25.15.31.24.06.09.08.19.07.29l-1.91,19Z"/>
      <path class="cls-2" d="m1189.14,418.65c.16.38.26.68.31.9.04.22,0,.39-.13.49-.13.11-.36.16-.69.17-.33,0-.79,0-1.37-.04-.49-.03-.87-.07-1.15-.11-.28-.04-.5-.09-.66-.15-.16-.06-.27-.13-.34-.22s-.12-.2-.17-.33l-3.3-7.53-4.26,7.03c-.07.12-.15.22-.22.3-.08.08-.2.14-.36.17-.17.04-.39.05-.68.06-.29,0-.66-.01-1.13-.04-.54-.04-.96-.08-1.25-.13-.29-.05-.49-.14-.59-.26-.1-.12-.11-.29-.03-.5.08-.21.23-.5.45-.85l5.42-8.48-3.93-8.58c-.16-.39-.27-.69-.32-.92-.05-.23-.02-.39.11-.49.13-.1.35-.15.68-.16.32,0,.78.01,1.38.05.49.03.87.07,1.16.11.28.04.51.09.67.15.16.06.28.13.34.22.06.09.12.2.17.33l3.09,6.91,3.89-6.44c.07-.12.14-.22.22-.3.07-.08.19-.14.34-.17.15-.04.36-.06.63-.06s.63.01,1.1.04c.52.04.93.08,1.23.12.3.05.5.13.61.25s.12.29.05.5c-.07.21-.21.5-.41.87l-5.04,7.93,4.19,9.18Z"/>
      <path class="cls-2" d="m1204.86,419.02c0,.3-.03.55-.06.76-.03.2-.07.37-.13.49-.06.12-.12.21-.2.27s-.17.08-.26.08l-10.15-.24c-.34,0-.63-.12-.86-.33-.23-.21-.34-.54-.33-1l.42-17.62c.01-.46.14-.79.38-.98.24-.2.53-.29.87-.28l10.09.24c.09,0,.18.03.25.08s.13.15.18.28c.05.13.08.3.11.5s.03.46.02.77c0,.29-.03.54-.06.74-.03.2-.07.37-.13.49-.06.12-.12.21-.19.27s-.16.08-.25.08l-7.22-.17-.12,4.94,6.11.14c.09,0,.18.03.25.09.08.06.14.15.19.27.05.12.08.28.11.49.02.2.03.45.02.74,0,.3-.03.55-.06.75s-.07.36-.13.47c-.06.12-.12.2-.2.25-.08.05-.17.07-.26.07l-6.11-.14-.13,5.7,7.28.17c.09,0,.18.03.26.09.08.06.14.15.19.28.05.13.08.29.11.5s.03.46.02.76Z"/>
      <path class="cls-2" d="m1220.3,414.5c0,1.06-.2,2-.59,2.8-.4.8-.93,1.47-1.61,2.01-.68.54-1.47.94-2.38,1.21s-1.88.41-2.91.41c-.7,0-1.35-.06-1.95-.17-.6-.12-1.13-.25-1.59-.42-.46-.16-.84-.33-1.15-.51-.31-.18-.53-.33-.66-.47-.14-.13-.23-.33-.29-.59-.06-.25-.09-.62-.09-1.1,0-.32.01-.59.03-.81.02-.22.06-.4.1-.53.05-.13.11-.23.19-.29.08-.06.17-.09.27-.09.15,0,.35.09.62.26s.61.36,1.02.57c.42.21.91.4,1.49.57s1.25.26,2.01.26c.5,0,.95-.06,1.34-.18.4-.12.73-.29,1.01-.51.28-.22.49-.49.63-.81.15-.32.22-.68.22-1.08,0-.46-.12-.85-.38-1.18s-.58-.62-.98-.88c-.4-.25-.86-.5-1.37-.72s-1.04-.46-1.58-.71-1.07-.53-1.58-.85c-.51-.32-.97-.7-1.37-1.14-.4-.44-.73-.97-.98-1.57-.25-.6-.38-1.33-.38-2.17,0-.97.18-1.82.54-2.55s.84-1.34,1.45-1.83c.61-.48,1.33-.85,2.16-1.08s1.71-.36,2.63-.36c.48,0,.96.04,1.44.11.48.07.93.17,1.34.3.42.12.79.27,1.11.42.32.16.54.29.64.39.1.1.17.19.21.27.04.07.07.17.09.29.03.12.04.27.05.45.01.18.02.41.02.68,0,.3,0,.56-.02.77-.02.21-.04.38-.08.52-.04.13-.09.23-.16.3s-.16.09-.27.09-.3-.07-.55-.22c-.25-.15-.56-.31-.92-.48s-.79-.33-1.27-.47-1-.21-1.58-.21c-.45,0-.84.05-1.17.16s-.61.26-.84.45-.39.42-.5.7c-.11.27-.16.56-.16.86,0,.45.12.84.37,1.16.24.33.57.62.98.88.41.25.88.5,1.4.72.52.22,1.05.46,1.59.71.54.25,1.07.53,1.59.85.52.32.98.7,1.39,1.14.41.44.73.96.98,1.56.25.6.38,1.3.38,2.12Z"/>
      <path class="cls-2" d="m1243.68,418.63c0,.3,0,.56-.02.77s-.05.39-.1.53c-.05.14-.11.24-.19.29-.08.06-.17.09-.28.09l-11.62.35c-.23,0-.43,0-.6-.04-.17-.04-.31-.11-.41-.23-.11-.12-.19-.29-.24-.52-.05-.23-.09-.52-.1-.89-.01-.34,0-.64.02-.88.02-.25.07-.47.15-.66.08-.2.18-.39.3-.57.12-.19.29-.39.49-.62l3.38-3.85c.67-.75,1.22-1.43,1.63-2.04.41-.61.73-1.17.95-1.67.22-.5.37-.96.45-1.38.08-.42.11-.82.1-1.19-.01-.34-.08-.67-.19-.97-.12-.3-.29-.57-.51-.79-.22-.22-.49-.39-.82-.51-.33-.12-.71-.17-1.15-.16-.61.02-1.16.11-1.62.28-.47.17-.88.36-1.23.56-.35.2-.65.39-.88.56-.24.17-.42.26-.55.26-.09,0-.18-.03-.25-.09-.07-.06-.13-.16-.17-.31s-.09-.34-.12-.58-.06-.54-.07-.9c0-.24,0-.44,0-.6.01-.16.03-.3.06-.42.03-.12.07-.23.12-.32.05-.09.14-.2.26-.33s.36-.29.7-.5.77-.4,1.27-.6c.5-.2,1.06-.37,1.67-.51.61-.14,1.25-.23,1.92-.25,1.05-.03,1.97.07,2.77.31.79.24,1.46.59,1.99,1.05.53.46.94,1.01,1.21,1.65.27.64.42,1.34.45,2.09.02.66-.02,1.3-.13,1.94s-.34,1.33-.72,2.08c-.37.75-.91,1.58-1.6,2.49s-1.61,1.97-2.76,3.19l-2.29,2.49,7.97-.24c.1,0,.2.02.29.08.09.06.17.15.24.28.07.13.12.3.16.51.04.21.06.46.07.76Z"/>
      <path class="cls-2" d="m1262.51,417.96c0,.11,0,.22-.06.31-.05.09-.15.17-.31.25s-.37.13-.65.19c-.28.06-.63.1-1.05.14-.67.06-1.16.08-1.46.05-.3-.03-.52-.09-.66-.18-.14-.09-.25-.21-.34-.35l-6.92-9.03.83,9.56c0,.11-.01.21-.07.3-.05.09-.16.17-.31.24-.15.07-.35.13-.61.19-.26.05-.59.1-.99.13-.39.04-.73.05-.99.04-.27,0-.48-.03-.64-.08-.16-.04-.28-.1-.35-.18-.08-.08-.12-.17-.13-.29l-1.66-18.97c0-.11.01-.22.08-.3s.17-.17.32-.23.36-.12.62-.18.59-.1.98-.13c.41-.04.74-.05,1-.04.26,0,.47.03.63.07.16.04.28.1.34.17.07.08.11.17.12.29l.75,8.58,5.15-9.08c.06-.14.14-.26.24-.36.1-.1.22-.18.39-.25s.37-.12.63-.16c.26-.04.59-.08.99-.12.42-.04.76-.05,1.03-.04.27,0,.49.03.66.08.17.04.28.1.35.18.07.08.11.17.12.27.02.18-.02.36-.09.56-.08.2-.23.51-.45.93l-4.89,7.72,6.82,8.58c.27.41.43.68.49.81.06.14.09.25.1.33Z"/>
      <path class="cls-2" d="m1278.21,414.97c.04.3.06.56.06.77s-.02.39-.05.53c-.04.14-.09.25-.17.31s-.17.11-.27.12l-11.53,1.47c-.23.03-.43.03-.6.01-.17-.02-.32-.08-.43-.19-.12-.11-.22-.27-.29-.49s-.14-.51-.18-.88c-.04-.34-.06-.63-.06-.88s.03-.47.09-.67c.06-.2.14-.4.25-.6.11-.2.25-.42.43-.66l3-4.16c.6-.81,1.07-1.54,1.42-2.19.35-.65.61-1.23.78-1.75.17-.52.28-.99.32-1.42.04-.42.03-.82-.02-1.19-.04-.34-.14-.66-.29-.95s-.34-.54-.58-.74-.53-.34-.87-.43c-.34-.09-.72-.11-1.16-.05-.61.08-1.14.22-1.59.44-.45.22-.84.44-1.17.68s-.61.45-.82.64c-.22.19-.39.29-.53.31-.09.01-.18,0-.25-.06s-.14-.15-.2-.29c-.06-.14-.12-.33-.17-.57-.06-.24-.11-.54-.15-.89-.03-.24-.05-.44-.05-.6s0-.3.02-.43c.02-.12.04-.23.08-.33.04-.09.12-.21.23-.35s.33-.33.65-.56c.32-.24.72-.48,1.21-.72s1.02-.47,1.62-.67c.59-.2,1.22-.34,1.88-.43,1.04-.13,1.97-.12,2.79.05.81.16,1.51.45,2.08.85.58.41,1.03.91,1.37,1.53.33.61.55,1.29.65,2.04.08.65.1,1.3.06,1.95-.04.65-.21,1.36-.51,2.14-.3.78-.75,1.65-1.35,2.63s-1.42,2.12-2.44,3.44l-2.03,2.7,7.9-1.01c.1-.01.2,0,.3.06s.18.14.26.26c.08.12.15.29.2.49.06.21.11.46.14.75Z"/>
      <path class="cls-2" d="m1294.58,408.06c.09.52.1.93.04,1.22-.06.29-.18.45-.37.48l-1.77.3.61,3.6c.02.1,0,.2-.05.29-.05.09-.15.17-.29.25-.14.08-.34.15-.58.22s-.56.13-.95.2c-.37.06-.68.1-.94.12-.26.02-.46.01-.62-.01-.16-.03-.27-.07-.34-.14-.07-.07-.11-.15-.13-.26l-.61-3.6-7.62,1.29c-.14.02-.28.03-.39.01-.12-.02-.23-.08-.33-.2-.1-.12-.19-.29-.26-.53-.08-.23-.15-.55-.22-.95-.06-.33-.1-.62-.12-.86-.03-.24-.04-.47-.03-.67,0-.2.02-.39.06-.58.04-.19.09-.39.16-.6l4.34-11.97c.04-.1.11-.2.22-.28.11-.09.27-.17.49-.26s.49-.16.82-.24c.33-.08.74-.16,1.23-.24.52-.09.97-.15,1.35-.19s.68-.05.91-.03c.23.02.4.06.52.13.12.06.18.15.2.27l2.04,12,1.77-.3c.16-.03.33.07.49.31s.29.64.39,1.23Zm-8.1-9.73h-.03s-3.7,10.06-3.7,10.06l5.28-.9-1.56-9.17Z"/>
      <path class="cls-2" d="m1312.96,390.77c.07.3.12.56.15.78.03.21.02.39,0,.52-.03.13-.07.24-.12.32-.06.08-.13.13-.22.15l-6.42,1.55,1.28,5.29,6.03-1.46c.09-.02.18-.02.26.02.08.03.17.1.25.21s.16.26.24.46.15.45.22.75.12.56.15.77.02.39,0,.53c-.02.15-.07.25-.12.33-.06.07-.13.12-.22.14l-6.03,1.46,1.77,7.32c.03.11.02.22-.02.31-.04.1-.13.19-.28.28-.14.09-.34.19-.58.28-.25.09-.57.18-.96.28-.38.09-.71.16-.97.19-.27.03-.48.04-.65.02-.17-.02-.29-.06-.38-.13-.09-.06-.14-.15-.17-.26l-4.3-17.82c-.11-.45-.07-.79.11-1.05.18-.25.44-.42.77-.5l9.25-2.23c.09-.02.18-.01.26.02.08.04.17.12.26.23.09.11.17.27.24.48.08.21.15.46.22.77Z"/>
      <path class="cls-2" d="m1324.74,406.16c.03.1.02.2-.02.3-.04.1-.13.19-.27.28-.14.09-.33.19-.57.29s-.56.2-.95.31c-.38.1-.71.18-.97.22s-.48.06-.64.05c-.16,0-.29-.04-.38-.11-.09-.06-.14-.14-.17-.24l-5.03-18.42c-.03-.1-.02-.2.02-.3.04-.1.14-.19.28-.29.14-.09.33-.19.58-.29s.56-.2.94-.3c.39-.11.72-.18.98-.22.26-.04.47-.05.64-.04.16,0,.29.04.38.11.09.06.14.14.17.25l5.03,18.42Z"/>
      <path class="cls-2" d="m1336.95,383.75c.09.29.15.54.19.75.04.21.05.39.04.53-.01.14-.04.25-.1.33s-.13.14-.22.17l-4.84,1.49,4.79,15.58c.03.1.03.2-.01.3s-.13.2-.26.29c-.13.1-.32.2-.57.3-.25.11-.56.22-.93.34-.38.12-.7.2-.96.25-.26.05-.48.07-.64.07-.16,0-.29-.04-.38-.1-.09-.06-.15-.14-.18-.24l-4.79-15.58-4.84,1.49c-.1.03-.19.03-.28-.01-.09-.04-.18-.11-.26-.22-.09-.11-.18-.26-.26-.46-.09-.2-.18-.44-.26-.73-.09-.3-.16-.56-.2-.77-.04-.22-.05-.4-.04-.54s.04-.25.1-.32.13-.13.23-.16l13.62-4.18c.09-.03.18-.03.27,0,.09.03.18.1.27.21.09.11.18.26.27.47.09.2.18.45.27.75Z"/>
      <path class="cls-2" d="m1361.38,387.81c.4.99.56,1.93.49,2.82s-.32,1.71-.75,2.46c-.43.75-1.01,1.42-1.75,2.01-.74.59-1.59,1.07-2.55,1.46-.65.26-1.27.45-1.87.56s-1.14.18-1.63.21c-.49.02-.9,0-1.25-.04-.35-.05-.62-.11-.79-.19s-.34-.22-.49-.44c-.15-.22-.31-.55-.49-.99-.12-.3-.21-.55-.27-.77-.06-.21-.1-.39-.1-.53,0-.14.02-.26.07-.34.05-.08.12-.14.22-.18.14-.05.36-.05.67,0,.31.06.7.11,1.16.15s1,.03,1.6-.03c.6-.05,1.25-.22,1.96-.51.46-.19.86-.41,1.18-.67.32-.26.57-.54.75-.85.17-.31.27-.63.29-.99.01-.35-.05-.71-.2-1.08-.17-.43-.43-.74-.79-.96-.35-.21-.76-.36-1.23-.45-.47-.09-.98-.14-1.54-.16-.56-.02-1.13-.04-1.73-.07s-1.19-.1-1.78-.2c-.59-.11-1.16-.29-1.69-.55s-1.03-.63-1.49-1.09c-.46-.47-.84-1.09-1.16-1.88-.36-.9-.51-1.76-.45-2.57s.28-1.56.67-2.24c.39-.68.92-1.28,1.6-1.81s1.45-.97,2.31-1.31c.44-.18.9-.32,1.38-.43.47-.11.92-.19,1.36-.22.43-.04.83-.05,1.19-.02.36.03.6.07.74.12.13.06.23.11.29.17.06.05.13.13.2.23.07.1.14.24.22.4s.17.37.27.62c.11.28.2.52.26.72.06.2.1.37.12.51.02.14,0,.25-.04.33s-.11.15-.22.19c-.11.04-.3.04-.59,0-.29-.04-.63-.08-1.03-.1-.4-.02-.85-.01-1.35.04-.5.05-1.01.18-1.54.39-.42.17-.76.36-1.03.59-.27.23-.47.47-.61.73-.14.26-.21.54-.21.83,0,.29.06.58.17.86.17.42.42.73.77.94.35.21.76.36,1.24.45.48.08,1,.13,1.57.15.57.01,1.15.04,1.74.07.6.03,1.19.1,1.8.2.6.1,1.17.28,1.71.54.54.26,1.04.62,1.5,1.08s.83,1.07,1.14,1.83Z"/>
      <path class="cls-2" d="m1370.44,389.68c.04.09.05.19.02.3s-.1.21-.22.32-.29.23-.52.37c-.23.13-.52.28-.89.45-.36.16-.67.28-.93.36-.26.08-.46.13-.63.14s-.29,0-.39-.05-.17-.12-.21-.22l-7.75-17.45c-.04-.1-.05-.19-.02-.3.03-.1.11-.21.23-.33.13-.11.3-.24.53-.37.22-.13.52-.28.88-.44.37-.17.68-.29.93-.36.25-.08.46-.12.62-.14.16-.02.29,0,.39.05s.17.12.21.22l7.75,17.45Z"/>
      <path class="cls-2" d="m1387.09,381.01c.32.25.56.47.7.64.14.17.18.34.12.5s-.24.32-.53.48c-.29.17-.69.37-1.22.62-.44.21-.8.36-1.06.46-.26.1-.48.16-.65.19-.17.03-.3.02-.4-.03-.1-.04-.2-.11-.3-.21l-6.51-5.03-.37,8.21c0,.14-.02.26-.05.37s-.11.21-.24.32-.32.24-.57.37c-.25.14-.59.31-1.01.5-.49.23-.88.39-1.16.49-.28.1-.5.11-.64.05-.14-.06-.23-.2-.27-.43-.04-.23-.04-.54-.01-.96l.69-10.04-7.57-5.64c-.33-.26-.57-.48-.72-.66-.16-.17-.2-.34-.14-.49s.24-.3.52-.46.69-.36,1.23-.61c.44-.21.8-.36,1.07-.46.27-.1.49-.17.66-.19s.3-.02.4.03c.1.05.2.11.31.2l6.03,4.58.33-7.52c0-.14.02-.26.05-.37.03-.1.1-.21.22-.32.12-.11.29-.22.52-.35.23-.13.56-.29.99-.49.47-.22.85-.38,1.14-.48s.5-.13.66-.07c.15.06.25.2.29.42s.06.54.05.96l-.62,9.38,8.08,6.04Z"/>
      <path class="cls-2" d="m1401.12,373.51c.14.27.25.49.33.68.07.19.12.35.13.49s0,.25-.04.33c-.04.09-.1.15-.19.2l-8.94,4.83c-.3.16-.61.21-.91.14s-.56-.3-.78-.71l-8.38-15.51c-.22-.4-.27-.75-.16-1.04.11-.29.32-.52.62-.68l8.88-4.8c.08-.04.17-.06.26-.05.09.01.19.06.29.15s.22.22.34.38c.12.17.25.39.4.66.14.26.24.48.32.67.07.19.12.35.13.49.01.13,0,.25-.03.33-.04.08-.1.15-.18.19l-6.35,3.43,2.35,4.34,5.38-2.9c.08-.04.17-.06.27-.05.1.01.2.06.3.14.1.08.21.2.33.37.12.17.25.38.39.63.14.27.25.49.32.68s.11.34.12.47c.01.13,0,.24-.05.32s-.11.15-.19.19l-5.38,2.9,2.71,5.02,6.41-3.46c.08-.04.17-.06.27-.05.1.01.2.06.3.15.11.08.22.21.34.38.12.17.25.38.39.65Z"/>
      <path class="cls-2" d="m1412.24,361.65c.54.91.85,1.82.92,2.71.07.89-.05,1.74-.36,2.55-.31.81-.78,1.56-1.43,2.25s-1.41,1.3-2.29,1.83c-.6.36-1.19.64-1.76.84-.57.21-1.1.36-1.58.45s-.89.14-1.25.15c-.36,0-.62-.02-.81-.06-.19-.05-.37-.17-.55-.36-.18-.19-.39-.49-.63-.9-.17-.28-.29-.52-.39-.72-.09-.2-.15-.37-.18-.51-.03-.14-.02-.25.01-.34s.1-.16.19-.21c.12-.07.35-.1.66-.09.32.01.71,0,1.17-.03.46-.03.99-.12,1.57-.27.58-.15,1.2-.41,1.86-.8.43-.25.79-.53,1.07-.84.28-.3.48-.62.61-.95s.17-.67.13-1.02c-.04-.35-.16-.7-.36-1.04-.23-.39-.54-.67-.92-.82-.38-.15-.81-.24-1.29-.25-.47-.01-.99.01-1.54.08-.55.07-1.13.13-1.72.19-.59.06-1.19.08-1.79.07-.6-.01-1.19-.11-1.76-.29-.57-.18-1.12-.46-1.64-.85-.52-.39-1-.95-1.43-1.68-.49-.83-.77-1.66-.84-2.47-.07-.81.04-1.59.32-2.31.28-.73.71-1.4,1.3-2.03.59-.63,1.28-1.18,2.08-1.65.41-.24.84-.46,1.29-.64.45-.18.88-.32,1.31-.43.42-.1.81-.17,1.17-.2s.61-.03.75,0,.25.08.32.12c.07.04.14.11.23.2s.18.21.28.36c.1.15.22.34.36.58.15.26.28.48.37.67s.16.35.2.48c.04.13.04.25.02.33-.03.09-.09.16-.19.22-.1.06-.29.09-.58.09-.29,0-.63.02-1.04.06s-.84.12-1.33.24c-.48.12-.97.33-1.46.62-.39.23-.69.47-.92.74-.23.26-.39.54-.49.82-.09.28-.12.56-.08.85.04.29.14.56.3.82.23.39.53.66.91.81.38.16.81.24,1.29.25.48.01,1.01-.02,1.57-.09.56-.07,1.14-.14,1.73-.2.59-.06,1.2-.09,1.81-.08.61,0,1.2.1,1.78.27s1.12.46,1.64.84c.52.39.99.93,1.4,1.63Z"/>
    </g>
    <g class="cls-5">
      <path class="cls-3" d="m1414.65,545.22c-1.05,0-2.08.16-3.05.84h-30.39c-1.12-.66-2.32-.78-3.54-.78-.68,0-1.37.04-2.06.04-3.29-.47-6.59-.89-9.87-1.43-8.14-1.35-16.19-3.09-24.16-5.29-15.05-4.15-29.55-9.81-43.88-15.93-3.18-1.36-6.2-3.08-9.33-4.57-18.42-8.77-36.05-18.99-53.6-29.36-20.18-11.93-40.49-23.63-61.38-34.29-5.22-2.65-10.62-4.94-16-7.28-14.07-6.11-28.57-10.99-43.46-14.64-9.04-2.22-18.2-3.86-27.47-4.96-8.69-1.03-17.39-1.49-26.09-1.49-3.54,0-7.07.08-10.61.22-7.71.31-15.45.71-23.11,1.6-12.81,1.49-25.63,3.02-38.36,5.22-11.93,2.06-23.91,3.83-35.88,5.6-5.13.77-10.31,1.21-15.47,1.82-3.83.45-7.65,1.03-11.49,1.38-4.64.42-9.29.84-13.94.93-2.29.04-4.58.06-6.87.06-3.36,0-6.73-.03-10.09-.03-1.94,0-3.88.01-5.83.04-.33,0-.66.01-.99.01-5.68,0-11.27-.78-16.91-1.29-8.01-.72-15.75-2.68-23.47-4.65-6.16-1.58-12.19-3.83-18.11-6.19-9.17-3.65-17.9-8.23-26.26-13.49-7.45-4.68-14.54-9.86-21.43-15.34-9.6-7.64-18.58-15.98-27.83-24.01-2.19-1.91-4.12-4.07-6.28-6.01-2.08-1.87-4.16-3.74-6.19-5.67-11.03-10.44-22.29-20.64-34.31-29.94-5.78-4.48-11.88-8.56-17.97-12.63-6.88-4.59-14.24-8.38-21.68-11.95-7.33-3.5-14.99-6.25-22.8-8.49-10.12-2.91-20.42-4.9-30.91-6.03-3.46-.38-6.89-.57-10.35-.57h-1.38c-2.46,0-4.93.01-7.39.01-1.88,0-3.75-.01-5.63-.03-.76-.01-1.52-.01-2.28-.01-7.76,0-15.48.46-23.22,1.34-8.48.96-16.89,2.29-25.22,3.98-11.47,2.33-22.91,4.89-34.22,7.86-20.34,5.33-40.61,10.93-60.85,16.62-18.07,5.09-36.36,9.25-54.75,12.96-4.56.92-9.22,1.31-13.82,2.06-8.02,1.31-16.11,1.85-24.21,2.53-4.45.37-8.91.47-13.37.47s-8.68-.09-13.02-.09h-.44c-3.82,0-7.63-.64-11.45-1.01-3.18-.31-6.37-.54-9.53-.99-6.59-.94-13.16-1.97-19.72-3.01-18.28-2.89-36.32-6.97-54.5-10.36-6.01-1.12-12.1-1.86-18.15-2.78-1.71-.26-3.41-.6-5.13-.77-5.82-.6-11.66-1.04-17.47-1.73-3.5-.43-7-.53-10.51-.53-3.09,0-6.19.08-9.28.08h-1.13c-2.46,0-4.92.43-7.39.69-7.56.78-15.07,1.94-22.35,4.09-9.99,2.97-19.5,7.02-27.89,13.46-5.19,3.98-10.17,8.16-14.95,12.62-8.57,8-16.95,16.19-25.35,24.36-7.16,6.96-14.82,13.4-23.04,19.12-8.89,6.19-18.25,11.46-28.52,15.03-5.56,1.92-11.29,3.03-17.07,3.93v40.48l6.16-.96c6.47-1.01,15.04-2.56,23.97-5.64l.04-.02h.04c12.82-4.46,25.33-11,38.24-20,9.65-6.71,19.09-14.54,28.07-23.26l2.42-2.36c7.66-7.45,14.89-14.49,22.34-21.44,3.72-3.47,7.64-6.78,12-10.12,3.49-2.68,8.22-4.86,14.88-6.84,1.96-.58,4.13-1.08,6.62-1.52,2.49-.43,5.3-.81,8.5-1.14,1.01-.11,2.03-.23,3.04-.36.31-.04.69-.08.99-.12h.38c1.72,0,3.43-.02,5.14-.04,1.38-.02,2.76-.04,4.14-.04,1.62,0,3.97.03,5.69.24h.11c4.06.49,7.93.85,11.68,1.19,2.21.21,4.3.4,6.34.61.35.05.7.12,1.05.17.74.13,1.49.25,2.23.36,2.07.32,4.15.61,6.22.91,3.8.54,7.38,1.05,10.61,1.65,6.4,1.19,12.74,2.47,19.44,3.81,11.68,2.35,23.76,4.78,36.15,6.74,6.42,1.02,13.3,2.1,20.32,3.1,3.33.47,6.36.75,9.03.99.75.07,1.51.14,2.27.21.75.07,1.65.18,2.61.29,3.24.38,7.68.91,12.71.91h.44c2.03,0,4.07.02,6.1.04,2.24.02,4.55.05,6.92.05,6.57,0,11.72-.19,16.72-.61,1.2-.1,2.4-.2,3.6-.3,7.53-.61,15.32-1.24,23.71-2.61,1.22-.2,2.73-.4,4.33-.61,3.23-.42,6.88-.9,10.96-1.72,22.02-4.44,40.35-8.79,57.68-13.67,24.2-6.8,42.76-11.87,60.14-16.43,9.57-2.51,20.05-4.91,32.05-7.35,7.17-1.46,14.49-2.61,21.75-3.44,6.35-.72,12.64-1.08,18.72-1.08.6,0,1.21,0,1.82.01,1.77.02,3.72.03,6.08.03,1.27,0,2.53,0,3.8-.01h4.98c2,0,3.96.11,5.98.33h.09c8.26.9,16.38,2.48,24.14,4.71,6.33,1.82,11.75,3.82,16.61,6.14,5.36,2.57,11.54,5.67,16.72,9.13,5.63,3.76,10.97,7.33,15.67,10.97,11.57,8.95,22.32,18.86,31.32,27.38,2.4,2.28,4.69,4.34,6.91,6.33h.01s.04.05.04.05c.25.22.94.91,1.44,1.41,1.39,1.38,3.11,3.1,5.27,4.98l.04.03.03.03c2.67,2.32,5.32,4.67,8.12,7.15,6.65,5.89,13.53,11.99,21.03,17.96,8.73,6.95,16.93,12.8,25.06,17.91,10.75,6.77,21.77,12.42,32.74,16.78,6.54,2.61,14.39,5.58,22.96,7.77h.03s.02.02.02.02c8.24,2.1,18.48,4.71,29.78,5.73,1.25.11,2.53.24,3.81.38,4.87.5,10.4,1.07,16.68,1.07.55,0,1.11-.01,1.66-.02,1.5-.02,3.15-.03,5.16-.03,1.62,0,3.25.01,4.87.01,1.74.01,3.48.02,5.22.02,2.93,0,5.36-.02,7.67-.07,6.05-.12,11.74-.63,16.75-1.08,3.24-.3,6.25-.69,8.9-1.03,1.22-.16,2.44-.32,3.65-.47,1.63-.19,3.23-.36,4.83-.53,3.59-.38,7.66-.82,11.89-1.45l.11-.02c11.95-1.77,24.31-3.59,36.66-5.72,11.41-1.98,23.13-3.39,36.18-4.91,6.44-.75,13.46-1.1,20.09-1.36,3.05-.13,6.08-.19,9-.19,7.43,0,14.63.41,21.38,1.21,7.72.92,15.34,2.29,22.64,4.08,12.69,3.11,25.15,7.31,37.07,12.49l1.93.84c4.31,1.86,8.38,3.63,11.9,5.42,20.69,10.56,40.65,22.13,59.13,33.05,17.72,10.47,36.69,21.49,56.76,31.04.71.34,1.64.82,2.62,1.32,2.22,1.14,4.98,2.55,8.18,3.92,12.95,5.53,30.21,12.54,48.97,17.71,9.06,2.5,18.57,4.58,28.25,6.19,2.86.47,5.48.83,8.01,1.18.24.04.48.07.73.1l2.43,1.43h53.91l2.34-1.65c.44-.06.87-.12,1.31-.18,3.88-.54,8.05-1.13,12.46-1.96v-41c-7.57,2.11-15.38,2.91-23.13,4.08-.86-.02-1.74-.13-2.61-.13Z"/>
    </g>
  </g>
</svg>