<svg xmlns="http://www.w3.org/2000/svg" id="Abstract_02" data-name="Abstract 02" viewBox="45.43 25.18 709.61 953.37">
  <defs>
    <style>
      .cls-1 {
        stroke-dasharray: 0 0 12.06 12.06;
      }

      .cls-1, .cls-2, .cls-3, .cls-4, .cls-5, .cls-6, .cls-7, .cls-8, .cls-9, .cls-10 {
        fill: none;
        stroke: #fff;
        stroke-miterlimit: 10;
      }

      .cls-2, .cls-4 {
        stroke-dasharray: 0 12;
      }

      .cls-2, .cls-11 {
        opacity: .6;
      }

      .cls-3 {
        stroke-dasharray: 0 0 11.97 11.97;
      }

      .cls-4, .cls-12, .cls-13 {
        opacity: .39;
      }

      .cls-14, .cls-13, .cls-11 {
        fill: #feb63a;
      }

      .cls-6 {
        font-size: 42.63px;
      }

      .cls-6, .cls-8 {
        font-family: Calibri-Bold, Calibri;
        font-weight: 700;
      }

      .cls-7 {
        stroke-dasharray: 0 0 12.04 12.04;
      }

      .cls-8 {
        font-size: 47.71px;
      }

      .cls-9 {
        stroke-dasharray: 0 0 11.99 11.99;
      }

      .cls-10 {
        stroke-dasharray: 0 0 11.92 11.92;
      }
    </style>
  </defs>
  <path class="cls-14" d="M749.36,68.94h1.86v92.23l-15.84,13.04-6.06,5.12-5.12,4.19-4.19,4.19-3.73,3.26-7.92,7.45-21.43,21.43-3.26,3.73-5.59,6.06-6.06,6.99-5.59,6.52-3.73,4.66-5.12,6.52-6.52,8.38-6.52,8.85-6.06,8.38-12.11,18.17-6.52,10.25-7.92,13.51-5.59,9.78-6.52,12.11-4.19,7.92-5.12,10.71-6.52,13.51-8.38,20.03-6.52,16.77-4.66,13.04-5.12,15.37-4.66,15.37-5.59,20.5-1.86,7.92-2.33,9.32-1.4,7.92-1.86,6.52-2.79,17.24-1.4,6.06-2.33,15.37-1.86,12.58-2.33,19.56-.93,12.11-.47,9.32v9.32l-1.4,20.96,.93,.47h-.93v5.12l.47,.47v7.45l-.47,8.38,.93,.47v2.79l-.93-1.86-.47-.47v3.26l1.4,.47v13.97l.47,4.19,.47,10.71,1.86,22.83,2.33,20.96,2.79,18.63,3.26,18.63,3.73,18.17,3.26,14.44,5.59,20.96,3.73,12.58,4.19,13.51,7.92,22.36,5.12,13.04,6.06,14.44,6.99,15.37,5.59,11.65,5.12,10.25,6.06,10.71,5.12,9.32,4.66,7.45,5.59,9.32,3.73,5.59v.47H127.49v-9.32l-.47-4.19v-31.21l.47-11.65v-13.04l1.86-23.29,1.4-13.97,.47-9.32,2.33-19.56,2.79-23.76,3.26-22.36,3.73-18.63,2.33-12.58,2.33-9.78,2.33-11.65,1.86-7.45,2.33-9.78,6.06-23.29,5.12-17.24,2.79-9.32,6.99-21.89,6.99-20.03,6.99-18.63,8.38-20.96,5.12-12.11,5.12-11.65,6.99-15.37,7.92-16.3,9.32-18.63,4.66-8.85,7.45-13.51,6.52-11.65,5.59-9.32,2.33-4.19,2.79-4.19,2.79-5.12,5.59-8.85,4.66-7.45,13.04-19.56,5.12-7.45,3.26-4.66,3.73-5.12,1.4-2.33,3.73-5.12,2.79-3.73,3.73-5.12,12.11-15.84,4.66-6.06,4.19-5.12,3.73-4.66,6.52-7.92,4.19-5.12,5.12-6.06,6.06-6.99,5.12-5.59,4.19-5.12,3.73-3.73,3.26-3.73,6.52-6.99,6.99-7.45,6.99-6.99,.47-.93h.93l.93-1.86,10.25-10.25,3.73-3.26,8.38-8.38,3.73-3.26,6.99-6.52,1.86-1.4h.93l.47-1.86,6.06-5.12,4.66-4.19,3.73-3.26,6.52-5.12,2.33-2.33,5.12-4.66,4.19-3.26,6.06-5.12,19.56-15.37,2.33-2.33,1.86-.93,.47-.93,1.86-.47,1.86-1.86,2.33-1.86,1.4-1.4,2.33-.93,1.86-1.86h.93v-.93l2.79-1.4,1.4-1.4,1.4-.47,1.4-1.4,1.4-.47,.93-1.4,1.4-.47,.47-1.4,2.33-.47,.47-1.4,2.33-.93v-.93l2.33-.47,.47-1.4,3.26-1.4,2.33-1.4,.93-1.4,1.86-.47,.47-1.4,2.33-.47,.47-1.4,2.79-.47v-1.4l2.79-.47v-1.4l2.79-.93,1.4-1.4,1.4-.47,.93-1.4h2.33l.47-1.86,1.86-.47,.47-1.4,3.26-.93,.47-.93,2.79-.47v-1.4l2.79-.47v-1.4l3.26-.47v-1.86l2.79-.47,.47-1.4h2.79v-1.86h3.26v-1.86l2.79-.47,.47-1.4,2.33-.47,.47-1.4,2.79-.47,.47-1.4,3.26-.93v-.93l3.26-.47v-1.86h3.73l-.47-1.86,3.26-.47,.47-1.4,2.79-.47,.93-1.4,2.33-.47,1.4-1.4,2.33-.47,.47-1.4h2.79l.47-1.4,2.79-.93,.47-1.4,3.26-.47v-1.4l3.26-.47,.47-1.4,3.26-.47,.47-1.4,3.26-.93v-.93l3.73-.47v-1.4l3.26-.93,.93-.93,2.79-.47,.93-1.4,2.79-.47,.93-1.4,3.26-.47v-.93l3.26-1.4,.93-.93,3.26-.47,.47-1.4,3.26-.47v-.93l3.73-.93,.47-1.4,3.73-.47v-.93l3.73-.93,1.4-1.4,2.79-.47v-.93l3.73-.93,.47-.93,3.73-1.4v-.47l4.19-.47v-1.4l4.19-.47,.47-1.4,3.73-.93,.47-.93,3.73-.93,.47-.93,4.19-.47v-.93l5.59-2.33,3.26-.47v-.93l3.73-.93,.47-.93,4.19-.47v-1.4l4.66-.47,.47-1.4,4.19-.47v-.93l4.19-.93,.47-.93,4.19-.47,.47-1.4,5.59-1.4,.47-.47Zm-248.75,305.58l.47,.93-.47-.93Zm-52.64,14.44l.47,.93-.47-.93Zm90.83,5.12l.47,.93-.47-.93Zm-62.89,2.33l.47,.93-.47-.93Zm60.09,3.73l.47,.93-.47-.93Zm-38.2,.93l.47,.93-.47-.93Zm51.24,2.79l.47,.93-.47-.93Zm-15.84,2.79l-.47,.93h.93l-.47-.93Zm-40.53,5.12l.47,.93-.47-.93Zm53.1,.47l.47,.93-.47-.93Zm-42.39,.47l.47,.93-.47-.93Zm46.58,0l.47,.93-.47-.93Zm-109,.47l.47,.93-.47-.93Zm93.16,2.33l.47,.93-.47-.93Zm8.85,3.26l.47,.93-.47-.93Zm-96.89,10.25l.47,.93-.47-.93Zm-21.43,15.84l.47,.93-.47-.93Zm13.04,1.4l.47,.93-.47-.93Zm-2.79,6.06l.47,.93-.47-.93Zm23.76,6.99l.47,.93-.47-.93Zm-29.81,6.06l.47,.93-.47-.93Zm27.95,33.07l.47,1.86-.47-1.86Zm-29.35,5.12l.47,.93-.47-.93Zm-86.64,2.33l.47,.93-.47-.93Zm45.18,8.85l.47,.93-.47-.93Zm51.24,.47v2.79h.47v-2.79h-.47Zm-3.26,11.18l.47,1.4-.47-1.4Zm-16.3,6.52l.47,1.4-.47-1.4Zm-55.9,2.79l.47,.93-.47-.93Zm81.98,4.19l.47,.93-.47-.93Zm-28.88,.93l.47,.93-.47-.93Zm41.92,.93l.47,.93-.47-.93Zm55.9,.47l.47,.93-.47-.93Zm-98.29,1.4l.47,.93-.47-.93Zm80.12,1.4l.47,1.86-.47-1.86Zm17.7,1.86l.47,.93-.47-.93Zm-84.78,.93l.47,.93-.47-.93Zm66.61,1.4v2.79h.47v-2.79h-.47Zm-6.99,2.79v2.79h.47v-2.79h-.47Zm-91.3,1.4l.47,1.4-.47-1.4Zm97.82,0l.47,1.86-.47-1.86Zm-82.45,.93l.47,1.4-.47-1.4Zm93.63,0v2.33h.47v-2.33h-.47Zm6.52,1.4l.47,1.4-.47-1.4Zm-58.23,.93l.47,1.4-.47-1.4Zm20.03,0l.47,1.86,.47-1.86h-.93Zm13.51,.93v2.79h.47v-2.79h-.47Zm17.7,1.86l.47,1.4-.47-1.4Zm-80.59,1.4l.47,1.4-.47-1.4Zm-46.58,1.86l.47,.93-.47-.93Zm95.49,.93v2.33h.47v-2.33h-.47Zm-95.96,.47l.47,1.4-.47-1.4Zm31.21,0l.47,1.4-.47-1.4Zm-15.84,3.26l.47,1.4-.47-1.4Zm15.37,.93l.47,.93-.47-.93Zm82.45,3.73l.47,.93-.47-.93Zm-.47,2.79v2.33h.47v-2.33h-.47Zm-69.41,.47l.47,1.4-.47-1.4Zm-31.21,1.4v2.33h.47v-2.33h-.47Zm93.63,1.4l.47,.93-.47-.93Zm-118.32,.47l.47,1.4-.47-1.4Zm91.3,0l.47,.93-.47-.93Zm-51.24,.93l.47,1.86-.47-1.86Zm84.78,.47l.47,.93-.47-.93Zm-62.89,.93l.47,.93-.47-.93Zm42.86,0l.47,.93-.47-.93Zm13.04,1.4l.47,1.4-.47-1.4Zm-13.51,1.4v2.33h.47v-2.33h-.47Zm-13.51,.47v2.33h.47v-2.33h-.47Zm-84.78,.47l.47,.93-.47-.93Zm55.43,2.79l.47,1.4-.47-1.4Zm-64.75,.47v2.33h.47v-2.33h-.47Zm8.85,0l.47,1.86-.47-1.86Zm98.29,0l.47,1.4-.47-1.4Zm-35.87,.47l.47,.93-.47-.93Zm22.36,.47l.47,.93-.47-.93Zm-69.41,1.86v4.19h.47v-4.19h-.47Zm15.37,2.79l.47,1.4-.47-1.4Zm31.21,.93l.47,1.86-.47-1.86Zm35.4,2.79l.47,1.4-.47-1.4Zm-67.08,1.4l.47,.93-.47-.93Zm-42.39,1.4l.47,.93-.47-.93Zm8.85,0v2.33h.47v-2.33h-.47Zm-27.48,6.06l.47,.93-.47-.93Zm42.39,.47l.47,.93-.47-.93Zm68.94,2.79l.47,.93-.47-.93Zm-69.41,1.86l.47,1.4-.47-1.4Zm-18.17,1.4v4.66h.47v-4.66h-.47Zm49.38,.47l.47,.93-.47-.93Zm-15.84,1.4l.47,.93-.47-.93Zm31.21,.47l.47,1.4-.47-1.4Zm15.37,.93l.47,1.86-.47-1.86Zm-107.14,2.33l.47,1.4-.47-1.4Zm60.09,0l.47,1.4-.47-1.4Zm-18.17,4.66l.47,.93-.47-.93Zm33.07,2.33l.47,.93-.47-.93Zm-33.54,.93l.47,1.86-.47-1.86Zm48.91,.93l.47,.93-.47-.93Zm-67.08,1.86l.47,.93-.47-.93Zm-27.02,.93l.47,1.4-.47-1.4Zm18.17,0l.47,.93-.47-.93Zm41.92,3.73l.47,1.4-.47-1.4Zm-.47,4.19v2.33h.47v-2.33h-.47Zm-.47,4.66v2.33h.47v-2.33h-.47Zm-18.17,3.73l.47,1.86-.47-1.86Zm17.7,.47v2.33h.47v-2.33h-.47Zm15.84,0l.47,.93-.47-.93Zm-60.56,2.33l.47,.93-.47-.93Zm8.85,.47l.47,1.4-.47-1.4Zm17.7,.93v3.26h.47v-3.26h-.47Zm33.54,0l.47,1.4-.47-1.4Zm-78.26,1.4l.47,1.86-.47-1.86Zm26.55,1.86v3.26h.47v-3.26h-.47Zm17.7,1.4v3.26h.47v-3.26h-.47Zm-27.02,2.79l.47,1.4-.47-1.4Zm8.85,.47v2.33h.47v-2.33h-.47Zm17.7,.47l.47,.93-.47-.93Zm33.54,1.4l.47,1.86-.47-1.86Zm-118.78,4.66l.47,1.86-.47-1.86Zm37.73,.47l.47,1.86-.47-1.86Zm136.02,1.4l.47,1.86-.47-1.86Zm-136.49,4.66v4.19h.47v-4.19h-.47Zm136.02,0v2.33h.47v-2.33h-.47Zm-165.37,3.73l.47,.93-.47-.93Zm-51.24,.93l.47,.93-.47-.93Zm216.14,.47l.47,.93-.47-.93Zm-109.47,1.86v2.33h.47v-2.33h-.47Zm-107.14,1.4l.47,1.86-.47-1.86Zm216.14,.47v3.26h.47v-3.26h-.47Zm-73.6,1.86l.47,1.4-.47-1.4Zm-18.17,2.79l.47,1.4-.47-1.4Zm-84.78,.47l.47,1.86-.47-1.86Zm153.72,.93v2.33h.47v-2.33h-.47Zm-185.4,3.26l.47,1.4-.47-1.4Zm160.71,0l.47,1.4-.47-1.4Zm-44.72,.93l.47,1.86-.47-1.86Zm68.94,.47v3.26h.47v-3.26h-.47Zm-51.24,.47l.47,.93-.47-.93Zm-64.75,.47l.47,.93-.47-.93Zm91.3,.93l.47,1.86-.47-1.86Zm-171.89,1.86l.47,1.4-.47-1.4Zm196.11,.47l.47,1.4-.47-1.4Zm-144.87,.47v2.33h.47v-2.33h-.47Zm120.18,2.33l.47,1.4-.47-1.4Zm48.91,.93l.47,1.4-.47-1.4Zm-180.74,1.4l.47,.93-.47-.93Zm164.9,.47l.47,1.4-.47-1.4Zm-124.84,.47l.47,1.4-.47-1.4Zm140.21,1.86l.47,1.4-.47-1.4Zm-40.06,.47l.47,1.86-.47-1.86Zm-53.57,.47l.47,.93-.47-.93Zm-118.32,.47v2.33h.47v-2.33h-.47Zm71.27,0l.47,1.86-.47-1.86Zm124.84,0v2.79h.47v-2.79h-.47Zm-24.69,2.79v2.33h.47v-2.33h-.47Zm-183.07,.93l.47,1.86-.47-1.86Zm147.2,.47l.47,.93-.47-.93Zm-64.75,.47l.47,.93-.47-.93Zm-71.27,.47v2.33h.47v-2.33h-.47Zm31.21,0l.47,1.86-.47-1.86Zm164.9,.47v2.79h.47v-2.79h-.47Zm-24.69,1.4l.47,1.4-.47-1.4Zm-183.07,2.79v3.26h.47v-3.26h-.47Zm182.6,1.86l.47,1.4-.47-1.4Zm-205.43,3.26v2.33h.47v-2.33h-.47Zm204.96,0l.47,.93-.47-.93Zm-238.97,5.12l.47,1.4-.47-1.4Zm265.05,.93v2.33h.47v-2.33h-.47Zm-8.85,1.86l.47,1.86-.47-1.86Zm-191.92,.93l.47,1.86-.47-1.86Zm120.18,2.33l.47,1.4-.47-1.4Zm-120.65,2.79v4.19h.47v-4.19h-.47Zm-11.18,.93l.47,1.4-.47-1.4Zm169.09,2.33l.47,1.4-.47-1.4Zm-169.56,1.4v2.33h.47v-2.33h-.47Zm151.39,1.4v2.79h.47l.47-2.79h-.93Zm17.7,1.86v3.73h.47v-3.73h-.47Zm-18.17,2.79v2.79h.47v-2.79h-.47Zm-37.73,.47l.47,1.86-.47-1.86Zm-.47,4.19l.47,1.86-.47-1.86Zm37.73,1.4v3.73h.47v-3.73h-.47Zm80.12,.93l.47,.93-.47-.93Zm-118.32,2.33l.47,.93-.47-.93Zm-.47,3.73l.47,.93-.47-.93Zm20.03,.47v2.33h.47v-2.33h-.47Zm-124.84,.47l.47,1.4-.47-1.4Zm162.57,.93l.47,.93-.47-.93Zm-38.2,2.79v3.73h.47v-3.73h-.47Zm-124.84,2.33l.47,.93-.47-.93Zm-67.08,.93l.47,.93-.47-.93Zm171.42,1.4l.47,1.86-.47-1.86Zm20.03,.47v4.66h.47v-4.66h-.47Zm-29.35,3.73v2.33h.47v-2.33h-.47Zm-.47,4.19v2.79h.47v-2.79h-.47Zm131.36,2.79l.47,.93-.47-.93Zm-131.83,1.86v3.26h.47v-3.26h-.47Zm-20.5,4.19v2.79h.47v-2.79h-.47Zm20.03,.47v3.26h.47v-3.26h-.47Zm30.74,.93l.47,.93-.47-.93Zm-20.03,2.33v3.26h.47v-3.26h-.47Zm-31.21,.93v3.26h.47v-3.26h-.47Zm71.27,0l.47,.93-.47-.93Zm124.84,1.4l.47,.93-.47-.93Zm-196.58,3.26v2.33h.47v-2.33h-.47Zm31.21,.93v3.26h.47v-3.26h-.47Zm189.59,0l.47,1.4-.47-1.4Zm-221.26,3.73v2.33h.47v-2.33h-.47Zm-31.68,5.12l.47,1.86-.47-1.86Zm53.1,2.79v3.73h.47v-3.73h-.47Zm-53.57,1.86v2.79h.47v-2.79h-.47Zm256.2,.47v.93h.93v-.93h-.93Zm-22.36,4.66l.47,.93-.47-.93Zm8.38,2.79l.47,1.4-.47-1.4Zm-243.16,1.4l.47,.93-.47-.93Zm33.07,1.86v6.06h.47v-6.06h-.47Zm73.6,1.4l.47,.93-.47-.93Zm-107.14,1.4l.47,.93-.47-.93Zm262.72,5.12l.47,1.4-.47-1.4Zm-40.53,4.66l.47,.93-.47-.93Zm-114.13,2.33l.47,.93-.47-.93Zm140.68,.47l.47,.93-.47-.93Zm-161.17,1.86l.47,1.4-.47-1.4Zm136.02,2.33l.47,.93-.47-.93Zm42.39,0l.47,.93-.47-.93Zm-24.69,1.86l.47,.93-.47-.93Zm8.85,.93l.47,.93-.47-.93Zm-261.33,.47v2.79h.47v-2.79h-.47Zm140.68,.47l.47,1.86-.47-1.86Zm-95.96,1.86l.47,1.86-.47-1.86Zm-33.54,.47v4.66h.47v-4.66h-.47Zm225.46,0l.47,.93-.47-.93Zm-116.46,2.33l.47,1.4-.47-1.4Zm160.24,2.79l.47,.93-.47-.93Zm-280.89,.47v2.79h.47v-2.79h-.47Zm256.2,1.86l.47,.93-.47-.93Zm8.85,.47l.47,.93-.47-.93Zm-53.57,1.4l.47,.93-.47-.93Zm-132.29,4.19l.47,.93-.47-.93Zm151.86,0l.47,.93-.47-.93Zm-18.17,2.79l.47,.93,.47-.93h-.93Zm-247.82,2.33v3.73h.47v-3.73h-.47Zm294.4,0l.47,.93-.47-.93Zm8.85,.47l.47,.93-.47-.93Zm-73.6,1.4l.47,.93-.47-.93Zm-265.52,.93v2.33h.47v-2.33h-.47Zm285.08,1.4l.47,.93,.47-.93h-.93Zm55.9,1.4l.47,.93-.47-.93Zm-305.58,.47v3.73h.47v-3.73h-.47Zm323.28,1.4l.47,.93-.47-.93Zm-359.15,.47v2.33h.47v-2.33h-.47Zm24.22,.93l.47,.93-.47-.93Zm149.53,0v2.33h.47v-2.33h-.47Zm-102.48,.93l.47,.93-.47-.93Zm-47.05,.93l.47,.93-.47-.93Zm-24.69,1.86l.47,1.86-.47-1.86Zm24.22,2.33v2.79h.47v-2.79h-.47Zm-24.69,3.73l.47,1.4-.47-1.4Zm24.22,1.86l.47,.93-.47-.93Zm60.09,.93l.47,1.4-.47-1.4Zm207.29,1.4l.47,.93-.47-.93Zm28.88,.47l.47,.93-.47-.93Zm-200.77,2.33l.47,.93-.47-.93Zm111.33,0l.47,.93-.47-.93Zm-158.38,1.86l.47,.93-.47-.93Zm-35.87,.47l.47,.93-.47-.93Zm48.45,4.66l.47,.93-.47-.93Zm209.62,1.4l.47,.93-.47-.93Zm-221.26,3.26l.47,.93-.47-.93Zm48.45,8.85l.47,.93-.47-.93Zm197.97,4.19l.47,.93-.47-.93Zm-245.49,1.86l.47,.93-.47-.93Zm173.75,1.86l.47,.93-.47-.93Zm33.07,3.26l.47,.93-.47-.93Zm-74.53,9.78l.47,.93-.47-.93Zm-181.2,2.79l.47,.93-.47-.93Zm158.84,0l.47,.93-.47-.93Zm68.48,2.33l.47,.93,.47-.93h-.93Zm33.54,1.4l.47,.93-.47-.93Zm-78.26,.47l.47,.93,.47-.93h-.93Zm-182.6,.93l.47,.93-.47-.93Zm13.04,.47l.47,.93-.47-.93Zm37.73,1.86l.47,.93-.47-.93Zm-49.84,7.92l.47,.93-.47-.93Zm188.19,14.44l.47,.93-.47-.93Zm-187.26,.47l.47,1.86-.47-1.86Zm211.48,1.86l.47,.93-.47-.93Zm-109.47,.47l.47,.93-.47-.93Z"/>
  <path class="cls-14" d="M749.74,69.44l-.47,.47-5.59,1.4-.47,1.4-4.19,.47-.47,.93-4.19,.93v.93l-4.19,.47-.47,1.4-4.66,.47v1.4l-4.19,.47-.47,.93-3.73,.93v.93l-3.26,.47-5.59,2.33v.93l-4.19,.47-.47,.93-3.73,.93-.47,.93-3.73,.93-.47,1.4-4.19,.47v1.4l-4.19,.47v.47l-3.73,1.4-.47,.93-3.73,.93v.93l-2.79,.47-1.4,1.4-3.73,.93v.93l-3.73,.47-.47,1.4-3.73,.93v.93l-3.26,.47-.47,1.4-3.26,.47-.93,.93-3.26,1.4v.93l-3.26,.47-.93,1.4-2.79,.47-.93,1.4-2.79,.47-.93,.93-3.26,.93v1.4l-3.73,.47v.93l-3.26,.93-.47,1.4-3.26,.47-.47,1.4-3.26,.47v1.4l-3.26,.47-.47,1.4-2.79,.93-.47,1.4h-2.79l-.47,1.4-2.33,.47-1.4,1.4-2.33,.47-.93,1.4-2.79,.47-.47,1.4-3.26,.47,.47,1.86h-3.73v1.86l-3.26,.47v.93l-3.26,.93-.47,1.4-2.79,.47-.47,1.4-2.33,.47-.47,1.4-2.79,.47v1.86h-3.26v1.86h-2.79l-.47,1.4-2.79,.47v1.86l-3.26,.47v1.4l-2.79,.47v1.4l-2.79,.47-.47,.93-3.26,.93-.47,1.4-1.86,.47-.47,1.86h-2.33l-.93,1.4-1.4,.47-1.4,1.4-2.79,.93v1.4l-2.79,.47v1.4l-2.79,.47-.47,1.4-2.33,.47-.47,1.4-1.86,.47-.93,1.4-2.33,1.4-3.26,1.4-.47,1.4-2.33,.47v.93l-2.33,.93-.47,1.4-2.33,.47-.47,1.4-1.4,.47-.93,1.4-1.4,.47-1.4,1.4-1.4,.47-1.4,1.4-2.79,1.4v.93h-.93l-1.86,1.86-2.33,.93-1.4,1.4-2.33,1.86-1.86,1.86-1.86,.47-.47,.93-1.86,.93-2.33,2.33-19.56,15.37-6.06,5.12-4.19,3.26-5.12,4.66-2.33,2.33-6.52,5.12-3.73,3.26-4.66,4.19-6.06,5.12-.47,1.86h-.93l-1.86,1.4-6.99,6.52-3.73,3.26-8.38,8.38-3.73,3.26-10.25,10.25-.93,1.86h-.93l-.47,.93-6.99,6.99-6.99,7.45-6.52,6.99-3.26,3.73-3.73,3.73-4.19,5.12-5.12,5.59-6.06,6.99-5.12,6.06-4.19,5.12-6.52,7.92-3.73,4.66-4.19,5.12-4.66,6.06-12.11,15.84-3.73,5.12-2.79,3.73-3.73,5.12-1.4,2.33-3.73,5.12-3.26,4.66-5.12,7.45-13.04,19.56-4.66,7.45-5.59,8.85-2.79,5.12-2.79,4.19-2.33,4.19-5.59,9.32-6.52,11.65-7.45,13.51-4.66,8.85-9.32,18.63-7.92,16.3-6.99,15.37-5.12,11.65-5.12,12.11-8.38,20.96-6.99,18.63-6.99,20.03-6.99,21.89-2.79,9.32-5.12,17.24-6.06,23.29-2.33,9.78-1.86,7.45-2.33,11.65-2.33,9.78-2.33,12.58-3.73,18.63-3.26,22.36-2.79,23.76-2.33,19.56-.47,9.32-1.4,13.97-1.86,23.29v13.04l-.47,11.65v31.21l.47,4.19v9.32h495.17v-.47l-3.73-5.59-5.59-9.32-4.66-7.45-5.12-9.32-6.06-10.71-5.12-10.25-5.59-11.65-6.99-15.37-6.06-14.44-5.12-13.04-7.92-22.36-4.19-13.51-3.73-12.58-5.59-20.96-3.26-14.44-3.73-18.17-3.26-18.63-2.79-18.63-2.33-20.96-1.86-22.83-.47-10.71-.47-4.19v-5.07c-.23-2.08-.42-4.17-.53-6.27-.05-.95-.08-1.89-.09-2.84l-.78-.26v-3.26l.47,.47,.3,.61c0-.61,.02-1.22,.04-1.84l-.34-.17,.47-8.38v-7.45l-.47-.47v-5.12h.93l-.93-.47,1.4-20.96v-9.32l.47-9.32,.93-12.11,2.33-19.56,1.86-12.58,2.33-15.37,1.4-6.06,2.79-17.24,1.86-6.52,1.4-7.92,2.33-9.32,1.86-7.92,5.59-20.5,4.66-15.37,5.12-15.37,4.66-13.04,6.52-16.77,8.38-20.03,6.52-13.51,5.12-10.71,4.19-7.92,6.52-12.11,5.59-9.78,7.92-13.51,6.52-10.25,12.11-18.17,6.06-8.38,6.52-8.85,6.52-8.38,5.12-6.52,3.73-4.66,5.59-6.52,6.06-6.99,5.59-6.06,3.26-3.73,21.43-21.43,7.92-7.45,3.73-3.26,4.19-4.19,5.12-4.19,6.06-5.12,15.84-13.04V69.44h-1.86ZM193.09,873.44h-.47v-2.33h.47v2.33Zm.47-5.12h-.47v-2.33h.47v2.33Zm19.1-146.27h-.47v-2.33h.47v2.33Zm4.19,158.84h-.47v-2.79h.47v2.79Zm12.11-7.92h-.47v-3.73h.47v3.73Zm.47-6.06h-.47v-3.73h.47v3.73Zm1.4-126.24h-.47v-2.33h.47v2.33Zm4.66-22.83h-.47v-3.26h.47v3.26Zm6.99,20.03h-.47v-4.19h.47v4.19Zm4.66-25.62h-.47v-2.33h.47v2.33Zm.47-5.12h-.47v-2.33h.47v2.33Zm16.77,145.8h-.47v-2.79h.47v2.79Zm.47-8.38h-.47v-2.79h.47v2.79Zm11.18,4.66h-.47v-4.66h.47v4.66Zm1.4-38.66h-.47v-2.79h.47v2.79Zm13.51-112.26h-.47v-2.33h.47v2.33Zm18.63,126.7h-.47v-6.06h.47v6.06Zm0-24.69h-.47v-2.33h.47v2.33Zm.47-4.66h-.47v-2.33h.47v2.33Zm.47-3.73h-.47v-3.26h.47v3.26Zm.47-5.12h-.47v-2.79h.47v2.79Zm13.51-110.87h-.47v-4.19h.47v4.19Zm6.52,133.69h-.47v-3.73h.47v3.73Zm0-21.89h-.47v-3.26h.47v3.26Zm.47-4.66h-.47v-3.26h.47v3.26Zm.47-5.12h-.47v-2.79h.47v2.79Zm.47-4.66h-.47v-2.33h.47v2.33Zm8.85,24.22h-.47v-3.26h.47v3.26Zm.47-6.52h-.47v-3.26h.47v3.26Zm8.85-109.93h-.47v-2.33h.47v2.33Zm4.19-20.03h-.47v-2.33h.47v2.33Zm.47-3.73h-.47v-3.26h.47v3.26Zm6.06-68.94h.47v2.33h-.47v-2.33Zm.47,183.53h-.47v-4.66h.47v4.66Zm.47-6.06h-.47v-3.73h.47v3.73Zm.47-5.59h-.47v-2.33h.47v2.33Zm.93-142.54h-.47v-4.66h.47v4.66Zm3.26,256.67h-.47v-2.33h.47v2.33Zm.47-271.57h-.47v-2.33h.47v2.33Zm5.59,55.9h-.47v-3.26h.47v3.26Zm.47-4.66h-.47v-3.26h.47v3.26Zm7.92,100.15h-.47v-3.73h.47v3.73Zm.47-6.99h-.47v-2.79h.47v2.79Zm.47-4.66h-.47v-2.79h.93l-.47,2.79Zm3.73-147.2h-.47v-4.19h.47v4.19Zm3.73-15.84h-.47v-2.33h.47v2.33Zm1.86,69.87h-.47v-2.33h.47v2.33Zm.47-4.19h-.47v-2.33h.47v2.33Zm.47-4.66h-.47v-2.33h.47v2.33Zm6.99,101.08h.47v3.73h-.47v-3.73Zm.93,196.58l-.47-.93h.93l-.47,.93Zm18.63-228.25h-.47v-2.33h.47v2.33Zm17.24-15.37h-.47v-3.26h.47v3.26Zm.47-5.59h-.47v-2.33h.47v2.33Zm1.4-170.49h-.47v-2.79h.47v2.79Zm4.66,191.92h.47v2.79h-.47v-2.79Zm.93,17.7h-.47v-2.33h.47v2.33Zm0-20.5h-.47v-2.79h.47v2.79Zm1.4,228.72l-.47-.93h.93l-.47,.93Zm10.71-349.37h-.47v-2.33h.47v2.33Zm3.73,96.89h-.47v-3.26h.47v3.26Zm.93-9.78h-.47v-2.33h.47v2.33Zm8.85-87.57h-.47v-2.33h.47v2.33Zm4.19-20.03h-.47v-2.33h.47v2.33Zm.47-7.45l-.47-1.86h.93l-.47,1.86Zm3.26,302.78l-.47-.93h.93l-.47,.93Zm1.4,6.52l-.47-.93h.93l-.47,.93Zm8.85-307.44h-.47v-2.79h.47v2.79Zm.47-5.59h-.47v-2.79h.47v2.79Zm2.33,22.36h-.47v-2.33h.47v2.33Zm4.66-25.15h-.47v-2.79h.47v2.79Zm10.71,4.66h-.47v-2.33h.47v2.33Zm27.48,251.08h.93v.93h-.93v-.93Zm0-400.14l.47-.93,.47,.93h-.93Z"/>
  <path class="cls-14" d="M500.99,375.02l.47,.93-.47-.93Z"/>
  <path class="cls-13" d="M448.36,389.46l.47,.93-.47-.93Z"/>
  <path class="cls-13" d="M539.19,394.58l.47,.93-.47-.93Z"/>
  <path class="cls-13" d="M476.31,396.91l.47,.93-.47-.93Z"/>
  <path class="cls-13" d="M536.4,400.64l.47,.93-.47-.93Z"/>
  <path class="cls-13" d="M498.2,401.57l.47,.93-.47-.93Z"/>
  <path class="cls-13" d="M549.44,404.36l.47,.93-.47-.93Z"/>
  <path class="cls-13" d="M493.08,412.28l.47,.93-.47-.93Z"/>
  <path class="cls-13" d="M546.18,412.75l.47,.93-.47-.93Z"/>
  <path class="cls-13" d="M503.79,413.21l.47,.93-.47-.93Z"/>
  <path class="cls-13" d="M550.37,413.21l.47,.93-.47-.93Z"/>
  <path class="cls-13" d="M441.37,413.68l.47,.93-.47-.93Z"/>
  <path class="cls-13" d="M534.53,416.01l.47,.93-.47-.93Z"/>
  <path class="cls-13" d="M543.38,419.27l.47,.93-.47-.93Z"/>
  <path class="cls-13" d="M446.49,429.52l.47,.93-.47-.93Z"/>
  <path class="cls-13" d="M425.07,445.35l.47,.93-.47-.93Z"/>
  <path class="cls-13" d="M438.11,446.75l.47,.93-.47-.93Z"/>
  <path class="cls-13" d="M435.31,452.81l.47,.93-.47-.93Z"/>
  <path class="cls-13" d="M459.07,459.8l.47,.93-.47-.93Z"/>
  <path class="cls-13" d="M429.26,465.85l.47,.93-.47-.93Z"/>
  <path class="cls-13" d="M457.21,498.92l.47,1.86-.47-1.86Z"/>
  <path class="cls-13" d="M427.86,504.05l.47,.93-.47-.93Z"/>
  <path class="cls-13" d="M341.22,506.38l.47,.93-.47-.93Z"/>
  <path class="cls-13" d="M386.4,515.23l.47,.93-.47-.93Z"/>
  <path class="cls-13" d="M434.38,526.87l.47,1.4-.47-1.4Z"/>
  <path class="cls-13" d="M418.08,533.39l.47,1.4-.47-1.4Z"/>
  <path class="cls-13" d="M362.18,536.19l.47,.93-.47-.93Z"/>
  <path class="cls-13" d="M444.16,540.38l.47,.93-.47-.93Z"/>
  <path class="cls-13" d="M415.28,541.31l.47,.93-.47-.93Z"/>
  <path class="cls-13" d="M457.21,542.25l.47,.93-.47-.93Z"/>
  <path class="cls-13" d="M513.11,542.71l.47,.93-.47-.93Z"/>
  <path class="cls-13" d="M414.82,544.11l.47,.93-.47-.93Z"/>
  <path class="cls-13" d="M494.94,545.51l.47,1.86-.47-1.86Z"/>
  <path class="cls-13" d="M512.64,547.37l.47,.93-.47-.93Z"/>
  <path class="cls-13" d="M427.86,548.3l.47,.93-.47-.93Z"/>
  <path class="cls-13" d="M396.19,553.89l.47,1.4-.47-1.4Z"/>
  <path class="cls-13" d="M494.01,553.89l.47,1.86-.47-1.86Z"/>
  <path class="cls-13" d="M411.56,554.82l.47,1.4-.47-1.4Z"/>
  <path class="cls-13" d="M511.71,556.22l.47,1.4-.47-1.4Z"/>
  <path class="cls-13" d="M453.48,557.15l.47,1.4-.47-1.4Z"/>
  <path class="cls-13" d="M504.72,559.95l.47,1.4-.47-1.4Z"/>
  <path class="cls-13" d="M424.13,561.34l.47,1.4-.47-1.4Z"/>
  <path class="cls-13" d="M377.55,563.21l.47,.93-.47-.93Z"/>
  <path class="cls-13" d="M377.09,564.6l.47,1.4-.47-1.4Z"/>
  <path class="cls-13" d="M408.3,564.6l.47,1.4-.47-1.4Z"/>
  <path class="cls-13" d="M392.46,567.87l.47,1.4-.47-1.4Z"/>
  <path class="cls-13" d="M407.83,568.8l.47,.93-.47-.93Z"/>
  <path class="cls-13" d="M490.28,572.52l.47,.93-.47-.93Z"/>
  <path class="cls-13" d="M420.41,575.78l.47,1.4-.47-1.4Z"/>
  <path class="cls-13" d="M482.83,578.58l.47,.93-.47-.93Z"/>
  <path class="cls-13" d="M364.51,579.05l.47,1.4-.47-1.4Z"/>
  <path class="cls-13" d="M455.81,579.05l.47,.93-.47-.93Z"/>
  <path class="cls-13" d="M404.57,579.98l.47,1.86-.47-1.86Z"/>
  <path class="cls-13" d="M489.35,580.44l.47,.93-.47-.93Z"/>
  <path class="cls-13" d="M426.46,581.37l.47,.93-.47-.93Z"/>
  <path class="cls-13" d="M469.32,581.37l.47,.93-.47-.93Z"/>
  <path class="cls-13" d="M482.36,582.77l.47,1.4-.47-1.4Z"/>
  <path class="cls-13" d="M370.57,585.1l.47,.93-.47-.93Z"/>
  <path class="cls-13" d="M426,587.9l.47,1.4-.47-1.4Z"/>
  <path class="cls-13" d="M370.1,588.36l.47,1.86-.47-1.86Z"/>
  <path class="cls-13" d="M468.39,588.36l.47,1.4-.47-1.4Z"/>
  <path class="cls-13" d="M432.52,588.83l.47,.93-.47-.93Z"/>
  <path class="cls-13" d="M454.88,589.29l.47,.93-.47-.93Z"/>
  <path class="cls-13" d="M400.84,593.95l.47,1.4-.47-1.4Z"/>
  <path class="cls-13" d="M432.05,594.88l.47,1.86-.47-1.86Z"/>
  <path class="cls-13" d="M467.46,597.68l.47,1.4-.47-1.4Z"/>
  <path class="cls-13" d="M400.38,599.08l.47,.93-.47-.93Z"/>
  <path class="cls-13" d="M357.99,600.47l.47,.93-.47-.93Z"/>
  <path class="cls-13" d="M339.36,606.53l.47,.93-.47-.93Z"/>
  <path class="cls-13" d="M381.74,606.99l.47,.93-.47-.93Z"/>
  <path class="cls-13" d="M450.69,609.79l.47,.93-.47-.93Z"/>
  <path class="cls-13" d="M381.28,611.65l.47,1.4-.47-1.4Z"/>
  <path class="cls-13" d="M412.49,613.52l.47,.93-.47-.93Z"/>
  <path class="cls-13" d="M396.65,614.91l.47,.93-.47-.93Z"/>
  <path class="cls-13" d="M427.86,615.38l.47,1.4-.47-1.4Z"/>
  <path class="cls-13" d="M443.23,616.31l.47,1.86-.47-1.86Z"/>
  <path class="cls-13" d="M336.09,618.64l.47,1.4-.47-1.4Z"/>
  <path class="cls-13" d="M396.19,618.64l.47,1.4-.47-1.4Z"/>
  <path class="cls-13" d="M378.02,623.3l.47,.93-.47-.93Z"/>
  <path class="cls-13" d="M411.09,625.63l.47,.93-.47-.93Z"/>
  <path class="cls-13" d="M377.55,626.56l.47,1.86-.47-1.86Z"/>
  <path class="cls-13" d="M426.46,627.49l.47,.93-.47-.93Z"/>
  <path class="cls-13" d="M359.39,629.35l.47,.93-.47-.93Z"/>
  <path class="cls-13" d="M332.37,630.29l.47,1.4-.47-1.4Z"/>
  <path class="cls-13" d="M350.53,630.29l.47,.93-.47-.93Z"/>
  <path class="cls-13" d="M392.46,634.01l.47,1.4-.47-1.4Z"/>
  <path class="cls-11" d="M373.36,646.59l.47,1.86-.47-1.86Z"/>
  <path class="cls-11" d="M406.9,647.05l.47,.93-.47-.93Z"/>
  <path class="cls-11" d="M346.34,649.38l.47,.93-.47-.93Z"/>
  <path class="cls-11" d="M355.19,649.85l.47,1.4-.47-1.4Z"/>
  <path class="cls-11" d="M406.43,650.78l.47,1.4-.47-1.4Z"/>
  <path class="cls-11" d="M328.18,652.18l.47,1.86-.47-1.86Z"/>
  <path class="cls-11" d="M345.41,658.23l.47,1.4-.47-1.4Z"/>
  <path class="cls-11" d="M371.96,659.17l.47,.93-.47-.93Z"/>
  <path class="cls-11" d="M405.5,660.56l.47,1.86-.47-1.86Z"/>
  <path class="cls-11" d="M286.72,665.22l.47,1.86-.47-1.86Z"/>
  <path class="cls-11" d="M324.45,665.69l.47,1.86-.47-1.86Z"/>
  <path class="cls-11" d="M460.47,667.09l.47,1.86-.47-1.86Z"/>
  <path class="cls-11" d="M294.64,675.47l.47,.93-.47-.93Z"/>
  <path class="cls-11" d="M243.4,676.4l.47,.93-.47-.93Z"/>
  <path class="cls-11" d="M459.54,676.87l.47,.93-.47-.93Z"/>
  <path class="cls-11" d="M242.93,680.13l.47,1.86-.47-1.86Z"/>
  <path class="cls-11" d="M385.47,682.46l.47,1.4-.47-1.4Z"/>
  <path class="cls-11" d="M367.3,685.25l.47,1.4-.47-1.4Z"/>
  <path class="cls-11" d="M282.53,685.72l.47,1.86-.47-1.86Z"/>
  <path class="cls-11" d="M250.85,689.91l.47,1.4-.47-1.4Z"/>
  <path class="cls-11" d="M411.56,689.91l.47,1.4-.47-1.4Z"/>
  <path class="cls-11" d="M366.84,690.84l.47,1.86-.47-1.86Z"/>
  <path class="cls-11" d="M384.54,691.77l.47,.93-.47-.93Z"/>
  <path class="cls-11" d="M319.79,692.24l.47,.93-.47-.93Z"/>
  <path class="cls-11" d="M411.09,693.17l.47,1.86-.47-1.86Z"/>
  <path class="cls-11" d="M239.2,695.03l.47,1.4-.47-1.4Z"/>
  <path class="cls-11" d="M435.31,695.5l.47,1.4-.47-1.4Z"/>
  <path class="cls-11" d="M410.63,698.3l.47,1.4-.47-1.4Z"/>
  <path class="cls-11" d="M459.54,699.23l.47,1.4-.47-1.4Z"/>
  <path class="cls-11" d="M278.8,700.62l.47,.93-.47-.93Z"/>
  <path class="cls-11" d="M443.7,701.09l.47,1.4-.47-1.4Z"/>
  <path class="cls-11" d="M318.86,701.56l.47,1.4-.47-1.4Z"/>
  <path class="cls-11" d="M459.07,703.42l.47,1.4-.47-1.4Z"/>
  <path class="cls-11" d="M419.01,703.88l.47,1.86-.47-1.86Z"/>
  <path class="cls-11" d="M365.44,704.35l.47,.93-.47-.93Z"/>
  <path class="cls-11" d="M318.39,704.82l.47,1.86-.47-1.86Z"/>
  <path class="cls-11" d="M235.48,708.54l.47,1.86-.47-1.86Z"/>
  <path class="cls-11" d="M382.68,709.01l.47,.93-.47-.93Z"/>
  <path class="cls-11" d="M317.93,709.47l.47,.93-.47-.93Z"/>
  <path class="cls-11" d="M277.87,709.94l.47,1.86-.47-1.86Z"/>
  <path class="cls-11" d="M418.08,711.8l.47,1.4-.47-1.4Z"/>
  <path class="cls-11" d="M417.61,716.46l.47,1.4-.47-1.4Z"/>
  <path class="cls-11" d="M417.15,719.72l.47,.93-.47-.93Z"/>
  <path class="cls-11" d="M178.18,724.85l.47,1.4-.47-1.4Z"/>
  <path class="cls-11" d="M434.38,727.64l.47,1.86-.47-1.86Z"/>
  <path class="cls-11" d="M242.46,728.57l.47,1.86-.47-1.86Z"/>
  <path class="cls-11" d="M362.65,730.9l.47,1.4-.47-1.4Z"/>
  <path class="cls-11" d="M230.82,734.63l.47,1.4-.47-1.4Z"/>
  <path class="cls-11" d="M399.91,736.96l.47,1.4-.47-1.4Z"/>
  <path class="cls-11" d="M343.55,744.88l.47,1.86-.47-1.86Z"/>
  <path class="cls-11" d="M343.08,749.07l.47,1.86-.47-1.86Z"/>
  <path class="cls-11" d="M460.93,751.4l.47,.93-.47-.93Z"/>
  <path class="cls-11" d="M342.62,753.73l.47,.93-.47-.93Z"/>
  <path class="cls-11" d="M342.15,757.45l.47,.93-.47-.93Z"/>
  <path class="cls-11" d="M237.34,758.39l.47,1.4-.47-1.4Z"/>
  <path class="cls-11" d="M399.91,759.32l.47,.93-.47-.93Z"/>
  <path class="cls-11" d="M236.87,764.44l.47,.93-.47-.93Z"/>
  <path class="cls-11" d="M169.8,765.37l.47,.93-.47-.93Z"/>
  <path class="cls-11" d="M341.22,766.77l.47,1.86-.47-1.86Z"/>
  <path class="cls-11" d="M462.8,777.95l.47,.93-.47-.93Z"/>
  <path class="cls-11" d="M361.25,785.4l.47,.93-.47-.93Z"/>
  <path class="cls-11" d="M381.28,788.66l.47,.93-.47-.93Z"/>
  <path class="cls-11" d="M506.12,790.06l.47,.93-.47-.93Z"/>
  <path class="cls-11" d="M530.34,794.25l.47,1.4-.47-1.4Z"/>
  <path class="cls-11" d="M277.4,803.1l.47,1.86-.47-1.86Z"/>
  <path class="cls-11" d="M510.78,812.89l.47,.93-.47-.93Z"/>
  <path class="cls-11" d="M519.16,815.68l.47,1.4-.47-1.4Z"/>
  <path class="cls-11" d="M276,817.08l.47,.93-.47-.93Z"/>
  <path class="cls-11" d="M382.68,820.34l.47,.93-.47-.93Z"/>
  <path class="cls-11" d="M275.54,821.74l.47,.93-.47-.93Z"/>
  <path class="cls-11" d="M538.26,826.86l.47,1.4-.47-1.4Z"/>
  <path class="cls-11" d="M497.73,831.52l.47,.93-.47-.93Z"/>
  <path class="cls-11" d="M383.61,833.85l.47,.93-.47-.93Z"/>
  <path class="cls-11" d="M524.29,834.31l.47,.93-.47-.93Z"/>
  <path class="cls-11" d="M363.11,836.18l.47,1.4-.47-1.4Z"/>
  <path class="cls-11" d="M499.13,838.51l.47,.93-.47-.93Z"/>
  <path class="cls-11" d="M541.52,838.51l.47,.93-.47-.93Z"/>
  <path class="cls-11" d="M516.83,840.37l.47,.93-.47-.93Z"/>
  <path class="cls-11" d="M525.68,841.3l.47,.93-.47-.93Z"/>
  <path class="cls-11" d="M405.04,842.23l.47,1.86-.47-1.86Z"/>
  <path class="cls-11" d="M309.08,844.1l.47,1.86-.47-1.86Z"/>
  <path class="cls-11" d="M500.99,844.56l.47,.93-.47-.93Z"/>
  <path class="cls-11" d="M384.54,846.89l.47,1.4-.47-1.4Z"/>
  <path class="cls-11" d="M544.78,849.69l.47,.93-.47-.93Z"/>
  <path class="cls-11" d="M520.09,852.02l.47,.93-.47-.93Z"/>
  <path class="cls-11" d="M528.94,852.48l.47,.93-.47-.93Z"/>
  <path class="cls-11" d="M475.37,853.88l.47,.93-.47-.93Z"/>
  <path class="cls-11" d="M343.08,858.07l.47,.93-.47-.93Z"/>
  <path class="cls-11" d="M494.94,858.07l.47,.93-.47-.93Z"/>
  <path class="cls-11" d="M523.35,863.2l.47,.93-.47-.93Z"/>
  <path class="cls-11" d="M532.2,863.66l.47,.93-.47-.93Z"/>
  <path class="cls-11" d="M458.61,865.06l.47,.93-.47-.93Z"/>
  <path class="cls-11" d="M534.07,868.79l.47,.93-.47-.93Z"/>
  <path class="cls-11" d="M551.77,870.65l.47,.93-.47-.93Z"/>
  <path class="cls-11" d="M216.84,872.05l.47,.93-.47-.93Z"/>
  <path class="cls-11" d="M263.89,872.98l.47,.93-.47-.93Z"/>
  <path class="cls-11" d="M216.84,873.91l.47,.93-.47-.93Z"/>
  <path class="cls-11" d="M192.16,875.77l.47,1.86-.47-1.86Z"/>
  <path class="cls-11" d="M191.69,881.83l.47,1.4-.47-1.4Z"/>
  <path class="cls-11" d="M215.91,883.69l.47,.93-.47-.93Z"/>
  <path class="cls-11" d="M276,884.62l.47,1.4-.47-1.4Z"/>
  <path class="cls-11" d="M483.29,886.02l.47,.93-.47-.93Z"/>
  <path class="cls-11" d="M512.17,886.49l.47,.93-.47-.93Z"/>
  <path class="cls-11" d="M311.41,888.82l.47,.93-.47-.93Z"/>
  <path class="cls-11" d="M422.74,888.82l.47,.93-.47-.93Z"/>
  <path class="cls-11" d="M264.36,890.68l.47,.93-.47-.93Z"/>
  <path class="cls-11" d="M228.49,891.14l.47,.93-.47-.93Z"/>
  <path class="cls-11" d="M276.94,895.8l.47,.93-.47-.93Z"/>
  <path class="cls-11" d="M486.55,897.2l.47,.93-.47-.93Z"/>
  <path class="cls-11" d="M265.29,900.46l.47,.93-.47-.93Z"/>
  <path class="cls-11" d="M313.74,909.31l.47,.93-.47-.93Z"/>
  <path class="cls-11" d="M511.71,913.5l.47,.93-.47-.93Z"/>
  <path class="cls-11" d="M266.22,915.37l.47,.93-.47-.93Z"/>
  <path class="cls-11" d="M439.97,917.23l.47,.93-.47-.93Z"/>
  <path class="cls-11" d="M473.05,920.49l.47,.93-.47-.93Z"/>
  <path class="cls-11" d="M398.51,930.27l.47,.93-.47-.93Z"/>
  <path class="cls-11" d="M217.31,933.07l.47,.93-.47-.93Z"/>
  <path class="cls-11" d="M376.16,933.07l.47,.93-.47-.93Z"/>
  <path class="cls-11" d="M478.17,936.8l.47,.93-.47-.93Z"/>
  <path class="cls-11" d="M217.31,938.19l.47,.93-.47-.93Z"/>
  <path class="cls-11" d="M230.35,938.66l.47,.93-.47-.93Z"/>
  <path class="cls-11" d="M268.08,940.52l.47,.93-.47-.93Z"/>
  <path class="cls-11" d="M218.24,948.44l.47,.93-.47-.93Z"/>
  <path class="cls-11" d="M406.43,962.88l.47,.93-.47-.93Z"/>
  <path class="cls-11" d="M219.17,963.35l.47,1.86-.47-1.86Z"/>
  <path class="cls-11" d="M430.66,965.21l.47,.93-.47-.93Z"/>
  <path class="cls-11" d="M321.19,965.68l.47,.93-.47-.93Z"/>
  <path class="cls-14" d="M750.21,25.18h1.4v5.59l-19.56,6.52-27.48,10.25-15.37,6.06-20.03,8.38-20.96,9.32-6.99,3.26-20.96,10.25-14.91,7.45-10.25,5.59-8.85,4.66-7.45,4.19-6.52,3.73-11.18,6.52-10.25,6.06-6.06,3.73-11.18,6.99-10.25,6.52-12.58,8.38-3.73,2.79-2.33,1.4-5.59,3.73-4.66,3.26-16.77,12.11-6.99,5.12-7.45,5.59-4.66,3.73-6.06,4.66-6.06,5.12-7.45,6.06-5.12,4.19-7.45,6.06-6.52,5.12-5.59,5.12-5.12,4.19-6.52,6.06-3.73,3.26-7.45,6.99-1.4,.47v.93l-3.73,3.26-7.45,6.99-13.51,13.51-4.66,4.19-6.52,6.99-8.38,8.38-3.26,3.73-3.73,3.73-3.26,3.73-6.52,6.99-4.19,4.66-3.26,3.73-5.59,6.52-4.19,4.66-4.19,5.12-5.12,6.06-5.12,6.52-5.59,6.52-10.25,13.04-4.66,6.06-11.18,14.91-5.12,6.99-3.26,4.66-5.12,7.45-5.59,7.92-2.79,4.19-3.26,4.66-3.26,5.12-3.26,4.66-3.73,6.06-3.26,5.12-5.59,8.85-3.73,6.06-4.19,6.99-6.52,11.18-3.73,6.52-6.99,12.58-5.59,10.25-6.52,12.58-4.66,8.85-3.73,7.92-4.19,7.92-6.99,15.37-7.45,16.3-5.12,12.11-5.59,13.51-4.66,11.65-6.99,18.63-7.92,22.36-6.52,20.03-6.06,19.56-5.59,20.5-3.26,12.11-4.66,18.63-5.59,24.69-1.86,9.78-3.26,16.77-1.4,7.45-1.4,10.25-2.79,17.7-1.4,11.65-1.4,6.52-4.66,46.12v9.32l-1.86,25.15v19.1l-.47,7.92v24.22h-29.35v-5.12l.47-10.25v-4.66l-.47-3.26,1.4-24.69,.47-8.85v-7.45l1.4-18.63,3.73-35.87,2.33-16.77,.93-5.12,2.33-15.84,2.33-12.58,1.86-12.11,3.26-13.97,1.4-8.85,2.79-10.71,2.33-10.71,6.06-24.22,4.66-17.24,6.06-20.03,5.12-16.77,7.45-21.89,8.85-24.22,5.59-14.44,4.19-10.25,5.12-12.11,5.59-13.04,3.73-8.38,5.12-11.18,3.73-7.45,5.12-10.71,4.19-8.85,1.86-3.26,1.4-2.79,4.66-8.85,4.19-7.92,3.26-5.59,2.79-5.59,3.26-5.59,2.79-5.12,2.33-3.73,1.4-2.79,12.58-20.96,1.86-2.33,1.86-3.73,3.73-6.06,3.73-5.59,3.26-4.66,2.33-3.73,2.79-4.19,4.66-7.45h.93l.93-2.33,3.73-5.59,4.19-6.06,6.06-8.38,5.59-7.92,4.66-6.06,5.59-7.45,4.66-6.06,3.26-4.19,4.66-6.06,3.73-4.66,4.19-5.12,5.12-6.06,3.26-4.19,5.59-6.52,5.12-6.06,4.66-5.12,4.19-5.12,3.73-3.73,4.19-5.12,3.73-3.73,3.26-3.73,2.79-3.26h.93l.93-1.86,6.99-6.99,.47-.93h.93v-.93l27.02-27.02,3.73-3.26,4.19-4.19,3.73-3.26,4.66-4.66,3.73-3.26,6.06-5.59,5.12-4.19,5.59-5.12,5.12-4.19,3.26-3.26,25.62-20.96,7.45-6.06,4.66-3.26,8.38-6.52,7.45-5.59,8.85-6.52,13.04-9.32,6.06-4.19,6.99-4.66,5.12-3.73,7.45-4.66,6.99-4.66,6.52-4.19,8.38-5.12,5.12-3.26,6.06-3.73,13.97-8.38,5.12-2.79,11.18-6.52,6.99-3.73,10.25-5.59,16.3-8.38,24.22-12.11,14.44-6.52,6.99-3.26,11.65-5.12,12.11-5.12,8.85-3.73,13.04-5.12,18.17-6.99,14.44-5.12,19.1-6.52,11.65-3.73Z"/>
  <g class="cls-12">
    <g>
      <path class="cls-5" d="M751.26,84.65c-1.95,.48-3.88,1.01-5.79,1.57"/>
      <path class="cls-3" d="M734.13,90.02c-10.23,3.83-20.16,8.59-30.51,13.77-3,1-6,1-9,2-43,17-82,39-122,65l-6,6c-57,33-101,75-147,120-3,4-6,7-9,11-18,19-34,38-51,57-3,7-9,12-14,19-37,51-69,101-94,157-1,4-2,9-4,13-11,20-20,40-25,61-20,46-33,92-46,142-8,35-15,68-21,104-5.39,35.92-9.16,70.23-11.42,105.29"/>
      <path class="cls-5" d="M143.82,972.06c-.12,1.99-.23,3.99-.34,5.99"/>
    </g>
  </g>
  <g class="cls-12">
    <g>
      <path class="cls-5" d="M751.11,97.12c-1.88,.68-3.76,1.38-5.63,2.08"/>
      <path class="cls-1" d="M734.24,103.57c-66.24,26.61-123.65,64.93-183.62,109.21-92,68-160,146-218,243-2,3-2,6-4,9-27,43-45,87-66,132-1,2,0,3-1,5-21,49-36,98-49,150-6,26-10,50-16,77-8,41-12,79-17,119-.59,5.88-1.18,11.41-1.41,17.02"/>
      <path class="cls-5" d="M178.1,970.83c.02,1.97,.09,3.96,.24,6"/>
    </g>
  </g>
  <g class="cls-12">
    <g>
      <path class="cls-5" d="M751.36,120.24c-1.8,.87-3.59,1.75-5.39,2.62"/>
      <path class="cls-7" d="M735.17,128.18c-16.44,8.18-33,16.83-49.55,26.61-58,34-106,72-156,116-2,2-4,5-6,7-144,135-230,305-273,499-1,6-4,12-5,18-4,28-10,53-14,81-4.41,30.89-8.05,60.23-9.83,90.24"/>
      <path class="cls-5" d="M221.45,972.04c-.1,1.99-.19,3.99-.28,5.99"/>
    </g>
  </g>
  <g class="cls-12">
    <g>
      <path class="cls-5" d="M751.74,144.21c-1.74,1-3.47,2-5.19,3"/>
      <path class="cls-9" d="M736.18,153.24c-33.44,19.55-65.5,39.42-97.56,64.55-8,7-13,15-22,21-14,9-24,19-36,29-11,11-21,23-32,34-80,75-138,165-183,263-1,4-3,8-4,12-54.38,124.29-83.3,255.19-92.7,388.9"/>
      <path class="cls-5" d="M268.51,971.67c-.13,2-.26,3.99-.38,5.99"/>
    </g>
  </g>
  <g class="cls-12">
    <g>
      <path class="cls-5" d="M751.8,158.04c-1.63,1.16-3.26,2.32-4.89,3.48"/>
      <path class="cls-10" d="M737.24,168.49c-57.69,41.94-111.64,88.01-159.62,144.3-58,68-103,140-141,220-2,4-2,10-4,14-26,52-43,105-58,162-21.98,86.01-33.91,170.18-39.87,255.79"/>
      <path class="cls-5" d="M334.34,970.53c-.13,1.99-.26,3.99-.39,5.99"/>
    </g>
  </g>
  <path class="cls-4" d="M638.17,278.73c-8.46,7.98-15.76,17.16-22.14,26.87-3.04,4.63-6.9,8.88-10.85,12.77s-8.82,7.09-12.52,11.47c-7.26,8.58-14.04,18.19-20.11,27.64-3.27,5.08-5.87,10.5-9.39,15.41s-7.15,9.25-10.85,13.77c-15.12,18.49-27.76,39.5-39.66,60.18-11.92,20.71-21.08,42.4-30.66,64.23s-22.19,45.01-29.54,68.85c-3.58,11.61-6.18,23.48-9.37,35.2s-6.49,23.94-9.53,35.96c-6.12,24.27-11.05,48.75-14.96,73.48-3.99,25.25-7.64,50.58-9.22,76.11-1.56,25.38-.88,50.75-.72,76.15,.16,25.91,2.22,51.28,5.33,76.99,.75,6.18,1.5,12.37,2.23,18.56"/>
  <path class="cls-4" d="M548.31,480.62c-10.7,16.16-15.7,35.16-25.7,53.16-2,3-1,7-3,11-18,39-28,77-37,120-1,3-1,7-1,10-16,82-8,158,5,239,4,22,11,42,17.09,62.77"/>
  <path class="cls-2" d="M528.43,663.95c-3.81,14.83-5.81,28.83-8.81,43.83-1,9-3,18-4,27-4,53-2,107,17,158,10,28,18,58,35.01,83.45"/>
  <g id="Layer_3" data-name="Layer 3">
    <text class="cls-6" transform="translate(738.36 96.03) rotate(156.39) scale(.93 1)"><tspan x="0" y="0">F</tspan></text>
    <text class="cls-6" transform="translate(721.76 103.33) rotate(155.28) scale(.93 1)"><tspan x="0" y="0">I</tspan></text>
    <text class="cls-6" transform="translate(712.22 107.67) rotate(154.22) scale(.93 1)"><tspan x="0" y="0">T</tspan></text>
    <text class="cls-6" transform="translate(694.62 116.23) rotate(153.29) scale(.93 1)"><tspan x="0" y="0"> </tspan></text>
    <text class="cls-6" transform="translate(686.65 120.19) rotate(152.42) scale(.93 1)"><tspan x="0" y="0">S</tspan></text>
    <text class="cls-6" transform="translate(670.12 128.86) rotate(151.53) scale(.93 1)"><tspan x="0" y="0">I</tspan></text>
    <text class="cls-6" transform="translate(660.86 133.83) rotate(150.58) scale(.93 1)"><tspan x="0" y="0">X</tspan></text>
    <text class="cls-6" transform="translate(641.91 144.53) rotate(149.4) scale(.93 1)"><tspan x="0" y="0">E</tspan></text>
    <text class="cls-6" transform="translate(625.66 154.14) rotate(148.35) scale(.93 1)"><tspan x="0" y="0">S</tspan></text>
    <text class="cls-6" transform="translate(609.75 163.98) rotate(147.58) scale(.93 1)"><tspan x="0" y="0"> </tspan></text>
    <text class="cls-6" transform="translate(602.23 168.71) rotate(146.77) scale(.93 1)"><tspan x="0" y="0">2</tspan></text>
    <text class="cls-6" transform="translate(585.47 179.68) rotate(145.62) scale(.93 1)"><tspan x="0" y="0">K</tspan></text>
    <text class="cls-6" transform="translate(567.65 191.88) rotate(144.47) scale(.93 1)"><tspan x="0" y="0">2</tspan></text>
    <text class="cls-6" transform="translate(551.36 203.51) rotate(143.37) scale(.93 1)"><tspan x="0" y="0">4</tspan></text>
    <text class="cls-6" transform="translate(535.27 215.52) rotate(142.57) scale(.93 1)"><tspan x="0" y="0">	</tspan></text>
    <text class="cls-6" transform="translate(534.66 215.98) rotate(142.52) scale(.93 1)"><tspan x="0" y="0">	</tspan></text>
    <text class="cls-6" transform="translate(508.04 236.86) rotate(140.39) scale(.93 1)"><tspan x="0" y="0">F</tspan></text>
    <text class="cls-6" transform="translate(494.08 248.45) rotate(139.59) scale(.93 1)"><tspan x="0" y="0">I</tspan></text>
    <text class="cls-6" transform="translate(486.07 255.23) rotate(138.75) scale(.93 1)"><tspan x="0" y="0">T</tspan></text>
    <text class="cls-6" transform="translate(471.35 268.18) rotate(137.95) scale(.93 1)"><tspan x="0" y="0"> </tspan></text>
    <text class="cls-6" transform="translate(464.72 274.12) rotate(137.17) scale(.93 1)"><tspan x="0" y="0">S</tspan></text>
    <text class="cls-6" transform="translate(451.04 286.84) rotate(136.34) scale(.93 1)"><tspan x="0" y="0">I</tspan></text>
    <text class="cls-6" transform="translate(443.41 294.06) rotate(135.42) scale(.93 1)"><tspan x="0" y="0">X</tspan></text>
    <text class="cls-6" transform="translate(427.92 309.34) rotate(134.25) scale(.93 1)"><tspan x="0" y="0">E</tspan></text>
    <text class="cls-6" transform="translate(414.74 322.87) rotate(133.18) scale(.93 1)"><tspan x="0" y="0">S</tspan></text>
    <text class="cls-6" transform="translate(401.97 336.52) rotate(132.38) scale(.93 1)"><tspan x="0" y="0"> </tspan></text>
    <text class="cls-6" transform="translate(395.93 343.07) rotate(131.54) scale(.93 1)"><tspan x="0" y="0">2</tspan></text>
    <text class="cls-6" transform="translate(382.66 358.04) rotate(130.32) scale(.93 1)"><tspan x="0" y="0">K</tspan></text>
    <text class="cls-6" transform="translate(368.69 374.51) rotate(129.1) scale(.93 1)"><tspan x="0" y="0">2</tspan></text>
    <text class="cls-6" transform="translate(356.07 390.04) rotate(127.91) scale(.93 1)"><tspan x="0" y="0">4</tspan></text>
    <text class="cls-6" transform="translate(343.78 405.89) rotate(127.06) scale(.93 1)"><tspan x="0" y="0">	</tspan></text>
    <text class="cls-6" transform="translate(343.32 406.49) rotate(127.01) scale(.93 1)"><tspan x="0" y="0">	</tspan></text>
    <text class="cls-6" transform="translate(323.3 433.72) rotate(124.72) scale(.93 1)"><tspan x="0" y="0">F</tspan></text>
    <text class="cls-6" transform="translate(312.98 448.66) rotate(123.86) scale(.93 1)"><tspan x="0" y="0">I</tspan></text>
    <text class="cls-6" transform="translate(307.11 457.35) rotate(122.96) scale(.93 1)"><tspan x="0" y="0">T</tspan></text>
    <text class="cls-6" transform="translate(296.48 473.81) rotate(122.11) scale(.93 1)"><tspan x="0" y="0"> </tspan></text>
    <text class="cls-6" transform="translate(291.72 481.33) rotate(121.28) scale(.93 1)"><tspan x="0" y="0">S</tspan></text>
    <text class="cls-6" transform="translate(282.04 497.32) rotate(120.4) scale(.93 1)"><tspan x="0" y="0">I</tspan></text>
    <text class="cls-6" transform="translate(276.69 506.34) rotate(119.44) scale(.93 1)"><tspan x="0" y="0">X</tspan></text>
    <text class="cls-6" transform="translate(266.01 525.29) rotate(118.21) scale(.93 1)"><tspan x="0" y="0">E</tspan></text>
    <text class="cls-6" transform="translate(257.08 541.93) rotate(117.1) scale(.93 1)"><tspan x="0" y="0">S</tspan></text>
    <text class="cls-6" transform="translate(248.59 558.6) rotate(116.27) scale(.93 1)"><tspan x="0" y="0"> </tspan></text>
    <text class="cls-6" transform="translate(244.63 566.53) rotate(115.41) scale(.93 1)"><tspan x="0" y="0">2</tspan></text>
    <text class="cls-6" transform="translate(236.03 584.61) rotate(114.18) scale(.93 1)"><tspan x="0" y="0">K</tspan></text>
    <text class="cls-6" transform="translate(227.19 604.32) rotate(112.95) scale(.93 1)"><tspan x="0" y="0">2</tspan></text>
    <text class="cls-6" transform="translate(219.39 622.74) rotate(111.77) scale(.93 1)"><tspan x="0" y="0">4</tspan></text>
    <text class="cls-6" transform="translate(211.99 641.37) rotate(110.93) scale(.93 1)"><tspan x="0" y="0">	</tspan></text>
    <text class="cls-6" transform="translate(211.71 642.08) rotate(110.89) scale(.93 1)"><tspan x="0" y="0">	</tspan></text>
    <text class="cls-6" transform="translate(200.02 673.83) rotate(108.67) scale(.93 1)"><tspan x="0" y="0">F</tspan></text>
    <text class="cls-6" transform="translate(194.24 691.03) rotate(107.85) scale(.93 1)"><tspan x="0" y="0">I</tspan></text>
    <text class="cls-6" transform="translate(190.99 701.01) rotate(107) scale(.93 1)"><tspan x="0" y="0">T</tspan></text>
    <text class="cls-6" transform="translate(185.29 719.77) rotate(106.2) scale(.93 1)"><tspan x="0" y="0"> </tspan></text>
    <text class="cls-6" transform="translate(182.78 728.29) rotate(105.43) scale(.93 1)"><tspan x="0" y="0">S</tspan></text>
    <text class="cls-6" transform="translate(177.83 746.32) rotate(104.63) scale(.93 1)"><tspan x="0" y="0">I</tspan></text>
    <text class="cls-6" transform="translate(175.13 756.48) rotate(103.74) scale(.93 1)"><tspan x="0" y="0">X</tspan></text>
    <text class="cls-6" transform="translate(169.97 777.64) rotate(102.63) scale(.93 1)"><tspan x="0" y="0">E</tspan></text>
    <text class="cls-6" transform="translate(165.84 796.06) rotate(101.64) scale(.93 1)"><tspan x="0" y="0">S</tspan></text>
    <text class="cls-6" transform="translate(162.09 814.41) rotate(100.91) scale(.93 1)"><tspan x="0" y="0"> </tspan></text>
    <text class="cls-8" transform="translate(160.36 823.13) rotate(100.1) scale(.93 1)"><tspan x="0" y="0">2</tspan></text>
    <text class="cls-8" transform="translate(156.42 845.18) rotate(98.9) scale(.93 1)"><tspan x="0" y="0">K</tspan></text>
    <text class="cls-8" transform="translate(152.69 869.08) rotate(97.72) scale(.93 1)"><tspan x="0" y="0">2</tspan></text>
    <text class="cls-8" transform="translate(149.67 891.33) rotate(96.61) scale(.93 1)"><tspan x="0" y="0">4</tspan></text>
    <text class="cls-8" transform="translate(147.13 913.63) rotate(95.83) scale(.93 1)"><tspan x="0" y="0"> </tspan></text>
    <text class="cls-8" transform="translate(146.11 923.59) rotate(95.35) scale(.93 1)"><tspan x="0" y="0"> </tspan></text>
    <text class="cls-8" transform="translate(145.15 933.5) rotate(94.63) scale(.93 1)"><tspan x="0" y="0">F</tspan></text>
    <text class="cls-8" transform="translate(143.54 953.78) rotate(93.87) scale(.93 1)"><tspan x="0" y="0">I</tspan></text>
    <text class="cls-8" transform="translate(142.75 965.55) rotate(93.37) scale(.93 1)"><tspan x="0" y="0"> </tspan></text>
    <text class="cls-8" transform="translate(142.16 975.56) rotate(92.91) scale(.93 1)"><tspan x="0" y="0"> </tspan></text>
  </g>
</svg>