<?xml version="1.0" encoding="UTF-8"?>
<svg id="Layer_1" data-name="Layer 1" xmlns="http://www.w3.org/2000/svg" viewBox="0 0 706.67 954.22">
  <defs>
    <style>
      .cls-1 {
        stroke-dasharray: 0 0 12.06 12.06;
      }

      .cls-1, .cls-2, .cls-3, .cls-4, .cls-5, .cls-6, .cls-7 {
        fill: none;
        stroke: #fff;
        stroke-miterlimit: 10;
      }

      .cls-8 {
        opacity: .6;
      }

      .cls-8, .cls-9, .cls-10 {
        fill: #feb63a;
      }

      .cls-2 {
        stroke-dasharray: 0 12;
      }

      .cls-2, .cls-11, .cls-10 {
        opacity: .39;
      }

      .cls-4 {
        stroke-dasharray: 0 0 12.04 12.04;
      }

      .cls-5 {
        stroke-dasharray: 0 0 11.99 11.99;
      }

      .cls-6 {
        stroke-dasharray: 0 0 11.92 11.92;
      }

      .cls-7 {
        font-family: Calibri-Bold, Calibri;
        font-size: 40px;
        font-weight: 700;
      }
    </style>
  </defs>
  <path class="cls-9" d="M703.94,43.76h1.86v92.23l-15.84,13.04-6.06,5.12-5.12,4.19-4.19,4.19-3.73,3.26-7.92,7.45-21.43,21.43-3.26,3.73-5.59,6.06-6.06,6.99-5.59,6.52-3.73,4.66-5.12,6.52-6.52,8.38-6.52,8.85-6.06,8.38-12.11,18.17-6.52,10.25-7.92,13.51-5.59,9.78-6.52,12.11-4.19,7.92-5.12,10.71-6.52,13.51-8.38,20.03-6.52,16.77-4.66,13.04-5.12,15.37-4.66,15.37-5.59,20.5-1.86,7.92-2.33,9.32-1.4,7.92-1.86,6.52-2.79,17.24-1.4,6.06-2.33,15.37-1.86,12.58-2.33,19.56-.93,12.11-.47,9.32v9.32l-1.4,20.96,.93,.47h-.93v5.12l.47,.47v7.45l-.47,8.38,.93,.47v2.79l-.93-1.86-.47-.47v3.26l1.4,.47v13.97l.47,4.19,.47,10.71,1.86,22.83,2.33,20.96,2.79,18.63,3.26,18.63,3.73,18.17,3.26,14.44,5.59,20.96,3.73,12.58,4.19,13.51,7.92,22.36,5.12,13.04,6.06,14.44,6.99,15.37,5.59,11.65,5.12,10.25,6.06,10.71,5.12,9.32,4.66,7.45,5.59,9.32,3.73,5.59v.47H82.07v-9.32l-.47-4.19v-31.21l.47-11.65v-13.04l1.86-23.29,1.4-13.97,.47-9.32,2.33-19.56,2.79-23.76,3.26-22.36,3.73-18.63,2.33-12.58,2.33-9.78,2.33-11.65,1.86-7.45,2.33-9.78,6.06-23.29,5.12-17.24,2.79-9.32,6.99-21.89,6.99-20.03,6.99-18.63,8.38-20.96,5.12-12.11,5.12-11.65,6.99-15.37,7.92-16.3,9.32-18.63,4.66-8.85,7.45-13.51,6.52-11.65,5.59-9.32,2.33-4.19,2.79-4.19,2.79-5.12,5.59-8.85,4.66-7.45,13.04-19.56,5.12-7.45,3.26-4.66,3.73-5.12,1.4-2.33,3.73-5.12,2.79-3.73,3.73-5.12,12.11-15.84,4.66-6.06,4.19-5.12,3.73-4.66,6.52-7.92,4.19-5.12,5.12-6.06,6.06-6.99,5.12-5.59,4.19-5.12,3.73-3.73,3.26-3.73,6.52-6.99,6.99-7.45,6.99-6.99,.47-.93h.93l.93-1.86,10.25-10.25,3.73-3.26,8.38-8.38,3.73-3.26,6.99-6.52,1.86-1.4h.93l.47-1.86,6.06-5.12,4.66-4.19,3.73-3.26,6.52-5.12,2.33-2.33,5.12-4.66,4.19-3.26,6.06-5.12,19.56-15.37,2.33-2.33,1.86-.93,.47-.93,1.86-.47,1.86-1.86,2.33-1.86,1.4-1.4,2.33-.93,1.86-1.86h.93v-.93l2.79-1.4,1.4-1.4,1.4-.47,1.4-1.4,1.4-.47,.93-1.4,1.4-.47,.47-1.4,2.33-.47,.47-1.4,2.33-.93v-.93l2.33-.47,.47-1.4,3.26-1.4,2.33-1.4,.93-1.4,1.86-.47,.47-1.4,2.33-.47,.47-1.4,2.79-.47v-1.4l2.79-.47v-1.4l2.79-.93,1.4-1.4,1.4-.47,.93-1.4h2.33l.47-1.86,1.86-.47,.47-1.4,3.26-.93,.47-.93,2.79-.47v-1.4l2.79-.47v-1.4l3.26-.47v-1.86l2.79-.47,.47-1.4h2.79v-1.86h3.26v-1.86l2.79-.47,.47-1.4,2.33-.47,.47-1.4,2.79-.47,.47-1.4,3.26-.93v-.93l3.26-.47v-1.86h3.73l-.47-1.86,3.26-.47,.47-1.4,2.79-.47,.93-1.4,2.33-.47,1.4-1.4,2.33-.47,.47-1.4h2.79l.47-1.4,2.79-.93,.47-1.4,3.26-.47v-1.4l3.26-.47,.47-1.4,3.26-.47,.47-1.4,3.26-.93v-.93l3.73-.47v-1.4l3.26-.93,.93-.93,2.79-.47,.93-1.4,2.79-.47,.93-1.4,3.26-.47v-.93l3.26-1.4,.93-.93,3.26-.47,.47-1.4,3.26-.47v-.93l3.73-.93,.47-1.4,3.73-.47v-.93l3.73-.93,1.4-1.4,2.79-.47v-.93l3.73-.93,.47-.93,3.73-1.4v-.47l4.19-.47v-1.4l4.19-.47,.47-1.4,3.73-.93,.47-.93,3.73-.93,.47-.93,4.19-.47v-.93l5.59-2.33,3.26-.47v-.93l3.73-.93,.47-.93,4.19-.47v-1.4l4.66-.47,.47-1.4,4.19-.47v-.93l4.19-.93,.47-.93,4.19-.47,.47-1.4,5.59-1.4,.47-.47Zm-248.75,305.58l.47,.93-.47-.93Zm-52.64,14.44l.47,.93-.47-.93Zm90.83,5.12l.47,.93-.47-.93Zm-62.89,2.33l.47,.93-.47-.93Zm60.09,3.73l.47,.93-.47-.93Zm-38.2,.93l.47,.93-.47-.93Zm51.24,2.79l.47,.93-.47-.93Zm-15.84,2.79l-.47,.93h.93l-.47-.93Zm-40.53,5.12l.47,.93-.47-.93Zm53.1,.47l.47,.93-.47-.93Zm-42.39,.47l.47,.93-.47-.93Zm46.58,0l.47,.93-.47-.93Zm-109,.47l.47,.93-.47-.93Zm93.16,2.33l.47,.93-.47-.93Zm8.85,3.26l.47,.93-.47-.93Zm-96.89,10.25l.47,.93-.47-.93Zm-21.43,15.84l.47,.93-.47-.93Zm13.04,1.4l.47,.93-.47-.93Zm-2.79,6.06l.47,.93-.47-.93Zm23.76,6.99l.47,.93-.47-.93Zm-29.81,6.06l.47,.93-.47-.93Zm27.95,33.07l.47,1.86-.47-1.86Zm-29.35,5.12l.47,.93-.47-.93Zm-86.64,2.33l.47,.93-.47-.93Zm45.18,8.85l.47,.93-.47-.93Zm51.24,.47v2.79h.47v-2.79h-.47Zm-3.26,11.18l.47,1.4-.47-1.4Zm-16.3,6.52l.47,1.4-.47-1.4Zm-55.9,2.79l.47,.93-.47-.93Zm81.98,4.19l.47,.93-.47-.93Zm-28.88,.93l.47,.93-.47-.93Zm41.92,.93l.47,.93-.47-.93Zm55.9,.47l.47,.93-.47-.93Zm-98.29,1.4l.47,.93-.47-.93Zm80.12,1.4l.47,1.86-.47-1.86Zm17.7,1.86l.47,.93-.47-.93Zm-84.78,.93l.47,.93-.47-.93Zm66.61,1.4v2.79h.47v-2.79h-.47Zm-6.99,2.79v2.79h.47v-2.79h-.47Zm-91.3,1.4l.47,1.4-.47-1.4Zm97.82,0l.47,1.86-.47-1.86Zm-82.45,.93l.47,1.4-.47-1.4Zm93.63,0v2.33h.47v-2.33h-.47Zm6.52,1.4l.47,1.4-.47-1.4Zm-58.23,.93l.47,1.4-.47-1.4Zm20.03,0l.47,1.86,.47-1.86h-.93Zm13.51,.93v2.79h.47v-2.79h-.47Zm17.7,1.86l.47,1.4-.47-1.4Zm-80.59,1.4l.47,1.4-.47-1.4Zm-46.58,1.86l.47,.93-.47-.93Zm95.49,.93v2.33h.47v-2.33h-.47Zm-95.96,.47l.47,1.4-.47-1.4Zm31.21,0l.47,1.4-.47-1.4Zm-15.84,3.26l.47,1.4-.47-1.4Zm15.37,.93l.47,.93-.47-.93Zm82.45,3.73l.47,.93-.47-.93Zm-.47,2.79v2.33h.47v-2.33h-.47Zm-69.41,.47l.47,1.4-.47-1.4Zm-31.21,1.4v2.33h.47v-2.33h-.47Zm93.63,1.4l.47,.93-.47-.93Zm-118.32,.47l.47,1.4-.47-1.4Zm91.3,0l.47,.93-.47-.93Zm-51.24,.93l.47,1.86-.47-1.86Zm84.78,.47l.47,.93-.47-.93Zm-62.89,.93l.47,.93-.47-.93Zm42.86,0l.47,.93-.47-.93Zm13.04,1.4l.47,1.4-.47-1.4Zm-13.51,1.4v2.33h.47v-2.33h-.47Zm-13.51,.47v2.33h.47v-2.33h-.47Zm-84.78,.47l.47,.93-.47-.93Zm55.43,2.79l.47,1.4-.47-1.4Zm-64.75,.47v2.33h.47v-2.33h-.47Zm8.85,0l.47,1.86-.47-1.86Zm98.29,0l.47,1.4-.47-1.4Zm-35.87,.47l.47,.93-.47-.93Zm22.36,.47l.47,.93-.47-.93Zm-69.41,1.86v4.19h.47v-4.19h-.47Zm15.37,2.79l.47,1.4-.47-1.4Zm31.21,.93l.47,1.86-.47-1.86Zm35.4,2.79l.47,1.4-.47-1.4Zm-67.08,1.4l.47,.93-.47-.93Zm-42.39,1.4l.47,.93-.47-.93Zm8.85,0v2.33h.47v-2.33h-.47Zm-27.48,6.06l.47,.93-.47-.93Zm42.39,.47l.47,.93-.47-.93Zm68.94,2.79l.47,.93-.47-.93Zm-69.41,1.86l.47,1.4-.47-1.4Zm-18.17,1.4v4.66h.47v-4.66h-.47Zm49.38,.47l.47,.93-.47-.93Zm-15.84,1.4l.47,.93-.47-.93Zm31.21,.47l.47,1.4-.47-1.4Zm15.37,.93l.47,1.86-.47-1.86Zm-107.14,2.33l.47,1.4-.47-1.4Zm60.09,0l.47,1.4-.47-1.4Zm-18.17,4.66l.47,.93-.47-.93Zm33.07,2.33l.47,.93-.47-.93Zm-33.54,.93l.47,1.86-.47-1.86Zm48.91,.93l.47,.93-.47-.93Zm-67.08,1.86l.47,.93-.47-.93Zm-27.02,.93l.47,1.4-.47-1.4Zm18.17,0l.47,.93-.47-.93Zm41.92,3.73l.47,1.4-.47-1.4Zm-.47,4.19v2.33h.47v-2.33h-.47Zm-.47,4.66v2.33h.47v-2.33h-.47Zm-18.17,3.73l.47,1.86-.47-1.86Zm17.7,.47v2.33h.47v-2.33h-.47Zm15.84,0l.47,.93-.47-.93Zm-60.56,2.33l.47,.93-.47-.93Zm8.85,.47l.47,1.4-.47-1.4Zm17.7,.93v3.26h.47v-3.26h-.47Zm33.54,0l.47,1.4-.47-1.4Zm-78.26,1.4l.47,1.86-.47-1.86Zm26.55,1.86v3.26h.47v-3.26h-.47Zm17.7,1.4v3.26h.47v-3.26h-.47Zm-27.02,2.79l.47,1.4-.47-1.4Zm8.85,.47v2.33h.47v-2.33h-.47Zm17.7,.47l.47,.93-.47-.93Zm33.54,1.4l.47,1.86-.47-1.86Zm-118.78,4.66l.47,1.86-.47-1.86Zm37.73,.47l.47,1.86-.47-1.86Zm136.02,1.4l.47,1.86-.47-1.86Zm-136.49,4.66v4.19h.47v-4.19h-.47Zm136.02,0v2.33h.47v-2.33h-.47Zm-165.37,3.73l.47,.93-.47-.93Zm-51.24,.93l.47,.93-.47-.93Zm216.14,.47l.47,.93-.47-.93Zm-109.47,1.86v2.33h.47v-2.33h-.47Zm-107.14,1.4l.47,1.86-.47-1.86Zm216.14,.47v3.26h.47v-3.26h-.47Zm-73.6,1.86l.47,1.4-.47-1.4Zm-18.17,2.79l.47,1.4-.47-1.4Zm-84.78,.47l.47,1.86-.47-1.86Zm153.72,.93v2.33h.47v-2.33h-.47Zm-185.4,3.26l.47,1.4-.47-1.4Zm160.71,0l.47,1.4-.47-1.4Zm-44.72,.93l.47,1.86-.47-1.86Zm68.94,.47v3.26h.47v-3.26h-.47Zm-51.24,.47l.47,.93-.47-.93Zm-64.75,.47l.47,.93-.47-.93Zm91.3,.93l.47,1.86-.47-1.86Zm-171.89,1.86l.47,1.4-.47-1.4Zm196.11,.47l.47,1.4-.47-1.4Zm-144.87,.47v2.33h.47v-2.33h-.47Zm120.18,2.33l.47,1.4-.47-1.4Zm48.91,.93l.47,1.4-.47-1.4Zm-180.74,1.4l.47,.93-.47-.93Zm164.9,.47l.47,1.4-.47-1.4Zm-124.84,.47l.47,1.4-.47-1.4Zm140.21,1.86l.47,1.4-.47-1.4Zm-40.06,.47l.47,1.86-.47-1.86Zm-53.57,.47l.47,.93-.47-.93Zm-118.32,.47v2.33h.47v-2.33h-.47Zm71.27,0l.47,1.86-.47-1.86Zm124.84,0v2.79h.47v-2.79h-.47Zm-24.69,2.79v2.33h.47v-2.33h-.47Zm-183.07,.93l.47,1.86-.47-1.86Zm147.2,.47l.47,.93-.47-.93Zm-64.75,.47l.47,.93-.47-.93Zm-71.27,.47v2.33h.47v-2.33h-.47Zm31.21,0l.47,1.86-.47-1.86Zm164.9,.47v2.79h.47v-2.79h-.47Zm-24.69,1.4l.47,1.4-.47-1.4Zm-183.07,2.79v3.26h.47v-3.26h-.47Zm182.6,1.86l.47,1.4-.47-1.4Zm-205.43,3.26v2.33h.47v-2.33h-.47Zm204.96,0l.47,.93-.47-.93Zm-238.97,5.12l.47,1.4-.47-1.4Zm265.05,.93v2.33h.47v-2.33h-.47Zm-8.85,1.86l.47,1.86-.47-1.86Zm-191.92,.93l.47,1.86-.47-1.86Zm120.18,2.33l.47,1.4-.47-1.4Zm-120.65,2.79v4.19h.47v-4.19h-.47Zm-11.18,.93l.47,1.4-.47-1.4Zm169.09,2.33l.47,1.4-.47-1.4Zm-169.56,1.4v2.33h.47v-2.33h-.47Zm151.39,1.4v2.79h.47l.47-2.79h-.93Zm17.7,1.86v3.73h.47v-3.73h-.47Zm-18.17,2.79v2.79h.47v-2.79h-.47Zm-37.73,.47l.47,1.86-.47-1.86Zm-.47,4.19l.47,1.86-.47-1.86Zm37.73,1.4v3.73h.47v-3.73h-.47Zm80.12,.93l.47,.93-.47-.93Zm-118.32,2.33l.47,.93-.47-.93Zm-.47,3.73l.47,.93-.47-.93Zm20.03,.47v2.33h.47v-2.33h-.47Zm-124.84,.47l.47,1.4-.47-1.4Zm162.57,.93l.47,.93-.47-.93Zm-38.2,2.79v3.73h.47v-3.73h-.47Zm-124.84,2.33l.47,.93-.47-.93Zm-67.08,.93l.47,.93-.47-.93Zm171.42,1.4l.47,1.86-.47-1.86Zm20.03,.47v4.66h.47v-4.66h-.47Zm-29.35,3.73v2.33h.47v-2.33h-.47Zm-.47,4.19v2.79h.47v-2.79h-.47Zm131.36,2.79l.47,.93-.47-.93Zm-131.83,1.86v3.26h.47v-3.26h-.47Zm-20.5,4.19v2.79h.47v-2.79h-.47Zm20.03,.47v3.26h.47v-3.26h-.47Zm30.74,.93l.47,.93-.47-.93Zm-20.03,2.33v3.26h.47v-3.26h-.47Zm-31.21,.93v3.26h.47v-3.26h-.47Zm71.27,0l.47,.93-.47-.93Zm124.84,1.4l.47,.93-.47-.93Zm-196.58,3.26v2.33h.47v-2.33h-.47Zm31.21,.93v3.26h.47v-3.26h-.47Zm189.59,0l.47,1.4-.47-1.4Zm-221.26,3.73v2.33h.47v-2.33h-.47Zm-31.68,5.12l.47,1.86-.47-1.86Zm53.1,2.79v3.73h.47v-3.73h-.47Zm-53.57,1.86v2.79h.47v-2.79h-.47Zm256.2,.47v.93h.93v-.93h-.93Zm-22.36,4.66l.47,.93-.47-.93Zm8.38,2.79l.47,1.4-.47-1.4Zm-243.16,1.4l.47,.93-.47-.93Zm33.07,1.86v6.06h.47v-6.06h-.47Zm73.6,1.4l.47,.93-.47-.93Zm-107.14,1.4l.47,.93-.47-.93Zm262.72,5.12l.47,1.4-.47-1.4Zm-40.53,4.66l.47,.93-.47-.93Zm-114.13,2.33l.47,.93-.47-.93Zm140.68,.47l.47,.93-.47-.93Zm-161.17,1.86l.47,1.4-.47-1.4Zm136.02,2.33l.47,.93-.47-.93Zm42.39,0l.47,.93-.47-.93Zm-24.69,1.86l.47,.93-.47-.93Zm8.85,.93l.47,.93-.47-.93Zm-261.33,.47v2.79h.47v-2.79h-.47Zm140.68,.47l.47,1.86-.47-1.86Zm-95.96,1.86l.47,1.86-.47-1.86Zm-33.54,.47v4.66h.47v-4.66h-.47Zm225.46,0l.47,.93-.47-.93Zm-116.46,2.33l.47,1.4-.47-1.4Zm160.24,2.79l.47,.93-.47-.93Zm-280.89,.47v2.79h.47v-2.79h-.47Zm256.2,1.86l.47,.93-.47-.93Zm8.85,.47l.47,.93-.47-.93Zm-53.57,1.4l.47,.93-.47-.93Zm-132.29,4.19l.47,.93-.47-.93Zm151.86,0l.47,.93-.47-.93Zm-18.17,2.79l.47,.93,.47-.93h-.93Zm-247.82,2.33v3.73h.47v-3.73h-.47Zm294.4,0l.47,.93-.47-.93Zm8.85,.47l.47,.93-.47-.93Zm-73.6,1.4l.47,.93-.47-.93Zm-265.52,.93v2.33h.47v-2.33h-.47Zm285.08,1.4l.47,.93,.47-.93h-.93Zm55.9,1.4l.47,.93-.47-.93Zm-305.58,.47v3.73h.47v-3.73h-.47Zm323.28,1.4l.47,.93-.47-.93Zm-359.15,.47v2.33h.47v-2.33h-.47Zm24.22,.93l.47,.93-.47-.93Zm149.53,0v2.33h.47v-2.33h-.47Zm-102.48,.93l.47,.93-.47-.93Zm-47.05,.93l.47,.93-.47-.93Zm-24.69,1.86l.47,1.86-.47-1.86Zm24.22,2.33v2.79h.47v-2.79h-.47Zm-24.69,3.73l.47,1.4-.47-1.4Zm24.22,1.86l.47,.93-.47-.93Zm60.09,.93l.47,1.4-.47-1.4Zm207.29,1.4l.47,.93-.47-.93Zm28.88,.47l.47,.93-.47-.93Zm-200.77,2.33l.47,.93-.47-.93Zm111.33,0l.47,.93-.47-.93Zm-158.38,1.86l.47,.93-.47-.93Zm-35.87,.47l.47,.93-.47-.93Zm48.45,4.66l.47,.93-.47-.93Zm209.62,1.4l.47,.93-.47-.93Zm-221.26,3.26l.47,.93-.47-.93Zm48.45,8.85l.47,.93-.47-.93Zm197.97,4.19l.47,.93-.47-.93Zm-245.49,1.86l.47,.93-.47-.93Zm173.75,1.86l.47,.93-.47-.93Zm33.07,3.26l.47,.93-.47-.93Zm-74.53,9.78l.47,.93-.47-.93Zm-181.2,2.79l.47,.93-.47-.93Zm158.84,0l.47,.93-.47-.93Zm68.48,2.33l.47,.93,.47-.93h-.93Zm33.54,1.4l.47,.93-.47-.93Zm-78.26,.47l.47,.93,.47-.93h-.93Zm-182.6,.93l.47,.93-.47-.93Zm13.04,.47l.47,.93-.47-.93Zm37.73,1.86l.47,.93-.47-.93Zm-49.84,7.92l.47,.93-.47-.93Zm188.19,14.44l.47,.93-.47-.93Zm-187.26,.47l.47,1.86-.47-1.86Zm211.48,1.86l.47,.93-.47-.93Zm-109.47,.47l.47,.93-.47-.93Z"/>
  <path class="cls-9" d="M704.32,44.25l-.47,.47-5.59,1.4-.47,1.4-4.19,.47-.47,.93-4.19,.93v.93l-4.19,.47-.47,1.4-4.66,.47v1.4l-4.19,.47-.47,.93-3.73,.93v.93l-3.26,.47-5.59,2.33v.93l-4.19,.47-.47,.93-3.73,.93-.47,.93-3.73,.93-.47,1.4-4.19,.47v1.4l-4.19,.47v.47l-3.73,1.4-.47,.93-3.73,.93v.93l-2.79,.47-1.4,1.4-3.73,.93v.93l-3.73,.47-.47,1.4-3.73,.93v.93l-3.26,.47-.47,1.4-3.26,.47-.93,.93-3.26,1.4v.93l-3.26,.47-.93,1.4-2.79,.47-.93,1.4-2.79,.47-.93,.93-3.26,.93v1.4l-3.73,.47v.93l-3.26,.93-.47,1.4-3.26,.47-.47,1.4-3.26,.47v1.4l-3.26,.47-.47,1.4-2.79,.93-.47,1.4h-2.79l-.47,1.4-2.33,.47-1.4,1.4-2.33,.47-.93,1.4-2.79,.47-.47,1.4-3.26,.47,.47,1.86h-3.73v1.86l-3.26,.47v.93l-3.26,.93-.47,1.4-2.79,.47-.47,1.4-2.33,.47-.47,1.4-2.79,.47v1.86h-3.26v1.86h-2.79l-.47,1.4-2.79,.47v1.86l-3.26,.47v1.4l-2.79,.47v1.4l-2.79,.47-.47,.93-3.26,.93-.47,1.4-1.86,.47-.47,1.86h-2.33l-.93,1.4-1.4,.47-1.4,1.4-2.79,.93v1.4l-2.79,.47v1.4l-2.79,.47-.47,1.4-2.33,.47-.47,1.4-1.86,.47-.93,1.4-2.33,1.4-3.26,1.4-.47,1.4-2.33,.47v.93l-2.33,.93-.47,1.4-2.33,.47-.47,1.4-1.4,.47-.93,1.4-1.4,.47-1.4,1.4-1.4,.47-1.4,1.4-2.79,1.4v.93h-.93l-1.86,1.86-2.33,.93-1.4,1.4-2.33,1.86-1.86,1.86-1.86,.47-.47,.93-1.86,.93-2.33,2.33-19.56,15.37-6.06,5.12-4.19,3.26-5.12,4.66-2.33,2.33-6.52,5.12-3.73,3.26-4.66,4.19-6.06,5.12-.47,1.86h-.93l-1.86,1.4-6.99,6.52-3.73,3.26-8.38,8.38-3.73,3.26-10.25,10.25-.93,1.86h-.93l-.47,.93-6.99,6.99-6.99,7.45-6.52,6.99-3.26,3.73-3.73,3.73-4.19,5.12-5.12,5.59-6.06,6.99-5.12,6.06-4.19,5.12-6.52,7.92-3.73,4.66-4.19,5.12-4.66,6.06-12.11,15.84-3.73,5.12-2.79,3.73-3.73,5.12-1.4,2.33-3.73,5.12-3.26,4.66-5.12,7.45-13.04,19.56-4.66,7.45-5.59,8.85-2.79,5.12-2.79,4.19-2.33,4.19-5.59,9.32-6.52,11.65-7.45,13.51-4.66,8.85-9.32,18.63-7.92,16.3-6.99,15.37-5.12,11.65-5.12,12.11-8.38,20.96-6.99,18.63-6.99,20.03-6.99,21.89-2.79,9.32-5.12,17.24-6.06,23.29-2.33,9.78-1.86,7.45-2.33,11.65-2.33,9.78-2.33,12.58-3.73,18.63-3.26,22.36-2.79,23.76-2.33,19.56-.47,9.32-1.4,13.97-1.86,23.29v13.04l-.47,11.65v31.21l.47,4.19v9.32h495.17v-.47l-3.73-5.59-5.59-9.32-4.66-7.45-5.12-9.32-6.06-10.71-5.12-10.25-5.59-11.65-6.99-15.37-6.06-14.44-5.12-13.04-7.92-22.36-4.19-13.51-3.73-12.58-5.59-20.96-3.26-14.44-3.73-18.17-3.26-18.63-2.79-18.63-2.33-20.96-1.86-22.83-.47-10.71-.47-4.19v-5.07c-.23-2.08-.42-4.17-.53-6.27-.05-.95-.08-1.89-.09-2.84l-.78-.26v-3.26l.47,.47,.3,.61c0-.61,.02-1.22,.04-1.84l-.34-.17,.47-8.38v-7.45l-.47-.47v-5.12h.93l-.93-.47,1.4-20.96v-9.32l.47-9.32,.93-12.11,2.33-19.56,1.86-12.58,2.33-15.37,1.4-6.06,2.79-17.24,1.86-6.52,1.4-7.92,2.33-9.32,1.86-7.92,5.59-20.5,4.66-15.37,5.12-15.37,4.66-13.04,6.52-16.77,8.38-20.03,6.52-13.51,5.12-10.71,4.19-7.92,6.52-12.11,5.59-9.78,7.92-13.51,6.52-10.25,12.11-18.17,6.06-8.38,6.52-8.85,6.52-8.38,5.12-6.52,3.73-4.66,5.59-6.52,6.06-6.99,5.59-6.06,3.26-3.73,21.43-21.43,7.92-7.45,3.73-3.26,4.19-4.19,5.12-4.19,6.06-5.12,15.84-13.04V44.25h-1.86ZM147.67,848.26h-.47v-2.33h.47v2.33Zm.47-5.12h-.47v-2.33h.47v2.33Zm19.1-146.27h-.47v-2.33h.47v2.33Zm4.19,158.84h-.47v-2.79h.47v2.79Zm12.11-7.92h-.47v-3.73h.47v3.73Zm.47-6.06h-.47v-3.73h.47v3.73Zm1.4-126.24h-.47v-2.33h.47v2.33Zm4.66-22.83h-.47v-3.26h.47v3.26Zm6.99,20.03h-.47v-4.19h.47v4.19Zm4.66-25.62h-.47v-2.33h.47v2.33Zm.47-5.12h-.47v-2.33h.47v2.33Zm16.77,145.8h-.47v-2.79h.47v2.79Zm.47-8.38h-.47v-2.79h.47v2.79Zm11.18,4.66h-.47v-4.66h.47v4.66Zm1.4-38.66h-.47v-2.79h.47v2.79Zm13.51-112.26h-.47v-2.33h.47v2.33Zm18.63,126.7h-.47v-6.06h.47v6.06Zm0-24.69h-.47v-2.33h.47v2.33Zm.47-4.66h-.47v-2.33h.47v2.33Zm.47-3.73h-.47v-3.26h.47v3.26Zm.47-5.12h-.47v-2.79h.47v2.79Zm13.51-110.87h-.47v-4.19h.47v4.19Zm6.52,133.69h-.47v-3.73h.47v3.73Zm0-21.89h-.47v-3.26h.47v3.26Zm.47-4.66h-.47v-3.26h.47v3.26Zm.47-5.12h-.47v-2.79h.47v2.79Zm.47-4.66h-.47v-2.33h.47v2.33Zm8.85,24.22h-.47v-3.26h.47v3.26Zm.47-6.52h-.47v-3.26h.47v3.26Zm8.85-109.93h-.47v-2.33h.47v2.33Zm4.19-20.03h-.47v-2.33h.47v2.33Zm.47-3.73h-.47v-3.26h.47v3.26Zm6.06-68.94h.47v2.33h-.47v-2.33Zm.47,183.53h-.47v-4.66h.47v4.66Zm.47-6.06h-.47v-3.73h.47v3.73Zm.47-5.59h-.47v-2.33h.47v2.33Zm.93-142.54h-.47v-4.66h.47v4.66Zm3.26,256.67h-.47v-2.33h.47v2.33Zm.47-271.57h-.47v-2.33h.47v2.33Zm5.59,55.9h-.47v-3.26h.47v3.26Zm.47-4.66h-.47v-3.26h.47v3.26Zm7.92,100.15h-.47v-3.73h.47v3.73Zm.47-6.99h-.47v-2.79h.47v2.79Zm.47-4.66h-.47v-2.79h.93l-.47,2.79Zm3.73-147.2h-.47v-4.19h.47v4.19Zm3.73-15.84h-.47v-2.33h.47v2.33Zm1.86,69.87h-.47v-2.33h.47v2.33Zm.47-4.19h-.47v-2.33h.47v2.33Zm.47-4.66h-.47v-2.33h.47v2.33Zm6.99,101.08h.47v3.73h-.47v-3.73Zm.93,196.58l-.47-.93h.93l-.47,.93Zm18.63-228.25h-.47v-2.33h.47v2.33Zm17.24-15.37h-.47v-3.26h.47v3.26Zm.47-5.59h-.47v-2.33h.47v2.33Zm1.4-170.49h-.47v-2.79h.47v2.79Zm4.66,191.92h.47v2.79h-.47v-2.79Zm.93,17.7h-.47v-2.33h.47v2.33Zm0-20.5h-.47v-2.79h.47v2.79Zm1.4,228.72l-.47-.93h.93l-.47,.93Zm10.71-349.37h-.47v-2.33h.47v2.33Zm3.73,96.89h-.47v-3.26h.47v3.26Zm.93-9.78h-.47v-2.33h.47v2.33Zm8.85-87.57h-.47v-2.33h.47v2.33Zm4.19-20.03h-.47v-2.33h.47v2.33Zm.47-7.45l-.47-1.86h.93l-.47,1.86Zm3.26,302.78l-.47-.93h.93l-.47,.93Zm1.4,6.52l-.47-.93h.93l-.47,.93Zm8.85-307.44h-.47v-2.79h.47v2.79Zm.47-5.59h-.47v-2.79h.47v2.79Zm2.33,22.36h-.47v-2.33h.47v2.33Zm4.66-25.15h-.47v-2.79h.47v2.79Zm10.71,4.66h-.47v-2.33h.47v2.33Zm27.48,251.08h.93v.93h-.93v-.93Zm0-400.14l.47-.93,.47,.93h-.93Z"/>
  <path class="cls-9" d="M455.57,349.83l.47,.93-.47-.93Z"/>
  <path class="cls-10" d="M402.93,364.27l.47,.93-.47-.93Z"/>
  <path class="cls-10" d="M493.77,369.4l.47,.93-.47-.93Z"/>
  <path class="cls-10" d="M430.88,371.72l.47,.93-.47-.93Z"/>
  <path class="cls-10" d="M490.97,375.45l.47,.93-.47-.93Z"/>
  <path class="cls-10" d="M452.78,376.38l.47,.93-.47-.93Z"/>
  <path class="cls-10" d="M504.02,379.18l.47,.93-.47-.93Z"/>
  <path class="cls-10" d="M447.65,387.1l.47,.93-.47-.93Z"/>
  <path class="cls-10" d="M500.76,387.56l.47,.93-.47-.93Z"/>
  <path class="cls-10" d="M458.37,388.03l.47,.93-.47-.93Z"/>
  <path class="cls-10" d="M504.95,388.03l.47,.93-.47-.93Z"/>
  <path class="cls-10" d="M395.95,388.49l.47,.93-.47-.93Z"/>
  <path class="cls-10" d="M489.11,390.82l.47,.93-.47-.93Z"/>
  <path class="cls-10" d="M497.96,394.08l.47,.93-.47-.93Z"/>
  <path class="cls-10" d="M401.07,404.33l.47,.93-.47-.93Z"/>
  <path class="cls-10" d="M379.64,420.17l.47,.93-.47-.93Z"/>
  <path class="cls-10" d="M392.69,421.57l.47,.93-.47-.93Z"/>
  <path class="cls-10" d="M389.89,427.62l.47,.93-.47-.93Z"/>
  <path class="cls-10" d="M413.65,434.61l.47,.93-.47-.93Z"/>
  <path class="cls-10" d="M383.84,440.67l.47,.93-.47-.93Z"/>
  <path class="cls-10" d="M411.79,473.74l.47,1.86-.47-1.86Z"/>
  <path class="cls-10" d="M382.44,478.86l.47,.93-.47-.93Z"/>
  <path class="cls-10" d="M295.8,481.19l.47,.93-.47-.93Z"/>
  <path class="cls-10" d="M340.98,490.04l.47,.93-.47-.93Z"/>
  <path class="cls-10" d="M388.96,501.69l.47,1.4-.47-1.4Z"/>
  <path class="cls-10" d="M372.66,508.21l.47,1.4-.47-1.4Z"/>
  <path class="cls-10" d="M316.76,511l.47,.93-.47-.93Z"/>
  <path class="cls-10" d="M398.74,515.2l.47,.93-.47-.93Z"/>
  <path class="cls-10" d="M369.86,516.13l.47,.93-.47-.93Z"/>
  <path class="cls-10" d="M411.79,517.06l.47,.93-.47-.93Z"/>
  <path class="cls-10" d="M467.68,517.53l.47,.93-.47-.93Z"/>
  <path class="cls-10" d="M369.4,518.92l.47,.93-.47-.93Z"/>
  <path class="cls-10" d="M449.52,520.32l.47,1.86-.47-1.86Z"/>
  <path class="cls-10" d="M467.22,522.18l.47,.93-.47-.93Z"/>
  <path class="cls-10" d="M382.44,523.12l.47,.93-.47-.93Z"/>
  <path class="cls-10" d="M350.76,528.71l.47,1.4-.47-1.4Z"/>
  <path class="cls-10" d="M448.58,528.71l.47,1.86-.47-1.86Z"/>
  <path class="cls-10" d="M366.13,529.64l.47,1.4-.47-1.4Z"/>
  <path class="cls-10" d="M466.29,531.04l.47,1.4-.47-1.4Z"/>
  <path class="cls-10" d="M408.06,531.97l.47,1.4-.47-1.4Z"/>
  <path class="cls-10" d="M459.3,534.76l.47,1.4-.47-1.4Z"/>
  <path class="cls-10" d="M378.71,536.16l.47,1.4-.47-1.4Z"/>
  <path class="cls-10" d="M332.13,538.02l.47,.93-.47-.93Z"/>
  <path class="cls-10" d="M331.66,539.42l.47,1.4-.47-1.4Z"/>
  <path class="cls-10" d="M362.87,539.42l.47,1.4-.47-1.4Z"/>
  <path class="cls-10" d="M347.04,542.68l.47,1.4-.47-1.4Z"/>
  <path class="cls-10" d="M362.41,543.61l.47,.93-.47-.93Z"/>
  <path class="cls-10" d="M444.86,547.34l.47,.93-.47-.93Z"/>
  <path class="cls-10" d="M374.99,550.6l.47,1.4-.47-1.4Z"/>
  <path class="cls-10" d="M437.41,553.39l.47,.93-.47-.93Z"/>
  <path class="cls-10" d="M319.09,553.86l.47,1.4-.47-1.4Z"/>
  <path class="cls-10" d="M410.39,553.86l.47,.93-.47-.93Z"/>
  <path class="cls-10" d="M359.15,554.79l.47,1.86-.47-1.86Z"/>
  <path class="cls-10" d="M443.93,555.26l.47,.93-.47-.93Z"/>
  <path class="cls-10" d="M381.04,556.19l.47,.93-.47-.93Z"/>
  <path class="cls-10" d="M423.9,556.19l.47,.93-.47-.93Z"/>
  <path class="cls-10" d="M436.94,557.59l.47,1.4-.47-1.4Z"/>
  <path class="cls-10" d="M325.14,559.92l.47,.93-.47-.93Z"/>
  <path class="cls-10" d="M380.58,562.71l.47,1.4-.47-1.4Z"/>
  <path class="cls-10" d="M324.68,563.18l.47,1.86-.47-1.86Z"/>
  <path class="cls-10" d="M422.96,563.18l.47,1.4-.47-1.4Z"/>
  <path class="cls-10" d="M387.1,563.64l.47,.93-.47-.93Z"/>
  <path class="cls-10" d="M409.46,564.11l.47,.93-.47-.93Z"/>
  <path class="cls-10" d="M355.42,568.77l.47,1.4-.47-1.4Z"/>
  <path class="cls-10" d="M386.63,569.7l.47,1.86-.47-1.86Z"/>
  <path class="cls-10" d="M422.03,572.49l.47,1.4-.47-1.4Z"/>
  <path class="cls-10" d="M354.96,573.89l.47,.93-.47-.93Z"/>
  <path class="cls-10" d="M312.57,575.29l.47,.93-.47-.93Z"/>
  <path class="cls-10" d="M293.93,581.34l.47,.93-.47-.93Z"/>
  <path class="cls-10" d="M336.32,581.81l.47,.93-.47-.93Z"/>
  <path class="cls-10" d="M405.26,584.6l.47,.93-.47-.93Z"/>
  <path class="cls-10" d="M335.86,586.47l.47,1.4-.47-1.4Z"/>
  <path class="cls-10" d="M367.07,588.33l.47,.93-.47-.93Z"/>
  <path class="cls-10" d="M351.23,589.73l.47,.93-.47-.93Z"/>
  <path class="cls-10" d="M382.44,590.19l.47,1.4-.47-1.4Z"/>
  <path class="cls-10" d="M397.81,591.13l.47,1.86-.47-1.86Z"/>
  <path class="cls-10" d="M290.67,593.46l.47,1.4-.47-1.4Z"/>
  <path class="cls-10" d="M350.76,593.46l.47,1.4-.47-1.4Z"/>
  <path class="cls-10" d="M332.6,598.11l.47,.93-.47-.93Z"/>
  <path class="cls-10" d="M365.67,600.44l.47,.93-.47-.93Z"/>
  <path class="cls-10" d="M332.13,601.37l.47,1.86-.47-1.86Z"/>
  <path class="cls-10" d="M381.04,602.31l.47,.93-.47-.93Z"/>
  <path class="cls-10" d="M313.96,604.17l.47,.93-.47-.93Z"/>
  <path class="cls-10" d="M286.95,605.1l.47,1.4-.47-1.4Z"/>
  <path class="cls-10" d="M305.11,605.1l.47,.93-.47-.93Z"/>
  <path class="cls-10" d="M347.04,608.83l.47,1.4-.47-1.4Z"/>
  <path class="cls-8" d="M327.94,621.4l.47,1.86-.47-1.86Z"/>
  <path class="cls-8" d="M361.48,621.87l.47,.93-.47-.93Z"/>
  <path class="cls-8" d="M300.92,624.2l.47,.93-.47-.93Z"/>
  <path class="cls-8" d="M309.77,624.67l.47,1.4-.47-1.4Z"/>
  <path class="cls-8" d="M361.01,625.6l.47,1.4-.47-1.4Z"/>
  <path class="cls-8" d="M282.75,626.99l.47,1.86-.47-1.86Z"/>
  <path class="cls-8" d="M299.99,633.05l.47,1.4-.47-1.4Z"/>
  <path class="cls-8" d="M326.54,633.98l.47,.93-.47-.93Z"/>
  <path class="cls-8" d="M360.08,635.38l.47,1.86-.47-1.86Z"/>
  <path class="cls-8" d="M241.29,640.04l.47,1.86-.47-1.86Z"/>
  <path class="cls-8" d="M279.03,640.5l.47,1.86-.47-1.86Z"/>
  <path class="cls-8" d="M415.05,641.9l.47,1.86-.47-1.86Z"/>
  <path class="cls-8" d="M249.21,650.29l.47,.93-.47-.93Z"/>
  <path class="cls-8" d="M197.97,651.22l.47,.93-.47-.93Z"/>
  <path class="cls-8" d="M414.11,651.68l.47,.93-.47-.93Z"/>
  <path class="cls-8" d="M197.51,654.94l.47,1.86-.47-1.86Z"/>
  <path class="cls-8" d="M340.05,657.27l.47,1.4-.47-1.4Z"/>
  <path class="cls-8" d="M321.88,660.07l.47,1.4-.47-1.4Z"/>
  <path class="cls-8" d="M237.1,660.53l.47,1.86-.47-1.86Z"/>
  <path class="cls-8" d="M205.43,664.73l.47,1.4-.47-1.4Z"/>
  <path class="cls-8" d="M366.13,664.73l.47,1.4-.47-1.4Z"/>
  <path class="cls-8" d="M321.42,665.66l.47,1.86-.47-1.86Z"/>
  <path class="cls-8" d="M339.12,666.59l.47,.93-.47-.93Z"/>
  <path class="cls-8" d="M274.37,667.05l.47,.93-.47-.93Z"/>
  <path class="cls-8" d="M365.67,667.99l.47,1.86-.47-1.86Z"/>
  <path class="cls-8" d="M193.78,669.85l.47,1.4-.47-1.4Z"/>
  <path class="cls-8" d="M389.89,670.32l.47,1.4-.47-1.4Z"/>
  <path class="cls-8" d="M365.2,673.11l.47,1.4-.47-1.4Z"/>
  <path class="cls-8" d="M414.11,674.04l.47,1.4-.47-1.4Z"/>
  <path class="cls-8" d="M233.38,675.44l.47,.93-.47-.93Z"/>
  <path class="cls-8" d="M398.28,675.91l.47,1.4-.47-1.4Z"/>
  <path class="cls-8" d="M273.44,676.37l.47,1.4-.47-1.4Z"/>
  <path class="cls-8" d="M413.65,678.23l.47,1.4-.47-1.4Z"/>
  <path class="cls-8" d="M373.59,678.7l.47,1.86-.47-1.86Z"/>
  <path class="cls-8" d="M320.02,679.17l.47,.93-.47-.93Z"/>
  <path class="cls-8" d="M272.97,679.63l.47,1.86-.47-1.86Z"/>
  <path class="cls-8" d="M190.05,683.36l.47,1.86-.47-1.86Z"/>
  <path class="cls-8" d="M337.25,683.82l.47,.93-.47-.93Z"/>
  <path class="cls-8" d="M272.5,684.29l.47,.93-.47-.93Z"/>
  <path class="cls-8" d="M232.44,684.76l.47,1.86-.47-1.86Z"/>
  <path class="cls-8" d="M372.66,686.62l.47,1.4-.47-1.4Z"/>
  <path class="cls-8" d="M372.19,691.28l.47,1.4-.47-1.4Z"/>
  <path class="cls-8" d="M371.72,694.54l.47,.93-.47-.93Z"/>
  <path class="cls-8" d="M132.76,699.66l.47,1.4-.47-1.4Z"/>
  <path class="cls-8" d="M388.96,702.46l.47,1.86-.47-1.86Z"/>
  <path class="cls-8" d="M197.04,703.39l.47,1.86-.47-1.86Z"/>
  <path class="cls-8" d="M317.22,705.72l.47,1.4-.47-1.4Z"/>
  <path class="cls-8" d="M185.4,709.44l.47,1.4-.47-1.4Z"/>
  <path class="cls-8" d="M354.49,711.77l.47,1.4-.47-1.4Z"/>
  <path class="cls-8" d="M298.12,719.69l.47,1.86-.47-1.86Z"/>
  <path class="cls-8" d="M297.66,723.88l.47,1.86-.47-1.86Z"/>
  <path class="cls-8" d="M415.51,726.21l.47,.93-.47-.93Z"/>
  <path class="cls-8" d="M297.19,728.54l.47,.93-.47-.93Z"/>
  <path class="cls-8" d="M296.73,732.27l.47,.93-.47-.93Z"/>
  <path class="cls-8" d="M191.92,733.2l.47,1.4-.47-1.4Z"/>
  <path class="cls-8" d="M354.49,734.13l.47,.93-.47-.93Z"/>
  <path class="cls-8" d="M191.45,739.26l.47,.93-.47-.93Z"/>
  <path class="cls-8" d="M124.37,740.19l.47,.93-.47-.93Z"/>
  <path class="cls-8" d="M295.8,741.59l.47,1.86-.47-1.86Z"/>
  <path class="cls-8" d="M417.38,752.77l.47,.93-.47-.93Z"/>
  <path class="cls-8" d="M315.83,760.22l.47,.93-.47-.93Z"/>
  <path class="cls-8" d="M335.86,763.48l.47,.93-.47-.93Z"/>
  <path class="cls-8" d="M460.7,764.88l.47,.93-.47-.93Z"/>
  <path class="cls-8" d="M484.92,769.07l.47,1.4-.47-1.4Z"/>
  <path class="cls-8" d="M231.98,777.92l.47,1.86-.47-1.86Z"/>
  <path class="cls-8" d="M465.35,787.7l.47,.93-.47-.93Z"/>
  <path class="cls-8" d="M473.74,790.5l.47,1.4-.47-1.4Z"/>
  <path class="cls-8" d="M230.58,791.89l.47,.93-.47-.93Z"/>
  <path class="cls-8" d="M337.25,795.16l.47,.93-.47-.93Z"/>
  <path class="cls-8" d="M230.12,796.55l.47,.93-.47-.93Z"/>
  <path class="cls-8" d="M492.84,801.68l.47,1.4-.47-1.4Z"/>
  <path class="cls-8" d="M452.31,806.33l.47,.93-.47-.93Z"/>
  <path class="cls-8" d="M338.19,808.66l.47,.93-.47-.93Z"/>
  <path class="cls-8" d="M478.86,809.13l.47,.93-.47-.93Z"/>
  <path class="cls-8" d="M317.69,810.99l.47,1.4-.47-1.4Z"/>
  <path class="cls-8" d="M453.71,813.32l.47,.93-.47-.93Z"/>
  <path class="cls-8" d="M496.1,813.32l.47,.93-.47-.93Z"/>
  <path class="cls-8" d="M471.41,815.19l.47,.93-.47-.93Z"/>
  <path class="cls-8" d="M480.26,816.12l.47,.93-.47-.93Z"/>
  <path class="cls-8" d="M359.61,817.05l.47,1.86-.47-1.86Z"/>
  <path class="cls-8" d="M263.65,818.91l.47,1.86-.47-1.86Z"/>
  <path class="cls-8" d="M455.57,819.38l.47,.93-.47-.93Z"/>
  <path class="cls-8" d="M339.12,821.71l.47,1.4-.47-1.4Z"/>
  <path class="cls-8" d="M499.36,824.5l.47,.93-.47-.93Z"/>
  <path class="cls-8" d="M474.67,826.83l.47,.93-.47-.93Z"/>
  <path class="cls-8" d="M483.52,827.3l.47,.93-.47-.93Z"/>
  <path class="cls-8" d="M429.95,828.69l.47,.93-.47-.93Z"/>
  <path class="cls-8" d="M297.66,832.89l.47,.93-.47-.93Z"/>
  <path class="cls-8" d="M449.52,832.89l.47,.93-.47-.93Z"/>
  <path class="cls-8" d="M477.93,838.01l.47,.93-.47-.93Z"/>
  <path class="cls-8" d="M486.78,838.48l.47,.93-.47-.93Z"/>
  <path class="cls-8" d="M413.18,839.87l.47,.93-.47-.93Z"/>
  <path class="cls-8" d="M488.65,843.6l.47,.93-.47-.93Z"/>
  <path class="cls-8" d="M506.35,845.46l.47,.93-.47-.93Z"/>
  <path class="cls-8" d="M171.42,846.86l.47,.93-.47-.93Z"/>
  <path class="cls-8" d="M218.47,847.79l.47,.93-.47-.93Z"/>
  <path class="cls-8" d="M171.42,848.72l.47,.93-.47-.93Z"/>
  <path class="cls-8" d="M146.73,850.59l.47,1.86-.47-1.86Z"/>
  <path class="cls-8" d="M146.27,856.64l.47,1.4-.47-1.4Z"/>
  <path class="cls-8" d="M170.49,858.51l.47,.93-.47-.93Z"/>
  <path class="cls-8" d="M230.58,859.44l.47,1.4-.47-1.4Z"/>
  <path class="cls-8" d="M437.87,860.84l.47,.93-.47-.93Z"/>
  <path class="cls-8" d="M466.75,861.3l.47,.93-.47-.93Z"/>
  <path class="cls-8" d="M265.98,863.63l.47,.93-.47-.93Z"/>
  <path class="cls-8" d="M377.31,863.63l.47,.93-.47-.93Z"/>
  <path class="cls-8" d="M218.94,865.49l.47,.93-.47-.93Z"/>
  <path class="cls-8" d="M183.07,865.96l.47,.93-.47-.93Z"/>
  <path class="cls-8" d="M231.51,870.62l.47,.93-.47-.93Z"/>
  <path class="cls-8" d="M441.13,872.02l.47,.93-.47-.93Z"/>
  <path class="cls-8" d="M219.87,875.28l.47,.93-.47-.93Z"/>
  <path class="cls-8" d="M268.31,884.13l.47,.93-.47-.93Z"/>
  <path class="cls-8" d="M466.29,888.32l.47,.93-.47-.93Z"/>
  <path class="cls-8" d="M220.8,890.18l.47,.93-.47-.93Z"/>
  <path class="cls-8" d="M394.55,892.05l.47,.93-.47-.93Z"/>
  <path class="cls-8" d="M427.62,895.31l.47,.93-.47-.93Z"/>
  <path class="cls-8" d="M353.09,905.09l.47,.93-.47-.93Z"/>
  <path class="cls-8" d="M171.89,907.88l.47,.93-.47-.93Z"/>
  <path class="cls-8" d="M330.73,907.88l.47,.93-.47-.93Z"/>
  <path class="cls-8" d="M432.75,911.61l.47,.93-.47-.93Z"/>
  <path class="cls-8" d="M171.89,913.01l.47,.93-.47-.93Z"/>
  <path class="cls-8" d="M184.93,913.47l.47,.93-.47-.93Z"/>
  <path class="cls-8" d="M222.66,915.34l.47,.93-.47-.93Z"/>
  <path class="cls-8" d="M172.82,923.26l.47,.93-.47-.93Z"/>
  <g class="cls-11">
    <g>
      <path class="cls-3" d="M705.69,71.94c-1.88,.68-3.76,1.38-5.63,2.08"/>
      <path class="cls-1" d="M688.81,78.39c-66.24,26.61-123.65,64.93-183.62,109.21-92,68-160,146-218,243-2,3-2,6-4,9-27,43-45,87-66,132-1,2,0,3-1,5-21,49-36,98-49,150-6,26-10,50-16,77-8,41-12,79-17,119-.59,5.88-1.18,11.41-1.41,17.02"/>
      <path class="cls-3" d="M132.68,945.65c.02,1.97,.09,3.96,.24,6"/>
    </g>
  </g>
  <path class="cls-8" d="M361.01,937.7l.47,.93-.47-.93Z"/>
  <path class="cls-8" d="M173.75,938.16l.47,1.86-.47-1.86Z"/>
  <path class="cls-8" d="M385.23,940.03l.47,.93-.47-.93Z"/>
  <path class="cls-8" d="M275.77,940.49l.47,.93-.47-.93Z"/>
  <path class="cls-9" d="M704.79,0h1.4V5.59l-19.56,6.52-27.48,10.25-15.37,6.06-20.03,8.38-20.96,9.32-6.99,3.26-20.96,10.25-14.91,7.45-10.25,5.59-8.85,4.66-7.45,4.19-6.52,3.73-11.18,6.52-10.25,6.06-6.06,3.73-11.18,6.99-10.25,6.52-12.58,8.38-3.73,2.79-2.33,1.4-5.59,3.73-4.66,3.26-16.77,12.11-6.99,5.12-7.45,5.59-4.66,3.73-6.06,4.66-6.06,5.12-7.45,6.06-5.12,4.19-7.45,6.06-6.52,5.12-5.59,5.12-5.12,4.19-6.52,6.06-3.73,3.26-7.45,6.99-1.4,.47v.93l-3.73,3.26-7.45,6.99-13.51,13.51-4.66,4.19-6.52,6.99-8.38,8.38-3.26,3.73-3.73,3.73-3.26,3.73-6.52,6.99-4.19,4.66-3.26,3.73-5.59,6.52-4.19,4.66-4.19,5.12-5.12,6.06-5.12,6.52-5.59,6.52-10.25,13.04-4.66,6.06-11.18,14.91-5.12,6.99-3.26,4.66-5.12,7.45-5.59,7.92-2.79,4.19-3.26,4.66-3.26,5.12-3.26,4.66-3.73,6.06-3.26,5.12-5.59,8.85-3.73,6.06-4.19,6.99-6.52,11.18-3.73,6.52-6.99,12.58-5.59,10.25-6.52,12.58-4.66,8.85-3.73,7.92-4.19,7.92-6.99,15.37-7.45,16.3-5.12,12.11-5.59,13.51-4.66,11.65-6.99,18.63-7.92,22.36-6.52,20.03-6.06,19.56-5.59,20.5-3.26,12.11-4.66,18.63-5.59,24.69-1.86,9.78-3.26,16.77-1.4,7.45-1.4,10.25-2.79,17.7-1.4,11.65-1.4,6.52-4.66,46.12v9.32l-1.86,25.15v19.1l-.47,7.92v24.22H0v-5.12l.47-10.25v-4.66l-.47-3.26,1.4-24.69,.47-8.85v-7.45l1.4-18.63,3.73-35.87,2.33-16.77,.93-5.12,2.33-15.84,2.33-12.58,1.86-12.11,3.26-13.97,1.4-8.85,2.79-10.71,2.33-10.71,6.06-24.22,4.66-17.24,6.06-20.03,5.12-16.77,7.45-21.89,8.85-24.22,5.59-14.44,4.19-10.25,5.12-12.11,5.59-13.04,3.73-8.38,5.12-11.18,3.73-7.45,5.12-10.71,4.19-8.85,1.86-3.26,1.4-2.79,4.66-8.85,4.19-7.92,3.26-5.59,2.79-5.59,3.26-5.59,2.79-5.12,2.33-3.73,1.4-2.79,12.58-20.96,1.86-2.33,1.86-3.73,3.73-6.06,3.73-5.59,3.26-4.66,2.33-3.73,2.79-4.19,4.66-7.45h.93l.93-2.33,3.73-5.59,4.19-6.06,6.06-8.38,5.59-7.92,4.66-6.06,5.59-7.45,4.66-6.06,3.26-4.19,4.66-6.06,3.73-4.66,4.19-5.12,5.12-6.06,3.26-4.19,5.59-6.52,5.12-6.06,4.66-5.12,4.19-5.12,3.73-3.73,4.19-5.12,3.73-3.73,3.26-3.73,2.79-3.26h.93l.93-1.86,6.99-6.99,.47-.93h.93v-.93l27.02-27.02,3.73-3.26,4.19-4.19,3.73-3.26,4.66-4.66,3.73-3.26,6.06-5.59,5.12-4.19,5.59-5.12,5.12-4.19,3.26-3.26,25.62-20.96,7.45-6.06,4.66-3.26,8.38-6.52,7.45-5.59,8.85-6.52,13.04-9.32,6.06-4.19,6.99-4.66,5.12-3.73,7.45-4.66,6.99-4.66,6.52-4.19,8.38-5.12,5.12-3.26,6.06-3.73,13.97-8.38,5.12-2.79,11.18-6.52,6.99-3.73,10.25-5.59,16.3-8.38,24.22-12.11,14.44-6.52,6.99-3.26,11.65-5.12,12.11-5.12,8.85-3.73,13.04-5.12,18.17-6.99,14.44-5.12,19.1-6.52,11.65-3.73Z"/>
  <text class="cls-7" transform="translate(683.96 66.55) rotate(156.08)"><tspan x="0" y="0">F</tspan></text>
  <text class="cls-7" transform="translate(666.77 74.77) rotate(158.73)"><tspan x="0" y="0">I</tspan></text>
  <text class="cls-7" transform="translate(656.23 78.41) rotate(161.57)"><tspan x="0" y="0">T</tspan></text>
  <text class="cls-7" transform="translate(635.45 86.24) rotate(156.35)"><tspan x="0" y="0"> </tspan></text>
  <text class="cls-7" transform="translate(625.93 90.36) rotate(154.78)"><tspan x="0" y="0">S</tspan></text>
  <text class="cls-7" transform="translate(607.64 99.06) rotate(153.21)"><tspan x="0" y="0">I</tspan></text>
  <text class="cls-7" transform="translate(597.03 104.35) rotate(151.64)"><tspan x="0" y="0">X</tspan></text>
  <text class="cls-7" transform="translate(577.04 115.18) rotate(149.93)"><tspan x="0" y="0">E</tspan></text>
  <text class="cls-7" transform="translate(559.88 125.14) rotate(148.58)"><tspan x="0" y="0">S</tspan></text>
  <text class="cls-7" transform="translate(543.09 135.45) rotate(147.72)"><tspan x="0" y="0"> </tspan></text>
  <text class="cls-7" transform="translate(533.83 141.25) rotate(144.15)"><tspan x="0" y="0">2</tspan></text>
  <text class="cls-7" transform="translate(517.3 153.73) rotate(148.03)"><tspan x="0" y="0">K</tspan></text>
  <text class="cls-7" transform="translate(497.36 166.26) rotate(145.32)"><tspan x="0" y="0">2</tspan></text>
  <text class="cls-7" transform="translate(479.42 178.72) rotate(142.95)"><tspan x="0" y="0">4</tspan></text>
  <text class="cls-7" transform="translate(462.23 191.82) rotate(141.39)"><tspan x="0" y="0">	</tspan></text>
  <text class="cls-7" transform="translate(461.87 192.1) rotate(141.34)"><tspan x="0" y="0">	</tspan></text>
  <text class="cls-7" transform="translate(434.2 215.12) rotate(138.16)"><tspan x="0" y="0">F</tspan></text>
  <text class="cls-7" transform="translate(419.98 227.91) rotate(137.29)"><tspan x="0" y="0">I</tspan></text>
  <text class="cls-7" transform="translate(411.55 235.66) rotate(136.57)"><tspan x="0" y="0">T</tspan></text>
  <text class="cls-7" transform="translate(396.58 249.87) rotate(136.08)"><tspan x="0" y="0"> </tspan></text>
  <text class="cls-7" transform="translate(389.44 256.74) rotate(135.78)"><tspan x="0" y="0">S</tspan></text>
  <text class="cls-7" transform="translate(374.59 271.54) rotate(131.69)"><tspan x="0" y="0">I</tspan></text>
  <text class="cls-7" transform="translate(367.11 280.36) rotate(132.42)"><tspan x="0" y="0">X</tspan></text>
  <text class="cls-7" transform="translate(351.72 297.14) rotate(131.67)"><tspan x="0" y="0">E</tspan></text>
  <text class="cls-7" transform="translate(338.47 312.05) rotate(131.27)"><tspan x="0" y="0">S</tspan></text>
  <text class="cls-7" transform="translate(325.44 326.92) rotate(131.43)"><tspan x="0" y="0"> </tspan></text>
  <text class="cls-7" transform="translate(318.67 335.15) rotate(128.39)"><tspan x="0" y="0">2</tspan></text>
  <text class="cls-7" transform="translate(305.03 352.08) rotate(126.39)"><tspan x="0" y="0">K</tspan></text>
  <text class="cls-7" transform="translate(291.58 370.53) rotate(125.02)"><tspan x="0" y="0">2</tspan></text>
  <text class="cls-7" transform="translate(279.5 387.76) rotate(124.05)"><tspan x="0" y="0">4</tspan></text>
  <text class="cls-7" transform="translate(267.74 405.25) rotate(123.23)"><tspan x="0" y="0">	</tspan></text>
  <text class="cls-7" transform="translate(267.51 405.6) rotate(123.21)"><tspan x="0" y="0">	</tspan></text>
  <text class="cls-7" transform="translate(248.33 435.73) rotate(120.66)"><tspan x="0" y="0">F</tspan></text>
  <text class="cls-7" transform="translate(238.61 452.2) rotate(119.55)"><tspan x="0" y="0">I</tspan></text>
  <text class="cls-7" transform="translate(232.96 462.09) rotate(118.31)"><tspan x="0" y="0">T</tspan></text>
  <text class="cls-7" transform="translate(223.27 480.21) rotate(117.08)"><tspan x="0" y="0"> </tspan></text>
  <text class="cls-7" transform="translate(218.77 488.91) rotate(115.83)"><tspan x="0" y="0">S</tspan></text>
  <text class="cls-7" transform="translate(209.27 507.95) rotate(110.65)"><tspan x="0" y="0">I</tspan></text>
  <text class="cls-7" transform="translate(206.28 518.98) rotate(113.45)"><tspan x="0" y="0">X</tspan></text>
  <text class="cls-7" transform="translate(196.19 539.58) rotate(115.17)"><tspan x="0" y="0">E</tspan></text>
  <text class="cls-7" transform="translate(187.11 559) rotate(110.29)"><tspan x="0" y="0">S</tspan></text>
  <text class="cls-7" transform="translate(180.03 578.94) rotate(105.52)"><tspan x="0" y="0"> </tspan></text>
  <text class="cls-7" transform="translate(177.87 587.83) rotate(112.7)"><tspan x="0" y="0">2</tspan></text>
  <text class="cls-7" transform="translate(169.5 607.89) rotate(110.66)"><tspan x="0" y="0">K</tspan></text>
  <text class="cls-7" transform="translate(161.57 629.01) rotate(108.9)"><tspan x="0" y="0">2</tspan></text>
  <text class="cls-7" transform="translate(154.79 648.86) rotate(107.46)"><tspan x="0" y="0">4</tspan></text>
  <text class="cls-7" transform="translate(148.52 668.98) rotate(106.57)"><tspan x="0" y="0">	</tspan></text>
  <text class="cls-7" transform="translate(148.39 669.4) rotate(106.55)"><tspan x="0" y="0">	</tspan></text>
  <text class="cls-7" transform="translate(138.54 703.84) rotate(104.97)"><tspan x="0" y="0">F</tspan></text>
  <text class="cls-7" transform="translate(133.6 722.39) rotate(104.64)"><tspan x="0" y="0">I</tspan></text>
  <text class="cls-7" transform="translate(130.62 734.04) rotate(102.65)"><tspan x="0" y="0">T</tspan></text>
  <text class="cls-7" transform="translate(126.11 754.19) rotate(102.3)"><tspan x="0" y="0"> </tspan></text>
  <text class="cls-7" transform="translate(124 763.83) rotate(101.88)"><tspan x="0" y="0">S</tspan></text>
  <text class="cls-7" transform="translate(119.95 783.15) rotate(101.37)"><tspan x="0" y="0">I</tspan></text>
  <text class="cls-7" transform="translate(117.66 794.4) rotate(100.73)"><tspan x="0" y="0">X</tspan></text>
  <text class="cls-7" transform="translate(113.43 816.8) rotate(99.86)"><tspan x="0" y="0">E</tspan></text>
  <text class="cls-7" transform="translate(109.99 836.75) rotate(98.1)"><tspan x="0" y="0">S</tspan></text>
  <text class="cls-7" transform="translate(107.24 856.25) rotate(97.48)"><tspan x="0" y="0"> </tspan></text>
  <text class="cls-7" transform="translate(105.93 866.04) rotate(96.79)"><tspan x="0" y="0">2</tspan></text>
  <text class="cls-7" transform="translate(103.44 886.92) rotate(95.78)"><tspan x="0" y="0">K</tspan></text>
  <text class="cls-7" transform="translate(101.18 909.43) rotate(94.72)"><tspan x="0" y="0">2</tspan></text>
  <text class="cls-7" transform="translate(99.45 930.42) rotate(93.7)"><tspan x="0" y="0">4</tspan></text>
  <text class="cls-7" transform="translate(98.14 951.48) rotate(93.13)"><tspan x="0" y="0">	</tspan></text>
  <g class="cls-11">
    <g>
      <path class="cls-3" d="M705.94,95.05c-1.8,.87-3.59,1.75-5.39,2.62"/>
      <path class="cls-4" d="M689.75,102.99c-16.44,8.18-33,16.83-49.55,26.61-58,34-106,72-156,116-2,2-4,5-6,7-144,135-230,305-273,499-1,6-4,12-5,18-4,28-10,53-14,81-4.41,30.89-8.05,60.23-9.83,90.24"/>
      <path class="cls-3" d="M176.03,946.86c-.1,1.99-.19,3.99-.28,5.99"/>
    </g>
  </g>
  <g class="cls-11">
    <g>
      <path class="cls-3" d="M706.32,119.02c-1.74,1-3.47,2-5.19,3"/>
      <path class="cls-5" d="M690.76,128.05c-33.44,19.55-65.5,39.42-97.56,64.55-8,7-13,15-22,21-14,9-24,19-36,29-11,11-21,23-32,34-80,75-138,165-183,263-1,4-3,8-4,12-54.38,124.29-83.3,255.19-92.7,388.9"/>
      <path class="cls-3" d="M223.09,946.48c-.13,2-.26,3.99-.38,5.99"/>
    </g>
  </g>
  <g class="cls-11">
    <g>
      <path class="cls-3" d="M706.38,132.86c-1.63,1.16-3.26,2.32-4.89,3.48"/>
      <path class="cls-6" d="M691.81,143.3c-57.69,41.94-111.64,88.01-159.62,144.3-58,68-103,140-141,220-2,4-2,10-4,14-26,52-43,105-58,162-21.98,86.01-33.91,170.18-39.87,255.79"/>
      <path class="cls-3" d="M288.92,945.34c-.13,1.99-.26,3.99-.39,5.99"/>
    </g>
  </g>
  <path class="cls-2" d="M539.68,343.18s-210.97,314.36-187.99,609.68"/>
  <path class="cls-2" d="M484.92,566.9s-88.24,188.57-51.24,384.43"/>
  <path class="cls-2" d="M502.15,775.59s-16.13,88.95,19.2,177.27"/>
</svg>