<?xml version="1.0" encoding="UTF-8"?>
<svg id="Layer_2" data-name="Layer 2" xmlns="http://www.w3.org/2000/svg" viewBox="0 0 1440.2 582.9">
  <defs>
    <style>
      .cls-1, .cls-2 {
        fill: none;
      }

      .cls-3 {
        fill: #feb53b;
      }

      .cls-4 {
        fill: #fff;
        isolation: isolate;
        opacity: .7;
      }

      .cls-2 {
        stroke: #fff;
        stroke-miterlimit: 10;
      }
    </style>
  </defs>
  <g id="Layer_2-2" data-name="Layer 2">
    <path class="cls-4" d="m1435.9,541.5l-17.6,2.8-8.4.7h-27.4l-18.3-2.1-16.9-3.5-16.9-4.9-14.1-4.9-20.4-8.4-26.7-13.4-16.2-9.1-16.9-9.8-20.4-12-19.7-11.2-23.9-12.7-20.4-9.1-19-7-19.7-5.6-16.9-3.5-16.9-2.1-12-.7h-13.4l-24.6,1.4-28.1,3.5-49.2,7.7-29.5,3.5-9.8.7h-32.2l-17.6-2.1-18.3-4.2-14.1-4.9-15.5-7-15.5-9.1-12-8.4-11.2-9.1-7.7-6.3-8.4-7.7-5.6-4.9-12-11.2-9.1-8.4-8.4-7.7-9.8-8.4-11.2-9.1-14.1-9.8-10.5-6.3-14.8-7.7-16.9-6.3-12.7-3.5-14.8-2.8-12-1.4h-33.8l-19,2.1-20.4,3.5-21.6,4.1-24.6,6.3-47.8,13.4-23.9,6.3-29.5,6.3-23.9,3.5-18.3,1.4h-24l-21.8-2.1-26-4.2-46.4-9.1-27.4-4.2-16.9-1.4h-19l-16.9,2.1-11.9,2.8-13.4,4.9-9.8,5.6-11.2,8.4-11.3,10.7-9.1,8.4-12.7,12.7-5.6,4.9-7,6.3-14.1,10.5-14.8,8.5-12.7,4.9-12.7,2.8H0v27.9h.7l12.7-3,12.7-5.3,14.8-9.1,14.1-11.4,7-6.8,5.6-5.3,12.7-13.6,9.1-9.1,11.2-11.4,11.2-9.1,9.8-6,13.4-5.3,11.9-3,16.9-2.3h19l16.9,1.5,27.4,4.5,46.4,9.9,26,4.5,21.8,2.3h23.9l18.3-1.5,23.9-3.8,29.5-6.8,23.9-6.8,47.8-14.4,24.6-6.8,21.8-5.3,20.4-3.8,19-2.2h33.8l12,1.5,14.8,3,12.7,3.8,16.9,6.8,14.8,8.3,10.5,6.8,14.1,10.6,11.2,9.8,9.8,9.1,8.4,8.3,9.1,9.1,12,12.1,5.6,5.3,8.4,8.3,7.7,6.8,11.2,9.8,12,9.1,15.5,9.9,15.5,7.5,14.1,5.3,18.3,4.5,17.6,2.3h32.3l9.8-.7,29.5-3.8,49.2-8.3,28.1-3.8,24.6-1.5h13.4l12,.8,16.9,2.3,16.9,3.8,19.7,6.1,19,7.6,20.4,9.8,23.9,13.6,19.7,12.1,20.4,12.9,16.9,10.6,16.2,9.8,26.7,14.4,20.4,9.1,14.1,5.3,16.9,5.3,16.9,3.8,18.3,2.3h27.4l8.4-.8,17.6-3,4.2-1.5v-37.5l-4.3,1.4h0Z"/>
    <path class="cls-4" d="m1416.8,294.6l-16.2,9.1-17.6,8.4-19.7,8.4-20.4,7-20.4,5.6-21.8,4.9-28.1,4.2-27.4,2.1h-41.5l-12.7-.7-23.2-2.1-29.5-4.2-25.3-4.9-24.6-5.6-30.9-8.4-28.8-9.1-25.3-9.1-28.8-11.2-35.9-15.5-19.7-9.1-30.9-15.5-13.4-7-17.6-9.1-20.4-11.2-48.5-27.4-14.8-7-14.1-3.5-18.3-2.8-17.6-1.4h-21.1l-21.1,1.4-26,3.5-26.7,4.9-51.2,11.1-37.3,7.7-28.8,4.9-29.5,3.5-22.5,1.4h-29.5l-23.2-1.4-21.8-2.8-19-3.5-18.3-4.2-21.8-6.3-23.9-8.4-21.8-9.1-17.6-8.4-13.4-7-16.9-9.1-19.7-12-16.2-10.5-13.4-9.1-11.9-8.4-14.8-11.2-9.1-7-11.2-9.1-7.7-6.3-19.7-17.3-5.6-4.9-11.2-10.5-5.6-4.9-7-7-5.6-4.9L38.7,0H0v39.2h38.7l34.4,34.5,5.6,4.9,7,7,5.6,4.9,11.2,10.6,5.6,4.9,19.7,16.9,7.7,6.3,11.2,9.1,9.1,7,14.8,11.2,11.9,8.4,13.4,9.2,16.2,10.5,19.7,12,16.9,9.1,13.4,7,17.6,8.4,21.8,9.1,23.9,8.4,21.8,6.3,18.3,4.2,19,3.5,21.8,2.8,23.2,1.4h29.5l22.5-1.4,29.5-3.5,28.8-4.9,37.3-7.7,51.3-11.2,26.7-4.9,26-3.5,21.1-1.4h21.1l17.6,1.4,18.3,2.8,14.1,3.5,14.8,7,48.5,27.4,20.4,11.2,17.6,9.1,13.4,7,30.9,15.5,19.7,9.1,35.9,15.5,28.8,11.2,25.3,9.1,28.8,9.1,30.9,8.4,24.6,5.6,25.3,4.9,29.5,4.2,23.2,2.1,12.7.7h41.5l27.4-2.1,28.1-4.2,21.8-4.9,20.4-5.6,20.4-7,19.7-8.5,17.6-8.4,16.2-9.1,23.5-14.9-.3-36.7-23.1,12.9h0Z"/>
    <path class="cls-3" d="m1416.8,333.1l-16.2,9.1-17.6,8.4-19.7,8.5-20.4,7-20.4,5.6-21.8,4.9-28.1,4.2-27.4,2.1h-41.5l-12.7-.7-23.2-2.1-29.5-4.2-25.3-4.9-24.6-5.6-30.9-8.4-28.8-9.1-25.3-9.1-28.8-11.2-35.9-15.5-19.7-9.1-30.9-15.6-13.4-7-17.6-9.1-20.4-11.2-48.5-27.4-14.8-7-14.1-3.5-18.3-2.8-17.6-1.4h-21.1l-21.1,1.4-26,3.5-26.7,4.9-51.2,11.1-37.3,7.7-28.8,4.9-29.5,3.5-22.5,1.4h-29.5l-23.2-1.4-21.8-2.8-19-3.5-18.3-4.2-21.8-6.3-23.9-8.4-21.8-9.1-17.6-8.4-13.4-7-16.9-9.1-19.7-12-16.2-10.5-13.4-9.2-11.9-8.4-14.8-11.2-9.1-7-11.2-9.1-7.7-6.3-19.7-17.2-5.6-4.9-11.2-10.6-5.6-4.9-7-7-5.6-4.9-34.6-34.5H0v376.9h.7l12.7-2.8,12.7-4.9,14.8-8.4,14.1-10.5,7-6.3,5.6-4.9,12.7-12.7,9.1-8.4,11.2-10.5,11.2-8.4,9.8-5.6,13.4-4.9,11.9-2.8,16.9-2.1h19l16.9,1.4,27.4,4.2,46.4,9.1,26,4.2,21.8,2.1h23.9l18.3-1.4,23.9-3.5,29.5-6.3,23.9-6.3,47.8-13.4,24.6-6.3,21.8-4.9,20.4-3.5,19-2.1h33.8l12,1.4,14.8,2.8,12.7,3.5,16.9,6.3,14.8,7.7,10.5,6.3,14.1,9.8,11.2,9.1,9.8,8.4,8.4,7.7,9.1,8.4,12,11.2,5.6,4.9,8.4,7.7,7.7,6.3,11.2,9.1,12,8.4,15.5,9.1,15.5,7,14.1,4.9,18.3,4.2,17.6,2.1h32.3l9.8-.7,29.5-3.5,49.2-7.7,28.1-3.5,24.6-1.4h13.4l12,.7,16.9,2.1,16.9,3.5,19.7,5.6,19,7,20.4,9.1,23.9,12.7,19.7,11.2,20.4,12,16.9,9.8,16.2,9.1,26.7,13.4,20.4,8.4,14.1,4.9,16.9,4.9,16.9,3.5,18.3,2.1h27.4l8.4-.7,17.6-2.8,4.2-1.4v-221.7l-23.4,14.7h0ZM99.2,221.3l-.7,4.9-3.5,13.4-4.9,11.2-6.3,11.2-6.3,8.4-6.3,7.7-6.3,5.6-9.1,5.6-9.1,2.8h-12l-2.8-.7-8.4-3.5-6.3-5.6-2.8-5.6v-9.1l1.4-9.1,3.5-14.8,5.6-17.6,9.1-23.9,7-14.8,5.6-9.1,5.6-5.6,6.3-4.2,7.7-2.8h6.3l4.9,1.4,7,4.2,6.3,7,5.6,11.2,2.8,12.7.1,19.1h0Z"/>
    <g id="Layer_3" data-name="Layer 3">
      <path class="cls-2" d="m23.5,59.1c-.2.2-.4.3-.6.4-.2.1-.3.2-.4.2h-.3c-.1,0-.2-.1-.2-.1l-3.9-4.8-4,3.2,3.7,4.5c.07.07.1.13.1.2,0,.1,0,.2-.1.3s-.2.2-.3.4c-.1.1-.3.3-.5.5s-.4.3-.6.4-.3.2-.4.2h-.3c-.1,0-.2-.1-.2-.1l-3.7-4.5-5.6,4.5c-.1.1-.2.1-.3.1s-.2,0-.4-.1-.3-.2-.5-.4c-.2-.2-.4-.4-.6-.7s-.4-.5-.6-.8c-.1-.2-.2-.4-.3-.5,0-.1-.1-.3,0-.4,0-.1.1-.2.2-.2l13.4-10.8c.3-.3.6-.4.9-.3.3.1.5.2.7.5l5.6,6.9c.07.07.1.13.1.2,0,.1,0,.2-.1.3s-.2.3-.3.4c-.1.2-.2.3-.5.5Z"/>
      <path class="cls-2" d="m14.9,75c-.1.1-.2.1-.3.1s-.2,0-.3-.1-.3-.2-.5-.4-.4-.4-.6-.7c-.2-.3-.4-.5-.6-.7-.1-.2-.2-.4-.3-.5,0-.2-.1-.3,0-.4,0-.1.1-.2.1-.2l13.7-11.5c.1-.1.2-.1.3-.1s.2,0,.4.1.3.2.5.4.4.4.6.7.4.5.6.7c.1.2.2.4.3.5s.1.3.1.4-.1.2-.1.2l-13.9,11.5h0Z"/>
      <path class="cls-2" d="m38.5,76.6c-.2.2-.4.3-.6.4-.2.1-.3.2-.4.2s-.2.1-.3,0c-.1,0-.2-.1-.2-.1l-3.1-3.6-11.6,10.1c-.1.1-.2.1-.3.1s-.2,0-.4-.1c-.1-.1-.3-.2-.5-.4-.2-.2-.4-.4-.6-.7-.2-.3-.4-.5-.6-.7-.1-.2-.2-.4-.3-.5s-.1-.3-.1-.4.1-.2.1-.2l11.6-10-3.1-3.6c-.1-.1-.1-.2-.1-.2,0-.1,0-.2.1-.3.1-.1.2-.2.3-.4.1-.1.3-.3.5-.5s.4-.3.6-.5.3-.2.4-.2.2-.1.3,0c.1,0,.2.1.2.1l8.9,10.1c.07.07.1.13.1.2,0,.1,0,.2-.1.3-.1.1-.2.3-.3.4-.1.2-.3.3-.5.5Z"/>
      <path class="cls-2" d="m43.1,99.1c-.7.7-1.5,1.1-2.3,1.4-.8.2-1.6.3-2.4.2-.8-.1-1.6-.4-2.3-.9-.8-.5-1.5-1-2.1-1.8-.4-.5-.8-1-1.1-1.5s-.5-.9-.7-1.4c-.2-.4-.3-.8-.4-1.1s-.1-.6-.1-.8.1-.4.2-.6c.1-.2.4-.5.7-.8.2-.2.4-.4.6-.5.2-.1.3-.2.4-.3.1-.1.2-.1.3-.1s.2.1.2.1c.1.1.2.3.2.6s.1.6.3,1.1c.1.4.3.9.6,1.4.2.5.6,1,1.1,1.6.3.3.6.6,1,.8.3.2.7.3,1,.4s.6,0,1-.1c.3-.1.6-.3.9-.5.3-.3.5-.6.6-1s.1-.8,0-1.2c-.1-.4-.2-.9-.4-1.4s-.3-1-.5-1.5-.3-1.1-.4-1.6c-.1-.6-.1-1.1-.1-1.7.1-.6.2-1.1.5-1.7s.7-1.1,1.3-1.6c.7-.6,1.4-1,2.1-1.2.7-.2,1.5-.3,2.2-.2.7.1,1.4.4,2.1.8s1.3,1,1.9,1.6c.3.3.6.7.8,1.1.3.4.5.7.6,1.1s.3.7.4,1,.1.6.1.7,0,.2-.1.3-.1.2-.1.2l-.3.3c-.1.1-.3.3-.5.4-.2.2-.4.3-.5.5-.2.1-.3.2-.4.3-.1.1-.2.1-.3.1s-.2-.1-.2-.1c-.1-.1-.1-.3-.2-.5-.1-.3-.1-.6-.3-.9-.1-.4-.3-.8-.5-1.2-.2-.4-.5-.8-.9-1.2-.3-.3-.6-.5-.9-.7s-.6-.3-.8-.3c-.3,0-.5,0-.8.1s-.5.2-.7.4c-.3.3-.5.6-.6,1s-.1.8,0,1.2c.1.4.2.9.4,1.4s.3,1,.5,1.6c.2.5.3,1.1.4,1.6.1.6.1,1.1.1,1.7s-.2,1.1-.5,1.7c-.2.6-.6,1.2-1.1,1.7Z"/>
      <path class="cls-2" d="m43.9,107.5c-.1.1-.2.1-.3.1s-.2,0-.4-.1c-.1-.1-.3-.2-.5-.3-.2-.2-.4-.4-.7-.7-.3-.3-.5-.5-.6-.7s-.3-.4-.3-.5c-.1-.1-.1-.3-.1-.4s.1-.2.1-.2l13.2-12.3c.1-.1.2-.1.3-.1s.2,0,.4.1c.1.1.3.2.5.4.2.2.4.4.7.6.3.3.5.5.6.7s.3.4.3.5c.1.1.1.3.1.4s-.1.2-.1.3l-13.2,12.2Z"/>
      <path class="cls-2" d="m56.7,119.4c-.1.4-.2.6-.3.8s-.2.3-.4.3-.4-.1-.6-.3l-.9-.9c-.3-.3-.6-.6-.7-.8-.2-.2-.3-.4-.4-.5s-.1-.3-.1-.4,0-.2.1-.3l2.4-7.3-7.4,2.2c-.1,0-.2.1-.3.1s-.2,0-.4-.1c-.1-.1-.3-.2-.5-.4-.2-.2-.5-.4-.8-.7-.4-.4-.6-.7-.8-.9s-.3-.4-.2-.5c0-.1.1-.3.3-.4s.5-.2.8-.3l9.1-2.5,2.6-8.4c.1-.4.2-.7.4-.8.1-.2.2-.3.4-.3s.3.1.6.3l.9.9c.3.3.6.6.7.8s.3.4.4.5.1.3.1.4,0,.2-.1.3l-2.2,6.8,6.8-2.1c.1,0,.2-.1.3-.1s.2,0,.3.1c.1.1.3.2.5.4l.7.7c.3.4.6.6.8.9.2.2.3.4.3.6s-.1.3-.3.4c-.2.1-.5.2-.8.3l-8.5,2.4s-2.8,8.8-2.8,8.8Z"/>
      <path class="cls-2" d="m66.8,129.3c-.2.2-.4.4-.5.5-.2.1-.3.2-.4.3-.1,0-.2.1-.3.1s-.2-.1-.2-.1l-6.8-6.7c-.2-.2-.4-.5-.4-.8s.1-.6.4-.9l11.7-11.8c.3-.3.6-.4.9-.4s.5.1.8.4l6.7,6.6c.07.07.1.13.1.2,0,.1,0,.2-.1.3-.1.1-.1.3-.3.4-.1.2-.3.3-.5.5l-.5.5c-.2.1-.3.2-.4.3s-.2.1-.3.1-.2,0-.2-.1l-4.8-4.8-3.3,3.3,4.1,4c.07.07.1.13.1.2v.3c0,.1-.1.2-.2.4s-.3.3-.5.5l-.5.5c-.1.1-.3.2-.4.2s-.2.1-.3,0c-.1,0-.2-.1-.2-.1l-4.1-4-3.8,3.8,4.9,4.8c.07.07.1.13.1.2,0,.1,0,.2-.1.3,0,.1-.1.3-.2.4-.1.2-.3.4-.5.6h0Z"/>
      <path class="cls-2" d="m80,136.1c-.7.7-1.4,1.2-2.2,1.5s-1.6.4-2.4.3c-.8-.1-1.6-.3-2.4-.7s-1.5-.9-2.2-1.6c-.5-.5-.9-.9-1.2-1.4s-.6-.9-.8-1.3-.4-.8-.5-1.1-.1-.6-.1-.7c0-.2.1-.4.2-.6.1-.2.3-.5.7-.8.2-.2.4-.4.5-.5.2-.1.3-.2.4-.3s.2-.1.3-.1.2.1.2.1c.1.1.2.3.3.6.1.3.2.6.3,1s.4.9.6,1.4c.3.5.7,1,1.2,1.5.3.3.7.6,1,.7.3.2.7.3,1,.3s.6,0,1-.1c.3-.1.6-.3.8-.6.3-.3.5-.7.5-1,0-.4,0-.8-.1-1.2s-.3-.9-.5-1.4-.4-1-.6-1.5-.4-1.1-.5-1.6-.2-1.1-.2-1.7.1-1.1.4-1.7c.2-.6.6-1.1,1.1-1.7.6-.7,1.3-1.1,2-1.4s1.4-.4,2.2-.3c.7.1,1.4.3,2.2.7.7.4,1.4.9,2,1.5.3.3.6.6.9,1s.5.7.7,1.1.4.7.5,1,.2.5.2.7v.3c0,.1-.1.2-.1.3-.1.1-.1.2-.3.3-.1.1-.3.3-.4.5-.2.2-.4.4-.5.5s-.3.2-.4.3-.2.1-.3.1-.2,0-.2-.1c-.1-.1-.2-.2-.2-.5-.1-.3-.2-.6-.3-.9-.1-.4-.3-.7-.6-1.1-.2-.4-.5-.8-.9-1.2-.3-.3-.6-.5-.9-.6s-.6-.2-.9-.2-.5,0-.8.1c-.2.1-.5.3-.7.5-.3.3-.5.6-.5,1s0,.8.1,1.2.3.9.5,1.4c.2.5.4,1,.6,1.5s.4,1.1.5,1.6c.1.6.2,1.1.2,1.7s-.1,1.1-.3,1.7-.6,1-1.1,1.5h0Z"/>
      <path class="cls-2" d="m93.1,153.6c-.2.2-.4.4-.5.5s-.3.2-.4.3-.2.1-.3.1-.2-.1-.2-.1l-8.1-7.3c-.2-.1-.3-.3-.4-.4-.1-.1-.1-.3-.1-.4,0-.2.1-.3.2-.5s.3-.4.5-.7c.2-.2.4-.4.6-.6.2-.2.4-.3.5-.3.2-.1.4-.1.6-.2.2,0,.4-.1.7-.1l4.8-.4c.9-.1,1.8-.2,2.4-.3.7-.2,1.2-.3,1.7-.5s.9-.4,1.2-.6c.3-.2.6-.5.8-.7.2-.2.4-.5.5-.8s.2-.6.2-.9-.1-.6-.2-.9c-.1-.3-.4-.6-.7-.9-.4-.4-.9-.7-1.3-.9s-.8-.3-1.2-.4c-.4-.1-.7-.2-1-.2s-.4-.1-.5-.2c-.07-.07-.1-.13-.1-.2,0-.1,0-.2.1-.3s.2-.3.3-.5c.1-.2.3-.4.5-.7.1-.2.3-.3.4-.4.1-.1.2-.2.3-.3.1-.1.2-.1.3-.1s.2,0,.4-.1c.2,0,.4,0,.8.1s.8.2,1.3.4,1,.4,1.5.7,1,.7,1.5,1.1c.7.7,1.3,1.3,1.7,2,.4.7.6,1.3.7,2s0,1.3-.2,1.9c-.2.6-.6,1.2-1.1,1.7-.4.5-.9.9-1.3,1.2-.5.4-1.1.7-1.8.9-.7.3-1.6.5-2.7.7s-2.4.3-3.9.4l-3.2.2,5.6,5c.07.07.1.13.1.2v.3c0,.1-.1.3-.2.4-.5.4-.7.6-.8.8Z"/>
      <path class="cls-2" d="m105.3,165.4c-.1.1-.2.1-.2.2h-.4c-.1-.1-.3-.2-.6-.3-.2-.1-.5-.4-.8-.6-.5-.4-.8-.7-1-.9s-.3-.4-.3-.6v-.5l1.5-10.6-5.9,6.8c-.1.1-.2.1-.2.2h-.4c-.1-.1-.3-.2-.5-.3s-.5-.3-.7-.6c-.3-.2-.5-.5-.7-.6-.2-.2-.3-.3-.4-.5-.1-.1-.1-.3-.1-.4s0-.2.1-.3l11.7-13.5c.1-.1.2-.1.3-.1s.2,0,.4.1c.1.1.3.2.5.3s.5.3.7.6c.3.2.5.5.7.6.2.2.3.3.4.5.1.1.1.2.1.3s0,.2-.1.3l-5.3,6.1,9.5-2.5c.1-.1.3-.1.4-.1s.3,0,.4.1c.2.1.3.2.5.3s.4.3.7.6l.7.7c.2.2.3.4.4.5s.1.3.1.4,0,.2-.1.3-.3.2-.4.3c-.2.1-.5.2-.9.3l-8.4,1.8-1.3,10.2c-.1.4-.2.7-.2.9-.1-.1-.2,0-.2,0Z"/>
      <path class="cls-2" d="m117,173.8c-.2.2-.3.4-.5.5-.1.1-.3.2-.4.3s-.2.1-.3.1-.2,0-.3-.1l-8.4-6.9c-.2-.1-.3-.3-.4-.4-.1-.1-.1-.3-.1-.4s0-.3.1-.5.3-.4.5-.7c.2-.2.4-.5.6-.6.2-.2.3-.3.5-.4.2-.1.4-.2.6-.2.2-.1.4-.1.7-.1l4.8-.6c.9-.1,1.7-.3,2.4-.4.7-.2,1.2-.4,1.7-.6s.9-.4,1.2-.7c.3-.2.6-.5.8-.8.2-.2.4-.5.5-.8s.1-.6.1-.9-.1-.6-.3-.9c-.2-.3-.4-.6-.7-.8-.4-.4-.9-.6-1.3-.8s-.8-.3-1.2-.4c-.4-.1-.7-.1-1-.2-.3,0-.5-.1-.6-.2-.07-.07-.1-.13-.1-.2,0-.1,0-.2.1-.3s.1-.3.3-.5c.1-.2.3-.4.5-.7.1-.2.3-.3.4-.4l.3-.3c.1-.1.2-.1.3-.2.1,0,.2-.1.4-.1s.4,0,.8.1.8.2,1.3.4,1,.4,1.5.7,1,.6,1.5,1c.8.6,1.3,1.3,1.8,1.9.4.7.7,1.3.8,2s0,1.3-.2,1.9c-.2.6-.5,1.2-1,1.7-.4.5-.8.9-1.3,1.3s-1.1.7-1.8,1-1.6.6-2.7.8-2.4.4-3.9.5l-3.2.3,5.8,4.8.2.2v.3c0,.1-.1.3-.2.5-.3.4-.4.6-.6.8h0Z"/>
      <path class="cls-2" d="m131.7,180.5c-.3.4-.6.7-.8.8s-.4.2-.6,0l-1.3-1-2.1,2.7c-.07.07-.13.1-.2.1h-.4c-.1-.1-.3-.1-.5-.3-.2-.1-.4-.3-.7-.5s-.5-.4-.7-.6l-.4-.4c-.1-.1-.1-.2-.1-.3s0-.2.1-.3l2.1-2.7-5.7-4.5-.3-.3c-.1-.1-.1-.2-.1-.4,0-.1.1-.3.2-.5s.3-.5.5-.8c.2-.2.4-.5.5-.6l.4-.4c.1-.1.3-.2.4-.3.2-.1.3-.2.5-.3l11.1-4.5h.3c.1,0,.3.1.5.2.2.1.4.2.7.4s.6.4.9.7c.4.3.7.6,1,.8s.5.4.6.6c.1.2.2.3.2.4s0,.2-.1.3l-7.1,9,1.3,1c.1.1.2.3.1.5.2.4,0,.7-.3,1.2h0Zm1.7-11.8h0l-9.3,3.7,3.9,3.1,5.4-6.8h0Z"/>
      <path class="cls-2" d="m149.8,179.2c-.2.2-.3.4-.5.6-.1.1-.3.2-.4.3-.1.1-.2.1-.3.1s-.2,0-.2-.1l-4.9-3.7-3.1,4.1,4.6,3.5c.07.07.1.13.1.2v.3c0,.1-.1.3-.2.4-.1.2-.2.4-.4.6-.2.2-.3.4-.5.6-.1.1-.3.2-.4.3-.1.1-.2.1-.3.1s-.2,0-.2-.1l-4.6-3.5-4.3,5.6-.2.2h-.4c-.2,0-.3-.1-.5-.3-.2-.1-.5-.3-.8-.5s-.5-.4-.7-.6c-.2-.2-.3-.3-.4-.5s-.1-.2-.1-.3,0-.2.1-.3l10.3-13.7c.3-.3.5-.5.8-.5s.6.1.8.3l7.1,5.4c.07.07.1.13.1.2v.3c0,.1-.1.3-.2.5,0,.1-.2.3-.3.5h0Z"/>
      <path class="cls-2" d="m145.2,196.7l-.2.2h-.4c-.1,0-.3-.1-.5-.2-.2-.1-.5-.3-.8-.5s-.5-.4-.7-.6l-.4-.4c-.1-.1-.1-.2-.1-.3s0-.2.1-.3l10.6-14.5.2-.2h.4c.2,0,.3.1.5.3.2.1.5.3.8.5s.6.4.7.6l.4.4c.1.1.1.2.1.3s0,.2-.1.3l-10.6,14.4Z"/>
      <path class="cls-2" d="m168.5,192.6c-.2.2-.3.4-.4.6-.1.2-.3.3-.4.3s-.2.1-.3.1-.2,0-.2-.1l-3.9-2.7-8.8,12.5-.2.2h-.4c-.1,0-.3-.1-.6-.2-.2-.1-.5-.3-.8-.5s-.5-.4-.7-.6l-.4-.4c-.1-.1-.1-.2-.1-.3s0-.2.1-.3l8.8-12.5-3.9-2.7-.2-.2v-.3c0-.1.1-.3.2-.5.1-.2.2-.4.4-.6.2-.2.3-.4.5-.6.1-.2.3-.3.4-.3.1-.1.2-.1.3-.1s.2,0,.2.1l10.9,7.7.2.2v.3c0,.1-.1.3-.2.5s-.3.1-.5.4h0Z"/>
      <path class="cls-2" d="m178.4,213.1c-.5.8-1.2,1.5-1.9,1.9s-1.5.7-2.3.7c-.8.1-1.6,0-2.5-.3s-1.7-.6-2.5-1.2c-.5-.4-1-.7-1.4-1.1-.4-.4-.8-.8-1-1.1-.3-.4-.5-.7-.6-1s-.2-.5-.3-.7,0-.4.1-.6c.1-.2.3-.5.5-.9.2-.3.3-.5.4-.6.1-.2.2-.3.4-.4.1-.1.2-.1.3-.1s.2,0,.3.1.2.2.4.5c.1.3.3.6.5,1s.5.8.9,1.2.8.8,1.4,1.2c.4.3.8.4,1.1.6.4.1.7.1,1.1.1s.6-.1.9-.3c.3-.2.5-.4.7-.7.2-.4.3-.7.3-1.1s-.1-.8-.3-1.2-.4-.8-.7-1.3c-.3-.4-.6-.9-.9-1.4-.3-.5-.6-1-.8-1.5s-.4-1-.5-1.6-.1-1.1,0-1.7c.1-.6.4-1.2.8-1.9.5-.8,1.1-1.3,1.7-1.7.7-.4,1.4-.6,2.1-.7.7-.1,1.5,0,2.2.3.8.2,1.5.6,2.2,1.1.4.2.7.5,1.1.8l.9.9c.3.3.5.6.7.9.2.3.3.5.3.6v.3c0,.1,0,.2-.1.3s-.1.2-.2.4c-.1.1-.2.3-.3.5-.2.2-.3.4-.4.6-.1.2-.2.3-.3.4-.1.1-.2.1-.3.2-.1,0-.2,0-.3-.1s-.2-.2-.3-.5c-.1-.2-.3-.5-.5-.8s-.4-.7-.8-1c-.3-.4-.7-.7-1.1-1-.4-.2-.7-.4-1-.5s-.6-.1-.9-.1-.5.1-.8.3l-.6.6c-.2.4-.3.7-.3,1.1s.1.8.3,1.2.4.8.7,1.3c.3.4.6.9.9,1.4s.6,1,.8,1.5.4,1.1.5,1.6c.1.6.1,1.1,0,1.7.1.6-.2,1.2-.6,1.8h0Z"/>
      <path class="cls-2" d="m181.2,221l-.2.2h-.4c-.2,0-.3-.1-.6-.2-.2-.1-.5-.3-.8-.5s-.6-.4-.8-.5l-.4-.4c-.1-.1-.2-.2-.2-.3s0-.2.1-.3l9.5-15.1.2-.2h.4c.2,0,.3.1.6.2s.5.3.8.5.6.4.8.5.3.3.4.4.2.2.2.3,0,.2-.1.3l-9.5,15.1Z"/>
      <path class="cls-2" d="m196.7,229.4c0,.4-.1.7-.1.9s-.2.3-.3.4c-.2,0-.4,0-.7-.2-.3-.1-.7-.3-1.1-.6-.4-.2-.7-.4-.9-.6-.2-.2-.4-.3-.5-.4-.1-.1-.2-.2-.2-.3v-.3l.5-7.7-6.6,4c-.1.1-.2.1-.3.2s-.2,0-.4,0-.3-.1-.6-.2c-.2-.1-.5-.3-.9-.5-.4-.3-.8-.5-1-.6-.2-.2-.3-.3-.4-.5,0-.1,0-.3.2-.4s.4-.3.7-.5l8.2-4.7.4-8.8c0-.4.1-.7.1-.9.1-.2.2-.3.3-.4.1,0,.4,0,.6.2.3.1.6.3,1.1.6.4.2.7.4.9.6s.4.3.5.4c.1.1.2.2.2.3v.3l-.4,7.1,6-3.7c.1-.1.2-.1.3-.2h.4c.1,0,.3.1.6.2.2.1.5.3.9.5.4.3.7.5,1,.6.2.2.4.3.4.5,0,.1,0,.3-.2.4-.2.1-.4.3-.7.5l-7.6,4.4-.4,9.4Z"/>
      <path class="cls-2" d="m209,236.3c-.1.2-.3.4-.4.6-.1.2-.2.3-.3.3-.1.1-.2.1-.3.1h-.2l-8.3-4.7c-.3-.2-.5-.4-.6-.6-.1-.3,0-.6.2-1l8.2-14.4c.2-.4.5-.6.7-.6.3-.1.6,0,.8.2l8.2,4.7c.1,0,.1.1.2.2v.3c0,.1-.1.3-.1.5-.1.2-.2.4-.3.6-.1.2-.3.4-.4.6-.1.2-.2.3-.3.3-.1.1-.2.1-.3.1h-.2l-5.9-3.3-2.3,4,5,2.8c.1,0,.1.1.2.2v.3c0,.1-.1.3-.1.4-.1.2-.2.4-.3.6-.1.2-.3.4-.4.6-.1.1-.2.3-.3.3-.1.1-.2.1-.3.1s-.2,0-.2-.1l-5-2.8-2.6,4.6,5.9,3.4c.1,0,.1.1.2.2v.3c0,.1-.1.3-.1.5-.2.2-.3.4-.4.7h0Z"/>
      <path class="cls-2" d="m223.4,239.3c-.5.9-1,1.6-1.7,2-.7.5-1.4.8-2.2.9-.8.1-1.6.1-2.5-.1s-1.7-.5-2.6-1c-.6-.3-1.1-.6-1.5-1s-.8-.7-1.1-1-.5-.6-.7-.9c-.2-.3-.3-.5-.3-.7-.1-.2,0-.4,0-.6.1-.2.2-.6.4-.9.1-.3.3-.5.4-.7.1-.2.2-.3.3-.4s.2-.1.3-.2.2,0,.3,0c.1.1.3.2.4.5.1.3.3.6.6.9.3.4.6.7,1,1.1.4.4.9.8,1.5,1.1.4.2.8.4,1.2.4.4.1.7.1,1.1,0,.3-.1.6-.2.9-.4.3-.2.5-.5.7-.8.2-.4.3-.8.2-1.1-.1-.4-.2-.8-.4-1.2s-.5-.8-.8-1.2-.7-.8-1-1.3c-.3-.4-.6-.9-.9-1.4-.3-.5-.5-1-.6-1.5s-.2-1.1-.1-1.7c.1-.6.3-1.3.7-2,.4-.8,1-1.4,1.6-1.9.6-.4,1.3-.7,2-.9.7-.1,1.5-.1,2.3.1.8.2,1.6.5,2.3.9.4.2.8.5,1.1.7.4.3.7.6,1,.8.3.3.5.6.7.8.2.3.3.5.4.6,0,.1.1.2.1.3s0,.2-.1.3c0,.1-.1.2-.2.4-.1.2-.2.3-.3.6-.1.2-.3.5-.4.6s-.2.3-.3.4-.2.2-.3.2h-.3c-.1,0-.2-.2-.4-.4-.1-.2-.3-.5-.6-.8-.2-.3-.5-.6-.8-.9-.3-.3-.7-.6-1.2-.9-.4-.2-.7-.3-1-.4-.3-.1-.6-.1-.9,0-.3.1-.5.2-.7.4s-.4.4-.5.6c-.2.4-.3.7-.2,1.1.1.4.2.8.4,1.2s.5.8.8,1.2.7.8,1,1.3c.3.4.6.9.9,1.4.3.5.5,1,.6,1.6s.2,1.1.1,1.7c-.1.9-.3,1.5-.7,2.2h0Z"/>
      <path class="cls-2" d="m240.7,252.5c-.1.3-.2.5-.4.6-.1.2-.2.3-.3.4-.1.1-.2.1-.3.2h-.3l-9.8-4.8c-.2-.1-.4-.2-.5-.3s-.2-.2-.2-.4v-.5c.1-.2.2-.5.3-.8s.3-.5.4-.7c.1-.2.3-.4.4-.5.1-.1.3-.2.5-.3s.4-.2.7-.3l4.5-1.7c.9-.3,1.6-.7,2.2-1s1.1-.7,1.5-1,.7-.6,1-1c.2-.3.4-.6.6-.9.1-.3.2-.6.3-.9,0-.3,0-.6-.1-.9-.1-.3-.2-.5-.5-.8-.2-.2-.5-.5-.9-.6-.5-.3-1-.4-1.5-.5s-.9-.1-1.3-.1-.7,0-1,.1h-.6c-.1,0-.1-.1-.2-.2v-.3c0-.1.1-.3.2-.5.1-.2.2-.5.3-.8.1-.2.2-.4.3-.5s.2-.2.2-.3l.2-.2c.1-.1.2-.1.4-.2.2-.1.4-.1.8-.1s.8,0,1.3.1,1,.2,1.6.3,1.1.4,1.7.6c.9.4,1.6.9,2.2,1.5.6.5,1,1.1,1.2,1.7.2.6.3,1.2.3,1.9-.1.7-.2,1.3-.5,1.9-.3.6-.6,1.1-1,1.6s-.9,1-1.5,1.4c-.6.5-1.4.9-2.4,1.4s-2.2.9-3.7,1.4l-3,1.1,6.7,3.3c.1,0,.2.1.2.2s.1.2.1.3,0,.3-.1.5c.2.1.1.4,0,.6h0Z"/>
      <path class="cls-2" d="m255.6,260.4c0,.1-.1.2-.2.2s-.2.1-.4.1-.4-.1-.6-.1-.6-.2-.9-.4c-.6-.3-1-.5-1.2-.6-.2-.2-.4-.3-.5-.4s-.1-.3-.1-.4l-1.5-10.6-3.7,8.2c0,.1-.1.2-.2.2s-.2.1-.4.1-.4-.1-.6-.1c-.2-.1-.5-.2-.9-.3-.3-.2-.6-.3-.8-.4s-.4-.2-.5-.4c-.1-.1-.2-.2-.2-.3v-.3l7.4-16.3c0-.1.1-.2.2-.2s.2-.1.4,0c.2,0,.3.1.6.1.2.1.5.2.9.3.3.2.6.3.8.4s.4.2.5.3.2.2.2.3v.3l-3.3,7.4,8.4-5.1c.1-.1.2-.1.4-.2s.3,0,.4,0c.2,0,.4.1.6.2.2.1.5.2.9.4s.6.3.9.4c.2.1.4.3.5.4.1.1.2.2.2.3v.3c-.1.2-.2.3-.3.4-.2.1-.4.3-.8.6l-7.5,4.1,1.6,10.1v.9c-.2-.1-.2,0-.3.1h0Z"/>
      <path class="cls-2" d="m269.3,265c-.1.3-.2.5-.3.7-.1.2-.2.3-.3.4-.1.1-.2.2-.3.2h-.3l-10.1-4.2c-.2-.1-.4-.2-.5-.3-.1-.1-.2-.2-.3-.4v-.5c0-.2.1-.5.3-.8.1-.3.2-.5.4-.7.1-.2.2-.4.4-.5.1-.1.3-.3.5-.4s.4-.2.7-.3l4.4-2c.9-.4,1.6-.8,2.2-1.1.6-.4,1.1-.7,1.5-1.1s.7-.7.9-1,.4-.7.5-1,.2-.6.2-.9,0-.6-.1-.9-.3-.5-.5-.8c-.2-.2-.5-.4-.9-.6-.5-.2-1-.3-1.5-.4h-1.3c-.4,0-.7.1-1,.1s-.5.1-.6,0c-.1,0-.1-.1-.2-.2v-.3c0-.1.1-.3.1-.5.1-.2.2-.5.3-.8.1-.2.2-.4.2-.5s.1-.2.2-.3.1-.2.2-.2c.1-.1.2-.1.4-.2s.4-.1.8-.2h1.3c.5,0,1,.1,1.6.2s1.2.3,1.7.5c.9.4,1.7.8,2.2,1.3.6.5,1,1.1,1.3,1.7s.4,1.2.4,1.9-.2,1.3-.4,2c-.2.6-.5,1.1-.9,1.6-.3.5-.8,1-1.4,1.5-.6.5-1.4,1-2.3,1.5s-2.1,1.1-3.6,1.7l-2.9,1.2,6.9,2.9c.1,0,.2.1.2.2.1.1.1.2.1.3s0,.3-.1.5c.1.2,0,.4-.1.7h0Z"/>
      <path class="cls-2" d="m285.2,267c-.2.5-.4.8-.5,1-.2.2-.4.3-.5.2l-1.6-.6-1.2,3.2c0,.1-.1.2-.2.2s-.2.1-.4.1-.3,0-.6-.1-.5-.2-.9-.3c-.3-.1-.6-.2-.8-.4-.2-.1-.4-.2-.5-.3-.1-.1-.2-.2-.2-.3v-.3l1.2-3.2-6.8-2.6c-.1,0-.2-.1-.3-.2-.1-.1-.1-.2-.2-.3v-.6c0-.3.1-.5.3-.9.1-.3.2-.5.3-.8.1-.2.2-.4.3-.6s.2-.3.3-.4l.4-.4,9.2-7.6c.1-.1.2-.1.3-.1h.5c.2,0,.5.1.8.2s.7.2,1.1.4c.5.2.9.3,1.2.5.3.1.6.3.7.4.2.1.3.2.4.3s.1.2,0,.3l-4.1,10.7,1.6.6c.1.1.2.2.2.5s.2.8,0,1.4h0Zm-1.9-11.8h0l-7.8,6.4,4.7,1.8,3.1-8.2h0Z"/>
      <path class="cls-2" d="m302,260.2c-.1.3-.2.5-.3.7-.1.2-.2.3-.3.4-.1.1-.2.2-.3.2h-.2l-5.9-2-1.7,4.8,5.5,1.9c.1,0,.1.1.2.1,0,.1.1.2.1.3v.5c0,.2-.1.4-.2.7-.1.3-.2.5-.3.7-.1.2-.2.3-.3.4-.1.1-.2.2-.3.2h-.2l-5.5-1.9-2.3,6.7c0,.1-.1.2-.2.2-.1.1-.2.1-.4.1s-.4,0-.6-.1-.5-.1-.9-.3c-.4-.1-.6-.2-.9-.3-.2-.1-.4-.2-.5-.3-.1-.1-.2-.2-.2-.3v-.3l5.6-16.2c.1-.4.3-.7.6-.8.3-.1.6-.1.9,0l8.4,2.9c.1,0,.1.1.2.2,0,.1.1.2.1.3s0,.3-.1.5c.1.1,0,.4,0,.7h0Z"/>
      <path class="cls-2" d="m303.3,278.3c0,.1-.1.2-.2.2-.1.1-.2.1-.4.1s-.4,0-.6-.1-.5-.1-.9-.2-.6-.2-.9-.3-.4-.2-.5-.3c-.1-.1-.2-.2-.2-.3v-.3l5.5-17c0-.1.1-.2.2-.2.1-.1.2-.1.4-.1s.4,0,.6.1.5.1.9.2.7.2.9.3c.2.1.4.2.5.3.1.1.2.2.2.3v.3l-5.5,17Z"/>
      <path class="cls-2" d="m324.3,267c-.1.3-.2.5-.2.7-.1.2-.2.3-.2.4s-.2.2-.3.2h-.3l-4.6-1.3-4.3,14.7c0,.1-.1.2-.2.2-.1.1-.2.1-.4.1s-.4,0-.6-.1c-.2,0-.5-.1-.9-.2s-.6-.2-.9-.3-.4-.2-.5-.3-.2-.2-.2-.3v-.3l4.3-14.7-4.6-1.3c-.1,0-.2-.1-.2-.2s-.1-.2-.1-.3v-.5c0-.2.1-.4.2-.7.1-.3.2-.5.2-.7.1-.2.2-.3.2-.4l.2-.2h.3l12.8,3.8c.1,0,.2.1.2.1.1.1.1.2.1.3v.5c.2.3.1.5,0,.8h0Z"/>
      <path class="cls-2" d="m341,283.3c-.2,1-.6,1.8-1.2,2.4s-1.2,1.1-1.9,1.5c-.7.3-1.5.5-2.4.6-.9,0-1.8,0-2.7-.3-.6-.2-1.2-.4-1.7-.6s-1-.5-1.4-.7-.7-.5-.9-.7c-.2-.2-.4-.4-.5-.6s-.1-.4-.1-.6.1-.6.2-1c.1-.3.1-.5.2-.7s.1-.3.2-.5l.2-.2h.3c.1,0,.3.2.5.4.2.2.5.5.8.7.3.3.7.6,1.2.9s1.1.5,1.8.7c.5.1.9.2,1.3.1.4,0,.7-.1,1-.2s.6-.3.8-.6c.2-.3.4-.6.4-.9.1-.4.1-.8-.1-1.2-.2-.4-.4-.7-.7-1-.3-.3-.7-.6-1.1-1-.4-.3-.8-.6-1.3-1-.4-.3-.9-.7-1.2-1.1-.4-.4-.7-.8-1-1.3s-.4-1-.5-1.6,0-1.3.1-2.1c.2-.9.6-1.6,1.1-2.2s1.1-1,1.7-1.3c.7-.3,1.4-.5,2.2-.5s1.6.1,2.5.3c.4.1.9.2,1.3.4.4.2.8.4,1.2.6.4.2.7.4.9.6.3.2.4.4.5.5s.1.2.1.3v.3c0,.1,0,.3-.1.4,0,.2-.1.4-.1.6-.1.3-.1.5-.2.7s-.1.3-.2.5c-.1.1-.1.2-.2.2h-.3c-.1,0-.3-.1-.4-.3-.2-.2-.4-.4-.7-.6-.3-.2-.6-.5-1-.7s-.9-.4-1.4-.5c-.4-.1-.8-.1-1.1-.1s-.6.1-.9.2c-.2.1-.5.3-.6.5-.2.2-.3.5-.3.7-.1.4-.1.8.1,1.1.2.4.4.7.7,1,.3.3.7.6,1.1,1,.4.3.9.7,1.3,1s.9.7,1.3,1.1.7.9,1,1.3.5,1,.6,1.6c-.2.4-.2,1.1-.4,1.9h0Z"/>
      <path class="cls-2" d="m346.7,289.8c0,.1-.1.2-.1.2-.1.1-.2.1-.3.1h-.6c-.2,0-.6-.1-.9-.2-.4-.1-.7-.2-.9-.2-.2-.1-.4-.2-.6-.2l-.3-.3c0-.1-.1-.2,0-.3l3.8-17.5c0-.1.1-.2.1-.2.1-.1.2-.1.4-.1h.6c.2,0,.5.1.9.2s.7.2.9.2c.2.1.4.2.5.2l.3.3c.1.1.1.2,0,.3l-3.8,17.5Z"/>
      <path class="cls-2" d="m364.5,292.3c.1.4.2.7.2.9s0,.4-.2.4c-.1.1-.4.1-.7.1s-.7-.1-1.3-.2c-.5-.1-.8-.2-1.1-.2-.3-.1-.5-.1-.6-.2s-.2-.2-.3-.2c-.1-.1-.1-.2-.1-.3l-2.2-7.4-4.7,6.1c-.1.1-.2.2-.2.3-.1.1-.2.1-.4.1h-.6c-.3,0-.6-.1-1-.2-.5-.1-.9-.2-1.2-.3-.3-.1-.4-.2-.5-.3-.1-.1-.1-.3,0-.5s.3-.4.5-.7l6-7.3-2.7-8.4c-.1-.4-.2-.7-.2-.9s0-.4.2-.4c.1-.1.3-.1.6-.1s.7.1,1.3.2c.5.1.8.2,1.1.2.3.1.5.1.6.2s.2.2.3.2c0,.1.1.2.1.3l2.1,6.8,4.3-5.6c.1-.1.2-.2.2-.3.1-.1.2-.1.3-.1h.6c.2,0,.6.1,1,.2.5.1.9.2,1.1.2.3.1.5.2.5.3.1.1.1.3,0,.5s-.2.4-.5.8l-5.6,6.8,3.1,9h0Z"/>
      <path class="cls-2" d="m379,294.4c0,.3-.1.5-.1.7-.1.2-.1.3-.2.4s-.1.2-.2.2-.2.1-.3,0l-9.4-1.4c-.3,0-.6-.2-.8-.4s-.3-.5-.2-1l2.4-16.3c.1-.4.2-.7.5-.9.2-.2.5-.2.8-.2l9.4,1.4c.1,0,.2,0,.2.1.1.1.1.2.1.3v.5c0,.2,0,.4-.1.7,0,.3-.1.5-.1.7-.1.2-.1.3-.2.4s-.1.2-.2.2-.2.1-.2,0l-6.7-1-.7,4.6,5.7.8c.1,0,.2.1.2.1.1.1.1.2.1.3v.5c0,.2,0,.4-.1.7,0,.3-.1.5-.1.7-.1.2-.1.3-.2.4s-.1.2-.2.2h-.2l-5.7-.8-.8,5.3,6.8,1c.1,0,.2.1.2.1.1.1.1.2.1.3v.5c.3.4.2.6.2.9h0Z"/>
      <path class="cls-2" d="m394.1,292c-.1,1-.4,1.8-.9,2.5s-1,1.3-1.7,1.7c-.7.4-1.5.7-2.3.9-.9.2-1.8.2-2.8.1-.6-.1-1.2-.2-1.8-.4-.5-.2-1-.4-1.4-.6s-.7-.4-1-.6-.5-.4-.6-.5-.2-.3-.2-.6v-1c0-.3.1-.6.1-.8s.1-.4.2-.5.1-.2.2-.2.2-.1.3-.1.3.1.5.3c.2.2.5.4.9.6s.8.5,1.3.7,1.1.4,1.8.5c.5.1.9,0,1.3,0,.4-.1.7-.2,1-.4.3-.2.5-.4.7-.7.2-.3.3-.6.3-1s0-.8-.2-1.1c-.2-.3-.5-.6-.8-.9s-.7-.6-1.2-.8c-.5-.3-.9-.5-1.4-.8s-.9-.6-1.4-1l-1.2-1.2c-.3-.5-.6-1-.7-1.6-.2-.6-.2-1.3-.1-2.1.1-.9.4-1.7.8-2.3.4-.6.9-1.2,1.6-1.5.6-.4,1.3-.6,2.1-.8.8-.1,1.6-.2,2.5-.1.4.1.9.1,1.3.3.4.1.8.3,1.2.4.4.2.7.3,1,.5s.5.3.6.4.1.2.2.3c0,.1,0,.2.1.3v.4c0,.2,0,.4-.1.6,0,.3-.1.5-.1.7s-.1.3-.1.5c0,.1-.1.2-.2.3-.1.1-.2.1-.3.1s-.3-.1-.5-.3c-.2-.2-.5-.3-.8-.5s-.7-.4-1.1-.6-.9-.3-1.4-.4h-1.1c-.3.1-.6.2-.8.3-.2.2-.4.4-.5.6s-.2.5-.2.8c0,.4,0,.8.2,1.1.2.3.5.6.8.9.4.3.8.6,1.2.8.5.3.9.5,1.4.8s.9.6,1.4,1,.8.8,1.2,1.2c.3.5.6,1,.7,1.6v2.2h0Z"/>
      <path class="cls-2" d="m415.7,297.7c0,.3,0,.5-.1.7,0,.2-.1.4-.1.5-.1.1-.1.2-.2.3s-.2.1-.3.1l-10.9-.7c-.2,0-.4,0-.6-.1-.2,0-.3-.1-.4-.3-.1-.1-.2-.3-.2-.5v-.8c0-.3.1-.6.1-.8s.1-.4.2-.6.2-.3.3-.5c.1-.2.3-.3.5-.5l3.5-3.3c.7-.6,1.3-1.2,1.7-1.8.4-.5.8-1,1-1.5.3-.4.4-.9.5-1.3s.2-.8.2-1.1,0-.6-.1-.9-.2-.6-.4-.8-.4-.4-.7-.6c-.3-.1-.6-.2-1.1-.3-.6,0-1.1,0-1.5.1-.5.1-.9.3-1.2.4s-.6.3-.9.4c-.2.1-.4.2-.5.2s-.2,0-.2-.1c-.1-.1-.1-.2-.1-.3s-.1-.3-.1-.6v-.8c0-.2,0-.4.1-.6,0-.1.1-.3.1-.4s.1-.2.1-.3c.1-.1.1-.2.3-.3.1-.1.4-.2.7-.4s.8-.3,1.2-.5c.5-.1,1-.2,1.6-.3.6-.1,1.2-.1,1.8-.1,1,.1,1.8.2,2.6.5.7.3,1.3.7,1.8,1.2s.8,1,1,1.6.3,1.3.2,2c0,.6-.1,1.2-.3,1.8-.2.6-.4,1.2-.9,1.9-.4.7-1,1.4-1.7,2.2-.7.8-1.7,1.7-2.9,2.7l-2.4,2.1,7.5.5c.1,0,.2,0,.3.1.1.1.1.2.2.3.1.1.1.3.1.5.3.5.3.8.2,1h0Z"/>
      <path class="cls-2" d="m433.2,299.2c0,.1,0,.2-.1.3-.1.1-.2.1-.3.2-.2.1-.4.1-.6.1h-1c-.6,0-1.1-.1-1.4-.1-.3-.1-.5-.1-.6-.2s-.2-.2-.3-.4l-5.5-9.1-.2,9c0,.1,0,.2-.1.3-.1.1-.2.1-.3.2-.1.1-.3.1-.6.1h-.9c-.4,0-.7,0-.9-.1-.2,0-.4-.1-.6-.1-.1-.1-.2-.1-.3-.2-.1-.1-.1-.2-.1-.3l.5-17.9c0-.1,0-.2.1-.3.1-.1.2-.1.3-.2.1,0,.3-.1.6-.1h.9c.4,0,.7,0,.9.1.2,0,.4.1.6.1.1.1.2.1.3.2.1.1.1.2.1.3l-.2,8.1,5.8-7.9.3-.3c.1-.1.2-.1.4-.2.2,0,.4-.1.6-.1h.9c.4,0,.7,0,1,.1.3,0,.5.1.6.1.1.1.3.1.3.2.1.1.1.2.1.3,0,.2-.1.3-.1.5-.1.2-.3.4-.5.8l-5.6,6.7,5.5,8.7c.2.4.3.7.4.8v.3h0Z"/>
      <path class="cls-2" d="m448.2,298.1v.7c0,.2-.1.4-.1.5s-.1.2-.2.3c-.1.1-.2.1-.3.1l-10.9.1c-.2,0-.4,0-.6-.1s-.3-.1-.4-.2-.2-.3-.2-.5-.1-.5-.1-.8v-.8c0-.2.1-.4.2-.6s.2-.4.3-.5c.1-.2.3-.4.5-.6l3.2-3.6c.6-.7,1.2-1.3,1.6-1.9s.7-1.1.9-1.5.4-.9.4-1.3c.1-.4.1-.8.1-1.1s-.1-.6-.2-.9-.3-.5-.5-.7-.5-.4-.8-.5-.7-.2-1.1-.2c-.6,0-1.1.1-1.5.2s-.8.3-1.2.5c-.3.2-.6.4-.8.5s-.4.2-.5.2-.2,0-.2-.1c-.1-.1-.1-.2-.2-.3,0-.1-.1-.3-.1-.5v-1.4c0-.2,0-.3.1-.4,0-.1.1-.2.1-.3s.1-.2.3-.3c.1-.1.3-.3.7-.5.3-.2.7-.4,1.2-.5.5-.2,1-.3,1.6-.5.6-.1,1.2-.2,1.8-.2,1,0,1.8.1,2.6.3.7.2,1.4.6,1.9,1s.9,1,1.1,1.6.4,1.3.4,2c0,.6,0,1.2-.2,1.8-.1.6-.3,1.2-.7,1.9-.4.7-.9,1.5-1.5,2.3-.7.8-1.5,1.8-2.6,2.9l-2.2,2.3,7.5-.1c.1,0,.2,0,.3.1.1.1.2.1.2.3.1.1.1.3.1.5-.1.3,0,.5,0,.8h0Z"/>
      <path class="cls-2" d="m464.1,293.4c0,.5,0,.9-.1,1.1-.1.3-.2.4-.4.4l-1.7.1.2,3.4c0,.1,0,.2-.1.3-.1.1-.2.1-.3.2-.1.1-.3.1-.6.1-.2,0-.5.1-.9.1h-.9c-.2,0-.4,0-.6-.1-.1,0-.2-.1-.3-.2-.1-.1-.1-.2-.1-.3l-.2-3.4-7.2.4h-.4c-.1,0-.2-.1-.3-.2-.1-.1-.1-.3-.2-.5,0-.2-.1-.5-.1-.9v-1.4c0-.2.1-.4.1-.5.1-.2.1-.3.2-.5l5.4-10.7c0-.1.1-.2.2-.2.1-.1.3-.1.5-.2s.5-.1.8-.1.7-.1,1.2-.1h1.3c.4,0,.6,0,.8.1s.4.1.5.2.2.2.2.3l.6,11.4,1.7-.1c.2,0,.3.1.4.3.2.1.3.5.3,1h0Zm-6.4-9.9h0l-4.6,9,5-.2-.4-8.8Z"/>
      <path class="cls-2" d="m477.2,280.4v.7c0,.2,0,.4-.1.5,0,.1-.1.2-.2.3-.07.07-.13.1-.2.1l-6.2.5.4,5.1,5.8-.5c.1,0,.2,0,.2.1s.1.1.2.2.1.3.2.5c0,.2.1.4.1.7v.7c0,.2,0,.4-.1.5,0,.1-.1.2-.2.3s-.1.1-.2.1l-5.8.5.6,7c0,.1,0,.2-.1.3s-.2.2-.3.2c-.1.1-.3.1-.6.2-.2.1-.6.1-.9.1h-.9c-.3,0-.5,0-.6-.1-.2,0-.3-.1-.3-.2-.1-.1-.1-.2-.1-.3l-1.5-17.1c0-.4,0-.7.2-1,.2-.2.5-.3.8-.4l8.9-.8c.1,0,.2,0,.2.1.1,0,.1.1.2.2s.1.3.2.5c.2.4.3.7.3,1h0Z"/>
      <path class="cls-2" d="m485.9,296.3c0,.1,0,.2-.1.3-.1.1-.2.2-.3.2-.1.1-.3.1-.6.2-.2.1-.5.1-.9.1s-.7.1-.9.1h-.6c-.2,0-.3-.1-.3-.2-.1-.1-.1-.2-.1-.3l-2-17.8c0-.1,0-.2.1-.3.1-.1.2-.2.3-.2.1-.1.3-.1.6-.2.2-.1.5-.1.9-.1s.7-.1.9-.1.4,0,.6.1c.2,0,.3.1.3.2.1.1.1.2.1.3l2,17.7h0Z"/>
      <path class="cls-2" d="m500.5,277.4c0,.3.1.5.1.7v.5c0,.1-.1.2-.1.3s-.1.1-.2.1l-4.7.6,2.1,15.1c0,.1,0,.2-.1.3-.1.1-.1.2-.3.2-.1.1-.3.1-.6.2-.2.1-.5.1-.9.2s-.7.1-.9.1h-.6c-.2,0-.3-.1-.3-.1-.1-.1-.1-.2-.1-.2l-2.1-15.1-4.7.6c-.1,0-.2,0-.3-.1-.1,0-.1-.1-.2-.2s-.1-.3-.2-.5-.1-.4-.1-.7-.1-.5-.1-.7v-.5c0-.1.1-.2.1-.3.07-.07.13-.1.2-.1l13.2-1.8h.3c.1,0,.2.1.2.2.1.1.1.3.2.5,0,.2,0,.4.1.7h0Z"/>
      <path class="cls-2" d="m522.2,285.7c.2,1,.1,1.9-.1,2.7-.2.8-.6,1.5-1.2,2.1-.5.6-1.2,1.1-2,1.5s-1.7.7-2.6.8c-.6.1-1.3.1-1.8.1-.6,0-1.1-.1-1.5-.1-.4-.1-.8-.2-1.1-.3-.3-.1-.5-.2-.7-.3-.1-.1-.3-.3-.4-.5s-.2-.6-.2-1c0-.3-.1-.6-.1-.8v-.5c0-.1.1-.2.1-.3.07-.07.13-.1.2-.1.1,0,.3,0,.6.1s.6.2,1,.4c.4.1.9.2,1.5.3.6.1,1.2.1,1.9-.1.5-.1.9-.2,1.2-.4.3-.2.6-.4.9-.6.2-.2.4-.5.5-.8s.1-.7,0-1c-.1-.4-.2-.8-.5-1-.3-.3-.6-.5-1-.7s-.9-.3-1.4-.5c-.5-.1-1-.3-1.6-.4-.5-.2-1.1-.3-1.6-.6-.5-.2-1-.5-1.4-.9-.4-.3-.8-.8-1.1-1.3s-.5-1.2-.7-2c-.1-.9-.1-1.7.1-2.4.2-.7.6-1.4,1.1-1.9s1.1-1,1.8-1.3c.7-.3,1.5-.6,2.4-.7.4-.1.9-.1,1.3-.1.5,0,.9,0,1.3.1.4.1.8.1,1.1.2s.5.2.7.3c.1.1.2.2.2.2,0,.1.1.1.1.3,0,.1.1.2.1.4s.1.4.1.6c0,.3.1.5.1.7v.5c0,.1,0,.2-.1.3-.07.07-.13.1-.2.1-.1,0-.3,0-.5-.1-.3-.1-.6-.2-.9-.3-.4-.1-.8-.2-1.2-.2-.5-.1-1,0-1.5,0-.4.1-.8.2-1.1.3-.3.1-.5.3-.7.5s-.3.5-.4.7c-.1.3-.1.5,0,.8.1.4.2.8.5,1,.3.3.6.5,1,.7s.9.3,1.4.5c.5.1,1,.3,1.6.4.5.2,1.1.3,1.6.6.5.2,1,.5,1.5.9.4.3.8.8,1.1,1.3.3.4.5,1.1.6,1.8h0Z"/>
      <path class="cls-2" d="m529.7,289.7c0,.1,0,.2-.1.3,0,.1-.1.2-.3.2-.1.1-.3.1-.6.2-.2.1-.5.1-.9.2s-.7.1-.9.1h-.6c-.2,0-.3-.1-.3-.1-.07-.07-.1-.13-.1-.2l-2.9-17.7c0-.1,0-.2.1-.3s.1-.2.3-.2c.1-.1.3-.1.6-.2.2-.1.5-.1.9-.2s.7-.1.9-.1h.6c.2,0,.3.1.3.1.07.07.1.13.1.2l2.9,17.7Z"/>
      <path class="cls-2" d="m547,286c.2.3.4.6.5.8.1.2.1.4,0,.5s-.3.2-.6.3c-.3.1-.7.2-1.3.2-.5.1-.8.1-1.1.1h-.6c-.2,0-.3-.1-.4-.1-.1-.1-.2-.2-.2-.3l-4.6-6.2-2.4,7.3c0,.1-.1.2-.1.3-.1.1-.2.2-.3.2-.1.1-.3.1-.6.2s-.6.1-1,.2c-.5.1-.9.1-1.2.1s-.5,0-.6-.1-.2-.2-.1-.5c0-.2.1-.5.2-.9l3.2-8.9-5.4-7c-.2-.3-.4-.6-.5-.8-.1-.2-.1-.4,0-.5s.3-.2.6-.3c.3-.1.7-.2,1.3-.2.5-.1.8-.1,1.1-.1h.6c.2,0,.3.1.4.1s.2.2.2.3l4.3,5.7,2.2-6.7c0-.1.1-.2.1-.3s.1-.2.3-.2c.1-.1.3-.1.6-.2.2-.1.6-.1,1-.2.5-.1.9-.1,1.1-.1.3,0,.5,0,.6.1s.2.2.2.4-.1.5-.2.9l-2.9,8.3,5.6,7.6h0Z"/>
      <path class="cls-2" d="m561,283.6c0,.3.1.5.1.7v.5c0,.1-.1.2-.1.3-.07.07-.13.1-.2.1l-9.4,1.5c-.3.1-.6,0-.8-.1-.2-.2-.4-.4-.5-.9l-2.8-16.3c-.1-.4,0-.7.2-1,.2-.2.4-.4.8-.4l9.3-1.5h.2c.1,0,.1.1.2.2.1.1.1.3.2.4.1.2.1.4.2.7,0,.3.1.5.1.7v.5c0,.1-.1.2-.1.3-.07.07-.13.1-.2.1l-6.7,1.1.7,4.6,5.7-.9h.3c.1,0,.2.1.2.2.1.1.1.2.2.4.1.2.1.4.1.7s.1.5.1.7v.5c0,.1-.1.2-.1.3-.07.07-.13.1-.2.1l-5.7.9.9,5.3,6.7-1.1h.3c.1,0,.2.1.2.2.1.1.1.3.2.4-.2.3-.1.5-.1.8h0Z"/>
      <path class="cls-2" d="m574.5,277.2c.2,1,.1,1.9-.1,2.7-.2.8-.6,1.5-1.2,2.1-.5.6-1.2,1.1-2,1.5s-1.7.7-2.6.8c-.6.1-1.3.2-1.8.1-.6,0-1.1-.1-1.5-.1-.4-.1-.8-.2-1.1-.3s-.5-.2-.7-.3c-.1-.1-.3-.3-.4-.5-.1-.2-.2-.6-.2-1,0-.3-.1-.6-.1-.8v-.5c0-.1.1-.2.1-.3.07-.07.13-.1.2-.1.1,0,.3,0,.6.1s.6.2,1,.4c.4.1.9.2,1.5.3.6.1,1.2,0,1.9-.1.5-.1.9-.2,1.2-.4.3-.2.6-.4.9-.6.2-.2.4-.5.5-.8s.1-.7,0-1c-.1-.4-.2-.8-.5-1-.3-.3-.6-.5-1-.7s-.9-.3-1.4-.5c-.5-.1-1-.3-1.6-.4-.5-.1-1.1-.3-1.6-.5s-1-.5-1.4-.8-.8-.8-1.1-1.3-.5-1.2-.7-2c-.1-.9-.1-1.7.1-2.4.2-.7.6-1.4,1.1-1.9s1.1-1,1.8-1.3,1.5-.6,2.4-.7c.4-.1.9-.1,1.3-.1.5,0,.9,0,1.3.1.4.1.8.1,1.1.2s.5.2.7.3c.1.1.2.2.2.2,0,.1.1.1.1.3,0,.1.1.2.1.4s.1.4.1.6c0,.3.1.5.1.7v.5c0,.1,0,.2-.1.3-.07.07-.13.1-.2.1-.1,0-.3,0-.5-.1s-.6-.2-.9-.3c-.4-.1-.8-.2-1.2-.2-.5-.1-1,0-1.5,0-.4.1-.8.2-1.1.3-.3.2-.5.3-.7.5s-.3.5-.4.7c-.1.3-.1.5,0,.8.1.4.2.8.5,1,.3.3.6.5,1,.7s.9.3,1.4.5c.5.1,1,.3,1.6.4s1.1.3,1.6.5,1,.5,1.5.8c.4.3.8.8,1.1,1.3.2.4.5,1,.6,1.8h0Z"/>
      <path class="cls-2" d="m596.6,277.7c0,.3.1.5.1.7v.5c0,.1-.1.2-.1.3-.1.1-.2.1-.2.1l-10.8,1.8h-.6c-.2,0-.3-.1-.4-.2-.1-.1-.2-.2-.3-.4s-.1-.5-.2-.8c-.1-.3-.1-.6-.1-.8s0-.4.1-.6c0-.2.1-.4.2-.6.1-.2.2-.4.4-.6l2.7-4c.5-.8,1-1.5,1.3-2.1s.5-1.2.7-1.7.2-.9.2-1.3,0-.8-.1-1.1c-.1-.3-.2-.6-.3-.9s-.3-.5-.6-.7c-.2-.2-.5-.3-.8-.4s-.7-.1-1.1,0c-.6.1-1.1.2-1.5.5-.4.2-.8.4-1.1.7-.3.2-.6.4-.8.6s-.4.3-.5.3h-.2c-.1,0-.1-.1-.2-.3-.1-.1-.1-.3-.2-.5s-.1-.5-.2-.8c0-.2-.1-.4-.1-.6v-.4c0-.1,0-.2.1-.3,0-.1.1-.2.2-.3.1-.1.3-.3.6-.5s.7-.5,1.1-.7c.4-.2.9-.5,1.5-.7.5-.2,1.1-.4,1.7-.5,1-.2,1.8-.2,2.6-.1s1.4.4,2,.7c.6.4,1,.8,1.3,1.4s.6,1.2.7,1.9c.1.6.1,1.2.1,1.8s-.2,1.3-.4,2c-.3.7-.6,1.6-1.2,2.5-.5.9-1.3,2-2.2,3.3l-1.8,2.6,7.4-1.2h.3c.1,0,.2.1.3.2s.1.3.2.5c.1.2.1.4.2.7h0Z"/>
      <path class="cls-2" d="m613.6,275.9v.3c0,.1-.1.2-.3.3-.1.1-.3.2-.6.2-.3.1-.6.1-1,.2-.6.1-1.1.2-1.4.1-.3,0-.5,0-.6-.1s-.2-.2-.3-.3l-7.1-8,1.5,8.9v.3c0,.1-.1.2-.3.2-.1.1-.3.1-.6.2s-.5.1-.9.2-.7.1-.9.1h-.6c-.2,0-.3-.1-.3-.1-.1-.1-.1-.2-.1-.3l-2.9-17.6v-.3c0-.1.1-.2.3-.2.1-.1.3-.1.6-.2.2-.1.5-.1.9-.2s.7-.1.9-.1h.6c.2,0,.3.1.3.1.1.1.1.2.1.3l1.3,8,4.2-8.8c0-.1.1-.3.2-.4s.2-.2.3-.3c.1-.1.3-.1.6-.2.2-.1.5-.1.9-.2s.7-.1,1-.1h.6c.2,0,.3.1.3.1.07.07.1.13.1.2v.5c-.1.2-.2.5-.4.9l-4,7.6,7,7.5c.3.4.4.6.5.7,0,.4.1.5.1.5h0Z"/>
      <path class="cls-2" d="m627.7,272.6c0,.3.1.5.1.7v.5c0,.1-.1.2-.1.3s-.2.1-.2.1l-10.8,1.7h-.6c-.2,0-.3-.1-.4-.2-.1-.1-.2-.2-.3-.5-.1-.2-.1-.5-.2-.8-.1-.3-.1-.6-.1-.8s0-.4.1-.6c0-.2.1-.4.2-.6.1-.2.2-.4.4-.6l2.7-4c.5-.8,1-1.5,1.3-2.1s.5-1.2.7-1.7c.1-.5.2-.9.3-1.3,0-.4,0-.8-.1-1.1-.1-.3-.2-.6-.3-.9s-.3-.5-.6-.7c-.2-.2-.5-.3-.8-.4s-.7-.1-1.1,0c-.6.1-1.1.2-1.5.5-.4.2-.8.4-1.1.7-.3.2-.6.4-.8.6s-.4.3-.5.3-.2,0-.2-.1c-.1,0-.1-.1-.2-.3-.1-.1-.1-.3-.2-.5s-.1-.5-.2-.8c0-.2-.1-.4-.1-.6v-.4c0-.1,0-.2.1-.3,0-.1.1-.2.2-.3.1-.1.3-.3.6-.5s.7-.5,1.1-.7.9-.5,1.5-.7,1.1-.4,1.8-.5c1-.2,1.8-.2,2.6,0,.8.1,1.4.4,2,.7.6.4,1,.8,1.3,1.4s.6,1.2.7,1.9c.1.6.1,1.2.1,1.8s-.2,1.3-.4,2c-.3.7-.7,1.6-1.2,2.5s-1.3,2-2.2,3.3l-1.8,2.6,7.4-1.2h.3c.1,0,.2.1.3.2s.1.3.2.5c-.1.4,0,.7,0,.9Z"/>
      <path class="cls-2" d="m642.7,266.3c.1.5.1.9,0,1.1-.1.3-.2.4-.4.4l-1.7.3.5,3.4v.3c0,.1-.1.2-.3.2-.1.1-.3.1-.5.2s-.5.1-.9.2c-.3.1-.6.1-.9.1h-.6c-.1,0-.3-.1-.3-.1-.07-.07-.1-.13-.1-.2l-.5-3.4-7.2,1.1h-.4c-.1,0-.2-.1-.3-.2s-.2-.3-.2-.5-.1-.5-.2-.9c0-.3-.1-.6-.1-.8v-.6c0-.2,0-.4.1-.5,0-.2.1-.4.2-.6l4.2-11.2c0-.1.1-.2.2-.3.1-.1.3-.2.5-.2.2-.1.5-.1.8-.2s.7-.1,1.2-.2.9-.1,1.3-.2.6,0,.9,0c.2,0,.4.1.5.1.1.1.2.1.2.3l1.8,11.3,1.7-.3c.2,0,.3.1.5.3-.2.2,0,.6,0,1.1h0Zm-7.4-9.2h0l-3.6,9.4,5-.8-1.4-8.6Z"/>
      <path class="cls-2" d="m654.7,252.5c0,.3.1.5.1.7v.5c0,.1-.1.2-.1.3-.07.07-.13.1-.2.1l-6.1.9.8,5,5.8-.9h.2c.1,0,.1.1.2.2.1.1.1.3.2.4.1.2.1.4.1.7s.1.5.1.7v.5c0,.1-.1.2-.1.3s-.1.1-.2.1l-5.8.9,1.1,7v.3c0,.1-.1.2-.3.2-.1.1-.3.1-.6.2-.2.1-.5.1-.9.2s-.7.1-.9.1h-.6c-.2,0-.3-.1-.3-.1-.1-.1-.1-.2-.1-.3l-2.6-17c-.1-.4,0-.7.2-1,.2-.2.4-.4.8-.4l8.8-1.3h.2c.1,0,.1.1.2.2.1.1.1.3.2.5-.3.4-.2.7-.2,1h0Z"/>
      <path class="cls-2" d="m664.1,268.1c0,.1,0,.2-.1.3-.1.1-.1.2-.3.2-.1.1-.3.1-.6.2-.2.1-.5.1-.9.2s-.7.1-.9.1h-.6c-.2,0-.3-.1-.3-.1-.1-.1-.1-.2-.1-.2l-2.5-17.7c0-.1,0-.2.1-.3s.1-.2.3-.2c.1-.1.3-.1.6-.2.2-.1.5-.1.9-.2s.7-.1.9-.1h.6c.2,0,.3.1.3.1.1.1.1.2.1.2l2.5,17.7h0Z"/>
      <path class="cls-2" d="m678.4,249.2c0,.3.1.5.1.7v.5c0,.1-.1.2-.1.3-.07.07-.13.1-.2.1l-4.7.6,2,15.1c0,.1,0,.2-.1.3-.1.1-.1.2-.3.2-.1.1-.3.1-.6.2-.2.1-.5.1-.9.2-.4,0-.7.1-.9.1h-.6c-.2,0-.3-.1-.3-.1-.1-.1-.1-.2-.1-.2l-2-15.1-4.7.6c-.1,0-.2,0-.3-.1-.1,0-.1-.1-.2-.2-.1-.1-.1-.3-.2-.5-.1-.2-.1-.4-.1-.7s-.1-.5-.1-.7v-.5c0-.1.1-.2.1-.3.07-.07.13-.1.2-.1l13.2-1.8h.2c.1,0,.2.1.2.2.1.1.1.3.2.5.1.2.2.4.2.7h0Z"/>
      <path class="cls-2" d="m700.1,258.5c.1,1,0,1.9-.3,2.7s-.7,1.5-1.3,2c-.6.6-1.3,1-2.1,1.4-.8.3-1.7.6-2.7.7-.7.1-1.3.1-1.8,0-.6,0-1.1-.1-1.5-.2s-.8-.2-1.1-.4c-.3-.1-.5-.3-.7-.4-.1-.1-.2-.3-.3-.5s-.1-.6-.2-1v-1.3c0-.1.1-.2.1-.3s.1-.1.2-.1.3,0,.6.2c.3.1.6.3,1,.4s.9.3,1.4.4c.6.1,1.2.1,1.9,0,.5,0,.9-.1,1.2-.3.4-.1.7-.3.9-.6.2-.2.4-.5.5-.8s.1-.7.1-1c0-.4-.2-.8-.5-1.1-.3-.3-.6-.5-1-.7s-.8-.4-1.3-.5c-.5-.2-1-.3-1.5-.5s-1-.4-1.6-.6c-.5-.2-1-.6-1.4-.9-.4-.4-.8-.8-1.1-1.4s-.5-1.2-.6-2c-.1-.9,0-1.7.3-2.4s.7-1.3,1.2-1.8,1.2-.9,1.9-1.2,1.6-.5,2.4-.6c.4,0,.9-.1,1.4,0,.5,0,.9.1,1.3.1.4.1.8.2,1.1.3s.5.2.6.3.2.2.2.2c0,.1.1.2.1.3s.1.2.1.4.1.4.1.6c0,.3,0,.5.1.7v.5c0,.1-.1.2-.1.3-.07.07-.13.1-.2.1-.1,0-.3,0-.5-.2s-.5-.2-.9-.4l-1.2-.3c-.5-.1-1-.1-1.5,0-.4,0-.8.1-1.1.3-.3.1-.5.3-.7.5s-.3.4-.4.7c-.1.3-.1.5-.1.8,0,.4.2.8.5,1,.3.3.6.5,1,.7s.9.4,1.4.5c.5.2,1,.3,1.6.5.5.2,1.1.4,1.6.6s1,.6,1.4.9c.4.4.8.8,1.1,1.4.2.6.3,1.3.4,2h0Z"/>
      <path class="cls-2" d="m707.4,263.1c0,.1,0,.2-.1.3-.1.1-.2.2-.3.2-.1.1-.3.1-.6.2-.2,0-.6.1-.9.1h-.9c-.3,0-.5,0-.6-.1-.1,0-.3-.1-.3-.2-.1-.1-.1-.2-.1-.3l-1.5-17.8c0-.1,0-.2.1-.3s.2-.2.3-.2c.1-.1.3-.1.6-.2.2,0,.5-.1.9-.1h.9c.2,0,.4,0,.6.1.1,0,.3.1.3.2.1.1.1.2.1.3l1.5,17.8Z"/>
      <path class="cls-2" d="m724.8,261.2c.2.3.3.6.4.8.1.2,0,.4-.1.5s-.3.2-.6.2-.7.1-1.3.1h-1.1c-.3,0-.5,0-.6-.1-.2,0-.3-.1-.3-.2-.1-.1-.1-.2-.2-.3l-3.9-6.7-3.2,7c-.1.1-.1.2-.2.3-.1.1-.2.1-.3.2s-.4.1-.6.1-.6.1-1.1.1h-1.2c-.3,0-.5-.1-.6-.2s-.1-.3-.1-.5.2-.5.3-.8l4.1-8.5-4.6-7.6c-.2-.3-.3-.6-.4-.8-.1-.2-.1-.4.1-.5.1-.1.3-.2.6-.2s.7-.1,1.3-.1h1.1c.3,0,.5,0,.6.1.2,0,.3.1.3.2.1.1.1.2.2.3l3.6,6.1,2.9-6.4c.1-.1.1-.2.2-.3.1-.1.2-.1.3-.2.1-.1.3-.1.6-.1.2,0,.6-.1,1-.1h1.2c.3,0,.5.1.6.2.1.1.1.3.1.5s-.1.5-.3.8l-3.8,7.9,5,8.2Z"/>
      <path class="cls-2" d="m738.8,261.3v.7c0,.2-.1.3-.1.5,0,.1-.1.2-.2.3-.1.1-.2.1-.2.1l-9.5-.1c-.3,0-.6-.1-.8-.3-.2-.2-.3-.5-.3-.9l.2-16.5c0-.4.1-.7.3-.9s.5-.3.8-.3l9.5.1c.1,0,.2,0,.2.1.1,0,.1.1.2.3,0,.1.1.3.1.5v1.4c0,.2-.1.3-.1.5-.1.1-.1.2-.2.3-.07.07-.13.1-.2.1l-6.8-.1v4.6l5.7.1c.1,0,.2,0,.2.1.07.07.13.17.2.3,0,.1.1.3.1.5v1.4c0,.2-.1.3-.1.4s-.1.2-.2.2-.2.1-.2.1l-5.7-.1-.1,5.3,6.8.1c.1,0,.2,0,.2.1.07.07.13.17.2.3,0,.1.1.3.1.5-.1-.3-.1,0-.1.3h0Z"/>
      <path class="cls-2" d="m753.2,258.2c-.1,1-.3,1.8-.8,2.6s-1,1.3-1.7,1.8-1.4.8-2.3,1c-.9.2-1.8.2-2.7.2-.7-.1-1.3-.2-1.8-.3-.6-.2-1-.3-1.4-.5s-.8-.4-1-.6c-.3-.2-.5-.4-.6-.5s-.2-.3-.2-.6v-1c0-.3.1-.6.1-.8s.1-.4.1-.5.1-.2.2-.3.2-.1.3-.1.3.1.6.3c.2.2.5.4.9.6s.8.4,1.4.6c.5.2,1.1.3,1.9.4.5,0,.9,0,1.3-.1.4-.1.7-.2,1-.4.3-.2.5-.4.7-.7.2-.3.3-.6.3-1s-.1-.8-.3-1.1c-.2-.3-.5-.6-.8-.9-.4-.3-.8-.5-1.2-.8-.5-.2-.9-.5-1.4-.8s-1-.6-1.4-.9c-.5-.3-.8-.7-1.2-1.2-.3-.4-.6-1-.8-1.5-.2-.6-.2-1.3-.2-2.1.1-.9.3-1.7.7-2.3.4-.7.9-1.2,1.5-1.6.6-.4,1.3-.7,2.1-.9s1.6-.2,2.5-.1c.4,0,.9.1,1.3.2s.9.2,1.2.4.7.3,1,.5.5.3.6.4c.1.1.1.2.2.3,0,.1.1.2.1.3v1c0,.3,0,.5-.1.7,0,.2-.1.4-.1.5s-.1.2-.2.3c-.1.1-.2.1-.3.1s-.3-.1-.5-.2c-.2-.2-.5-.3-.8-.5s-.7-.4-1.1-.5c-.4-.2-.9-.3-1.5-.3-.4,0-.8,0-1.1.1s-.6.2-.8.4-.4.4-.5.6-.2.5-.2.8c0,.4.1.8.3,1.1s.5.6.9.9.8.5,1.3.8.9.5,1.4.8,1,.6,1.4.9c.5.3.9.7,1.2,1.2.3.4.6,1,.8,1.5-.3.3-.2,1-.3,1.8h0Z"/>
      <path class="cls-2" d="m773.8,266.2c-.1.3-.1.5-.2.7-.1.2-.1.3-.2.5-.1.1-.2.2-.2.2h-.3l-10.7-2.3c-.2,0-.4-.1-.5-.2s-.3-.2-.3-.3c-.1-.1-.1-.3-.1-.5s0-.5.1-.8.1-.6.2-.8c.1-.2.2-.4.3-.6s.2-.3.4-.5c.2-.1.3-.3.6-.5l3.9-2.7c.8-.5,1.4-1,1.9-1.5s.9-.9,1.2-1.3.6-.8.7-1.2c.2-.4.3-.7.4-1.1.1-.3.1-.6,0-.9,0-.3-.1-.6-.3-.8-.2-.3-.4-.5-.6-.7-.3-.2-.6-.3-1-.4-.6-.1-1.1-.2-1.5-.1s-.9.1-1.2.2c-.4.1-.7.2-.9.3s-.4.1-.6.1c-.1,0-.2-.1-.2-.1-.1-.1-.1-.2-.1-.3v-.6c0-.2.1-.5.1-.8,0-.2.1-.4.1-.5s.1-.3.1-.4.1-.2.2-.3c.1-.1.2-.1.3-.2s.4-.2.8-.3c.4-.1.8-.2,1.3-.3s1-.1,1.6-.1,1.2.1,1.8.2c1,.2,1.8.5,2.4.9.7.4,1.2.9,1.6,1.4.4.5.6,1.1.7,1.8.1.6.1,1.3-.1,2-.1.6-.3,1.2-.6,1.7-.2.6-.6,1.1-1.1,1.7s-1.2,1.2-2,1.9c-.8.7-1.9,1.4-3.2,2.3l-2.6,1.8,7.3,1.6c.1,0,.2.1.2.1,0,0,.1.2.2.3v.5c.2.3.1.6.1.9h0Z"/>
      <path class="cls-2" d="m789.6,272c0,.1-.1.2-.2.2s-.2.1-.4.1-.4,0-.6-.1c-.3-.1-.6-.1-1-.3-.6-.2-1-.4-1.3-.5-.2-.1-.4-.3-.5-.4s-.1-.3-.2-.4l-2.8-10.3-2.7,8.6c0,.1-.1.2-.2.2-.1.1-.2.1-.4.1s-.4,0-.6-.1c-.2,0-.5-.1-.9-.2s-.6-.2-.9-.3c-.2-.1-.4-.2-.5-.3-.1-.1-.2-.2-.2-.3v-.3l5.4-17c0-.1.1-.2.2-.2.1-.1.2-.1.4-.1s.4,0,.6.1.5.1.9.2.7.2.9.3.4.2.5.3.2.2.2.3v.3l-2.4,7.7,7.7-6c.1-.1.2-.2.3-.2.1-.1.3-.1.4-.1.2,0,.4,0,.6.1s.5.1.9.3c.4.1.7.2.9.3s.4.2.5.3.2.2.2.3v.3c0,.2-.1.3-.3.4-.1.1-.4.4-.7.6l-7,4.9,2.8,9.9c.1.4.1.7.1.9.3.3.3.4.3.4h0Z"/>
      <path class="cls-2" d="m803.1,276.4c-.1.3-.2.5-.3.7s-.2.3-.3.4-.2.2-.3.2h-.3l-10.1-4c-.2-.1-.4-.2-.5-.3-.1-.1-.2-.2-.3-.4,0-.1-.1-.3,0-.5,0-.2.1-.5.2-.8.1-.3.2-.6.3-.8.1-.2.2-.4.4-.5.1-.1.3-.3.5-.4s.4-.2.7-.3l4.4-2c.9-.4,1.6-.8,2.2-1.1.6-.4,1.1-.7,1.4-1.1s.7-.7.9-1,.4-.7.5-1,.2-.6.2-.9,0-.6-.1-.9-.3-.5-.5-.7-.5-.4-.9-.6c-.5-.2-1-.3-1.5-.4h-1.3c-.4,0-.7.1-1,.2s-.5.1-.6,0c-.1,0-.1-.1-.2-.2s0-.2,0-.3.1-.3.1-.5c.1-.2.2-.5.3-.8.1-.2.2-.4.2-.5.1-.1.1-.2.2-.3.1-.1.1-.2.2-.2.1-.1.2-.1.3-.2.2-.1.4-.1.8-.2.4,0,.8-.1,1.3,0,.5,0,1.1.1,1.6.2.6.1,1.2.3,1.7.5.9.4,1.7.8,2.3,1.3s1,1.1,1.3,1.6c.3.6.4,1.2.4,1.9s-.1,1.3-.4,2c-.2.6-.5,1.1-.8,1.6s-.8,1-1.4,1.5c-.6.5-1.4,1-2.3,1.5-.9.5-2.1,1.1-3.6,1.7l-2.9,1.3,6.9,2.8c.1,0,.2.1.2.2.1.1.1.2.1.3s0,.3-.1.5.2.3.1.5h0Z"/>
      <path class="cls-2" d="m818.9,279.4c-.2.5-.4.8-.6,1-.2.2-.4.3-.5.2l-1.5-.7-1.4,3.1c0,.1-.1.2-.2.2s-.2.1-.4,0c-.2,0-.3-.1-.6-.1-.2-.1-.5-.2-.8-.3-.3-.1-.6-.3-.8-.4s-.4-.2-.5-.3-.2-.2-.2-.3v-.3l1.4-3.1-6.6-3c-.1-.1-.2-.1-.3-.2s-.1-.2-.1-.3,0-.3.1-.5.2-.5.3-.9c.1-.3.2-.5.4-.7.1-.2.2-.4.3-.5.1-.2.2-.3.4-.4.1-.1.3-.2.4-.4l9.7-7c.1-.1.2-.1.3-.1s.3,0,.5.1c.2,0,.5.1.8.2s.7.3,1.1.5c.5.2.8.4,1.1.6s.5.3.7.5c.2.1.3.3.3.4.1.1.1.2,0,.3l-4.8,10.4,1.5.7c.1.1.2.2.2.5.2-.1.1.3-.2.8h0Zm-1.1-11.9h0l-8.2,5.8,4.6,2.1,3.6-7.9h0Z"/>
      <path class="cls-2" d="m836.7,274.9c-.1.3-.3.5-.4.6-.1.2-.2.3-.3.4s-.2.1-.3.2h-.2l-5.6-2.8-2.3,4.6,5.2,2.6c.1,0,.1.1.2.2,0,.1.1.2.1.3s0,.3-.1.5-.2.4-.3.7c-.1.3-.2.5-.4.6-.1.2-.2.3-.3.4s-.2.1-.3.2h-.2l-5.2-2.6-3.1,6.3c0,.1-.1.2-.2.2s-.2.1-.4,0c-.2,0-.4-.1-.6-.2-.2-.1-.5-.2-.9-.4-.3-.2-.6-.3-.8-.5-.2-.1-.4-.3-.5-.4s-.2-.2-.2-.3v-.3l7.6-15.4c.2-.4.4-.6.7-.7s.6,0,.9.1l8,4c.1,0,.1.1.2.2,0,.1.1.2,0,.3,0,.1,0,.3-.1.5,0,.2-.1.4-.2.7h0Z"/>
      <path class="cls-2" d="m835.4,293.1c0,.1-.1.2-.2.2h-.4c-.2,0-.3-.1-.6-.2-.2-.1-.5-.2-.9-.4-.3-.2-.6-.3-.8-.5-.2-.1-.4-.3-.5-.4s-.2-.2-.2-.3v-.3l8.2-15.9c0-.1.1-.2.2-.2h.4c.2,0,.4.1.6.2.2.1.5.2.8.4.3.2.6.3.8.5.2.1.4.3.5.4s.2.2.2.3v.3l-8.1,15.9Z"/>
      <path class="cls-2" d="m858,286c-.1.2-.3.5-.4.6-.1.2-.2.3-.3.4s-.2.1-.3.2h-.3l-4.2-2.2-7.1,13.5c0,.1-.1.1-.2.2h-.4c-.2,0-.3-.1-.6-.2-.2-.1-.5-.2-.8-.4-.3-.2-.6-.3-.8-.5-.2-.1-.4-.3-.5-.4s-.2-.2-.2-.3v-.3l7.1-13.5-4.2-2.2c-.1,0-.1-.1-.2-.2s0-.2,0-.3.1-.3.1-.5c.1-.2.2-.4.3-.7.1-.3.3-.5.4-.6.1-.2.2-.3.3-.4s.2-.1.3-.2h.3l11.8,6.2c.1,0,.1.1.2.2,0,.1.1.2,0,.3,0,.1-.1.3-.1.5.1.3,0,.5-.2.8h0Z"/>
      <path class="cls-2" d="m870.4,305.9c-.5.9-1,1.6-1.7,2-.7.5-1.4.8-2.2.9s-1.6.1-2.5,0c-.9-.2-1.7-.5-2.6-1-.6-.3-1.1-.6-1.5-1s-.8-.7-1.1-1-.5-.6-.7-.9-.3-.5-.3-.7c-.1-.2,0-.4,0-.6.1-.2.2-.6.4-.9.1-.3.3-.5.4-.7s.2-.3.3-.4.2-.1.3-.2.2,0,.3,0c.1.1.3.2.4.5.1.3.3.6.6.9.3.4.6.7,1,1.1s.9.8,1.5,1.1c.4.2.8.4,1.2.4.4.1.7.1,1.1,0,.3-.1.6-.2.9-.4s.5-.5.7-.8c.2-.4.3-.8.2-1.1-.1-.4-.2-.8-.4-1.2-.2-.4-.5-.8-.8-1.2s-.7-.8-1-1.3c-.3-.4-.6-.9-.9-1.4-.3-.5-.5-1-.6-1.5s-.2-1.1-.1-1.7c.1-.6.3-1.3.7-2,.4-.8,1-1.4,1.6-1.9.6-.4,1.3-.7,2-.9.7-.1,1.5-.1,2.3.1s1.6.5,2.3.9c.4.2.8.5,1.1.7.4.3.7.6,1,.8.3.3.5.6.7.8.2.3.3.5.4.6,0,.1.1.2.1.3s0,.2-.1.3c0,.1-.1.2-.2.4-.1.2-.2.3-.3.6-.1.2-.3.5-.4.6-.1.2-.2.3-.3.4s-.2.2-.3.2h-.3c-.1,0-.2-.2-.4-.4-.1-.2-.3-.5-.6-.8-.2-.3-.5-.6-.8-.9s-.7-.6-1.2-.9c-.4-.2-.7-.3-1-.4s-.6-.1-.9,0c-.3.1-.5.2-.7.4-.2.2-.4.4-.5.6-.2.4-.3.7-.2,1.1s.2.8.4,1.2c.2.4.5.8.8,1.2.3.4.7.8,1,1.3.3.4.6.9.9,1.4.3.5.5,1,.6,1.6.1.5.2,1.1.1,1.7s-.3,1.4-.7,2.1h0Z"/>
      <path class="cls-2" d="m874,313.6c0,.1-.1.1-.2.2s-.2,0-.4,0-.3-.1-.6-.2c-.2-.1-.5-.2-.8-.4-.3-.2-.6-.3-.8-.5-.2-.1-.4-.3-.5-.4s-.2-.2-.2-.3v-.3l8.5-15.8c0-.1.1-.1.2-.2s.2,0,.4,0,.3.1.6.2.5.2.8.4c.3.2.6.3.8.5.2.1.4.3.5.4s.2.2.2.3v.3l-8.5,15.8Z"/>
      <path class="cls-2" d="m890,321.2c0,.4,0,.7-.1.9,0,.2-.2.3-.3.4-.2,0-.4,0-.7-.1s-.7-.3-1.2-.6c-.4-.2-.7-.4-.9-.5s-.4-.3-.5-.4-.2-.2-.2-.3v-.3l.1-7.7-6.4,4.4c-.1.1-.2.1-.3.2h-.4c-.2,0-.4-.1-.6-.2l-1-.5c-.4-.2-.8-.4-1-.6s-.4-.3-.4-.4,0-.3.2-.4.4-.3.7-.6l7.9-5.2v-8.8c0-.4,0-.7.1-.9,0-.2.1-.3.3-.4.1,0,.4,0,.6.1s.7.3,1.2.6c.4.2.7.4.9.5s.4.3.5.4.2.2.2.3v7.4l5.8-4c.1-.1.2-.1.3-.2h.4c.1,0,.3.1.6.2.2.1.5.3.9.5s.8.4,1,.6.4.3.4.5c0,.1,0,.3-.2.5-.1.2-.4.3-.7.6l-7.4,4.8.2,9.2h0Z"/>
      <path class="cls-2" d="m902.6,327.8c-.1.2-.3.5-.4.6-.1.2-.2.3-.3.4s-.2.1-.3.1h-.3l-8.4-4.5c-.3-.2-.5-.4-.6-.6-.1-.3-.1-.6.1-1l7.8-14.6c.2-.4.4-.6.7-.7s.6,0,.9.1l8.4,4.4c.1,0,.1.1.2.2v.3c0,.1-.1.3-.1.5-.1.2-.2.4-.3.7-.1.2-.2.4-.4.6-.1.2-.2.3-.3.4s-.2.1-.3.1h-.2l-6-3.2-2.2,4.1,5.1,2.7c.1,0,.1.1.2.2,0,.1.1.2,0,.3,0,.1,0,.3-.1.5s-.2.4-.3.6-.3.5-.4.6-.2.3-.3.3c-.1.1-.2.1-.3.1s-.2,0-.2-.1l-5.1-2.7-2.5,4.7,6,3.2c.1,0,.1.1.2.2s.1.2,0,.3c0,.1-.1.3-.1.5s-.1.4-.2.7h0Z"/>
      <path class="cls-2" d="m917.2,330.8c-.5.9-1,1.6-1.7,2.1s-1.4.8-2.2,1c-.8.1-1.6.1-2.5,0s-1.7-.5-2.6-.9c-.6-.3-1.1-.6-1.5-1s-.8-.7-1.1-1-.6-.6-.7-.9c-.2-.3-.3-.5-.3-.7-.1-.2,0-.4,0-.6.1-.2.2-.6.4-1,.1-.3.3-.5.4-.7s.2-.3.3-.4.2-.1.3-.2.2,0,.3,0c.1.1.3.2.4.5.1.3.3.6.6.9.3.4.6.7,1,1.1s.9.8,1.6,1.1c.4.2.8.4,1.2.4.4.1.7.1,1.1,0,.3-.1.6-.2.9-.4s.5-.5.7-.8c.2-.4.3-.8.2-1.1-.1-.4-.2-.8-.4-1.2-.2-.4-.5-.8-.8-1.2-.3-.4-.7-.8-1-1.3-.3-.4-.7-.9-.9-1.4s-.5-1-.6-1.5-.2-1.1-.1-1.7c.1-.6.3-1.3.6-2,.4-.8.9-1.4,1.6-1.9.6-.5,1.3-.7,2-.9.7-.1,1.5-.1,2.3,0,.8.2,1.6.4,2.3.9.4.2.8.4,1.1.7.4.3.7.5,1,.8s.5.6.7.8.3.5.4.6c0,.1.1.2.1.3v.3c0,.1-.1.2-.2.4-.1.2-.2.3-.3.6-.1.3-.2.5-.4.6s-.2.3-.3.4-.2.2-.3.2h-.3c-.1,0-.2-.2-.4-.4s-.3-.5-.6-.8c-.2-.3-.5-.6-.8-.9s-.7-.6-1.2-.9c-.4-.2-.7-.3-1-.4s-.6-.1-.9,0c-.3.1-.5.2-.7.4-.2.2-.4.4-.5.6-.2.4-.3.7-.2,1.1s.2.8.4,1.2c.2.4.5.8.8,1.2.3.4.7.8,1,1.3.3.4.7.9.9,1.4.3.5.5,1,.7,1.6.1.5.2,1.1.1,1.7-.3.7-.5,1.3-.9,2h0Z"/>
      <path class="cls-2" d="m934.5,344.4c-.1.2-.3.5-.4.6s-.2.3-.3.4-.2.1-.3.2c-.1,0-.2,0-.3-.1l-9.7-5c-.2-.1-.3-.2-.5-.3-.1-.1-.2-.2-.2-.4v-.5c0-.2.2-.5.3-.8s.3-.5.4-.7c.1-.2.3-.3.4-.5.2-.1.3-.2.5-.3.2-.1.4-.2.7-.3l4.5-1.6c.9-.3,1.7-.6,2.3-.9s1.1-.6,1.5-.9.7-.6,1-.9.5-.6.6-.9.2-.6.3-.9c0-.3,0-.6-.1-.9s-.2-.5-.4-.8c-.2-.2-.5-.5-.9-.7-.5-.3-1-.4-1.5-.5s-.9-.1-1.3-.1-.7,0-1,.1-.5,0-.6,0-.1-.1-.2-.2,0-.2,0-.3.1-.3.2-.5.2-.5.4-.8c.1-.2.2-.4.3-.5s.2-.2.2-.3.2-.2.2-.2c.1-.1.2-.1.4-.1s.4-.1.8-.1.8,0,1.3.1,1,.2,1.6.3c.6.2,1.1.4,1.7.7.9.5,1.6,1,2.1,1.5.5.6.9,1.2,1.2,1.8.2.6.3,1.3.2,1.9-.1.7-.3,1.3-.6,1.9-.3.5-.6,1.1-1,1.5s-.9.9-1.5,1.4c-.6.4-1.5.9-2.4,1.3-1,.4-2.2.9-3.7,1.3l-3,1,6.6,3.4c.1,0,.2.1.2.2s.1.2.1.3,0,.3-.1.5c.2.2.1.4,0,.6h0Z"/>
      <path class="cls-2" d="m949.2,353.1c0,.1-.1.2-.2.2s-.2.1-.4,0c-.2,0-.4-.1-.6-.2-.2-.1-.5-.2-.9-.4-.6-.3-1-.5-1.2-.7s-.4-.3-.4-.5c-.1-.1-.1-.3-.1-.4l-1-10.6-4.1,8c0,.1-.1.2-.2.2s-.2.1-.4,0-.3-.1-.6-.2-.5-.2-.9-.4c-.3-.2-.6-.3-.8-.5-.2-.1-.4-.3-.5-.4s-.2-.2-.2-.3v-.3l8.1-15.9c0-.1.1-.2.2-.2h.4c.2,0,.3.1.6.2.2.1.5.2.8.4.3.2.6.3.8.5.2.1.4.3.5.4s.2.2.2.3v.3l-3.7,7.2,8.6-4.6c.1-.1.2-.1.4-.2h.4c.2,0,.4.1.6.2s.5.2.8.4c.3.2.6.3.8.5.2.1.4.3.5.4s.2.2.2.3v.3c-.1.1-.2.3-.4.4s-.4.3-.8.5l-7.7,3.7,1.1,10.2v.9c.2.1.1.2.1.3h0Z"/>
      <path class="cls-2" d="m962.6,358.8c-.1.3-.2.5-.4.6-.1.2-.2.3-.3.4s-.2.1-.3.2h-.3l-9.7-4.9c-.2-.1-.3-.2-.5-.3-.1-.1-.2-.2-.2-.4v-.5c0-.2.2-.5.3-.8s.3-.5.4-.7c.1-.2.3-.3.4-.5.2-.1.3-.2.5-.3.2-.1.4-.2.7-.3l4.5-1.7c.9-.3,1.6-.6,2.3-1s1.1-.6,1.5-.9.7-.6,1-.9.5-.6.6-.9.2-.6.3-.9c0-.3,0-.6-.1-.9s-.2-.5-.4-.8c-.2-.2-.5-.5-.9-.6-.5-.3-1-.4-1.5-.5s-.9-.1-1.3-.1-.7,0-1,.1h-.6c-.1,0-.1-.1-.2-.2v-.3c0-.1.1-.3.2-.5.1-.2.2-.5.3-.8.1-.2.2-.4.3-.5s.2-.2.2-.3c.1-.1.2-.2.2-.2.1-.1.2-.1.4-.2s.4-.1.8-.1.8,0,1.3.1,1,.2,1.6.3c.6.2,1.1.4,1.7.7.9.4,1.6.9,2.1,1.5s.9,1.1,1.2,1.8c.2.6.3,1.3.3,1.9-.1.7-.3,1.3-.6,1.9-.3.5-.6,1.1-1,1.5s-.9.9-1.5,1.4-1.5.9-2.4,1.3c-1,.4-2.2.9-3.7,1.4l-3,1,6.7,3.4c.1,0,.2.1.2.2s.1.2.1.3,0,.3-.1.5c.1,0,0,.2-.1.5h0Z"/>
      <path class="cls-2" d="m978.5,362.3c-.2.4-.4.8-.6,1-.2.2-.4.2-.5.2l-1.5-.7-1.5,3.1c0,.1-.1.2-.2.2s-.2.1-.4,0c-.2,0-.3-.1-.6-.2-.2-.1-.5-.2-.8-.4-.3-.2-.6-.3-.8-.4s-.4-.2-.5-.3c-.1-.1-.2-.2-.2-.3v-.3l1.5-3.1-6.5-3.1c-.1-.1-.2-.1-.3-.2s-.1-.2-.1-.3,0-.3.1-.5.2-.5.4-.8c.1-.3.3-.5.4-.7.1-.2.2-.4.3-.5.1-.2.2-.3.4-.4.1-.1.3-.2.4-.4l9.8-6.8c.1-.1.2-.1.3-.1s.3,0,.5.1.5.1.8.3.7.3,1.1.5c.4.2.8.4,1.1.6s.5.3.7.5c.2.1.3.3.3.4.1.1.1.2,0,.3l-5,10.3,1.5.7c.1.1.2.2.2.5s-.1.3-.3.8h0Zm-.9-11.9h0l-8.3,5.7,4.5,2.2,3.8-7.9h0Z"/>
      <path class="cls-2" d="m996,357.4c-.1.3-.2.5-.3.7s-.2.3-.3.4-.2.1-.3.2h-.2l-5.6-2.6-2.2,4.6,5.3,2.5c.1,0,.1.1.2.2,0,.1.1.2.1.3s0,.3-.1.5-.2.4-.3.7-.2.5-.3.6c-.1.2-.2.3-.3.4s-.2.1-.3.2h-.2l-5.3-2.5-3,6.4c0,.1-.1.2-.2.2s-.2.1-.4,0c-.2,0-.4-.1-.6-.1s-.5-.2-.9-.4c-.3-.2-.6-.3-.8-.4s-.4-.3-.5-.4-.2-.2-.2-.3v-.3l7.3-15.6c.2-.4.4-.6.7-.7s.6-.1.9.1l8.1,3.8c.1,0,.1.1.2.2,0,.1.1.2.1.3s0,.3-.1.5-.3.3-.5.5h0Z"/>
      <path class="cls-2" d="m995.2,375.5c0,.1-.1.2-.2.2s-.2.1-.4,0c-.2,0-.3-.1-.6-.1-.2-.1-.5-.2-.9-.3-.3-.2-.6-.3-.8-.4s-.4-.2-.5-.3-.2-.2-.2-.3v-.3l7.3-16.4c0-.1.1-.2.2-.2s.2-.1.4,0,.4.1.6.1.5.2.9.3c.3.2.6.3.8.4s.4.2.5.3c.1.1.2.2.2.3v.3l-7.3,16.4Z"/>
      <path class="cls-2" d="m1017,366.4c-.1.3-.2.5-.3.7s-.2.3-.3.4-.2.2-.3.2h-.3l-4.4-1.8-5.9,14.1c0,.1-.1.2-.2.2s-.2.1-.4.1-.4-.1-.6-.1c-.2-.1-.5-.2-.9-.3-.3-.1-.6-.3-.8-.4s-.4-.2-.5-.3c-.1-.1-.2-.2-.2-.3v-.3l5.9-14.1-4.4-1.8c-.1,0-.2-.1-.2-.2s-.1-.2-.1-.3,0-.3.1-.5.1-.4.2-.7c.1-.3.2-.5.3-.7s.2-.3.3-.4.2-.2.3-.2h.3l12.3,5.2c.1,0,.1.1.2.2,0,.1.1.2.1.3s0,.3-.1.5c.1,0,.1.3-.1.5h0Z"/>
      <path class="cls-2" d="m1031.1,384.3c-.4.9-.8,1.7-1.4,2.3-.6.6-1.3,1-2.1,1.2-.8.2-1.6.3-2.5.3s-1.8-.3-2.7-.6c-.6-.2-1.2-.5-1.7-.8s-.9-.6-1.3-.9c-.3-.3-.6-.6-.8-.8-.2-.3-.4-.5-.4-.6-.1-.2-.1-.4-.1-.6s.1-.6.3-1c.1-.3.2-.5.3-.7s.2-.3.3-.4.2-.2.3-.2h.3c.1,0,.3.2.5.4.2.2.4.5.7.8s.7.7,1.1,1c.5.3,1,.6,1.7.9.4.2.9.3,1.2.3.4,0,.7,0,1.1-.1.3-.1.6-.3.8-.5.2-.2.4-.5.5-.9.2-.4.2-.8.1-1.2-.1-.4-.3-.7-.6-1.1-.3-.4-.6-.7-1-1.1s-.8-.7-1.2-1.1c-.4-.4-.8-.8-1.1-1.3-.3-.4-.6-.9-.8-1.5-.2-.5-.3-1.1-.3-1.7s.1-1.3.4-2c.3-.9.8-1.5,1.3-2.1.6-.5,1.2-.9,1.9-1.1.7-.2,1.4-.3,2.2-.2.8.1,1.6.2,2.4.6.4.2.8.3,1.2.6s.8.5,1.1.7.6.5.8.7.4.4.4.6c.1.1.1.2.1.3v.3c0,.1-.1.3-.1.4-.1.2-.1.4-.2.6-.1.3-.2.5-.3.7s-.2.3-.2.4-.2.2-.2.2h-.3c-.1,0-.2-.2-.4-.4-.2-.2-.4-.5-.7-.7-.3-.3-.6-.5-1-.8s-.8-.5-1.3-.7c-.4-.1-.8-.2-1.1-.2s-.6,0-.9.1-.5.2-.7.4c-.2.2-.3.4-.4.7-.1.4-.2.8-.1,1.1.1.4.3.7.6,1.1.3.4.6.7,1,1.1s.8.8,1.2,1.1c.4.4.8.8,1.1,1.3.4.5.6.9.8,1.5.2.5.3,1.1.3,1.7s.2,1.2-.1,1.9h0Z"/>
      <path class="cls-2" d="m1035.6,391.4c0,.1-.1.2-.2.2s-.2.1-.4.1-.4,0-.6-.1-.5-.1-.9-.3c-.3-.1-.6-.2-.9-.4-.2-.1-.4-.2-.5-.3-.1-.1-.2-.2-.2-.3v-.3l6-16.9c0-.1.1-.2.2-.2s.2-.1.4-.1.4,0,.6.1.5.1.9.3c.4.1.6.2.9.4.2.1.4.2.5.3.1.1.2.2.2.3v.3l-6,16.9Z"/>
      <path class="cls-2" d="m1052.5,396c.1.4.1.7.1.9s-.1.4-.2.4c-.1.1-.4.1-.7,0-.3-.1-.7-.2-1.2-.4-.4-.1-.8-.3-1-.4s-.4-.2-.6-.3c-.1-.1-.2-.2-.3-.3,0-.1-.1-.2-.1-.3l-1.2-7.6-5.5,5.4c-.1.1-.2.2-.3.2-.1.1-.2.1-.4.1s-.4,0-.6-.1c-.3-.1-.6-.2-1-.3-.5-.2-.9-.3-1.1-.4-.3-.1-.4-.2-.5-.4-.1-.1,0-.3.1-.5s.3-.4.6-.7l6.9-6.4-1.6-8.7c-.1-.4-.1-.7-.1-.9s.1-.4.2-.4c.1-.1.4-.1.7,0s.7.2,1.2.4c.4.1.8.3,1,.4s.4.2.6.3c.1.1.2.2.3.3,0,.1.1.2.1.3l1.2,7,5-4.9c.1-.1.2-.2.3-.2.1-.1.2-.1.3-.1s.3,0,.6.1c.2.1.6.2,1,.3.5.2.8.3,1.1.4.3.1.4.2.5.4.1.1,0,.3-.1.5s-.3.4-.6.7l-6.4,6,1.7,9.2Z"/>
      <path class="cls-2" d="m1066,400c-.1.3-.2.5-.2.7-.1.2-.2.3-.2.4l-.2.2h-.3l-9.1-2.7c-.3-.1-.5-.3-.7-.5s-.2-.6,0-1l4.7-15.8c.1-.4.3-.7.6-.8.3-.1.6-.1.9,0l9.1,2.7c.1,0,.2.1.2.1,0,0,.1.2.1.3v.5c0,.2-.1.4-.2.7-.1.3-.2.5-.2.7-.1.2-.2.3-.2.4l-.2.2h-.2l-6.5-1.9-1.3,4.4,5.5,1.6c.1,0,.2.1.2.1.1.1.1.2.1.3v.5c0,.2-.1.4-.2.7-.1.3-.2.5-.2.7-.1.2-.2.3-.2.4l-.2.2h-.3l-5.5-1.6-1.5,5.1,6.5,2c.1,0,.2.1.2.1,0,0,.1.2.1.3v.5c-.4,0-.5.3-.6.5h0Z"/>
      <path class="cls-2" d="m1080.8,399.7c-.3,1-.7,1.8-1.2,2.4s-1.2,1.1-1.9,1.4c-.7.3-1.6.5-2.4.5s-1.8-.1-2.7-.3c-.6-.2-1.2-.4-1.7-.6-.5-.3-1-.5-1.3-.8-.4-.3-.7-.5-.9-.7-.2-.2-.4-.4-.5-.6s-.1-.4-.1-.6.1-.6.2-1c.1-.3.2-.5.2-.7.1-.2.1-.3.2-.5s.2-.2.2-.2h.3c.1,0,.3.2.5.4.2.2.5.5.8.8s.7.6,1.2.9,1.1.5,1.8.7c.5.1.9.2,1.3.2s.7-.1,1-.2.6-.3.8-.6.4-.6.5-.9c.1-.4.1-.8,0-1.2-.1-.4-.4-.7-.7-1-.3-.3-.7-.7-1.1-1s-.8-.7-1.3-1c-.4-.4-.8-.7-1.2-1.2-.4-.4-.7-.9-1-1.4s-.4-1.1-.5-1.7,0-1.3.2-2.1c.2-.9.6-1.6,1.1-2.2s1.1-1,1.8-1.3c.7-.3,1.4-.4,2.2-.5.8,0,1.6.1,2.5.3.4.1.9.3,1.3.5s.8.4,1.1.6.6.4.9.7c.3.2.4.4.5.5s.1.2.1.3v.3c0,.1,0,.3-.1.4,0,.2-.1.4-.2.6-.1.3-.1.5-.2.7s-.1.3-.2.4-.1.2-.2.2h-.3c-.1,0-.3-.1-.4-.3s-.4-.4-.7-.7c-.3-.2-.6-.5-1-.7s-.9-.4-1.4-.6c-.4-.1-.8-.2-1.1-.1-.3,0-.6.1-.9.2-.2.1-.5.3-.6.5-.2.2-.3.5-.4.7-.1.4-.1.8,0,1.1.1.4.4.7.7,1,.3.3.7.7,1.1,1s.8.7,1.3,1c.4.4.8.7,1.2,1.2.4.4.7.9,1,1.4s.4,1.1.5,1.7c0,.7-.1,1.4-.3,2.1h0Z"/>
      <path class="cls-2" d="m1100.6,408.7c-.1.3-.1.5-.2.7s-.1.3-.2.5l-.2.2h-.3l-10.6-2.5c-.2,0-.4-.1-.5-.2s-.2-.2-.3-.3c-.1-.1-.1-.3-.1-.5s0-.5.1-.8.1-.6.2-.8c.1-.2.2-.4.3-.6.1-.2.3-.3.4-.4.2-.1.4-.3.6-.4l4-2.7c.8-.5,1.4-1,2-1.5.5-.5.9-.9,1.3-1.3s.6-.8.7-1.1c.2-.4.3-.7.4-1.1.1-.3.1-.6.1-.9s-.1-.6-.3-.8c-.1-.3-.4-.5-.6-.7-.3-.2-.6-.3-1-.4-.6-.1-1.1-.2-1.5-.1s-.9.1-1.3.2-.7.2-.9.3-.4.1-.6.1c-.1,0-.2-.1-.2-.1,0-.1-.1-.2-.1-.3v-.6c0-.2.1-.5.2-.8.1-.2.1-.4.1-.5s.1-.3.2-.4.1-.2.2-.3c.1-.1.2-.1.3-.2.1-.1.4-.2.8-.3.4-.1.8-.2,1.3-.2.5-.1,1.1-.1,1.6-.1.6,0,1.2.1,1.8.2,1,.2,1.8.5,2.4.9.7.4,1.2.9,1.6,1.4s.6,1.1.7,1.8c.1.7.1,1.3-.1,2-.1.6-.3,1.2-.6,1.7s-.6,1.1-1.1,1.7-1.2,1.2-2,1.9c-.8.7-1.9,1.4-3.3,2.2l-2.7,1.7,7.3,1.7c.1,0,.2.1.2.1.1.1.1.2.1.3v.5c-.1.3-.2.6-.2.8h0Z"/>
      <path class="cls-2" d="m1117,413.1c0,.1-.1.2-.1.3-.1.1-.2.1-.3.1h-.6c-.3,0-.6-.1-1-.2-.6-.1-1.1-.2-1.3-.3s-.4-.2-.5-.3c-.1-.1-.2-.3-.2-.4l-3.8-10-1.8,8.8c0,.1-.1.2-.1.3-.1.1-.2.1-.3.1h-.6c-.2,0-.6-.1-.9-.1-.4-.1-.7-.2-.9-.2-.2-.1-.4-.2-.6-.2-.1-.1-.2-.2-.3-.3,0-.1-.1-.2,0-.3l3.6-17.5c0-.1.1-.2.1-.3.1-.1.2-.1.3-.1h.6c.2,0,.6.1.9.1.4.1.7.2.9.2s.4.2.6.2c.1.1.2.2.3.2,0,.1.1.2,0,.3l-1.6,7.9,7.1-6.8c.1-.1.2-.2.3-.3s.2-.1.4-.1h.6c.2,0,.6.1.9.2.4.1.7.2.9.2.2.1.4.2.6.2.1.1.2.2.3.3,0,.1.1.2,0,.3,0,.2-.1.3-.2.5s-.3.4-.7.7l-6.5,5.6,3.8,9.5c.1.4.2.7.2.9-.1.3-.1.5-.1.5h0Z"/>
      <path class="cls-2" d="m1131.3,414.7c0,.3-.1.5-.2.7s-.1.3-.2.5c-.1.1-.1.2-.2.2h-.3l-10.7-1.9c-.2,0-.4-.1-.5-.2s-.3-.2-.3-.3c-.1-.1-.1-.3-.1-.5s0-.5.1-.8.1-.6.2-.8c.1-.2.2-.4.3-.6.1-.2.2-.3.4-.5.1-.1.3-.3.6-.5l3.8-2.9c.8-.6,1.4-1.1,1.9-1.6s.9-.9,1.2-1.4c.3-.4.5-.8.7-1.2.2-.4.3-.7.3-1.1.1-.3.1-.6,0-.9s-.2-.6-.3-.8c-.2-.2-.4-.5-.7-.6-.3-.2-.6-.3-1-.4-.6-.1-1.1-.1-1.5,0-.5.1-.9.2-1.2.3s-.7.2-.9.3c-.2.1-.4.2-.6.1-.1,0-.2-.1-.2-.1,0,0-.1-.2-.1-.3v-.6c0-.2.1-.5.1-.8,0-.2.1-.4.1-.6,0-.1.1-.3.1-.4s.1-.2.2-.3c.1-.1.2-.2.3-.3s.4-.2.7-.3c.4-.1.8-.2,1.3-.3.5-.1,1-.1,1.6-.2.6,0,1.2,0,1.8.1,1,.2,1.8.4,2.5.8s1.2.8,1.6,1.3.7,1.1.8,1.7c.1.6.1,1.3,0,2-.1.6-.3,1.2-.5,1.8-.2.6-.6,1.2-1.1,1.8-.5.6-1.1,1.3-1.9,2s-1.9,1.5-3.1,2.4l-2.6,1.9,7.4,1.3c.1,0,.2.1.3.1.1.1.1.2.2.3,0,.1.1.3,0,.5s-.3.8-.3,1.1h0Z"/>
      <path class="cls-2" d="m1147.3,413.2c-.1.5-.2.9-.3,1.1s-.3.3-.5.3l-1.7-.2-.5,3.4c0,.1-.1.2-.1.2-.1.1-.2.1-.3.1h-.6c-.2,0-.5,0-.9-.1-.3-.1-.6-.1-.9-.2-.2-.1-.4-.1-.5-.2s-.2-.1-.3-.2c0-.1-.1-.2,0-.3l.5-3.4-7.2-1.1c-.1,0-.3-.1-.4-.1-.1-.1-.2-.1-.2-.3-.1-.1-.1-.3-.1-.5s0-.5.1-.9c0-.3.1-.6.1-.8s.1-.4.2-.6.1-.3.2-.5.2-.3.3-.5l7.4-9.4c.1-.1.2-.1.3-.2.1,0,.3-.1.5-.1h.8c.3,0,.7.1,1.2.1.5.1.9.1,1.3.2.3.1.6.2.8.2.2.1.3.2.4.3.1.1.1.2.1.3l-1.7,11.3,1.7.3c.2,0,.3.2.3.4s.1.8,0,1.4h0Zm-4.3-11.1h0l-6.3,7.9,5,.7,1.3-8.6Z"/>
      <path class="cls-2" d="m1162.3,403c0,.3-.1.5-.1.7s-.1.3-.2.5c-.1.1-.1.2-.2.2s-.2.1-.2.1l-6.1-.8-.6,5.1,5.8.7c.1,0,.2,0,.2.1.07.07.13.17.2.3,0,.1.1.3.1.5s0,.4-.1.7c0,.3-.1.5-.1.7s-.1.3-.2.5c-.1.1-.1.2-.2.2s-.2.1-.2,0l-5.8-.7-.9,7c0,.1-.1.2-.1.3-.1.1-.2.1-.3.2-.2,0-.4.1-.6,0-.2,0-.6,0-.9-.1-.4,0-.7-.1-.9-.2-.2-.1-.4-.1-.6-.2-.1-.1-.2-.2-.3-.2-.1-.1-.1-.2-.1-.3l2.1-17c.1-.4.2-.7.4-.9.2-.2.5-.2.8-.2l8.9,1.1c.1,0,.2,0,.2.1.1.1.1.2.1.3s.1.3.1.5c-.1.3-.1.5-.2.8h0Z"/>
      <path class="cls-2" d="m1167.1,420.5c0,.1-.1.2-.1.3-.1.1-.2.1-.3.2-.2,0-.3.1-.6.1-.2,0-.6,0-.9-.1-.4,0-.7-.1-.9-.1s-.4-.1-.6-.2c-.1-.1-.2-.1-.3-.2-.1-.1-.1-.2-.1-.3l1.9-17.8c0-.1.1-.2.1-.3.1-.1.2-.1.3-.2s.4-.1.6-.1.6,0,.9.1c.4,0,.7.1.9.1.2.1.4.1.6.2.1.1.2.1.3.2.1.1.1.2.1.3l-1.9,17.8Z"/>
      <path class="cls-2" d="m1185.2,405.2c0,.3-.1.5-.1.7s-.1.4-.2.5-.1.2-.2.3c-.1.1-.2.1-.2.1l-4.7-.4-1.4,15.2c0,.1,0,.2-.1.3-.1.1-.2.1-.3.2-.1,0-.4.1-.6.1h-.9c-.4,0-.7-.1-.9-.1s-.4-.1-.6-.2c-.1-.1-.2-.1-.3-.2-.1-.1-.1-.2-.1-.3l1.4-15.2-4.7-.4c-.1,0-.2,0-.2-.1-.1-.1-.1-.2-.2-.3,0-.1-.1-.3-.1-.5v-.7c0-.3.1-.5.1-.7s.1-.4.2-.5.1-.2.2-.2.2-.1.3-.1l13.3,1.2c.1,0,.2,0,.2.1.1.1.1.2.2.3,0,.1.1.3.1.5-.2-.1-.2.2-.2.4h0Z"/>
      <path class="cls-2" d="m1204,418.1c-.1,1-.3,1.9-.7,2.6s-.9,1.3-1.6,1.8-1.4.8-2.3,1-1.8.3-2.7.2c-.7,0-1.3-.1-1.8-.3-.6-.1-1-.3-1.5-.5-.4-.2-.8-.4-1-.5-.3-.2-.5-.3-.6-.5-.1-.1-.2-.3-.2-.6v-1c0-.3,0-.6.1-.8,0-.2.1-.4.1-.5.1-.1.1-.2.2-.3.1,0,.2-.1.3-.1s.3.1.6.3c.2.2.5.4.9.6s.8.4,1.4.6c.5.2,1.2.3,1.9.3.5,0,.9,0,1.3-.1s.7-.2,1-.4c.3-.2.5-.4.6-.7.2-.3.2-.6.3-1,0-.4-.1-.8-.3-1.1-.2-.3-.5-.6-.9-.9s-.8-.5-1.2-.7c-.5-.2-.9-.5-1.4-.7-.5-.3-1-.6-1.4-.9-.5-.3-.9-.7-1.2-1.1-.4-.4-.6-.9-.8-1.5-.2-.6-.3-1.3-.2-2.1,0-.9.3-1.7.6-2.4.4-.7.9-1.2,1.5-1.6s1.3-.7,2.1-.9,1.6-.2,2.5-.2c.4,0,.9.1,1.3.2s.9.2,1.2.3c.4.1.7.3,1,.5s.5.3.6.4.2.2.2.3.1.2.1.3v1c0,.3,0,.5-.1.7s-.1.4-.1.5-.1.2-.2.3c-.1.1-.2.1-.3.1s-.3-.1-.5-.2c-.2-.2-.5-.3-.8-.5s-.7-.3-1.2-.5c-.4-.2-.9-.2-1.5-.3-.4,0-.8,0-1.1.1-.3.1-.6.2-.8.4-.2.2-.4.4-.5.6s-.2.5-.2.8c0,.4.1.8.3,1.1.2.3.5.6.9.9s.8.5,1.3.7,1,.5,1.5.7,1,.6,1.4.9c.5.3.9.7,1.2,1.1.4.4.6.9.8,1.5-.1.7,0,1.3-.1,2.1h0Z"/>
      <path class="cls-2" d="m1210.4,423.5c0,.1,0,.2-.1.3-.1.1-.2.1-.3.2s-.3.1-.6.1h-.9c-.4,0-.7,0-.9-.1-.2,0-.4-.1-.6-.1s-.2-.1-.3-.2c-.1-.1-.1-.2-.1-.3l.7-17.9c0-.1,0-.2.1-.3.1-.1.2-.1.3-.2.2,0,.4-.1.6-.1h.9c.4,0,.7,0,.9.1.2,0,.4.1.6.1s.2.1.3.2c.1.1.1.2.1.3l-.7,17.9Z"/>
      <path class="cls-2" d="m1228,423c.2.3.3.6.3.8s0,.4-.1.5-.3.2-.6.2h-2.4c-.3,0-.5-.1-.6-.1-.2,0-.3-.1-.3-.2-.1-.1-.1-.2-.2-.3l-3.4-6.9-3.7,6.8c-.1.1-.1.2-.2.3-.1.1-.2.1-.3.2-.2,0-.4.1-.6.1h-1.1c-.5,0-.9,0-1.2-.1-.3,0-.5-.1-.6-.2s-.1-.3,0-.5.2-.5.4-.8l4.7-8.2-4.1-7.9c-.2-.4-.3-.6-.3-.8-.1-.2,0-.4.1-.5s.3-.2.6-.2h2.4c.3,0,.5.1.6.1.2,0,.3.1.3.2.1.1.1.2.2.3l3.2,6.3,3.4-6.2c.1-.1.1-.2.2-.3.1-.1.2-.1.3-.2.1,0,.3-.1.6-.1h1c.5,0,.9,0,1.2.1.3,0,.5.1.6.2s.1.3.1.5-.2.5-.3.8l-4.4,7.7,4.2,8.4h0Z"/>
      <path class="cls-2" d="m1242.1,422.8v.7c0,.2-.1.3-.1.5,0,.1-.1.2-.2.3-.1.1-.2.1-.2.1h-9.5c-.3,0-.6-.1-.8-.3-.2-.2-.3-.5-.3-.9l-.1-16.5c0-.4.1-.7.3-.9.2-.2.5-.3.8-.3h9.5c.1,0,.2,0,.2.1.1,0,.1.1.2.3,0,.1.1.3.1.5v1.4c0,.2-.1.3-.1.5,0,.1-.1.2-.2.3-.07.07-.13.1-.2.1h-6.8v4.6h5.7c.1,0,.2,0,.2.1l.2.2c0,.1.1.3.1.5v1.4c0,.2-.1.3-.1.4s-.1.2-.2.2-.2.1-.2.1h-5.7v5.3h6.8c.1,0,.2,0,.2.1.07.07.13.17.2.3,0,.1.1.3.1.5.1-.1.1.1.1.4h0Z"/>
      <path class="cls-2" d="m1256.2,418.3c0,1-.1,1.9-.5,2.6-.4.8-.8,1.4-1.5,1.9-.6.5-1.4.9-2.2,1.2-.8.3-1.7.4-2.7.5-.7,0-1.3,0-1.8-.1-.6-.1-1.1-.2-1.5-.3-.4-.1-.8-.3-1.1-.4-.3-.2-.5-.3-.6-.4s-.2-.3-.3-.5c-.1-.2-.1-.6-.1-1v-.8c0-.2,0-.4.1-.5,0-.1.1-.2.2-.3.1-.1.2-.1.3-.1s.3.1.6.2c.3.2.6.3,1,.5s.9.4,1.4.5,1.2.2,1.9.2c.5,0,.9-.1,1.3-.2s.7-.3.9-.5c.3-.2.4-.5.6-.8.1-.3.2-.6.2-1s-.1-.8-.4-1.1c-.2-.3-.6-.6-.9-.8-.4-.2-.8-.4-1.3-.6s-1-.4-1.5-.6-1-.5-1.5-.8-.9-.6-1.3-1-.7-.9-1-1.4c-.2-.6-.4-1.2-.4-2,0-.9.1-1.7.4-2.4.3-.7.8-1.3,1.3-1.8.6-.5,1.2-.8,2-1.1.8-.2,1.6-.4,2.5-.4.4,0,.9,0,1.3.1.5.1.9.1,1.3.2s.7.2,1.1.4.5.3.6.3l.2.2s.1.2.1.3,0,.3.1.4v1.3c0,.2,0,.4-.1.5,0,.1-.1.2-.1.3-.07.07-.17.1-.3.1-.1,0-.3-.1-.5-.2s-.5-.3-.9-.4c-.3-.2-.7-.3-1.2-.4s-.9-.2-1.5-.2c-.4,0-.8.1-1.1.2-.3.1-.6.3-.8.4-.2.2-.4.4-.5.7-.1.3-.1.5-.1.8,0,.4.1.8.4,1.1.2.3.6.6.9.8.4.2.8.4,1.3.6s1,.4,1.5.6,1,.5,1.5.8.9.6,1.3,1,.7.9,1,1.4c.3.6.4,1.2.4,2h0Z"/>
      <path class="cls-2" d="m1277.7,421.3v.7c0,.2,0,.4-.1.5,0,.1-.1.2-.2.3-.1.1-.2.1-.3.1l-10.9.6h-.6c-.2,0-.3-.1-.4-.2s-.2-.3-.2-.5c-.1-.2-.1-.5-.1-.8v-.8c0-.2.1-.4.1-.6.1-.2.2-.4.3-.5.1-.2.3-.4.4-.6l3.1-3.7c.6-.7,1.1-1.4,1.5-2s.6-1.1.8-1.6c.2-.5.3-.9.4-1.3s.1-.8.1-1.1-.1-.6-.2-.9-.3-.5-.5-.7-.5-.4-.8-.5-.7-.1-1.1-.1c-.6,0-1.1.1-1.5.3-.4.2-.8.4-1.1.6-.3.2-.6.4-.8.5-.2.2-.4.2-.5.3-.1,0-.2,0-.2-.1-.07-.07-.13-.17-.2-.3-.1-.2-.1-.3-.1-.5s-.1-.5-.1-.8v-1c0-.1.1-.2.1-.3s.1-.2.2-.3c.1-.1.3-.3.6-.5s.7-.4,1.2-.6,1-.4,1.6-.5c.6-.2,1.2-.2,1.8-.3,1-.1,1.9,0,2.6.2.8.2,1.4.5,1.9.9s.9.9,1.2,1.5c.3.6.4,1.2.5,1.9,0,.6,0,1.2-.1,1.8-.1.6-.3,1.3-.6,2-.3.7-.8,1.5-1.4,2.4s-1.5,1.9-2.5,3.1l-2.1,2.4,7.5-.4c.1,0,.2,0,.3.1s.2.1.2.3c.1.1.1.3.2.5v.5h0Z"/>
      <path class="cls-2" d="m1294.7,421c0,.1,0,.2-.1.3s-.1.2-.3.2c-.1.1-.3.1-.6.2s-.6.1-1,.1c-.6.1-1.1.1-1.4,0-.3,0-.5-.1-.6-.2s-.2-.2-.3-.3l-6.4-8.5.7,9c0,.1,0,.2-.1.3-.1.1-.1.2-.3.2s-.3.1-.6.2-.6.1-.9.1h-.9c-.2,0-.5,0-.6-.1-.2,0-.3-.1-.3-.2-.1-.1-.1-.2-.1-.3l-1.4-17.8c0-.1,0-.2.1-.3.1-.1.2-.2.3-.2.1-.1.3-.1.6-.2.2,0,.6-.1.9-.1h.9c.2,0,.4,0,.6.1.2,0,.3.1.3.2.1.1.1.2.1.3l.7,8,4.9-8.5c.1-.1.1-.2.2-.3.1-.1.2-.2.4-.2.2-.1.3-.1.6-.2s.6-.1.9-.1h1c.3,0,.5,0,.6.1.2,0,.3.1.3.2.1.1.1.2.1.3,0,.2,0,.3-.1.5s-.2.5-.4.9l-4.6,7.2,6.3,8.1c.2.4.4.6.5.8v.2h0Z"/>
      <path class="cls-2" d="m1309,418.5v.7c0,.2,0,.4-.1.5s-.1.2-.2.3c-.1.1-.2.1-.3.1l-10.8,1.1h-.6c-.2,0-.3-.1-.4-.2s-.2-.3-.3-.5c-.1-.2-.1-.5-.2-.8v-.8c0-.2,0-.4.1-.6s.1-.4.2-.6.2-.4.4-.6l2.9-3.8c.6-.7,1-1.4,1.4-2,.3-.6.6-1.1.8-1.6.2-.5.3-.9.3-1.3v-1.1c0-.3-.1-.6-.2-.9s-.3-.5-.5-.7-.5-.3-.8-.4-.7-.1-1.1-.1c-.6.1-1.1.2-1.5.4-.4.2-.8.4-1.1.6-.3.2-.6.4-.8.6-.2.2-.4.3-.5.3s-.2,0-.2-.1c-.07-.07-.13-.17-.2-.3-.1-.1-.1-.3-.2-.5,0-.2-.1-.5-.1-.8v-1c0-.1,0-.2.1-.3,0-.1.1-.2.2-.3s.3-.3.6-.5.7-.4,1.1-.7c.5-.2,1-.4,1.5-.6.6-.2,1.2-.3,1.8-.4,1-.1,1.9-.1,2.6.1.8.2,1.4.5,1.9.8.5.4.9.9,1.2,1.5.3.6.5,1.2.6,1.9.1.6.1,1.2,0,1.8-.1.6-.2,1.3-.5,2s-.7,1.5-1.3,2.4c-.6.9-1.4,2-2.4,3.2l-2,2.5,7.4-.8c.1,0,.2,0,.3.1.1,0,.2.1.2.2.1.1.1.3.2.5.4.2.4.4.5.7h0Z"/>
      <path class="cls-2" d="m1324,412.7c.1.5.1.9,0,1.1-.1.3-.2.4-.4.4l-1.7.2.4,3.4c0,.1,0,.2-.1.3,0,.1-.1.2-.3.2-.1.1-.3.1-.6.2-.2.1-.5.1-.9.2-.3,0-.6.1-.9.1h-.6c-.1,0-.3-.1-.3-.1-.07-.07-.1-.13-.1-.2l-.4-3.4-7.2.9h-.4c-.1,0-.2-.1-.3-.2-.1-.1-.2-.3-.2-.5s-.1-.5-.2-.9c0-.3-.1-.6-.1-.8v-.6c0-.2,0-.4.1-.5s.1-.4.2-.6l4.5-11c0-.1.1-.2.2-.3.1-.1.3-.2.5-.2.2-.1.5-.1.8-.2s.7-.1,1.2-.2.9-.1,1.3-.1h.9c.2,0,.4.1.5.1s.2.2.2.3l1.4,11.3,1.7-.2c.2,0,.3.1.4.3.2.1.3.4.4,1h0Zm-7.2-9.4h0l-3.9,9.3,5-.6-1.1-8.7h0Z"/>
      <path class="cls-2" d="m1335.8,398.9c0,.3.1.5.1.7v.5c0,.1-.1.2-.1.3-.07.07-.13.1-.2.1l-6.1.9.7,5,5.8-.9h.2c.1,0,.1.1.2.2s.1.3.2.4.1.4.1.7.1.5.1.7v.5c0,.1-.1.2-.1.3-.07.07-.13.1-.2.1l-5.8.9,1,7v.3c0,.1-.1.2-.3.2-.1.1-.3.1-.6.2-.2.1-.5.1-.9.2s-.7.1-.9.1h-.6c-.2,0-.3-.1-.3-.2-.1-.1-.1-.2-.1-.3l-2.5-17c-.1-.4,0-.7.2-1,.2-.2.4-.4.8-.4l8.8-1.3h.2c.1,0,.1.1.2.2s.1.3.2.5c-.2.6-.2.8-.1,1.1h0Z"/>
      <path class="cls-2" d="m1345.1,414.4c0,.1,0,.2-.1.3,0,.1-.1.2-.3.2-.1.1-.3.1-.6.2-.2.1-.5.1-.9.2s-.7.1-.9.1h-.6c-.2,0-.3-.1-.3-.1-.07-.07-.1-.13-.1-.2l-3-17.7c0-.1,0-.2.1-.3,0-.1.1-.2.3-.2s.3-.1.6-.2c.2-.1.5-.1.9-.2s.7-.1.9-.1h.6c.2,0,.3.1.3.1.07.07.1.13.1.2l3,17.7Z"/>
      <path class="cls-2" d="m1358.5,394.9c.1.3.1.5.1.7v.5c0,.1-.1.2-.1.3-.07.07-.13.1-.2.1l-4.7.8,2.7,15v.3c0,.1-.1.2-.3.2-.1.1-.3.1-.6.2-.2.1-.5.1-.9.2s-.7.1-.9.1h-.6c-.2,0-.3-.1-.3-.1-.07-.07-.1-.13-.1-.2l-2.7-15-4.7.8h-.3c-.1,0-.2-.1-.2-.2-.1-.1-.1-.3-.2-.5s-.1-.4-.2-.7c-.1-.3-.1-.5-.1-.7v-.5c0-.1.1-.2.1-.3.07-.07.13-.1.2-.1l13.1-2.4h.3c.1,0,.2.1.2.2.1.1.1.3.2.5.1.3.1.6.2.8h0Z"/>
      <path class="cls-2" d="m1380.1,402.4c.2,1,.2,1.9,0,2.7s-.6,1.5-1.1,2.2c-.5.6-1.2,1.2-1.9,1.6-.8.4-1.6.7-2.6.9-.6.1-1.2.2-1.8.2s-1.1,0-1.5-.1c-.5-.1-.8-.1-1.2-.2s-.5-.2-.7-.3-.3-.3-.4-.5-.2-.6-.3-1c-.1-.3-.1-.5-.1-.8v-.5c0-.1.1-.2.1-.3.07-.07.13-.1.2-.1.1,0,.3,0,.6.1.3.1.6.2,1,.3.4.1.9.2,1.5.2s1.2,0,1.9-.2c.5-.1.9-.2,1.2-.4.3-.2.6-.4.8-.7s.4-.5.4-.9c.1-.3.1-.7,0-1-.1-.4-.3-.8-.6-1s-.6-.5-1.1-.6c-.4-.2-.9-.3-1.4-.4s-1-.2-1.6-.3c-.5-.1-1.1-.3-1.6-.5s-1-.5-1.5-.8-.9-.7-1.2-1.2c-.3-.5-.6-1.1-.8-1.9-.2-.9-.2-1.7,0-2.4.2-.7.5-1.4,1-2s1.1-1,1.8-1.4c.7-.4,1.5-.7,2.3-.8.4-.1.9-.2,1.3-.2h1.3c.4,0,.8.1,1.1.2.3.1.5.2.7.2.1.1.2.1.2.2s.1.1.1.2.1.2.1.4.1.4.1.6c.1.3.1.5.1.7v.5c0,.1,0,.2-.1.3-.07.07-.13.1-.2.1-.1,0-.3,0-.5-.1-.3-.1-.6-.2-.9-.3-.4-.1-.8-.1-1.3-.2-.5,0-1,0-1.5.1-.4.1-.8.2-1,.4-.3.2-.5.4-.7.6s-.3.5-.3.7v.8c.1.4.3.7.6,1,.3.3.6.5,1.1.6.4.2.9.3,1.4.4s1.1.2,1.6.3c.5.1,1.1.3,1.6.5s1,.4,1.5.8c.5.3.9.7,1.2,1.2.7.7.9,1.3,1.1,2.1h0Z"/>
      <path class="cls-2" d="m1387.7,405.9v.3c0,.1-.1.2-.3.3s-.3.2-.5.2c-.2.1-.5.2-.9.3-.4.1-.7.1-.9.2h-.6c-.2,0-.3-.1-.3-.1l-.2-.2-4-17.4v-.3c0-.1.1-.2.3-.3.1-.1.3-.2.6-.2.2-.1.5-.2.9-.2.4-.1.7-.1.9-.2s.4,0,.6,0,.3.1.3.1l.2.2,3.9,17.3h0Z"/>
      <path class="cls-2" d="m1404.5,400.9c.3.3.4.5.5.7s.1.3,0,.5-.3.3-.6.4-.7.2-1.2.4c-.4.1-.8.2-1.1.2s-.5.1-.6.1c-.2,0-.3,0-.4-.1s-.2-.1-.2-.2l-5.1-5.8-1.8,7.5c0,.1-.1.2-.1.3s-.1.2-.3.3c-.1.1-.3.2-.6.2-.3.1-.6.2-1,.3-.5.1-.9.2-1.2.2s-.5,0-.6-.1-.2-.2-.2-.4.1-.5.2-.9l2.4-9.1-6-6.5c-.3-.3-.4-.5-.6-.7-.1-.2-.1-.3,0-.5.1-.1.3-.2.6-.3.3-.1.7-.2,1.2-.3.4-.1.8-.2,1.1-.2s.5-.1.6-.1c.2,0,.3,0,.4.1s.2.1.2.2l4.7,5.3,1.6-6.9c0-.1.1-.2.1-.3s.1-.2.3-.3c.1-.1.3-.2.5-.2.2-.1.6-.2,1-.3.5-.1.9-.2,1.1-.2h.6c.1.1.2.2.2.4s0,.5-.1.9l-2.2,8.5,6.6,6.9Z"/>
      <path class="cls-2" d="m1418.1,397.1c.1.3.1.5.2.7v.5c0,.1-.1.2-.1.3-.07.07-.13.1-.2.1l-9.2,2.5c-.3.1-.6.1-.9-.1-.3-.1-.5-.4-.6-.8l-4.4-15.9c-.1-.4-.1-.7.1-1,.2-.2.4-.4.7-.5l9.1-2.5h.2s.2.1.2.2c.1.1.2.2.2.4.1.2.2.4.2.7.1.3.1.5.1.7v.5c0,.1,0,.2-.1.3-.07.07-.13.1-.2.1l-6.5,1.8,1.2,4.5,5.5-1.5h.3c.1,0,.2.1.2.2s.2.2.2.4c.1.2.1.4.2.7.1.3.1.5.2.7v.5c0,.1-.1.2-.1.3-.07.07-.13.1-.2.1l-5.5,1.5,1.4,5.2,6.6-1.8h.3c.1,0,.2.1.2.2.1.1.2.2.2.4.3.1.4.3.5.6h0Z"/>
      <path class="cls-2" d="m1430.5,389c.3,1,.4,1.8.2,2.7-.1.8-.4,1.6-.9,2.2-.5.7-1.1,1.2-1.8,1.7-.7.5-1.6.9-2.5,1.2-.6.2-1.2.3-1.8.4-.6.1-1.1.1-1.5.1-.5,0-.8-.1-1.2-.1-.3-.1-.6-.2-.7-.2s-.3-.2-.4-.4c-.1-.2-.2-.5-.4-1-.1-.3-.2-.5-.2-.7s-.1-.4-.1-.5,0-.2.1-.3.1-.1.2-.2c.1,0,.3,0,.6.1.3.1.6.2,1.1.2.4.1.9.1,1.5.1s1.2-.1,1.9-.3c.4-.1.8-.3,1.2-.5.3-.2.6-.5.8-.7.2-.3.3-.6.3-.9s0-.7-.1-1c-.1-.4-.3-.7-.7-1-.3-.2-.7-.4-1.1-.5s-.9-.2-1.4-.3c-.5-.1-1.1-.1-1.6-.2-.6-.1-1.1-.2-1.6-.3-.5-.1-1.1-.4-1.5-.7-.5-.3-.9-.7-1.3-1.1-.4-.5-.7-1.1-.9-1.8-.3-.9-.3-1.7-.2-2.4.1-.8.4-1.4.8-2s1-1.1,1.6-1.6c.7-.4,1.4-.8,2.3-1,.4-.1.9-.2,1.3-.3.5-.1.9-.1,1.3-.1s.8,0,1.1.1c.3.1.6.1.7.2s.2.1.3.2l.2.2c.1.1.1.2.2.4.1.2.1.4.2.6.1.3.1.5.2.7,0,.2.1.4.1.5s0,.2-.1.3c0,.1-.1.1-.2.2h-.5c-.3-.1-.6-.1-1-.2s-.8-.1-1.3-.1-1,.1-1.5.2c-.4.1-.7.3-1,.5s-.5.4-.6.6-.2.5-.3.8,0,.5.1.8c.1.4.3.7.6.9.3.2.7.4,1.1.5s.9.2,1.4.3c.5.1,1.1.1,1.6.2s1.1.2,1.7.3c.6.1,1.1.4,1.6.6.5.3.9.7,1.3,1.1s.6.8.8,1.5h0Z"/>
    </g>
    <path class="cls-1" d="m1439.9,298.06c-198.55,155.66-500.39-8.38-557.4-34.86-5.62-2.61-19.37-11.05-24.74-14.14-133.28-76.55-223.56-39.25-223.56-39.25-137.72,26.8-204.01,29.5-216.18,27.31-2.13-.38-4.27-.66-6.42-.9C251.38,218.37,114.6,95.91,61.24,41.79c-5.72-5.81-13.25-16.93-20.24-20.85C28.27,13.8,14.87,16.17,0,16.17h0"/>
  </g>
</svg>